<?xml version="1.0" encoding="us-ascii" standalone="no"?><svg xmlns="http://www.w3.org/2000/svg" xmlns:xlink="http://www.w3.org/1999/xlink" contentStyleType="text/css" height="1205px" preserveAspectRatio="none" style="width:1928px;height:1205px;background:#FFFFFF;" version="1.1" viewBox="0 0 1928 1205" width="1928px" zoomAndPan="magnify"><defs/><g><!--cluster com--><g id="cluster_com"><path d="M8.5,470 L38.5,470 A3.75,3.75 0 0 1 41,472.5 L48,493.6094 L1918.5,493.6094 A2.5,2.5 0 0 1 1921,496.1094 L1921,1196.47 A2.5,2.5 0 0 1 1918.5,1198.97 L8.5,1198.97 A2.5,2.5 0 0 1 6,1196.47 L6,472.5 A2.5,2.5 0 0 1 8.5,470 " fill="none" style="stroke:#000000;stroke-width:1.5;"/><line style="stroke:#000000;stroke-width:1.5;" x1="6" x2="48" y1="493.6094" y2="493.6094"/><text fill="#000000" font-family="sans-serif" font-size="14" font-weight="bold" lengthAdjust="spacing" textLength="29" x="10" y="486.5332">com</text></g><!--cluster project--><g id="cluster_project"><path d="M32.5,514 L83.5,514 A3.75,3.75 0 0 1 86,516.5 L93,537.6094 L1894.5,537.6094 A2.5,2.5 0 0 1 1897,540.1094 L1897,1172.47 A2.5,2.5 0 0 1 1894.5,1174.97 L32.5,1174.97 A2.5,2.5 0 0 1 30,1172.47 L30,516.5 A2.5,2.5 0 0 1 32.5,514 " fill="none" style="stroke:#000000;stroke-width:1.5;"/><line style="stroke:#000000;stroke-width:1.5;" x1="30" x2="93" y1="537.6094" y2="537.6094"/><text fill="#000000" font-family="sans-serif" font-size="14" font-weight="bold" lengthAdjust="spacing" textLength="50" x="34" y="530.5332">project</text></g><!--cluster alfa--><g id="cluster_alfa"><path d="M56.5,558 L82.5,558 A3.75,3.75 0 0 1 85,560.5 L92,581.6094 L1870.5,581.6094 A2.5,2.5 0 0 1 1873,584.1094 L1873,1148.47 A2.5,2.5 0 0 1 1870.5,1150.97 L56.5,1150.97 A2.5,2.5 0 0 1 54,1148.47 L54,560.5 A2.5,2.5 0 0 1 56.5,558 " fill="none" style="stroke:#000000;stroke-width:1.5;"/><line style="stroke:#000000;stroke-width:1.5;" x1="54" x2="92" y1="581.6094" y2="581.6094"/><text fill="#000000" font-family="sans-serif" font-size="14" font-weight="bold" lengthAdjust="spacing" textLength="25" x="58" y="574.5332">alfa</text></g><!--cluster config--><g id="cluster_config"><path d="M80.5,602 L125.5,602 A3.75,3.75 0 0 1 128,604.5 L135,625.6094 L1846.5,625.6094 A2.5,2.5 0 0 1 1849,628.1094 L1849,1124.47 A2.5,2.5 0 0 1 1846.5,1126.97 L80.5,1126.97 A2.5,2.5 0 0 1 78,1124.47 L78,604.5 A2.5,2.5 0 0 1 80.5,602 " fill="none" style="stroke:#000000;stroke-width:1.5;"/><line style="stroke:#000000;stroke-width:1.5;" x1="78" x2="135" y1="625.6094" y2="625.6094"/><text fill="#000000" font-family="sans-serif" font-size="14" font-weight="bold" lengthAdjust="spacing" textLength="44" x="82" y="618.5332">config</text></g><!--cluster org--><g id="cluster_org"><path d="M1077.5,6 L1102.5,6 A3.75,3.75 0 0 1 1105,8.5 L1112,29.6094 L1804.5,29.6094 A2.5,2.5 0 0 1 1807,32.1094 L1807,443.5 A2.5,2.5 0 0 1 1804.5,446 L1077.5,446 A2.5,2.5 0 0 1 1075,443.5 L1075,8.5 A2.5,2.5 0 0 1 1077.5,6 " fill="none" style="stroke:#000000;stroke-width:1.5;"/><line style="stroke:#000000;stroke-width:1.5;" x1="1075" x2="1112" y1="29.6094" y2="29.6094"/><text fill="#000000" font-family="sans-serif" font-size="14" font-weight="bold" lengthAdjust="spacing" textLength="24" x="1079" y="22.5332">org</text></g><!--cluster springframework--><g id="cluster_springframework"><path d="M1101.5,50 L1221.5,50 A3.75,3.75 0 0 1 1224,52.5 L1231,73.6094 L1780.5,73.6094 A2.5,2.5 0 0 1 1783,76.1094 L1783,419.5 A2.5,2.5 0 0 1 1780.5,422 L1101.5,422 A2.5,2.5 0 0 1 1099,419.5 L1099,52.5 A2.5,2.5 0 0 1 1101.5,50 " fill="none" style="stroke:#000000;stroke-width:1.5;"/><line style="stroke:#000000;stroke-width:1.5;" x1="1099" x2="1231" y1="73.6094" y2="73.6094"/><text fill="#000000" font-family="sans-serif" font-size="14" font-weight="bold" lengthAdjust="spacing" textLength="119" x="1103" y="66.5332">springframework</text></g><!--cluster web--><g id="cluster_web"><path d="M1125.5,94 L1155.5,94 A3.75,3.75 0 0 1 1158,96.5 L1165,117.6094 L1450.5,117.6094 A2.5,2.5 0 0 1 1453,120.1094 L1453,395.5 A2.5,2.5 0 0 1 1450.5,398 L1125.5,398 A2.5,2.5 0 0 1 1123,395.5 L1123,96.5 A2.5,2.5 0 0 1 1125.5,94 " fill="none" style="stroke:#000000;stroke-width:1.5;"/><line style="stroke:#000000;stroke-width:1.5;" x1="1123" x2="1165" y1="117.6094" y2="117.6094"/><text fill="#000000" font-family="sans-serif" font-size="14" font-weight="bold" lengthAdjust="spacing" textLength="29" x="1127" y="110.5332">web</text></g><!--cluster servlet--><g id="cluster_servlet"><path d="M1149.5,138 L1200.5,138 A3.75,3.75 0 0 1 1203,140.5 L1210,161.6094 L1426.5,161.6094 A2.5,2.5 0 0 1 1429,164.1094 L1429,371.5 A2.5,2.5 0 0 1 1426.5,374 L1149.5,374 A2.5,2.5 0 0 1 1147,371.5 L1147,140.5 A2.5,2.5 0 0 1 1149.5,138 " fill="none" style="stroke:#000000;stroke-width:1.5;"/><line style="stroke:#000000;stroke-width:1.5;" x1="1147" x2="1210" y1="161.6094" y2="161.6094"/><text fill="#000000" font-family="sans-serif" font-size="14" font-weight="bold" lengthAdjust="spacing" textLength="50" x="1151" y="154.5332">servlet</text></g><!--cluster config--><g id="cluster_config"><path d="M1173.5,182 L1218.5,182 A3.75,3.75 0 0 1 1221,184.5 L1228,205.6094 L1402.5,205.6094 A2.5,2.5 0 0 1 1405,208.1094 L1405,347.5 A2.5,2.5 0 0 1 1402.5,350 L1173.5,350 A2.5,2.5 0 0 1 1171,347.5 L1171,184.5 A2.5,2.5 0 0 1 1173.5,182 " fill="none" style="stroke:#000000;stroke-width:1.5;"/><line style="stroke:#000000;stroke-width:1.5;" x1="1171" x2="1228" y1="205.6094" y2="205.6094"/><text fill="#000000" font-family="sans-serif" font-size="14" font-weight="bold" lengthAdjust="spacing" textLength="44" x="1175" y="198.5332">config</text></g><!--cluster annotation--><g id="cluster_annotation"><path d="M1197.5,226 L1273.5,226 A3.75,3.75 0 0 1 1276,228.5 L1283,249.6094 L1378.5,249.6094 A2.5,2.5 0 0 1 1381,252.1094 L1381,323.5 A2.5,2.5 0 0 1 1378.5,326 L1197.5,326 A2.5,2.5 0 0 1 1195,323.5 L1195,228.5 A2.5,2.5 0 0 1 1197.5,226 " fill="none" style="stroke:#000000;stroke-width:1.5;"/><line style="stroke:#000000;stroke-width:1.5;" x1="1195" x2="1283" y1="249.6094" y2="249.6094"/><text fill="#000000" font-family="sans-serif" font-size="14" font-weight="bold" lengthAdjust="spacing" textLength="75" x="1199" y="242.5332">annotation</text></g><!--cluster cache--><g id="cluster_cache"><path d="M1479.5,182 L1522.5,182 A3.75,3.75 0 0 1 1525,184.5 L1532,205.6094 L1756.5,205.6094 A2.5,2.5 0 0 1 1759,208.1094 L1759,347.5 A2.5,2.5 0 0 1 1756.5,350 L1479.5,350 A2.5,2.5 0 0 1 1477,347.5 L1477,184.5 A2.5,2.5 0 0 1 1479.5,182 " fill="none" style="stroke:#000000;stroke-width:1.5;"/><line style="stroke:#000000;stroke-width:1.5;" x1="1477" x2="1532" y1="205.6094" y2="205.6094"/><text fill="#000000" font-family="sans-serif" font-size="14" font-weight="bold" lengthAdjust="spacing" textLength="42" x="1481" y="198.5332">cache</text></g><!--cluster annotation--><g id="cluster_annotation"><path d="M1503.5,226 L1579.5,226 A3.75,3.75 0 0 1 1582,228.5 L1589,249.6094 L1732.5,249.6094 A2.5,2.5 0 0 1 1735,252.1094 L1735,323.5 A2.5,2.5 0 0 1 1732.5,326 L1503.5,326 A2.5,2.5 0 0 1 1501,323.5 L1501,228.5 A2.5,2.5 0 0 1 1503.5,226 " fill="none" style="stroke:#000000;stroke-width:1.5;"/><line style="stroke:#000000;stroke-width:1.5;" x1="1501" x2="1589" y1="249.6094" y2="249.6094"/><text fill="#000000" font-family="sans-serif" font-size="14" font-weight="bold" lengthAdjust="spacing" textLength="75" x="1505" y="242.5332">annotation</text></g><!--class RedisConfig--><g id="elem_RedisConfig"><rect codeLine="1" fill="#F1F1F1" height="153.6563" id="RedisConfig" rx="2.5" ry="2.5" style="stroke:#181818;stroke-width:0.5;" width="347" x="93.5" y="638"/><ellipse cx="224.25" cy="654" fill="#ADD1B2" rx="11" ry="11" style="stroke:#181818;stroke-width:1.0;"/><path d="M226.25,650.5 Q226.4531,650 226.6875,649.75 Q226.9219,649.5 227.1875,649.5 Q227.6563,649.5 227.9531,649.7813 Q228.25,650.0625 228.25,650.7188 L228.25,652.2813 Q228.25,652.9375 227.9688,653.2188 Q227.6875,653.5 227.25,653.5 Q226.8594,653.5 226.6094,653.3281 Q226.3594,653.1563 226.25,652.7031 Q226.2031,652.3906 226.0313,652.2188 Q225.7188,651.8906 225.1563,651.7031 Q224.5938,651.5 224.0313,651.5 Q223.3281,651.5 222.7344,651.7813 Q222.1563,652.0625 221.7031,652.6875 Q221.25,653.3125 221.25,654.1719 L221.25,655.0938 Q221.25,656.125 222.0938,656.8125 Q222.9375,657.5 224.4375,657.5 Q225.3281,657.5 225.9531,657.2969 Q226.3125,657.1875 226.7188,656.8281 Q226.9844,656.625 227.125,656.5625 Q227.2656,656.5 227.4375,656.5 Q227.7656,656.5 228,656.7656 Q228.25,657.0156 228.25,657.375 Q228.25,657.7188 227.9063,658.125 Q227.4063,658.7188 226.6094,659.0469 Q225.5625,659.5 224.2813,659.5 Q222.7813,659.5 221.5781,658.9063 Q220.6094,658.4375 219.9219,657.4219 Q219.25,656.4063 219.25,655.2031 L219.25,654.1094 Q219.25,652.8594 219.8438,651.7656 Q220.4531,650.6719 221.5,650.0938 Q222.5625,649.5 223.75,649.5 Q224.4688,649.5 225.0938,649.75 Q225.7188,650 226.25,650.5 Z " fill="#000000"/><text fill="#000000" font-family="sans-serif" font-size="14" lengthAdjust="spacing" textLength="77" x="244.75" y="659.7285">RedisConfig</text><line style="stroke:#181818;stroke-width:0.5;" x1="94.5" x2="439.5" y1="670" y2="670"/><rect fill="none" height="6" style="stroke:#C82930;stroke-width:1.0;" width="6" x="101.5" y="681.3047"/><text fill="#000000" font-family="sans-serif" font-size="14" lengthAdjust="spacing" textLength="68" x="113.5" y="688.5332">String host</text><rect fill="none" height="6" style="stroke:#C82930;stroke-width:1.0;" width="6" x="101.5" y="698.9141"/><text fill="#000000" font-family="sans-serif" font-size="14" lengthAdjust="spacing" textLength="44" x="113.5" y="706.1426">int port</text><rect fill="none" height="6" style="stroke:#C82930;stroke-width:1.0;" width="6" x="101.5" y="716.5234"/><text fill="#000000" font-family="sans-serif" font-size="14" lengthAdjust="spacing" textLength="101" x="113.5" y="723.752">String password</text><line style="stroke:#181818;stroke-width:0.5;" x1="94.5" x2="439.5" y1="730.8281" y2="730.8281"/><ellipse cx="104.5" cy="745.1328" fill="#84BE84" rx="3" ry="3" style="stroke:#038048;stroke-width:1.0;"/><text fill="#000000" font-family="sans-serif" font-size="14" lengthAdjust="spacing" textLength="321" x="113.5" y="749.3613">RedisConnectionFactory redisConnectionFactory()</text><ellipse cx="104.5" cy="762.7422" fill="#84BE84" rx="3" ry="3" style="stroke:#038048;stroke-width:1.0;"/><text fill="#000000" font-family="sans-serif" font-size="14" lengthAdjust="spacing" textLength="297" x="113.5" y="766.9707">RedisTemplate&lt;String,Object&gt; redisTemplate()</text><ellipse cx="104.5" cy="780.3516" fill="#84BE84" rx="3" ry="3" style="stroke:#038048;stroke-width:1.0;"/><text fill="#000000" font-family="sans-serif" font-size="14" lengthAdjust="spacing" textLength="276" x="113.5" y="784.5801">StringRedisTemplate stringRedisTemplate()</text></g><!--class WebConfig--><g id="elem_WebConfig"><rect codeLine="11" fill="#F1F1F1" height="65.6094" id="WebConfig" rx="2.5" ry="2.5" style="stroke:#181818;stroke-width:0.5;" width="285" x="1125.5" y="682.02"/><ellipse cx="1228.75" cy="698.02" fill="#ADD1B2" rx="11" ry="11" style="stroke:#181818;stroke-width:1.0;"/><path d="M1230.75,694.52 Q1230.9531,694.02 1231.1875,693.77 Q1231.4219,693.52 1231.6875,693.52 Q1232.1563,693.52 1232.4531,693.8013 Q1232.75,694.0825 1232.75,694.7388 L1232.75,696.3013 Q1232.75,696.9575 1232.4688,697.2388 Q1232.1875,697.52 1231.75,697.52 Q1231.3594,697.52 1231.1094,697.3481 Q1230.8594,697.1763 1230.75,696.7231 Q1230.7031,696.4106 1230.5313,696.2388 Q1230.2188,695.9106 1229.6563,695.7231 Q1229.0938,695.52 1228.5313,695.52 Q1227.8281,695.52 1227.2344,695.8013 Q1226.6563,696.0825 1226.2031,696.7075 Q1225.75,697.3325 1225.75,698.1919 L1225.75,699.1138 Q1225.75,700.145 1226.5938,700.8325 Q1227.4375,701.52 1228.9375,701.52 Q1229.8281,701.52 1230.4531,701.3169 Q1230.8125,701.2075 1231.2188,700.8481 Q1231.4844,700.645 1231.625,700.5825 Q1231.7656,700.52 1231.9375,700.52 Q1232.2656,700.52 1232.5,700.7856 Q1232.75,701.0356 1232.75,701.395 Q1232.75,701.7388 1232.4063,702.145 Q1231.9063,702.7388 1231.1094,703.0669 Q1230.0625,703.52 1228.7813,703.52 Q1227.2813,703.52 1226.0781,702.9263 Q1225.1094,702.4575 1224.4219,701.4419 Q1223.75,700.4263 1223.75,699.2231 L1223.75,698.1294 Q1223.75,696.8794 1224.3438,695.7856 Q1224.9531,694.6919 1226,694.1138 Q1227.0625,693.52 1228.25,693.52 Q1228.9688,693.52 1229.5938,693.77 Q1230.2188,694.02 1230.75,694.52 Z " fill="#000000"/><text fill="#000000" font-family="sans-serif" font-size="14" lengthAdjust="spacing" textLength="70" x="1249.25" y="703.7485">WebConfig</text><line style="stroke:#181818;stroke-width:0.5;" x1="1126.5" x2="1409.5" y1="714.02" y2="714.02"/><line style="stroke:#181818;stroke-width:0.5;" x1="1126.5" x2="1409.5" y1="722.02" y2="722.02"/><ellipse cx="1136.5" cy="736.3247" fill="#84BE84" rx="3" ry="3" style="stroke:#038048;stroke-width:1.0;"/><text fill="#000000" font-family="sans-serif" font-size="14" lengthAdjust="spacing" textLength="259" x="1145.5" y="740.5532">void addInterceptors(InterceptorRegistry)</text></g><!--class ProjectConfig--><g id="elem_ProjectConfig"><rect codeLine="15" fill="#F1F1F1" height="136.0469" id="ProjectConfig" rx="2.5" ry="2.5" style="stroke:#181818;stroke-width:0.5;" width="407" x="475.5" y="646.81"/><ellipse cx="632.25" cy="662.81" fill="#ADD1B2" rx="11" ry="11" style="stroke:#181818;stroke-width:1.0;"/><path d="M634.25,659.31 Q634.4531,658.81 634.6875,658.56 Q634.9219,658.31 635.1875,658.31 Q635.6563,658.31 635.9531,658.5913 Q636.25,658.8725 636.25,659.5288 L636.25,661.0913 Q636.25,661.7475 635.9688,662.0288 Q635.6875,662.31 635.25,662.31 Q634.8594,662.31 634.6094,662.1381 Q634.3594,661.9663 634.25,661.5131 Q634.2031,661.2006 634.0313,661.0288 Q633.7188,660.7006 633.1563,660.5131 Q632.5938,660.31 632.0313,660.31 Q631.3281,660.31 630.7344,660.5913 Q630.1563,660.8725 629.7031,661.4975 Q629.25,662.1225 629.25,662.9819 L629.25,663.9038 Q629.25,664.935 630.0938,665.6225 Q630.9375,666.31 632.4375,666.31 Q633.3281,666.31 633.9531,666.1069 Q634.3125,665.9975 634.7188,665.6381 Q634.9844,665.435 635.125,665.3725 Q635.2656,665.31 635.4375,665.31 Q635.7656,665.31 636,665.5756 Q636.25,665.8256 636.25,666.185 Q636.25,666.5288 635.9063,666.935 Q635.4063,667.5288 634.6094,667.8569 Q633.5625,668.31 632.2813,668.31 Q630.7813,668.31 629.5781,667.7163 Q628.6094,667.2475 627.9219,666.2319 Q627.25,665.2163 627.25,664.0131 L627.25,662.9194 Q627.25,661.6694 627.8438,660.5756 Q628.4531,659.4819 629.5,658.9038 Q630.5625,658.31 631.75,658.31 Q632.4688,658.31 633.0938,658.56 Q633.7188,658.81 634.25,659.31 Z " fill="#000000"/><text fill="#000000" font-family="sans-serif" font-size="14" lengthAdjust="spacing" textLength="85" x="652.75" y="668.5385">ProjectConfig</text><line style="stroke:#181818;stroke-width:0.5;" x1="476.5" x2="881.5" y1="678.81" y2="678.81"/><rect fill="none" height="6" style="stroke:#C82930;stroke-width:1.0;" width="6" x="483.5" y="690.1147"/><text fill="#000000" font-family="sans-serif" font-size="14" lengthAdjust="spacing" textLength="241" x="495.5" y="697.3432">UserDetailsService userDetailsService</text><rect fill="none" height="6" style="stroke:#C82930;stroke-width:1.0;" width="6" x="483.5" y="707.7241"/><text fill="#000000" font-family="sans-serif" font-size="14" lengthAdjust="spacing" textLength="114" x="495.5" y="714.9526">EntityManager em</text><line style="stroke:#181818;stroke-width:0.5;" x1="476.5" x2="881.5" y1="722.0288" y2="722.0288"/><ellipse cx="486.5" cy="736.3334" fill="#84BE84" rx="3" ry="3" style="stroke:#038048;stroke-width:1.0;"/><text fill="#000000" font-family="sans-serif" font-size="14" lengthAdjust="spacing" textLength="241" x="495.5" y="740.562">PasswordEncoder passwordEncoder()</text><ellipse cx="486.5" cy="753.9428" fill="#84BE84" rx="3" ry="3" style="stroke:#038048;stroke-width:1.0;"/><text fill="#000000" font-family="sans-serif" font-size="14" lengthAdjust="spacing" textLength="322" x="495.5" y="758.1713">JPAQueryFactory jpaQueryFactory(EntityManager)</text><ellipse cx="486.5" cy="771.5522" fill="#84BE84" rx="3" ry="3" style="stroke:#038048;stroke-width:1.0;"/><text fill="#000000" font-family="sans-serif" font-size="14" lengthAdjust="spacing" textLength="381" x="495.5" y="775.7807">AuthenticationManager authenticationManager(HttpSecurity)</text></g><!--class AwsS3Config--><g id="elem_AwsS3Config"><rect codeLine="24" fill="#F1F1F1" height="118.4375" id="AwsS3Config" rx="2.5" ry="2.5" style="stroke:#181818;stroke-width:0.5;" width="173" x="917.5" y="655.61"/><ellipse cx="958.6" cy="671.61" fill="#ADD1B2" rx="11" ry="11" style="stroke:#181818;stroke-width:1.0;"/><path d="M960.6,668.11 Q960.8031,667.61 961.0375,667.36 Q961.2719,667.11 961.5375,667.11 Q962.0063,667.11 962.3031,667.3913 Q962.6,667.6725 962.6,668.3288 L962.6,669.8913 Q962.6,670.5475 962.3188,670.8288 Q962.0375,671.11 961.6,671.11 Q961.2094,671.11 960.9594,670.9381 Q960.7094,670.7663 960.6,670.3131 Q960.5531,670.0006 960.3813,669.8288 Q960.0688,669.5006 959.5063,669.3131 Q958.9438,669.11 958.3813,669.11 Q957.6781,669.11 957.0844,669.3913 Q956.5063,669.6725 956.0531,670.2975 Q955.6,670.9225 955.6,671.7819 L955.6,672.7038 Q955.6,673.735 956.4438,674.4225 Q957.2875,675.11 958.7875,675.11 Q959.6781,675.11 960.3031,674.9069 Q960.6625,674.7975 961.0688,674.4381 Q961.3344,674.235 961.475,674.1725 Q961.6156,674.11 961.7875,674.11 Q962.1156,674.11 962.35,674.3756 Q962.6,674.6256 962.6,674.985 Q962.6,675.3288 962.2563,675.735 Q961.7563,676.3288 960.9594,676.6569 Q959.9125,677.11 958.6313,677.11 Q957.1313,677.11 955.9281,676.5163 Q954.9594,676.0475 954.2719,675.0319 Q953.6,674.0163 953.6,672.8131 L953.6,671.7194 Q953.6,670.4694 954.1938,669.3756 Q954.8031,668.2819 955.85,667.7038 Q956.9125,667.11 958.1,667.11 Q958.8188,667.11 959.4438,667.36 Q960.0688,667.61 960.6,668.11 Z " fill="#000000"/><text fill="#000000" font-family="sans-serif" font-size="14" lengthAdjust="spacing" textLength="83" x="978.4" y="677.3385">AwsS3Config</text><line style="stroke:#181818;stroke-width:0.5;" x1="918.5" x2="1089.5" y1="687.61" y2="687.61"/><rect fill="none" height="6" style="stroke:#C82930;stroke-width:1.0;" width="6" x="925.5" y="698.9147"/><text fill="#000000" font-family="sans-serif" font-size="14" lengthAdjust="spacing" textLength="109" x="937.5" y="706.1432">String accessKey</text><rect fill="none" height="6" style="stroke:#C82930;stroke-width:1.0;" width="6" x="925.5" y="716.5241"/><text fill="#000000" font-family="sans-serif" font-size="14" lengthAdjust="spacing" textLength="104" x="937.5" y="723.7526">String secretKey</text><rect fill="none" height="6" style="stroke:#C82930;stroke-width:1.0;" width="6" x="925.5" y="734.1334"/><text fill="#000000" font-family="sans-serif" font-size="14" lengthAdjust="spacing" textLength="81" x="937.5" y="741.362">String region</text><line style="stroke:#181818;stroke-width:0.5;" x1="918.5" x2="1089.5" y1="748.4381" y2="748.4381"/><ellipse cx="928.5" cy="762.7428" fill="#84BE84" rx="3" ry="3" style="stroke:#038048;stroke-width:1.0;"/><text fill="#000000" font-family="sans-serif" font-size="14" lengthAdjust="spacing" textLength="147" x="937.5" y="766.9713">AmazonS3 amazonS3()</text></g><!--class SecurityConfig--><g id="elem_SecurityConfig"><rect codeLine="32" fill="#F1F1F1" height="259.3125" id="SecurityConfig" rx="2.5" ry="2.5" style="stroke:#181818;stroke-width:0.5;" width="395" x="93.5" y="851.66"/><ellipse cx="240.75" cy="867.66" fill="#ADD1B2" rx="11" ry="11" style="stroke:#181818;stroke-width:1.0;"/><path d="M242.75,864.16 Q242.9531,863.66 243.1875,863.41 Q243.4219,863.16 243.6875,863.16 Q244.1563,863.16 244.4531,863.4413 Q244.75,863.7225 244.75,864.3788 L244.75,865.9413 Q244.75,866.5975 244.4688,866.8788 Q244.1875,867.16 243.75,867.16 Q243.3594,867.16 243.1094,866.9881 Q242.8594,866.8163 242.75,866.3631 Q242.7031,866.0506 242.5313,865.8788 Q242.2188,865.5506 241.6563,865.3631 Q241.0938,865.16 240.5313,865.16 Q239.8281,865.16 239.2344,865.4413 Q238.6563,865.7225 238.2031,866.3475 Q237.75,866.9725 237.75,867.8319 L237.75,868.7538 Q237.75,869.785 238.5938,870.4725 Q239.4375,871.16 240.9375,871.16 Q241.8281,871.16 242.4531,870.9569 Q242.8125,870.8475 243.2188,870.4881 Q243.4844,870.285 243.625,870.2225 Q243.7656,870.16 243.9375,870.16 Q244.2656,870.16 244.5,870.4256 Q244.75,870.6756 244.75,871.035 Q244.75,871.3788 244.4063,871.785 Q243.9063,872.3788 243.1094,872.7069 Q242.0625,873.16 240.7813,873.16 Q239.2813,873.16 238.0781,872.5663 Q237.1094,872.0975 236.4219,871.0819 Q235.75,870.0663 235.75,868.8631 L235.75,867.7694 Q235.75,866.5194 236.3438,865.4256 Q236.9531,864.3319 238,863.7538 Q239.0625,863.16 240.25,863.16 Q240.9688,863.16 241.5938,863.41 Q242.2188,863.66 242.75,864.16 Z " fill="#000000"/><text fill="#000000" font-family="sans-serif" font-size="14" lengthAdjust="spacing" textLength="92" x="261.25" y="873.3885">SecurityConfig</text><line style="stroke:#181818;stroke-width:0.5;" x1="94.5" x2="487.5" y1="883.66" y2="883.66"/><rect fill="none" height="6" style="stroke:#C82930;stroke-width:1.0;" width="6" x="101.5" y="894.9647"/><text fill="#000000" font-family="sans-serif" font-size="14" lengthAdjust="spacing" textLength="152" x="113.5" y="902.1932">DataSource dataSource</text><rect fill="none" height="6" style="stroke:#C82930;stroke-width:1.0;" width="6" x="101.5" y="912.5741"/><text fill="#000000" font-family="sans-serif" font-size="14" lengthAdjust="spacing" textLength="241" x="113.5" y="919.8026">UserDetailsService userDetailsService</text><rect fill="none" height="6" style="stroke:#C82930;stroke-width:1.0;" width="6" x="101.5" y="930.1834"/><text fill="#000000" font-family="sans-serif" font-size="14" lengthAdjust="spacing" textLength="249" x="113.5" y="937.412">OAuth2UserService oAuth2UserService</text><rect fill="none" height="6" style="stroke:#C82930;stroke-width:1.0;" width="6" x="101.5" y="947.7928"/><text fill="#000000" font-family="sans-serif" font-size="14" lengthAdjust="spacing" textLength="295" x="113.5" y="955.0213">AuthenticationManager authenticationManager</text><rect fill="none" height="6" style="stroke:#C82930;stroke-width:1.0;" width="6" x="101.5" y="965.4022"/><text fill="#000000" font-family="sans-serif" font-size="14" lengthAdjust="spacing" textLength="289" x="113.5" y="972.6307">AuthenticationProvider authenticationProvider</text><rect fill="none" height="6" style="stroke:#C82930;stroke-width:1.0;" width="6" x="101.5" y="983.0116"/><text fill="#000000" font-family="sans-serif" font-size="14" lengthAdjust="spacing" textLength="369" x="113.5" y="990.2401">AuthenticationFailureHandler authenticationFailureHandler</text><rect fill="none" height="6" style="stroke:#C82930;stroke-width:1.0;" width="6" x="101.5" y="1000.6209"/><text fill="#000000" font-family="sans-serif" font-size="14" lengthAdjust="spacing" textLength="349" x="113.5" y="1007.8495">JwtAuthenticationEntryPoint jwtAuthenticationEntryPoint</text><rect fill="none" height="6" style="stroke:#C82930;stroke-width:1.0;" width="6" x="101.5" y="1018.2303"/><text fill="#000000" font-family="sans-serif" font-size="14" lengthAdjust="spacing" textLength="133" x="113.5" y="1025.4588">JwtService jwtService</text><line style="stroke:#181818;stroke-width:0.5;" x1="94.5" x2="487.5" y1="1032.535" y2="1032.535"/><ellipse cx="104.5" cy="1046.8397" fill="#84BE84" rx="3" ry="3" style="stroke:#038048;stroke-width:1.0;"/><text fill="#000000" font-family="sans-serif" font-size="14" lengthAdjust="spacing" textLength="288" x="113.5" y="1051.0682">PersistentTokenRepository tokenRepository()</text><ellipse cx="104.5" cy="1064.4491" fill="#84BE84" rx="3" ry="3" style="stroke:#038048;stroke-width:1.0;"/><text fill="#000000" font-family="sans-serif" font-size="14" lengthAdjust="spacing" textLength="310" x="113.5" y="1068.6776">WebSecurityCustomizer webSecurityCustomizer()</text><ellipse cx="104.5" cy="1082.0584" fill="#84BE84" rx="3" ry="3" style="stroke:#038048;stroke-width:1.0;"/><text fill="#000000" font-family="sans-serif" font-size="14" lengthAdjust="spacing" textLength="328" x="113.5" y="1086.287">SecurityFilterChain securityFilterChain(HttpSecurity)</text><rect fill="#F24D5C" height="6" style="stroke:#C82930;stroke-width:1.0;" width="6" x="101.5" y="1096.6678"/><text fill="#000000" font-family="sans-serif" font-size="14" lengthAdjust="spacing" textLength="283" x="113.5" y="1103.8963">String getRefreshToken(HttpServletRequest)</text></g><!--class CacheConfig--><g id="elem_CacheConfig"><rect codeLine="48" fill="#F1F1F1" height="100.8281" id="CacheConfig" rx="2.5" ry="2.5" style="stroke:#181818;stroke-width:0.5;" width="387" x="1445.5" y="664.42"/><ellipse cx="1593.75" cy="680.42" fill="#ADD1B2" rx="11" ry="11" style="stroke:#181818;stroke-width:1.0;"/><path d="M1595.75,676.92 Q1595.9531,676.42 1596.1875,676.17 Q1596.4219,675.92 1596.6875,675.92 Q1597.1563,675.92 1597.4531,676.2013 Q1597.75,676.4825 1597.75,677.1388 L1597.75,678.7013 Q1597.75,679.3575 1597.4688,679.6388 Q1597.1875,679.92 1596.75,679.92 Q1596.3594,679.92 1596.1094,679.7481 Q1595.8594,679.5763 1595.75,679.1231 Q1595.7031,678.8106 1595.5313,678.6388 Q1595.2188,678.3106 1594.6563,678.1231 Q1594.0938,677.92 1593.5313,677.92 Q1592.8281,677.92 1592.2344,678.2013 Q1591.6563,678.4825 1591.2031,679.1075 Q1590.75,679.7325 1590.75,680.5919 L1590.75,681.5138 Q1590.75,682.545 1591.5938,683.2325 Q1592.4375,683.92 1593.9375,683.92 Q1594.8281,683.92 1595.4531,683.7169 Q1595.8125,683.6075 1596.2188,683.2481 Q1596.4844,683.045 1596.625,682.9825 Q1596.7656,682.92 1596.9375,682.92 Q1597.2656,682.92 1597.5,683.1856 Q1597.75,683.4356 1597.75,683.795 Q1597.75,684.1388 1597.4063,684.545 Q1596.9063,685.1388 1596.1094,685.4669 Q1595.0625,685.92 1593.7813,685.92 Q1592.2813,685.92 1591.0781,685.3263 Q1590.1094,684.8575 1589.4219,683.8419 Q1588.75,682.8263 1588.75,681.6231 L1588.75,680.5294 Q1588.75,679.2794 1589.3438,678.1856 Q1589.9531,677.0919 1591,676.5138 Q1592.0625,675.92 1593.25,675.92 Q1593.9688,675.92 1594.5938,676.17 Q1595.2188,676.42 1595.75,676.92 Z " fill="#000000"/><text fill="#000000" font-family="sans-serif" font-size="14" lengthAdjust="spacing" textLength="82" x="1614.25" y="686.1485">CacheConfig</text><line style="stroke:#181818;stroke-width:0.5;" x1="1446.5" x2="1831.5" y1="696.42" y2="696.42"/><line style="stroke:#181818;stroke-width:0.5;" x1="1446.5" x2="1831.5" y1="704.42" y2="704.42"/><ellipse cx="1456.5" cy="718.7247" fill="#84BE84" rx="3" ry="3" style="stroke:#038048;stroke-width:1.0;"/><text fill="#000000" font-family="sans-serif" font-size="14" lengthAdjust="spacing" textLength="361" x="1465.5" y="722.9532">CacheManager cacheManager(RedisConnectionFactory)</text><ellipse cx="1456.5" cy="736.3341" fill="#84BE84" rx="3" ry="3" style="stroke:#038048;stroke-width:1.0;"/><text fill="#000000" font-family="sans-serif" font-size="14" lengthAdjust="spacing" textLength="190" x="1465.5" y="740.5626">KeyGenerator keyGenerator()</text><ellipse cx="1456.5" cy="753.9434" fill="#84BE84" rx="3" ry="3" style="stroke:#038048;stroke-width:1.0;"/><text fill="#000000" font-family="sans-serif" font-size="14" lengthAdjust="spacing" textLength="237" x="1465.5" y="758.172">KeyGenerator customKeyGenerator()</text></g><!--class AopConfig--><g id="elem_AopConfig"><rect codeLine="54" fill="#F1F1F1" height="100.8281" id="AopConfig" rx="2.5" ry="2.5" style="stroke:#181818;stroke-width:0.5;" width="304" x="523" y="930.9"/><ellipse cx="637.75" cy="946.9" fill="#ADD1B2" rx="11" ry="11" style="stroke:#181818;stroke-width:1.0;"/><path d="M639.75,943.4 Q639.9531,942.9 640.1875,942.65 Q640.4219,942.4 640.6875,942.4 Q641.1563,942.4 641.4531,942.6813 Q641.75,942.9625 641.75,943.6188 L641.75,945.1813 Q641.75,945.8375 641.4688,946.1188 Q641.1875,946.4 640.75,946.4 Q640.3594,946.4 640.1094,946.2281 Q639.8594,946.0563 639.75,945.6031 Q639.7031,945.2906 639.5313,945.1188 Q639.2188,944.7906 638.6563,944.6031 Q638.0938,944.4 637.5313,944.4 Q636.8281,944.4 636.2344,944.6813 Q635.6563,944.9625 635.2031,945.5875 Q634.75,946.2125 634.75,947.0719 L634.75,947.9938 Q634.75,949.025 635.5938,949.7125 Q636.4375,950.4 637.9375,950.4 Q638.8281,950.4 639.4531,950.1969 Q639.8125,950.0875 640.2188,949.7281 Q640.4844,949.525 640.625,949.4625 Q640.7656,949.4 640.9375,949.4 Q641.2656,949.4 641.5,949.6656 Q641.75,949.9156 641.75,950.275 Q641.75,950.6188 641.4063,951.025 Q640.9063,951.6188 640.1094,951.9469 Q639.0625,952.4 637.7813,952.4 Q636.2813,952.4 635.0781,951.8063 Q634.1094,951.3375 633.4219,950.3219 Q632.75,949.3063 632.75,948.1031 L632.75,947.0094 Q632.75,945.7594 633.3438,944.6656 Q633.9531,943.5719 635,942.9938 Q636.0625,942.4 637.25,942.4 Q637.9688,942.4 638.5938,942.65 Q639.2188,942.9 639.75,943.4 Z " fill="#000000"/><text fill="#000000" font-family="sans-serif" font-size="14" lengthAdjust="spacing" textLength="66" x="658.25" y="952.6285">AopConfig</text><line style="stroke:#181818;stroke-width:0.5;" x1="524" x2="826" y1="962.9" y2="962.9"/><line style="stroke:#181818;stroke-width:0.5;" x1="524" x2="826" y1="970.9" y2="970.9"/><ellipse cx="534" cy="985.2047" fill="#84BE84" rx="3" ry="3" style="stroke:#038048;stroke-width:1.0;"/><text fill="#000000" font-family="sans-serif" font-size="14" lengthAdjust="spacing" textLength="278" x="543" y="989.4332">LogTraceAspect logTraceAspect(LogTrace)</text><ellipse cx="534" cy="1002.8141" fill="#84BE84" rx="3" ry="3" style="stroke:#038048;stroke-width:1.0;"/><text fill="#000000" font-family="sans-serif" font-size="14" lengthAdjust="spacing" textLength="155" x="543" y="1007.0426">LockAspect lockAspect()</text><ellipse cx="534" cy="1020.4234" fill="#84BE84" rx="3" ry="3" style="stroke:#038048;stroke-width:1.0;"/><text fill="#000000" font-family="sans-serif" font-size="14" lengthAdjust="spacing" textLength="131" x="543" y="1024.652">LogTrace logTrace()</text></g><!--class WebMvcConfigurer--><g id="elem_WebMvcConfigurer"><rect fill="#F1F1F1" height="48" id="WebMvcConfigurer" rx="2.5" ry="2.5" style="stroke:#181818;stroke-width:0.5;" width="153" x="1211.5" y="262"/><ellipse cx="1226.5" cy="278" fill="#ADD1B2" rx="11" ry="11" style="stroke:#181818;stroke-width:1.0;"/><path d="M1228.5,274.5 Q1228.7031,274 1228.9375,273.75 Q1229.1719,273.5 1229.4375,273.5 Q1229.9063,273.5 1230.2031,273.7813 Q1230.5,274.0625 1230.5,274.7188 L1230.5,276.2813 Q1230.5,276.9375 1230.2188,277.2188 Q1229.9375,277.5 1229.5,277.5 Q1229.1094,277.5 1228.8594,277.3281 Q1228.6094,277.1563 1228.5,276.7031 Q1228.4531,276.3906 1228.2813,276.2188 Q1227.9688,275.8906 1227.4063,275.7031 Q1226.8438,275.5 1226.2813,275.5 Q1225.5781,275.5 1224.9844,275.7813 Q1224.4063,276.0625 1223.9531,276.6875 Q1223.5,277.3125 1223.5,278.1719 L1223.5,279.0938 Q1223.5,280.125 1224.3438,280.8125 Q1225.1875,281.5 1226.6875,281.5 Q1227.5781,281.5 1228.2031,281.2969 Q1228.5625,281.1875 1228.9688,280.8281 Q1229.2344,280.625 1229.375,280.5625 Q1229.5156,280.5 1229.6875,280.5 Q1230.0156,280.5 1230.25,280.7656 Q1230.5,281.0156 1230.5,281.375 Q1230.5,281.7188 1230.1563,282.125 Q1229.6563,282.7188 1228.8594,283.0469 Q1227.8125,283.5 1226.5313,283.5 Q1225.0313,283.5 1223.8281,282.9063 Q1222.8594,282.4375 1222.1719,281.4219 Q1221.5,280.4063 1221.5,279.2031 L1221.5,278.1094 Q1221.5,276.8594 1222.0938,275.7656 Q1222.7031,274.6719 1223.75,274.0938 Q1224.8125,273.5 1226,273.5 Q1226.7188,273.5 1227.3438,273.75 Q1227.9688,274 1228.5,274.5 Z " fill="#000000"/><text fill="#000000" font-family="sans-serif" font-size="14" lengthAdjust="spacing" textLength="121" x="1240.5" y="283.7285">WebMvcConfigurer</text><line style="stroke:#181818;stroke-width:0.5;" x1="1212.5" x2="1363.5" y1="294" y2="294"/><line style="stroke:#181818;stroke-width:0.5;" x1="1212.5" x2="1363.5" y1="302" y2="302"/></g><!--class CachingConfigurerSupport--><g id="elem_CachingConfigurerSupport"><rect fill="#F1F1F1" height="48" id="CachingConfigurerSupport" rx="2.5" ry="2.5" style="stroke:#181818;stroke-width:0.5;" width="201" x="1517.5" y="262"/><ellipse cx="1532.5" cy="278" fill="#ADD1B2" rx="11" ry="11" style="stroke:#181818;stroke-width:1.0;"/><path d="M1534.5,274.5 Q1534.7031,274 1534.9375,273.75 Q1535.1719,273.5 1535.4375,273.5 Q1535.9063,273.5 1536.2031,273.7813 Q1536.5,274.0625 1536.5,274.7188 L1536.5,276.2813 Q1536.5,276.9375 1536.2188,277.2188 Q1535.9375,277.5 1535.5,277.5 Q1535.1094,277.5 1534.8594,277.3281 Q1534.6094,277.1563 1534.5,276.7031 Q1534.4531,276.3906 1534.2813,276.2188 Q1533.9688,275.8906 1533.4063,275.7031 Q1532.8438,275.5 1532.2813,275.5 Q1531.5781,275.5 1530.9844,275.7813 Q1530.4063,276.0625 1529.9531,276.6875 Q1529.5,277.3125 1529.5,278.1719 L1529.5,279.0938 Q1529.5,280.125 1530.3438,280.8125 Q1531.1875,281.5 1532.6875,281.5 Q1533.5781,281.5 1534.2031,281.2969 Q1534.5625,281.1875 1534.9688,280.8281 Q1535.2344,280.625 1535.375,280.5625 Q1535.5156,280.5 1535.6875,280.5 Q1536.0156,280.5 1536.25,280.7656 Q1536.5,281.0156 1536.5,281.375 Q1536.5,281.7188 1536.1563,282.125 Q1535.6563,282.7188 1534.8594,283.0469 Q1533.8125,283.5 1532.5313,283.5 Q1531.0313,283.5 1529.8281,282.9063 Q1528.8594,282.4375 1528.1719,281.4219 Q1527.5,280.4063 1527.5,279.2031 L1527.5,278.1094 Q1527.5,276.8594 1528.0938,275.7656 Q1528.7031,274.6719 1529.75,274.0938 Q1530.8125,273.5 1532,273.5 Q1532.7188,273.5 1533.3438,273.75 Q1533.9688,274 1534.5,274.5 Z " fill="#000000"/><text fill="#000000" font-family="sans-serif" font-size="14" lengthAdjust="spacing" textLength="169" x="1546.5" y="283.7285">CachingConfigurerSupport</text><line style="stroke:#181818;stroke-width:0.5;" x1="1518.5" x2="1717.5" y1="294" y2="294"/><line style="stroke:#181818;stroke-width:0.5;" x1="1518.5" x2="1717.5" y1="302" y2="302"/></g><!--reverse link WebMvcConfigurer to WebConfig--><g id="link_WebMvcConfigurer_WebConfig"><path codeLine="62" d="M1285.92,331.48 C1281.87,417.77 1273.05,606.06 1269.51,681.56 " fill="none" id="WebMvcConfigurer-backto-WebConfig" style="stroke:#181818;stroke-width:1.0;stroke-dasharray:7.0,7.0;"/><polygon fill="none" points="1278.91,331.41,1286.84,311.76,1292.9,332.07,1278.91,331.41" style="stroke:#181818;stroke-width:1.0;"/></g><!--reverse link CachingConfigurerSupport to CacheConfig--><g id="link_CachingConfigurerSupport_CacheConfig"><path codeLine="63" d="M1620.19,331.48 C1624.14,411.71 1632.42,580.06 1636.55,664.02 " fill="none" id="CachingConfigurerSupport-backto-CacheConfig" style="stroke:#181818;stroke-width:1.0;"/><polygon fill="none" points="1613.21,332.08,1619.22,311.76,1627.19,331.4,1613.21,332.08" style="stroke:#181818;stroke-width:1.0;"/></g><!--SRC=[bLN1Rjim3BtxAtHqqCM7zLeC2D9cNRkYMToXPrLc72Msf4bo0dVRlu-I8yUEipQzYO-F54q-ogoWnX0coqHfkGPc4reiQSAaMF8yMK36pTIVoUzeJ5AhkSZ9IXgB5XUMAAdjmQ4msKxgBBeW8LHWJYx5Z38hTKtqIJWUXOWdA5L1BLmr6JyzlhYYlZHnmUdf3Q4NHCmGG-xVA8hOcz_v32_jLrwGhUGPeLdsJLZG31HMQEAEiO2Suqsrp_nsudc3TLhuqu2-1ajvOLBGMyw0L0C8UJV2Sbi_K45pq0HAh6k-x-wDO393KFLjtvMx-UH71ReE_LuhshNZNbeNCAdi2X1arCqZt4TFeV6jjIe5LcbCSKvR9pkJNWxbGna3O-wXFa06c0RRWpHsMGfNOKbVfKWl2TqVpXffgBDp_JMrD9KLJf5axV438tbqlVhis84cZn5aVQ2X0pRAPSkp0Jt00_uC2wmqt5AH5OEelXDZxtQs7uvYqFLSkZrU_z_NH8PFNhT7fqZG1bS1evxa1iG2b3JSwyxsRQzDtB9sAfMnikIlMFJk5Dfi-1wUyG9tRxgYN3YX76D7icm5b8DTm5A3MVdYzZIzBHp-gm9Zpz7HbB8LT1u7RuUfieuHdtxnt8UWhh-204qH89kE4G-ypBVWlizvzvcPIDKfyRlCdpHbC34AYQJecN7mZZoJRLfMECQZJeusUhzqaTHvOfHhy5BJ4l3zsIGumiGqdGqLKI6azK9oZ-l3bZNreHurkVgJ9Ey_nITlyWtl9dVZGCOXUrefzq_2IyRZSuRw3m00]--></g></svg>