<?xml version="1.0" encoding="us-ascii" standalone="no"?><svg xmlns="http://www.w3.org/2000/svg" xmlns:xlink="http://www.w3.org/1999/xlink" contentStyleType="text/css" height="809px" preserveAspectRatio="none" style="width:2576px;height:809px;background:#FFFFFF;" version="1.1" viewBox="0 0 2576 809" width="2576px" zoomAndPan="magnify"><defs/><g><!--cluster com--><g id="cluster_com"><path d="M8.5,6 L38.5,6 A3.75,3.75 0 0 1 41,8.5 L48,29.6094 L2566.5,29.6094 A2.5,2.5 0 0 1 2569,32.1094 L2569,800.47 A2.5,2.5 0 0 1 2566.5,802.97 L8.5,802.97 A2.5,2.5 0 0 1 6,800.47 L6,8.5 A2.5,2.5 0 0 1 8.5,6 " fill="none" style="stroke:#000000;stroke-width:1.5;"/><line style="stroke:#000000;stroke-width:1.5;" x1="6" x2="48" y1="29.6094" y2="29.6094"/><text fill="#000000" font-family="sans-serif" font-size="14" font-weight="bold" lengthAdjust="spacing" textLength="29" x="10" y="22.5332">com</text></g><!--cluster project--><g id="cluster_project"><path d="M32.5,50 L83.5,50 A3.75,3.75 0 0 1 86,52.5 L93,73.6094 L2542.5,73.6094 A2.5,2.5 0 0 1 2545,76.1094 L2545,776.47 A2.5,2.5 0 0 1 2542.5,778.97 L32.5,778.97 A2.5,2.5 0 0 1 30,776.47 L30,52.5 A2.5,2.5 0 0 1 32.5,50 " fill="none" style="stroke:#000000;stroke-width:1.5;"/><line style="stroke:#000000;stroke-width:1.5;" x1="30" x2="93" y1="73.6094" y2="73.6094"/><text fill="#000000" font-family="sans-serif" font-size="14" font-weight="bold" lengthAdjust="spacing" textLength="50" x="34" y="66.5332">project</text></g><!--cluster alfa--><g id="cluster_alfa"><path d="M56.5,94 L82.5,94 A3.75,3.75 0 0 1 85,96.5 L92,117.6094 L2518.5,117.6094 A2.5,2.5 0 0 1 2521,120.1094 L2521,752.47 A2.5,2.5 0 0 1 2518.5,754.97 L56.5,754.97 A2.5,2.5 0 0 1 54,752.47 L54,96.5 A2.5,2.5 0 0 1 56.5,94 " fill="none" style="stroke:#000000;stroke-width:1.5;"/><line style="stroke:#000000;stroke-width:1.5;" x1="54" x2="92" y1="117.6094" y2="117.6094"/><text fill="#000000" font-family="sans-serif" font-size="14" font-weight="bold" lengthAdjust="spacing" textLength="25" x="58" y="110.5332">alfa</text></g><!--cluster controllers--><g id="cluster_controllers"><path d="M80.5,138 L158.5,138 A3.75,3.75 0 0 1 161,140.5 L168,161.6094 L2494.5,161.6094 A2.5,2.5 0 0 1 2497,164.1094 L2497,728.47 A2.5,2.5 0 0 1 2494.5,730.97 L80.5,730.97 A2.5,2.5 0 0 1 78,728.47 L78,140.5 A2.5,2.5 0 0 1 80.5,138 " fill="none" style="stroke:#000000;stroke-width:1.5;"/><line style="stroke:#000000;stroke-width:1.5;" x1="78" x2="168" y1="161.6094" y2="161.6094"/><text fill="#000000" font-family="sans-serif" font-size="14" font-weight="bold" lengthAdjust="spacing" textLength="77" x="82" y="154.5332">controllers</text></g><!--cluster api--><g id="cluster_api"><path d="M104.5,182 L126.5,182 A3.75,3.75 0 0 1 129,184.5 L136,205.6094 L1996.5,205.6094 A2.5,2.5 0 0 1 1999,208.1094 L1999,704.47 A2.5,2.5 0 0 1 1996.5,706.97 L104.5,706.97 A2.5,2.5 0 0 1 102,704.47 L102,184.5 A2.5,2.5 0 0 1 104.5,182 " fill="none" style="stroke:#000000;stroke-width:1.5;"/><line style="stroke:#000000;stroke-width:1.5;" x1="102" x2="136" y1="205.6094" y2="205.6094"/><text fill="#000000" font-family="sans-serif" font-size="14" font-weight="bold" lengthAdjust="spacing" textLength="21" x="106" y="198.5332">api</text></g><!--class MainController--><g id="elem_MainController"><rect codeLine="54" fill="#F1F1F1" height="100.8281" id="MainController" rx="2.5" ry="2.5" style="stroke:#181818;stroke-width:0.5;" width="464" x="2017" y="279.63"/><ellipse cx="2198.75" cy="295.63" fill="#ADD1B2" rx="11" ry="11" style="stroke:#181818;stroke-width:1.0;"/><path d="M2200.75,292.13 Q2200.9531,291.63 2201.1875,291.38 Q2201.4219,291.13 2201.6875,291.13 Q2202.1563,291.13 2202.4531,291.4113 Q2202.75,291.6925 2202.75,292.3488 L2202.75,293.9113 Q2202.75,294.5675 2202.4688,294.8488 Q2202.1875,295.13 2201.75,295.13 Q2201.3594,295.13 2201.1094,294.9581 Q2200.8594,294.7863 2200.75,294.3331 Q2200.7031,294.0206 2200.5313,293.8488 Q2200.2188,293.5206 2199.6563,293.3331 Q2199.0938,293.13 2198.5313,293.13 Q2197.8281,293.13 2197.2344,293.4113 Q2196.6563,293.6925 2196.2031,294.3175 Q2195.75,294.9425 2195.75,295.8019 L2195.75,296.7238 Q2195.75,297.755 2196.5938,298.4425 Q2197.4375,299.13 2198.9375,299.13 Q2199.8281,299.13 2200.4531,298.9269 Q2200.8125,298.8175 2201.2188,298.4581 Q2201.4844,298.255 2201.625,298.1925 Q2201.7656,298.13 2201.9375,298.13 Q2202.2656,298.13 2202.5,298.3956 Q2202.75,298.6456 2202.75,299.005 Q2202.75,299.3488 2202.4063,299.755 Q2201.9063,300.3488 2201.1094,300.6769 Q2200.0625,301.13 2198.7813,301.13 Q2197.2813,301.13 2196.0781,300.5363 Q2195.1094,300.0675 2194.4219,299.0519 Q2193.75,298.0363 2193.75,296.8331 L2193.75,295.7394 Q2193.75,294.4894 2194.3438,293.3956 Q2194.9531,292.3019 2196,291.7238 Q2197.0625,291.13 2198.25,291.13 Q2198.9688,291.13 2199.5938,291.38 Q2200.2188,291.63 2200.75,292.13 Z " fill="#000000"/><text fill="#000000" font-family="sans-serif" font-size="14" lengthAdjust="spacing" textLength="92" x="2219.25" y="301.3585">MainController</text><line style="stroke:#181818;stroke-width:0.5;" x1="2018" x2="2480" y1="311.63" y2="311.63"/><rect fill="none" height="6" style="stroke:#C82930;stroke-width:1.0;" width="6" x="2025" y="322.9347"/><text fill="#000000" font-family="sans-serif" font-size="14" lengthAdjust="spacing" textLength="200" x="2037" y="330.1632">MemberService memberService</text><line style="stroke:#181818;stroke-width:0.5;" x1="2018" x2="2480" y1="337.2394" y2="337.2394"/><ellipse cx="2028" cy="351.5441" fill="#84BE84" rx="3" ry="3" style="stroke:#038048;stroke-width:1.0;"/><text fill="#000000" font-family="sans-serif" font-size="14" lengthAdjust="spacing" textLength="229" x="2037" y="355.7726">ResponseEntity&lt;String&gt; mainPage()</text><ellipse cx="2028" cy="369.1534" fill="#84BE84" rx="3" ry="3" style="stroke:#038048;stroke-width:1.0;"/><text fill="#000000" font-family="sans-serif" font-size="14" lengthAdjust="spacing" textLength="438" x="2037" y="373.382">ResponseEntity&lt;String&gt; verifyEmail(String,String,HttpServletRequest)</text></g><!--class AuthApiController--><g id="elem_AuthApiController"><rect codeLine="1" fill="#F1F1F1" height="100.8281" id="AuthApiController" rx="2.5" ry="2.5" style="stroke:#181818;stroke-width:0.5;" width="737" x="117.5" y="279.63"/><ellipse cx="426.25" cy="295.63" fill="#ADD1B2" rx="11" ry="11" style="stroke:#181818;stroke-width:1.0;"/><path d="M428.25,292.13 Q428.4531,291.63 428.6875,291.38 Q428.9219,291.13 429.1875,291.13 Q429.6563,291.13 429.9531,291.4113 Q430.25,291.6925 430.25,292.3488 L430.25,293.9113 Q430.25,294.5675 429.9688,294.8488 Q429.6875,295.13 429.25,295.13 Q428.8594,295.13 428.6094,294.9581 Q428.3594,294.7863 428.25,294.3331 Q428.2031,294.0206 428.0313,293.8488 Q427.7188,293.5206 427.1563,293.3331 Q426.5938,293.13 426.0313,293.13 Q425.3281,293.13 424.7344,293.4113 Q424.1563,293.6925 423.7031,294.3175 Q423.25,294.9425 423.25,295.8019 L423.25,296.7238 Q423.25,297.755 424.0938,298.4425 Q424.9375,299.13 426.4375,299.13 Q427.3281,299.13 427.9531,298.9269 Q428.3125,298.8175 428.7188,298.4581 Q428.9844,298.255 429.125,298.1925 Q429.2656,298.13 429.4375,298.13 Q429.7656,298.13 430,298.3956 Q430.25,298.6456 430.25,299.005 Q430.25,299.3488 429.9063,299.755 Q429.4063,300.3488 428.6094,300.6769 Q427.5625,301.13 426.2813,301.13 Q424.7813,301.13 423.5781,300.5363 Q422.6094,300.0675 421.9219,299.0519 Q421.25,298.0363 421.25,296.8331 L421.25,295.7394 Q421.25,294.4894 421.8438,293.3956 Q422.4531,292.3019 423.5,291.7238 Q424.5625,291.13 425.75,291.13 Q426.4688,291.13 427.0938,291.38 Q427.7188,291.63 428.25,292.13 Z " fill="#000000"/><text fill="#000000" font-family="sans-serif" font-size="14" lengthAdjust="spacing" textLength="111" x="446.75" y="301.3585">AuthApiController</text><line style="stroke:#181818;stroke-width:0.5;" x1="118.5" x2="853.5" y1="311.63" y2="311.63"/><rect fill="none" height="6" style="stroke:#C82930;stroke-width:1.0;" width="6" x="125.5" y="322.9347"/><text fill="#000000" font-family="sans-serif" font-size="14" lengthAdjust="spacing" textLength="133" x="137.5" y="330.1632">JwtService jwtService</text><line style="stroke:#181818;stroke-width:0.5;" x1="118.5" x2="853.5" y1="337.2394" y2="337.2394"/><ellipse cx="128.5" cy="351.5441" fill="#84BE84" rx="3" ry="3" style="stroke:#038048;stroke-width:1.0;"/><text fill="#000000" font-family="sans-serif" font-size="14" lengthAdjust="spacing" textLength="711" x="137.5" y="355.7726">ResponseEntity&lt;String&gt; refreshToken(HttpServletRequest,HttpServletResponse,Map&lt;String,String&gt;,UserDetails)</text><rect fill="#F24D5C" height="6" style="stroke:#C82930;stroke-width:1.0;" width="6" x="125.5" y="366.1534"/><text fill="#000000" font-family="sans-serif" font-size="14" lengthAdjust="spacing" textLength="408" x="137.5" y="373.382">String getRefreshToken(HttpServletRequest,Map&lt;String,String&gt;)</text></g><!--class CommentApiController--><g id="elem_CommentApiController"><rect codeLine="8" fill="#F1F1F1" height="188.875" id="CommentApiController" rx="2.5" ry="2.5" style="stroke:#181818;stroke-width:0.5;" width="579" x="889.5" y="235.61"/><ellipse cx="1103.75" cy="251.61" fill="#ADD1B2" rx="11" ry="11" style="stroke:#181818;stroke-width:1.0;"/><path d="M1105.75,248.11 Q1105.9531,247.61 1106.1875,247.36 Q1106.4219,247.11 1106.6875,247.11 Q1107.1563,247.11 1107.4531,247.3913 Q1107.75,247.6725 1107.75,248.3288 L1107.75,249.8913 Q1107.75,250.5475 1107.4688,250.8288 Q1107.1875,251.11 1106.75,251.11 Q1106.3594,251.11 1106.1094,250.9381 Q1105.8594,250.7663 1105.75,250.3131 Q1105.7031,250.0006 1105.5313,249.8288 Q1105.2188,249.5006 1104.6563,249.3131 Q1104.0938,249.11 1103.5313,249.11 Q1102.8281,249.11 1102.2344,249.3913 Q1101.6563,249.6725 1101.2031,250.2975 Q1100.75,250.9225 1100.75,251.7819 L1100.75,252.7038 Q1100.75,253.735 1101.5938,254.4225 Q1102.4375,255.11 1103.9375,255.11 Q1104.8281,255.11 1105.4531,254.9069 Q1105.8125,254.7975 1106.2188,254.4381 Q1106.4844,254.235 1106.625,254.1725 Q1106.7656,254.11 1106.9375,254.11 Q1107.2656,254.11 1107.5,254.3756 Q1107.75,254.6256 1107.75,254.985 Q1107.75,255.3288 1107.4063,255.735 Q1106.9063,256.3288 1106.1094,256.6569 Q1105.0625,257.11 1103.7813,257.11 Q1102.2813,257.11 1101.0781,256.5163 Q1100.1094,256.0475 1099.4219,255.0319 Q1098.75,254.0163 1098.75,252.8131 L1098.75,251.7194 Q1098.75,250.4694 1099.3438,249.3756 Q1099.9531,248.2819 1101,247.7038 Q1102.0625,247.11 1103.25,247.11 Q1103.9688,247.11 1104.5938,247.36 Q1105.2188,247.61 1105.75,248.11 Z " fill="#000000"/><text fill="#000000" font-family="sans-serif" font-size="14" lengthAdjust="spacing" textLength="142" x="1124.25" y="257.3385">CommentApiController</text><line style="stroke:#181818;stroke-width:0.5;" x1="890.5" x2="1467.5" y1="267.61" y2="267.61"/><rect fill="none" height="6" style="stroke:#C82930;stroke-width:1.0;" width="6" x="897.5" y="278.9147"/><text fill="#000000" font-family="sans-serif" font-size="14" lengthAdjust="spacing" textLength="215" x="909.5" y="286.1432">CommentService commentService</text><line style="stroke:#181818;stroke-width:0.5;" x1="890.5" x2="1467.5" y1="293.2194" y2="293.2194"/><ellipse cx="900.5" cy="307.5241" fill="#84BE84" rx="3" ry="3" style="stroke:#038048;stroke-width:1.0;"/><text fill="#000000" font-family="sans-serif" font-size="14" lengthAdjust="spacing" textLength="348" x="909.5" y="311.7526">ResponseEntity&lt;String&gt; commentsList(Long,Pageable)</text><ellipse cx="900.5" cy="325.1334" fill="#84BE84" rx="3" ry="3" style="stroke:#038048;stroke-width:1.0;"/><text fill="#000000" font-family="sans-serif" font-size="14" lengthAdjust="spacing" textLength="442" x="909.5" y="329.362">ResponseEntity&lt;String&gt; commentsListByWriter(UserDetails,Pageable)</text><ellipse cx="900.5" cy="342.7428" fill="#84BE84" rx="3" ry="3" style="stroke:#038048;stroke-width:1.0;"/><text fill="#000000" font-family="sans-serif" font-size="14" lengthAdjust="spacing" textLength="320" x="909.5" y="346.9713">ResponseEntity&lt;String&gt; writeCommentPage(Long)</text><ellipse cx="900.5" cy="360.3522" fill="#84BE84" rx="3" ry="3" style="stroke:#038048;stroke-width:1.0;"/><text fill="#000000" font-family="sans-serif" font-size="14" lengthAdjust="spacing" textLength="502" x="909.5" y="364.5807">ResponseEntity&lt;String&gt; writeComment(Long,UserDetails,CommentRequestDto)</text><ellipse cx="900.5" cy="377.9616" fill="#84BE84" rx="3" ry="3" style="stroke:#038048;stroke-width:1.0;"/><text fill="#000000" font-family="sans-serif" font-size="14" lengthAdjust="spacing" textLength="371" x="909.5" y="382.1901">ResponseEntity&lt;String&gt; updateCommentPage(Long,Long)</text><ellipse cx="900.5" cy="395.5709" fill="#84BE84" rx="3" ry="3" style="stroke:#038048;stroke-width:1.0;"/><text fill="#000000" font-family="sans-serif" font-size="14" lengthAdjust="spacing" textLength="553" x="909.5" y="399.7995">ResponseEntity&lt;String&gt; updateComment(Long,Long,UserDetails,CommentRequestDto)</text><ellipse cx="900.5" cy="413.1803" fill="#84BE84" rx="3" ry="3" style="stroke:#038048;stroke-width:1.0;"/><text fill="#000000" font-family="sans-serif" font-size="14" lengthAdjust="spacing" textLength="512" x="909.5" y="417.4088">ResponseEntity&lt;String&gt; deleteComment(Long,UserDetails,CommentRequestDto)</text></g><!--class PostApiController--><g id="elem_PostApiController"><rect codeLine="20" fill="#F1F1F1" height="224.0938" id="PostApiController" rx="2.5" ry="2.5" style="stroke:#181818;stroke-width:0.5;" width="479" x="1503.5" y="218"/><ellipse cx="1683.75" cy="234" fill="#ADD1B2" rx="11" ry="11" style="stroke:#181818;stroke-width:1.0;"/><path d="M1685.75,230.5 Q1685.9531,230 1686.1875,229.75 Q1686.4219,229.5 1686.6875,229.5 Q1687.1563,229.5 1687.4531,229.7813 Q1687.75,230.0625 1687.75,230.7188 L1687.75,232.2813 Q1687.75,232.9375 1687.4688,233.2188 Q1687.1875,233.5 1686.75,233.5 Q1686.3594,233.5 1686.1094,233.3281 Q1685.8594,233.1563 1685.75,232.7031 Q1685.7031,232.3906 1685.5313,232.2188 Q1685.2188,231.8906 1684.6563,231.7031 Q1684.0938,231.5 1683.5313,231.5 Q1682.8281,231.5 1682.2344,231.7813 Q1681.6563,232.0625 1681.2031,232.6875 Q1680.75,233.3125 1680.75,234.1719 L1680.75,235.0938 Q1680.75,236.125 1681.5938,236.8125 Q1682.4375,237.5 1683.9375,237.5 Q1684.8281,237.5 1685.4531,237.2969 Q1685.8125,237.1875 1686.2188,236.8281 Q1686.4844,236.625 1686.625,236.5625 Q1686.7656,236.5 1686.9375,236.5 Q1687.2656,236.5 1687.5,236.7656 Q1687.75,237.0156 1687.75,237.375 Q1687.75,237.7188 1687.4063,238.125 Q1686.9063,238.7188 1686.1094,239.0469 Q1685.0625,239.5 1683.7813,239.5 Q1682.2813,239.5 1681.0781,238.9063 Q1680.1094,238.4375 1679.4219,237.4219 Q1678.75,236.4063 1678.75,235.2031 L1678.75,234.1094 Q1678.75,232.8594 1679.3438,231.7656 Q1679.9531,230.6719 1681,230.0938 Q1682.0625,229.5 1683.25,229.5 Q1683.9688,229.5 1684.5938,229.75 Q1685.2188,230 1685.75,230.5 Z " fill="#000000"/><text fill="#000000" font-family="sans-serif" font-size="14" lengthAdjust="spacing" textLength="110" x="1704.25" y="239.7285">PostApiController</text><line style="stroke:#181818;stroke-width:0.5;" x1="1504.5" x2="1981.5" y1="250" y2="250"/><rect fill="none" height="6" style="stroke:#C82930;stroke-width:1.0;" width="6" x="1511.5" y="261.3047"/><text fill="#000000" font-family="sans-serif" font-size="14" lengthAdjust="spacing" textLength="153" x="1523.5" y="268.5332">PostService postService</text><rect fill="none" height="6" style="stroke:#C82930;stroke-width:1.0;" width="6" x="1511.5" y="278.9141"/><text fill="#000000" font-family="sans-serif" font-size="14" lengthAdjust="spacing" textLength="239" x="1523.5" y="286.1426">AttachmentService attachmentService</text><line style="stroke:#181818;stroke-width:0.5;" x1="1504.5" x2="1981.5" y1="293.2188" y2="293.2188"/><ellipse cx="1514.5" cy="307.5234" fill="#84BE84" rx="3" ry="3" style="stroke:#038048;stroke-width:1.0;"/><text fill="#000000" font-family="sans-serif" font-size="14" lengthAdjust="spacing" textLength="364" x="1523.5" y="311.752">ResponseEntity&lt;String&gt; postsList(String,String,Pageable)</text><ellipse cx="1514.5" cy="325.1328" fill="#84BE84" rx="3" ry="3" style="stroke:#038048;stroke-width:1.0;"/><text fill="#000000" font-family="sans-serif" font-size="14" lengthAdjust="spacing" textLength="412" x="1523.5" y="329.3613">ResponseEntity&lt;String&gt; postsListByWriter(UserDetails,Pageable)</text><ellipse cx="1514.5" cy="342.7422" fill="#84BE84" rx="3" ry="3" style="stroke:#038048;stroke-width:1.0;"/><text fill="#000000" font-family="sans-serif" font-size="14" lengthAdjust="spacing" textLength="414" x="1523.5" y="346.9707">ResponseEntity&lt;String&gt; readPostPage(Long,HttpServletRequest)</text><ellipse cx="1514.5" cy="360.3516" fill="#84BE84" rx="3" ry="3" style="stroke:#038048;stroke-width:1.0;"/><text fill="#000000" font-family="sans-serif" font-size="14" lengthAdjust="spacing" textLength="256" x="1523.5" y="364.5801">ResponseEntity&lt;String&gt; writePostPage()</text><ellipse cx="1514.5" cy="377.9609" fill="#84BE84" rx="3" ry="3" style="stroke:#038048;stroke-width:1.0;"/><text fill="#000000" font-family="sans-serif" font-size="14" lengthAdjust="spacing" textLength="402" x="1523.5" y="382.1895">ResponseEntity&lt;String&gt; writePost(UserDetails,PostRequestDto)</text><ellipse cx="1514.5" cy="395.5703" fill="#84BE84" rx="3" ry="3" style="stroke:#038048;stroke-width:1.0;"/><text fill="#000000" font-family="sans-serif" font-size="14" lengthAdjust="spacing" textLength="303" x="1523.5" y="399.7988">ResponseEntity&lt;String&gt; updatePostPage(Long)</text><ellipse cx="1514.5" cy="413.1797" fill="#84BE84" rx="3" ry="3" style="stroke:#038048;stroke-width:1.0;"/><text fill="#000000" font-family="sans-serif" font-size="14" lengthAdjust="spacing" textLength="453" x="1523.5" y="417.4082">ResponseEntity&lt;String&gt; updatePost(Long,UserDetails,PostRequestDto)</text><ellipse cx="1514.5" cy="430.7891" fill="#84BE84" rx="3" ry="3" style="stroke:#038048;stroke-width:1.0;"/><text fill="#000000" font-family="sans-serif" font-size="14" lengthAdjust="spacing" textLength="412" x="1523.5" y="435.0176">ResponseEntity&lt;String&gt; deletePost(UserDetails,PostRequestDto)</text></g><!--class AttachmentApiController--><g id="elem_AttachmentApiController"><rect codeLine="34" fill="#F1F1F1" height="118.4375" id="AttachmentApiController" rx="2.5" ry="2.5" style="stroke:#181818;stroke-width:0.5;" width="367" x="302.5" y="537.31"/><ellipse cx="405.25" cy="553.31" fill="#ADD1B2" rx="11" ry="11" style="stroke:#181818;stroke-width:1.0;"/><path d="M407.25,549.81 Q407.4531,549.31 407.6875,549.06 Q407.9219,548.81 408.1875,548.81 Q408.6563,548.81 408.9531,549.0913 Q409.25,549.3725 409.25,550.0288 L409.25,551.5913 Q409.25,552.2475 408.9688,552.5288 Q408.6875,552.81 408.25,552.81 Q407.8594,552.81 407.6094,552.6381 Q407.3594,552.4663 407.25,552.0131 Q407.2031,551.7006 407.0313,551.5288 Q406.7188,551.2006 406.1563,551.0131 Q405.5938,550.81 405.0313,550.81 Q404.3281,550.81 403.7344,551.0913 Q403.1563,551.3725 402.7031,551.9975 Q402.25,552.6225 402.25,553.4819 L402.25,554.4038 Q402.25,555.435 403.0938,556.1225 Q403.9375,556.81 405.4375,556.81 Q406.3281,556.81 406.9531,556.6069 Q407.3125,556.4975 407.7188,556.1381 Q407.9844,555.935 408.125,555.8725 Q408.2656,555.81 408.4375,555.81 Q408.7656,555.81 409,556.0756 Q409.25,556.3256 409.25,556.685 Q409.25,557.0288 408.9063,557.435 Q408.4063,558.0288 407.6094,558.3569 Q406.5625,558.81 405.2813,558.81 Q403.7813,558.81 402.5781,558.2163 Q401.6094,557.7475 400.9219,556.7319 Q400.25,555.7163 400.25,554.5131 L400.25,553.4194 Q400.25,552.1694 400.8438,551.0756 Q401.4531,549.9819 402.5,549.4038 Q403.5625,548.81 404.75,548.81 Q405.4688,548.81 406.0938,549.06 Q406.7188,549.31 407.25,549.81 Z " fill="#000000"/><text fill="#000000" font-family="sans-serif" font-size="14" lengthAdjust="spacing" textLength="153" x="425.75" y="559.0385">AttachmentApiController</text><line style="stroke:#181818;stroke-width:0.5;" x1="303.5" x2="668.5" y1="569.31" y2="569.31"/><rect fill="none" height="6" style="stroke:#C82930;stroke-width:1.0;" width="6" x="310.5" y="580.6147"/><text fill="#000000" font-family="sans-serif" font-size="14" lengthAdjust="spacing" textLength="239" x="322.5" y="587.8432">AttachmentService attachmentService</text><rect fill="none" height="6" style="stroke:#C82930;stroke-width:1.0;" width="6" x="310.5" y="598.2241"/><text fill="#000000" font-family="sans-serif" font-size="14" lengthAdjust="spacing" textLength="83" x="322.5" y="605.4526">FileUtil fileUtil</text><line style="stroke:#181818;stroke-width:0.5;" x1="303.5" x2="668.5" y1="612.5288" y2="612.5288"/><ellipse cx="313.5" cy="626.8334" fill="#84BE84" rx="3" ry="3" style="stroke:#038048;stroke-width:1.0;"/><text fill="#000000" font-family="sans-serif" font-size="14" lengthAdjust="spacing" textLength="310" x="322.5" y="631.062">ResponseEntity&lt;String&gt; findAllFilesByPost(Long)</text><ellipse cx="313.5" cy="644.4428" fill="#84BE84" rx="3" ry="3" style="stroke:#038048;stroke-width:1.0;"/><text fill="#000000" font-family="sans-serif" font-size="14" lengthAdjust="spacing" textLength="341" x="322.5" y="648.6713">ResponseEntity&lt;Resource&gt; downloadFile(Long,Long)</text></g><!--class MemberApiController--><g id="elem_MemberApiController"><rect codeLine="42" fill="#F1F1F1" height="188.875" id="MemberApiController" rx="2.5" ry="2.5" style="stroke:#181818;stroke-width:0.5;" width="529" x="704.5" y="502.09"/><ellipse cx="898.25" cy="518.09" fill="#ADD1B2" rx="11" ry="11" style="stroke:#181818;stroke-width:1.0;"/><path d="M900.25,514.59 Q900.4531,514.09 900.6875,513.84 Q900.9219,513.59 901.1875,513.59 Q901.6563,513.59 901.9531,513.8713 Q902.25,514.1525 902.25,514.8088 L902.25,516.3713 Q902.25,517.0275 901.9688,517.3088 Q901.6875,517.59 901.25,517.59 Q900.8594,517.59 900.6094,517.4181 Q900.3594,517.2463 900.25,516.7931 Q900.2031,516.4806 900.0313,516.3088 Q899.7188,515.9806 899.1563,515.7931 Q898.5938,515.59 898.0313,515.59 Q897.3281,515.59 896.7344,515.8713 Q896.1563,516.1525 895.7031,516.7775 Q895.25,517.4025 895.25,518.2619 L895.25,519.1838 Q895.25,520.215 896.0938,520.9025 Q896.9375,521.59 898.4375,521.59 Q899.3281,521.59 899.9531,521.3869 Q900.3125,521.2775 900.7188,520.9181 Q900.9844,520.715 901.125,520.6525 Q901.2656,520.59 901.4375,520.59 Q901.7656,520.59 902,520.8556 Q902.25,521.1056 902.25,521.465 Q902.25,521.8088 901.9063,522.215 Q901.4063,522.8088 900.6094,523.1369 Q899.5625,523.59 898.2813,523.59 Q896.7813,523.59 895.5781,522.9963 Q894.6094,522.5275 893.9219,521.5119 Q893.25,520.4963 893.25,519.2931 L893.25,518.1994 Q893.25,516.9494 893.8438,515.8556 Q894.4531,514.7619 895.5,514.1838 Q896.5625,513.59 897.75,513.59 Q898.4688,513.59 899.0938,513.84 Q899.7188,514.09 900.25,514.59 Z " fill="#000000"/><text fill="#000000" font-family="sans-serif" font-size="14" lengthAdjust="spacing" textLength="133" x="918.75" y="523.8185">MemberApiController</text><line style="stroke:#181818;stroke-width:0.5;" x1="705.5" x2="1232.5" y1="534.09" y2="534.09"/><rect fill="none" height="6" style="stroke:#C82930;stroke-width:1.0;" width="6" x="712.5" y="545.3947"/><text fill="#000000" font-family="sans-serif" font-size="14" lengthAdjust="spacing" textLength="200" x="724.5" y="552.6232">MemberService memberService</text><line style="stroke:#181818;stroke-width:0.5;" x1="705.5" x2="1232.5" y1="559.6994" y2="559.6994"/><ellipse cx="715.5" cy="574.0041" fill="#84BE84" rx="3" ry="3" style="stroke:#038048;stroke-width:1.0;"/><text fill="#000000" font-family="sans-serif" font-size="14" lengthAdjust="spacing" textLength="221" x="724.5" y="578.2326">ResponseEntity&lt;String&gt; joinPage()</text><ellipse cx="715.5" cy="591.6134" fill="#84BE84" rx="3" ry="3" style="stroke:#038048;stroke-width:1.0;"/><text fill="#000000" font-family="sans-serif" font-size="14" lengthAdjust="spacing" textLength="339" x="724.5" y="595.842">ResponseEntity&lt;String&gt; join(MemberJoinRequestDto)</text><ellipse cx="715.5" cy="609.2228" fill="#84BE84" rx="3" ry="3" style="stroke:#038048;stroke-width:1.0;"/><text fill="#000000" font-family="sans-serif" font-size="14" lengthAdjust="spacing" textLength="301" x="724.5" y="613.4513">ResponseEntity&lt;String&gt; forgotPassword(String)</text><ellipse cx="715.5" cy="626.8322" fill="#84BE84" rx="3" ry="3" style="stroke:#038048;stroke-width:1.0;"/><text fill="#000000" font-family="sans-serif" font-size="14" lengthAdjust="spacing" textLength="310" x="724.5" y="631.0607">ResponseEntity&lt;String&gt; profilePage(UserDetails)</text><ellipse cx="715.5" cy="644.4416" fill="#84BE84" rx="3" ry="3" style="stroke:#038048;stroke-width:1.0;"/><text fill="#000000" font-family="sans-serif" font-size="14" lengthAdjust="spacing" textLength="355" x="724.5" y="648.6701">ResponseEntity&lt;String&gt; profileUpdatePage(UserDetails)</text><ellipse cx="715.5" cy="662.0509" fill="#84BE84" rx="3" ry="3" style="stroke:#038048;stroke-width:1.0;"/><text fill="#000000" font-family="sans-serif" font-size="14" lengthAdjust="spacing" textLength="497" x="724.5" y="666.2795">ResponseEntity&lt;String&gt; profileUpdate(UserDetails,MemberUpdateRequestDto)</text><ellipse cx="715.5" cy="679.6603" fill="#84BE84" rx="3" ry="3" style="stroke:#038048;stroke-width:1.0;"/><text fill="#000000" font-family="sans-serif" font-size="14" lengthAdjust="spacing" textLength="503" x="724.5" y="683.8888">ResponseEntity&lt;String&gt; deleteAccount(UserDetails,MemberUpdateRequestDto)</text></g><!--SRC=[hPNRRgCm48RlUGek4otb2QgLw4chgf6gTgEzTisGE3KUrXuQHQjzzxLhGg0amKHxPu_d7y_XCt39Z8avbccbSGESKYOBbd9Kf55Aq2PbbKYpcjPP9MvRS_mdkeeVj_GA-aDmY3VjCleMlu2fK1cuLoHeT_rAMgZLzrX3eS6iV-8xgDaFeief9D0B_Ax1KD8p-GZ9WbMDFcd294i3-Ww82MdcDWblZbTET3x-CDOy-Xj54G_hmIsM9IWQjg4vsBU2zxQdsz7ucITXQFQ4DgjdjWBs9c4U9hhP_TA2GCyw7Gc9iNMg9cdd_dbveBzFj7jXSz0q-OxmJAIwojdmwcJa_fxgeBWuYnmi59CAca39CveZY3Zhde_giBOd6H7Zwou_xAlbT2KkbEUdntK81AtqKeeqiDoLTHZZyCcDGTNgGnpx2Lh31EHwYGPv3xa8ljBpDPho1AWEa0pH2W7eAduG4fOaP5mqYzFf5qBbcPHEOMvsRI-E56otM6iEjcJSAeaiTwBkcvvGumBADz33-hnzNrlPtPskOOD2ZO7bV6O- -gDT1essGBr2Iv8nMzHvy-hElJADhk6VgVJ-MsEAfGVnGbsFEr-YFvZ0RyOvreg2GWMEUS64-X_JBTduT3z0Ys9tRrtbbu_ZiS-KBU0V]--></g></svg>