<?xml version="1.0" encoding="us-ascii" standalone="no"?><svg xmlns="http://www.w3.org/2000/svg" xmlns:xlink="http://www.w3.org/1999/xlink" contentStyleType="text/css" height="1131px" preserveAspectRatio="none" style="width:1436px;height:1131px;background:#FFFFFF;" version="1.1" viewBox="0 0 1436 1131" width="1436px" zoomAndPan="magnify"><defs/><g><!--cluster com--><g id="cluster_com"><path d="M8.5,6 L38.5,6 A3.75,3.75 0 0 1 41,8.5 L48,29.6094 L1426.5,29.6094 A2.5,2.5 0 0 1 1429,32.1094 L1429,1122.22 A2.5,2.5 0 0 1 1426.5,1124.72 L8.5,1124.72 A2.5,2.5 0 0 1 6,1122.22 L6,8.5 A2.5,2.5 0 0 1 8.5,6 " fill="none" style="stroke:#000000;stroke-width:1.5;"/><line style="stroke:#000000;stroke-width:1.5;" x1="6" x2="48" y1="29.6094" y2="29.6094"/><text fill="#000000" font-family="sans-serif" font-size="14" font-weight="bold" lengthAdjust="spacing" textLength="29" x="10" y="22.5332">com</text></g><!--cluster project--><g id="cluster_project"><path d="M32.5,50 L83.5,50 A3.75,3.75 0 0 1 86,52.5 L93,73.6094 L1402.5,73.6094 A2.5,2.5 0 0 1 1405,76.1094 L1405,1098.22 A2.5,2.5 0 0 1 1402.5,1100.72 L32.5,1100.72 A2.5,2.5 0 0 1 30,1098.22 L30,52.5 A2.5,2.5 0 0 1 32.5,50 " fill="none" style="stroke:#000000;stroke-width:1.5;"/><line style="stroke:#000000;stroke-width:1.5;" x1="30" x2="93" y1="73.6094" y2="73.6094"/><text fill="#000000" font-family="sans-serif" font-size="14" font-weight="bold" lengthAdjust="spacing" textLength="50" x="34" y="66.5332">project</text></g><!--cluster alfa--><g id="cluster_alfa"><path d="M56.5,94 L82.5,94 A3.75,3.75 0 0 1 85,96.5 L92,117.6094 L1378.5,117.6094 A2.5,2.5 0 0 1 1381,120.1094 L1381,1074.22 A2.5,2.5 0 0 1 1378.5,1076.72 L56.5,1076.72 A2.5,2.5 0 0 1 54,1074.22 L54,96.5 A2.5,2.5 0 0 1 56.5,94 " fill="none" style="stroke:#000000;stroke-width:1.5;"/><line style="stroke:#000000;stroke-width:1.5;" x1="54" x2="92" y1="117.6094" y2="117.6094"/><text fill="#000000" font-family="sans-serif" font-size="14" font-weight="bold" lengthAdjust="spacing" textLength="25" x="58" y="110.5332">alfa</text></g><!--cluster entities--><g id="cluster_entities"><path d="M80.5,138 L134.5,138 A3.75,3.75 0 0 1 137,140.5 L144,161.6094 L1354.5,161.6094 A2.5,2.5 0 0 1 1357,164.1094 L1357,1050.22 A2.5,2.5 0 0 1 1354.5,1052.72 L80.5,1052.72 A2.5,2.5 0 0 1 78,1050.22 L78,140.5 A2.5,2.5 0 0 1 80.5,138 " fill="none" style="stroke:#000000;stroke-width:1.5;"/><line style="stroke:#000000;stroke-width:1.5;" x1="78" x2="144" y1="161.6094" y2="161.6094"/><text fill="#000000" font-family="sans-serif" font-size="14" font-weight="bold" lengthAdjust="spacing" textLength="53" x="82" y="154.5332">entities</text></g><!--class Comment--><g id="elem_Comment"><rect codeLine="1" fill="#F1F1F1" height="206.4844" id="Comment" rx="2.5" ry="2.5" style="stroke:#181818;stroke-width:0.5;" width="293" x="230.5" y="537.34"/><ellipse cx="342.75" cy="553.34" fill="#ADD1B2" rx="11" ry="11" style="stroke:#181818;stroke-width:1.0;"/><path d="M344.75,549.84 Q344.9531,549.34 345.1875,549.09 Q345.4219,548.84 345.6875,548.84 Q346.1563,548.84 346.4531,549.1213 Q346.75,549.4025 346.75,550.0588 L346.75,551.6213 Q346.75,552.2775 346.4688,552.5588 Q346.1875,552.84 345.75,552.84 Q345.3594,552.84 345.1094,552.6681 Q344.8594,552.4963 344.75,552.0431 Q344.7031,551.7306 344.5313,551.5588 Q344.2188,551.2306 343.6563,551.0431 Q343.0938,550.84 342.5313,550.84 Q341.8281,550.84 341.2344,551.1213 Q340.6563,551.4025 340.2031,552.0275 Q339.75,552.6525 339.75,553.5119 L339.75,554.4338 Q339.75,555.465 340.5938,556.1525 Q341.4375,556.84 342.9375,556.84 Q343.8281,556.84 344.4531,556.6369 Q344.8125,556.5275 345.2188,556.1681 Q345.4844,555.965 345.625,555.9025 Q345.7656,555.84 345.9375,555.84 Q346.2656,555.84 346.5,556.1056 Q346.75,556.3556 346.75,556.715 Q346.75,557.0588 346.4063,557.465 Q345.9063,558.0588 345.1094,558.3869 Q344.0625,558.84 342.7813,558.84 Q341.2813,558.84 340.0781,558.2463 Q339.1094,557.7775 338.4219,556.7619 Q337.75,555.7463 337.75,554.5431 L337.75,553.4494 Q337.75,552.1994 338.3438,551.1056 Q338.9531,550.0119 340,549.4338 Q341.0625,548.84 342.25,548.84 Q342.9688,548.84 343.5938,549.09 Q344.2188,549.34 344.75,549.84 Z " fill="#000000"/><text fill="#000000" font-family="sans-serif" font-size="14" lengthAdjust="spacing" textLength="60" x="363.25" y="559.0685">Comment</text><line style="stroke:#181818;stroke-width:0.5;" x1="231.5" x2="522.5" y1="569.34" y2="569.34"/><rect fill="none" height="6" style="stroke:#C82930;stroke-width:1.0;" width="6" x="238.5" y="580.6447"/><text fill="#000000" font-family="sans-serif" font-size="14" lengthAdjust="spacing" textLength="47" x="250.5" y="587.8732">Long id</text><rect fill="none" height="6" style="stroke:#C82930;stroke-width:1.0;" width="6" x="238.5" y="598.2541"/><text fill="#000000" font-family="sans-serif" font-size="14" lengthAdjust="spacing" textLength="89" x="250.5" y="605.4826">Member writer</text><rect fill="none" height="6" style="stroke:#C82930;stroke-width:1.0;" width="6" x="238.5" y="615.8634"/><text fill="#000000" font-family="sans-serif" font-size="14" lengthAdjust="spacing" textLength="59" x="250.5" y="623.092">Post post</text><rect fill="none" height="6" style="stroke:#C82930;stroke-width:1.0;" width="6" x="238.5" y="633.4728"/><text fill="#000000" font-family="sans-serif" font-size="14" lengthAdjust="spacing" textLength="88" x="250.5" y="640.7013">String content</text><rect fill="none" height="6" style="stroke:#C82930;stroke-width:1.0;" width="6" x="238.5" y="651.0822"/><text fill="#000000" font-family="sans-serif" font-size="14" lengthAdjust="spacing" textLength="111" x="250.5" y="658.3107">boolean deleteYn</text><line style="stroke:#181818;stroke-width:0.5;" x1="231.5" x2="522.5" y1="665.3869" y2="665.3869"/><rect fill="#F24D5C" height="6" style="stroke:#C82930;stroke-width:1.0;" width="6" x="238.5" y="676.6916"/><text fill="#000000" font-family="sans-serif" font-size="14" lengthAdjust="spacing" textLength="267" x="250.5" y="683.9201">void setRelationshipWithMember(Member)</text><rect fill="#F24D5C" height="6" style="stroke:#C82930;stroke-width:1.0;" width="6" x="238.5" y="694.3009"/><text fill="#000000" font-family="sans-serif" font-size="14" lengthAdjust="spacing" textLength="221" x="250.5" y="701.5295">void setRelationshipWithPost(Post)</text><ellipse cx="241.5" cy="714.9103" fill="#84BE84" rx="3" ry="3" style="stroke:#038048;stroke-width:1.0;"/><text fill="#000000" font-family="sans-serif" font-size="14" lengthAdjust="spacing" textLength="171" x="250.5" y="719.1388">void updateContent(String)</text><ellipse cx="241.5" cy="732.5197" fill="#84BE84" rx="3" ry="3" style="stroke:#038048;stroke-width:1.0;"/><text fill="#000000" font-family="sans-serif" font-size="14" lengthAdjust="spacing" textLength="142" x="250.5" y="736.7482">void isDelete(boolean)</text></g><!--class Member--><g id="elem_Member"><rect codeLine="14" fill="#F1F1F1" height="400.1875" id="Member" rx="2.5" ry="2.5" style="stroke:#181818;stroke-width:0.5;" width="250" x="558" y="440.49"/><ellipse cx="653.25" cy="456.49" fill="#ADD1B2" rx="11" ry="11" style="stroke:#181818;stroke-width:1.0;"/><path d="M655.25,452.99 Q655.4531,452.49 655.6875,452.24 Q655.9219,451.99 656.1875,451.99 Q656.6563,451.99 656.9531,452.2713 Q657.25,452.5525 657.25,453.2088 L657.25,454.7713 Q657.25,455.4275 656.9688,455.7088 Q656.6875,455.99 656.25,455.99 Q655.8594,455.99 655.6094,455.8181 Q655.3594,455.6463 655.25,455.1931 Q655.2031,454.8806 655.0313,454.7088 Q654.7188,454.3806 654.1563,454.1931 Q653.5938,453.99 653.0313,453.99 Q652.3281,453.99 651.7344,454.2713 Q651.1563,454.5525 650.7031,455.1775 Q650.25,455.8025 650.25,456.6619 L650.25,457.5838 Q650.25,458.615 651.0938,459.3025 Q651.9375,459.99 653.4375,459.99 Q654.3281,459.99 654.9531,459.7869 Q655.3125,459.6775 655.7188,459.3181 Q655.9844,459.115 656.125,459.0525 Q656.2656,458.99 656.4375,458.99 Q656.7656,458.99 657,459.2556 Q657.25,459.5056 657.25,459.865 Q657.25,460.2088 656.9063,460.615 Q656.4063,461.2088 655.6094,461.5369 Q654.5625,461.99 653.2813,461.99 Q651.7813,461.99 650.5781,461.3963 Q649.6094,460.9275 648.9219,459.9119 Q648.25,458.8963 648.25,457.6931 L648.25,456.5994 Q648.25,455.3494 648.8438,454.2556 Q649.4531,453.1619 650.5,452.5838 Q651.5625,451.99 652.75,451.99 Q653.4688,451.99 654.0938,452.24 Q654.7188,452.49 655.25,452.99 Z " fill="#000000"/><text fill="#000000" font-family="sans-serif" font-size="14" lengthAdjust="spacing" textLength="51" x="673.75" y="462.2185">Member</text><line style="stroke:#181818;stroke-width:0.5;" x1="559" x2="807" y1="472.49" y2="472.49"/><rect fill="none" height="6" style="stroke:#C82930;stroke-width:1.0;" width="6" x="566" y="483.7947"/><text fill="#000000" font-family="sans-serif" font-size="14" lengthAdjust="spacing" textLength="47" x="578" y="491.0232">Long id</text><rect fill="none" height="6" style="stroke:#C82930;stroke-width:1.0;" width="6" x="566" y="501.4041"/><text fill="#000000" font-family="sans-serif" font-size="14" lengthAdjust="spacing" textLength="104" x="578" y="508.6326">String username</text><rect fill="none" height="6" style="stroke:#C82930;stroke-width:1.0;" width="6" x="566" y="519.0134"/><text fill="#000000" font-family="sans-serif" font-size="14" lengthAdjust="spacing" textLength="101" x="578" y="526.242">String password</text><rect fill="none" height="6" style="stroke:#C82930;stroke-width:1.0;" width="6" x="566" y="536.6228"/><text fill="#000000" font-family="sans-serif" font-size="14" lengthAdjust="spacing" textLength="107" x="578" y="543.8513">AuthInfo authInfo</text><rect fill="none" height="6" style="stroke:#C82930;stroke-width:1.0;" width="6" x="566" y="554.2322"/><text fill="#000000" font-family="sans-serif" font-size="14" lengthAdjust="spacing" textLength="101" x="578" y="561.4607">String nickname</text><rect fill="none" height="6" style="stroke:#C82930;stroke-width:1.0;" width="6" x="566" y="571.8416"/><text fill="#000000" font-family="sans-serif" font-size="14" lengthAdjust="spacing" textLength="100" x="578" y="579.0701">String signature</text><rect fill="none" height="6" style="stroke:#C82930;stroke-width:1.0;" width="6" x="566" y="589.4509"/><text fill="#000000" font-family="sans-serif" font-size="14" lengthAdjust="spacing" textLength="57" x="578" y="596.6795">Role role</text><rect fill="none" height="6" style="stroke:#C82930;stroke-width:1.0;" width="6" x="566" y="607.0603"/><text fill="#000000" font-family="sans-serif" font-size="14" lengthAdjust="spacing" textLength="111" x="578" y="614.2888">boolean deleteYn</text><rect fill="none" height="6" style="stroke:#C82930;stroke-width:1.0;" width="6" x="566" y="624.6697"/><text fill="#000000" font-family="sans-serif" font-size="14" lengthAdjust="spacing" textLength="104" x="578" y="631.8982">List&lt;Post&gt; posts</text><rect fill="none" height="6" style="stroke:#C82930;stroke-width:1.0;" width="6" x="566" y="642.2791"/><text fill="#000000" font-family="sans-serif" font-size="14" lengthAdjust="spacing" textLength="166" x="578" y="649.5076">List&lt;Comment&gt; comments</text><line style="stroke:#181818;stroke-width:0.5;" x1="559" x2="807" y1="656.5838" y2="656.5838"/><rect fill="#F24D5C" height="6" style="stroke:#C82930;stroke-width:1.0;" width="6" x="566" y="667.8884"/><text fill="#000000" font-family="sans-serif" font-size="14" lengthAdjust="spacing" textLength="216" x="578" y="675.117">void ensureUsernameLowercase()</text><ellipse cx="569" cy="688.4978" fill="#84BE84" rx="3" ry="3" style="stroke:#038048;stroke-width:1.0;"/><text fill="#000000" font-family="sans-serif" font-size="14" lengthAdjust="spacing" textLength="182" x="578" y="692.7263">void updatePassword(String)</text><ellipse cx="569" cy="706.1072" fill="#84BE84" rx="3" ry="3" style="stroke:#038048;stroke-width:1.0;"/><text fill="#000000" font-family="sans-serif" font-size="14" lengthAdjust="spacing" textLength="118" x="578" y="710.3357">void authenticate()</text><ellipse cx="569" cy="723.7166" fill="#84BE84" rx="3" ry="3" style="stroke:#038048;stroke-width:1.0;"/><text fill="#000000" font-family="sans-serif" font-size="14" lengthAdjust="spacing" textLength="224" x="578" y="727.9451">void updateEmailAuthToken(String)</text><ellipse cx="569" cy="741.3259" fill="#84BE84" rx="3" ry="3" style="stroke:#038048;stroke-width:1.0;"/><text fill="#000000" font-family="sans-serif" font-size="14" lengthAdjust="spacing" textLength="182" x="578" y="745.5545">void updateNickname(String)</text><ellipse cx="569" cy="758.9353" fill="#84BE84" rx="3" ry="3" style="stroke:#038048;stroke-width:1.0;"/><text fill="#000000" font-family="sans-serif" font-size="14" lengthAdjust="spacing" textLength="182" x="578" y="763.1638">void updateSignature(String)</text><ellipse cx="569" cy="776.5447" fill="#84BE84" rx="3" ry="3" style="stroke:#038048;stroke-width:1.0;"/><text fill="#000000" font-family="sans-serif" font-size="14" lengthAdjust="spacing" textLength="142" x="578" y="780.7732">void updateRole(Role)</text><ellipse cx="569" cy="794.1541" fill="#84BE84" rx="3" ry="3" style="stroke:#038048;stroke-width:1.0;"/><text fill="#000000" font-family="sans-serif" font-size="14" lengthAdjust="spacing" textLength="142" x="578" y="798.3826">void isDelete(boolean)</text><ellipse cx="569" cy="811.7634" fill="#84BE84" rx="3" ry="3" style="stroke:#038048;stroke-width:1.0;"/><text fill="#000000" font-family="sans-serif" font-size="14" lengthAdjust="spacing" textLength="122" x="578" y="815.992">int getPostsCount()</text><ellipse cx="569" cy="829.3728" fill="#84BE84" rx="3" ry="3" style="stroke:#038048;stroke-width:1.0;"/><text fill="#000000" font-family="sans-serif" font-size="14" lengthAdjust="spacing" textLength="154" x="578" y="833.6013">int getCommentsCount()</text></g><!--class PersistentLogins--><g id="elem_PersistentLogins"><rect codeLine="38" fill="#F1F1F1" height="118.4375" id="PersistentLogins" rx="2.5" ry="2.5" style="stroke:#181818;stroke-width:0.5;" width="179" x="93.5" y="218.02"/><ellipse cx="127.4" cy="234.02" fill="#ADD1B2" rx="11" ry="11" style="stroke:#181818;stroke-width:1.0;"/><path d="M129.4,230.52 Q129.6031,230.02 129.8375,229.77 Q130.0719,229.52 130.3375,229.52 Q130.8063,229.52 131.1031,229.8012 Q131.4,230.0825 131.4,230.7387 L131.4,232.3012 Q131.4,232.9575 131.1188,233.2387 Q130.8375,233.52 130.4,233.52 Q130.0094,233.52 129.7594,233.3481 Q129.5094,233.1762 129.4,232.7231 Q129.3531,232.4106 129.1813,232.2387 Q128.8688,231.9106 128.3063,231.7231 Q127.7438,231.52 127.1813,231.52 Q126.4781,231.52 125.8844,231.8012 Q125.3063,232.0825 124.8531,232.7075 Q124.4,233.3325 124.4,234.1919 L124.4,235.1137 Q124.4,236.145 125.2438,236.8325 Q126.0875,237.52 127.5875,237.52 Q128.4781,237.52 129.1031,237.3169 Q129.4625,237.2075 129.8688,236.8481 Q130.1344,236.645 130.275,236.5825 Q130.4156,236.52 130.5875,236.52 Q130.9156,236.52 131.15,236.7856 Q131.4,237.0356 131.4,237.395 Q131.4,237.7387 131.0563,238.145 Q130.5563,238.7387 129.7594,239.0669 Q128.7125,239.52 127.4313,239.52 Q125.9313,239.52 124.7281,238.9262 Q123.7594,238.4575 123.0719,237.4419 Q122.4,236.4262 122.4,235.2231 L122.4,234.1294 Q122.4,232.8794 122.9938,231.7856 Q123.6031,230.6919 124.65,230.1137 Q125.7125,229.52 126.9,229.52 Q127.6188,229.52 128.2438,229.77 Q128.8688,230.02 129.4,230.52 Z " fill="#000000"/><text fill="#000000" font-family="sans-serif" font-size="14" lengthAdjust="spacing" textLength="105" x="145.6" y="239.7485">PersistentLogins</text><line style="stroke:#181818;stroke-width:0.5;" x1="94.5" x2="271.5" y1="250.02" y2="250.02"/><rect fill="none" height="6" style="stroke:#C82930;stroke-width:1.0;" width="6" x="101.5" y="261.3247"/><text fill="#000000" font-family="sans-serif" font-size="14" lengthAdjust="spacing" textLength="79" x="113.5" y="268.5532">String series</text><rect fill="none" height="6" style="stroke:#C82930;stroke-width:1.0;" width="6" x="101.5" y="278.9341"/><text fill="#000000" font-family="sans-serif" font-size="14" lengthAdjust="spacing" textLength="104" x="113.5" y="286.1626">String username</text><rect fill="none" height="6" style="stroke:#C82930;stroke-width:1.0;" width="6" x="101.5" y="296.5434"/><text fill="#000000" font-family="sans-serif" font-size="14" lengthAdjust="spacing" textLength="76" x="113.5" y="303.772">String token</text><rect fill="none" height="6" style="stroke:#C82930;stroke-width:1.0;" width="6" x="101.5" y="314.1528"/><text fill="#000000" font-family="sans-serif" font-size="14" lengthAdjust="spacing" textLength="153" x="113.5" y="321.3813">LocalDateTime lastUsed</text><line style="stroke:#181818;stroke-width:0.5;" x1="94.5" x2="271.5" y1="328.4575" y2="328.4575"/></g><!--class BaseTimeEntity--><g id="elem_BaseTimeEntity"><rect codeLine="45" fill="#F1F1F1" height="83.2188" id="BaseTimeEntity" rx="2.5" ry="2.5" style="stroke:#181818;stroke-width:0.5;" width="230" x="706" y="235.63"/><ellipse cx="767.75" cy="251.63" fill="#A9DCDF" rx="11" ry="11" style="stroke:#181818;stroke-width:1.0;"/><path d="M769.5,253.13 L766.2031,253.13 L765.7656,254.13 L765.7656,254.13 L766.2344,254.13 L766.75,254.755 L766.75,255.13 L766.75,255.505 L766.2344,256.13 L765.7656,256.13 L763.875,256.13 L763.2656,256.13 L762.75,255.505 L762.75,255.13 L762.75,254.755 L763.2656,254.13 L763.875,254.13 L766.1875,248.13 L765.3125,248.13 L764.2656,248.13 L763.75,247.505 L763.75,247.13 L763.75,246.755 L764.2656,246.13 L765.3125,246.13 L768.9844,246.13 L771.6719,254.13 L772.2344,254.13 L772.2344,254.13 L772.75,254.755 L772.75,255.13 L772.75,255.505 L772.2344,256.13 L771.6719,256.13 L769.7813,256.13 L769.2656,256.13 L768.75,255.505 L768.75,255.13 L768.75,254.755 L769.2656,254.13 L769.7813,254.13 L769.7813,254.13 L769.5,253.13 Z M768.9531,251.13 L767.75,247.5519 L766.7188,251.13 L768.9531,251.13 Z " fill="#000000"/><text fill="#000000" font-family="sans-serif" font-size="14" font-style="italic" lengthAdjust="spacing" textLength="98" x="788.25" y="257.3585">BaseTimeEntity</text><line style="stroke:#181818;stroke-width:0.5;" x1="707" x2="935" y1="267.63" y2="267.63"/><rect fill="none" height="6" style="stroke:#C82930;stroke-width:1.0;" width="6" x="714" y="278.9347"/><text fill="#000000" font-family="sans-serif" font-size="14" lengthAdjust="spacing" textLength="177" x="726" y="286.1632">LocalDateTime createdDate</text><rect fill="none" height="6" style="stroke:#C82930;stroke-width:1.0;" width="6" x="714" y="296.5441"/><text fill="#000000" font-family="sans-serif" font-size="14" lengthAdjust="spacing" textLength="204" x="726" y="303.7726">LocalDateTime lastModifiedDate</text><line style="stroke:#181818;stroke-width:0.5;" x1="707" x2="935" y1="310.8488" y2="310.8488"/></g><!--class Attachment--><g id="elem_Attachment"><rect codeLine="50" fill="#F1F1F1" height="136.0469" id="Attachment" rx="2.5" ry="2.5" style="stroke:#181818;stroke-width:0.5;" width="247" x="804.5" y="900.67"/><ellipse cx="888.25" cy="916.67" fill="#ADD1B2" rx="11" ry="11" style="stroke:#181818;stroke-width:1.0;"/><path d="M890.25,913.17 Q890.4531,912.67 890.6875,912.42 Q890.9219,912.17 891.1875,912.17 Q891.6563,912.17 891.9531,912.4513 Q892.25,912.7325 892.25,913.3888 L892.25,914.9513 Q892.25,915.6075 891.9688,915.8888 Q891.6875,916.17 891.25,916.17 Q890.8594,916.17 890.6094,915.9981 Q890.3594,915.8263 890.25,915.3731 Q890.2031,915.0606 890.0313,914.8888 Q889.7188,914.5606 889.1563,914.3731 Q888.5938,914.17 888.0313,914.17 Q887.3281,914.17 886.7344,914.4513 Q886.1563,914.7325 885.7031,915.3575 Q885.25,915.9825 885.25,916.8419 L885.25,917.7638 Q885.25,918.795 886.0938,919.4825 Q886.9375,920.17 888.4375,920.17 Q889.3281,920.17 889.9531,919.9669 Q890.3125,919.8575 890.7188,919.4981 Q890.9844,919.295 891.125,919.2325 Q891.2656,919.17 891.4375,919.17 Q891.7656,919.17 892,919.4356 Q892.25,919.6856 892.25,920.045 Q892.25,920.3888 891.9063,920.795 Q891.4063,921.3888 890.6094,921.7169 Q889.5625,922.17 888.2813,922.17 Q886.7813,922.17 885.5781,921.5763 Q884.6094,921.1075 883.9219,920.0919 Q883.25,919.0763 883.25,917.8731 L883.25,916.7794 Q883.25,915.5294 883.8438,914.4356 Q884.4531,913.3419 885.5,912.7638 Q886.5625,912.17 887.75,912.17 Q888.4688,912.17 889.0938,912.42 Q889.7188,912.67 890.25,913.17 Z " fill="#000000"/><text fill="#000000" font-family="sans-serif" font-size="14" lengthAdjust="spacing" textLength="71" x="908.75" y="922.3985">Attachment</text><line style="stroke:#181818;stroke-width:0.5;" x1="805.5" x2="1050.5" y1="932.67" y2="932.67"/><rect fill="none" height="6" style="stroke:#C82930;stroke-width:1.0;" width="6" x="812.5" y="943.9747"/><text fill="#000000" font-family="sans-serif" font-size="14" lengthAdjust="spacing" textLength="47" x="824.5" y="951.2032">Long id</text><rect fill="none" height="6" style="stroke:#C82930;stroke-width:1.0;" width="6" x="812.5" y="961.5841"/><text fill="#000000" font-family="sans-serif" font-size="14" lengthAdjust="spacing" textLength="59" x="824.5" y="968.8126">Post post</text><rect fill="none" height="6" style="stroke:#C82930;stroke-width:1.0;" width="6" x="812.5" y="979.1934"/><text fill="#000000" font-family="sans-serif" font-size="14" lengthAdjust="spacing" textLength="111" x="824.5" y="986.422">boolean deleteYn</text><line style="stroke:#181818;stroke-width:0.5;" x1="805.5" x2="1050.5" y1="993.4981" y2="993.4981"/><rect fill="#F24D5C" height="6" style="stroke:#C82930;stroke-width:1.0;" width="6" x="812.5" y="1004.8028"/><text fill="#000000" font-family="sans-serif" font-size="14" lengthAdjust="spacing" textLength="221" x="824.5" y="1012.0313">void setRelationshipWithPost(Post)</text><ellipse cx="815.5" cy="1025.4122" fill="#84BE84" rx="3" ry="3" style="stroke:#038048;stroke-width:1.0;"/><text fill="#000000" font-family="sans-serif" font-size="14" lengthAdjust="spacing" textLength="142" x="824.5" y="1029.6407">void isDelete(boolean)</text></g><!--class UploadFile--><g id="elem_UploadFile"><rect codeLine="59" fill="#F1F1F1" height="118.4375" id="UploadFile" rx="2.5" ry="2.5" style="stroke:#181818;stroke-width:0.5;" width="171" x="842.5" y="581.36"/><ellipse cx="889.75" cy="597.36" fill="#A9DCDF" rx="11" ry="11" style="stroke:#181818;stroke-width:1.0;"/><path d="M891.5,598.86 L888.2031,598.86 L887.7656,599.86 L887.7656,599.86 L888.2344,599.86 L888.75,600.485 L888.75,600.86 L888.75,601.235 L888.2344,601.86 L887.7656,601.86 L885.875,601.86 L885.2656,601.86 L884.75,601.235 L884.75,600.86 L884.75,600.485 L885.2656,599.86 L885.875,599.86 L888.1875,593.86 L887.3125,593.86 L886.2656,593.86 L885.75,593.235 L885.75,592.86 L885.75,592.485 L886.2656,591.86 L887.3125,591.86 L890.9844,591.86 L893.6719,599.86 L894.2344,599.86 L894.2344,599.86 L894.75,600.485 L894.75,600.86 L894.75,601.235 L894.2344,601.86 L893.6719,601.86 L891.7813,601.86 L891.2656,601.86 L890.75,601.235 L890.75,600.86 L890.75,600.485 L891.2656,599.86 L891.7813,599.86 L891.7813,599.86 L891.5,598.86 Z M890.9531,596.86 L889.75,593.2819 L888.7188,596.86 L890.9531,596.86 Z " fill="#000000"/><text fill="#000000" font-family="sans-serif" font-size="14" font-style="italic" lengthAdjust="spacing" textLength="68" x="910.25" y="603.0885">UploadFile</text><line style="stroke:#181818;stroke-width:0.5;" x1="843.5" x2="1012.5" y1="613.36" y2="613.36"/><rect fill="none" height="6" style="stroke:#C82930;stroke-width:1.0;" width="6" x="850.5" y="624.6647"/><text fill="#000000" font-family="sans-serif" font-size="14" lengthAdjust="spacing" textLength="145" x="862.5" y="631.8932">String originalFilename</text><rect fill="none" height="6" style="stroke:#C82930;stroke-width:1.0;" width="6" x="850.5" y="642.2741"/><text fill="#000000" font-family="sans-serif" font-size="14" lengthAdjust="spacing" textLength="131" x="862.5" y="649.5026">String storeFilename</text><rect fill="none" height="6" style="stroke:#C82930;stroke-width:1.0;" width="6" x="850.5" y="659.8834"/><text fill="#000000" font-family="sans-serif" font-size="14" lengthAdjust="spacing" textLength="125" x="862.5" y="667.112">String storeFilePath</text><rect fill="none" height="6" style="stroke:#C82930;stroke-width:1.0;" width="6" x="850.5" y="677.4928"/><text fill="#000000" font-family="sans-serif" font-size="14" lengthAdjust="spacing" textLength="80" x="862.5" y="684.7213">Long fileSize</text><line style="stroke:#181818;stroke-width:0.5;" x1="843.5" x2="1012.5" y1="691.7975" y2="691.7975"/></g><!--class AuthInfo--><g id="elem_AuthInfo"><rect codeLine="66" fill="#F1F1F1" height="206.4844" id="AuthInfo" rx="2.5" ry="2.5" style="stroke:#181818;stroke-width:0.5;" width="257" x="307.5" y="174"/><ellipse cx="405.75" cy="190" fill="#ADD1B2" rx="11" ry="11" style="stroke:#181818;stroke-width:1.0;"/><path d="M407.75,186.5 Q407.9531,186 408.1875,185.75 Q408.4219,185.5 408.6875,185.5 Q409.1563,185.5 409.4531,185.7813 Q409.75,186.0625 409.75,186.7188 L409.75,188.2813 Q409.75,188.9375 409.4688,189.2188 Q409.1875,189.5 408.75,189.5 Q408.3594,189.5 408.1094,189.3281 Q407.8594,189.1563 407.75,188.7031 Q407.7031,188.3906 407.5313,188.2188 Q407.2188,187.8906 406.6563,187.7031 Q406.0938,187.5 405.5313,187.5 Q404.8281,187.5 404.2344,187.7813 Q403.6563,188.0625 403.2031,188.6875 Q402.75,189.3125 402.75,190.1719 L402.75,191.0938 Q402.75,192.125 403.5938,192.8125 Q404.4375,193.5 405.9375,193.5 Q406.8281,193.5 407.4531,193.2969 Q407.8125,193.1875 408.2188,192.8281 Q408.4844,192.625 408.625,192.5625 Q408.7656,192.5 408.9375,192.5 Q409.2656,192.5 409.5,192.7656 Q409.75,193.0156 409.75,193.375 Q409.75,193.7188 409.4063,194.125 Q408.9063,194.7188 408.1094,195.0469 Q407.0625,195.5 405.7813,195.5 Q404.2813,195.5 403.0781,194.9063 Q402.1094,194.4375 401.4219,193.4219 Q400.75,192.4063 400.75,191.2031 L400.75,190.1094 Q400.75,188.8594 401.3438,187.7656 Q401.9531,186.6719 403,186.0938 Q404.0625,185.5 405.25,185.5 Q405.9688,185.5 406.5938,185.75 Q407.2188,186 407.75,186.5 Z " fill="#000000"/><text fill="#000000" font-family="sans-serif" font-size="14" lengthAdjust="spacing" textLength="52" x="426.25" y="195.7285">AuthInfo</text><line style="stroke:#181818;stroke-width:0.5;" x1="308.5" x2="563.5" y1="206" y2="206"/><rect fill="none" height="6" style="stroke:#C82930;stroke-width:1.0;" width="6" x="315.5" y="217.3047"/><text fill="#000000" font-family="sans-serif" font-size="14" lengthAdjust="spacing" text-decoration="underline" textLength="160" x="327.5" y="224.5332">Long MAX_EXPIRE_TIME</text><rect fill="none" height="6" style="stroke:#C82930;stroke-width:1.0;" width="6" x="315.5" y="234.9141"/><text fill="#000000" font-family="sans-serif" font-size="14" lengthAdjust="spacing" textLength="83" x="327.5" y="242.1426">boolean auth</text><rect fill="none" height="6" style="stroke:#C82930;stroke-width:1.0;" width="6" x="315.5" y="252.5234"/><text fill="#000000" font-family="sans-serif" font-size="14" lengthAdjust="spacing" textLength="216" x="327.5" y="259.752">LocalDateTime authenticatedTime</text><rect fill="none" height="6" style="stroke:#C82930;stroke-width:1.0;" width="6" x="315.5" y="270.1328"/><text fill="#000000" font-family="sans-serif" font-size="14" lengthAdjust="spacing" textLength="143" x="327.5" y="277.3613">String emailAuthToken</text><rect fill="none" height="6" style="stroke:#C82930;stroke-width:1.0;" width="6" x="315.5" y="287.7422"/><text fill="#000000" font-family="sans-serif" font-size="14" lengthAdjust="spacing" textLength="231" x="327.5" y="294.9707">LocalDateTime emailAuthExpireTime</text><rect fill="none" height="6" style="stroke:#C82930;stroke-width:1.0;" width="6" x="315.5" y="305.3516"/><text fill="#000000" font-family="sans-serif" font-size="14" lengthAdjust="spacing" textLength="131" x="327.5" y="312.5801">String oAuthProvider</text><rect fill="none" height="6" style="stroke:#C82930;stroke-width:1.0;" width="6" x="315.5" y="322.9609"/><text fill="#000000" font-family="sans-serif" font-size="14" lengthAdjust="spacing" textLength="142" x="327.5" y="330.1895">String oAuthProviderId</text><line style="stroke:#181818;stroke-width:0.5;" x1="308.5" x2="563.5" y1="337.2656" y2="337.2656"/><ellipse cx="318.5" cy="351.5703" fill="#84BE84" rx="3" ry="3" style="stroke:#038048;stroke-width:1.0;"/><text fill="#000000" font-family="sans-serif" font-size="14" lengthAdjust="spacing" textLength="128" x="327.5" y="355.7988">void authComplete()</text><ellipse cx="318.5" cy="369.1797" fill="#84BE84" rx="3" ry="3" style="stroke:#038048;stroke-width:1.0;"/><text fill="#000000" font-family="sans-serif" font-size="14" lengthAdjust="spacing" textLength="224" x="327.5" y="373.4082">void updateEmailAuthToken(String)</text></g><!--class Role--><g id="elem_Role"><rect codeLine="79" fill="#F1F1F1" height="100.8281" id="Role" rx="2.5" ry="2.5" style="stroke:#181818;stroke-width:0.5;" width="101" x="94.5" y="590.17"/><ellipse cx="127.5" cy="606.17" fill="#EB937F" rx="11" ry="11" style="stroke:#181818;stroke-width:1.0;"/><path d="M126,607.17 L126,609.17 L130,609.17 L130,608.17 L130,607.6856 L130.625,607.17 L131,607.17 L131.375,607.17 L132,607.6856 L132,608.17 L132,611.17 L124,611.17 L123.5156,611.17 L123,610.545 L123,610.17 L123,609.795 L123.5156,609.17 L124,609.17 L124,609.17 L124,603.17 L124,603.17 L123.5156,603.17 L123,602.545 L123,602.17 L123,601.795 L123.5156,601.17 L124,601.17 L132,601.17 L132,604.17 L132,604.6544 L131.375,605.17 L131,605.17 L130.625,605.17 L130,604.6544 L130,604.17 L130,603.17 L126,603.17 L126,605.17 L127,605.17 L127,604.6856 L127,604.6856 L127.625,604.17 L128,604.17 L128.375,604.17 L129,604.6856 L129,605.17 L129,607.17 L129,607.6544 L128.375,608.17 L128.375,608.17 L128,608.17 L127.625,608.17 L127,607.6544 L127,607.6544 L127,607.17 L126,607.17 Z " fill="#000000"/><text fill="#000000" font-family="sans-serif" font-size="14" lengthAdjust="spacing" textLength="29" x="145.5" y="611.8985">Role</text><line style="stroke:#181818;stroke-width:0.5;" x1="95.5" x2="194.5" y1="622.17" y2="622.17"/><ellipse cx="105.5" cy="636.4747" fill="none" rx="3" ry="3" style="stroke:#038048;stroke-width:1.0;"/><text fill="#000000" font-family="sans-serif" font-size="14" lengthAdjust="spacing" textLength="42" x="114.5" y="640.7032">ADMIN</text><ellipse cx="105.5" cy="654.0841" fill="none" rx="3" ry="3" style="stroke:#038048;stroke-width:1.0;"/><text fill="#000000" font-family="sans-serif" font-size="14" lengthAdjust="spacing" textLength="37" x="114.5" y="658.3126">USER</text><rect fill="none" height="6" style="stroke:#C82930;stroke-width:1.0;" width="6" x="102.5" y="668.6934"/><text fill="#000000" font-family="sans-serif" font-size="14" lengthAdjust="spacing" textLength="75" x="114.5" y="675.922">String value</text><line style="stroke:#181818;stroke-width:0.5;" x1="95.5" x2="194.5" y1="682.9981" y2="682.9981"/></g><!--class Post--><g id="elem_Post"><rect codeLine="85" fill="#F1F1F1" height="347.3594" id="Post" rx="2.5" ry="2.5" style="stroke:#181818;stroke-width:0.5;" width="293" x="1048.5" y="466.9"/><ellipse cx="1176.75" cy="482.9" fill="#ADD1B2" rx="11" ry="11" style="stroke:#181818;stroke-width:1.0;"/><path d="M1178.75,479.4 Q1178.9531,478.9 1179.1875,478.65 Q1179.4219,478.4 1179.6875,478.4 Q1180.1563,478.4 1180.4531,478.6813 Q1180.75,478.9625 1180.75,479.6188 L1180.75,481.1813 Q1180.75,481.8375 1180.4688,482.1188 Q1180.1875,482.4 1179.75,482.4 Q1179.3594,482.4 1179.1094,482.2281 Q1178.8594,482.0563 1178.75,481.6031 Q1178.7031,481.2906 1178.5313,481.1188 Q1178.2188,480.7906 1177.6563,480.6031 Q1177.0938,480.4 1176.5313,480.4 Q1175.8281,480.4 1175.2344,480.6813 Q1174.6563,480.9625 1174.2031,481.5875 Q1173.75,482.2125 1173.75,483.0719 L1173.75,483.9938 Q1173.75,485.025 1174.5938,485.7125 Q1175.4375,486.4 1176.9375,486.4 Q1177.8281,486.4 1178.4531,486.1969 Q1178.8125,486.0875 1179.2188,485.7281 Q1179.4844,485.525 1179.625,485.4625 Q1179.7656,485.4 1179.9375,485.4 Q1180.2656,485.4 1180.5,485.6656 Q1180.75,485.9156 1180.75,486.275 Q1180.75,486.6188 1180.4063,487.025 Q1179.9063,487.6188 1179.1094,487.9469 Q1178.0625,488.4 1176.7813,488.4 Q1175.2813,488.4 1174.0781,487.8063 Q1173.1094,487.3375 1172.4219,486.3219 Q1171.75,485.3063 1171.75,484.1031 L1171.75,483.0094 Q1171.75,481.7594 1172.3438,480.6656 Q1172.9531,479.5719 1174,478.9938 Q1175.0625,478.4 1176.25,478.4 Q1176.9688,478.4 1177.5938,478.65 Q1178.2188,478.9 1178.75,479.4 Z " fill="#000000"/><text fill="#000000" font-family="sans-serif" font-size="14" lengthAdjust="spacing" textLength="28" x="1197.25" y="488.6285">Post</text><line style="stroke:#181818;stroke-width:0.5;" x1="1049.5" x2="1340.5" y1="498.9" y2="498.9"/><rect fill="none" height="6" style="stroke:#C82930;stroke-width:1.0;" width="6" x="1056.5" y="510.2047"/><text fill="#000000" font-family="sans-serif" font-size="14" lengthAdjust="spacing" textLength="47" x="1068.5" y="517.4332">Long id</text><rect fill="none" height="6" style="stroke:#C82930;stroke-width:1.0;" width="6" x="1056.5" y="527.8141"/><text fill="#000000" font-family="sans-serif" font-size="14" lengthAdjust="spacing" textLength="89" x="1068.5" y="535.0426">Member writer</text><rect fill="none" height="6" style="stroke:#C82930;stroke-width:1.0;" width="6" x="1056.5" y="545.4234"/><text fill="#000000" font-family="sans-serif" font-size="14" lengthAdjust="spacing" textLength="63" x="1068.5" y="552.652">String title</text><rect fill="none" height="6" style="stroke:#C82930;stroke-width:1.0;" width="6" x="1056.5" y="563.0328"/><text fill="#000000" font-family="sans-serif" font-size="14" lengthAdjust="spacing" textLength="88" x="1068.5" y="570.2613">String content</text><rect fill="none" height="6" style="stroke:#C82930;stroke-width:1.0;" width="6" x="1056.5" y="580.6422"/><text fill="#000000" font-family="sans-serif" font-size="14" lengthAdjust="spacing" textLength="84" x="1068.5" y="587.8707">int viewCount</text><rect fill="none" height="6" style="stroke:#C82930;stroke-width:1.0;" width="6" x="1056.5" y="598.2516"/><text fill="#000000" font-family="sans-serif" font-size="14" lengthAdjust="spacing" textLength="110" x="1068.5" y="605.4801">boolean noticeYn</text><rect fill="none" height="6" style="stroke:#C82930;stroke-width:1.0;" width="6" x="1056.5" y="615.8609"/><text fill="#000000" font-family="sans-serif" font-size="14" lengthAdjust="spacing" textLength="111" x="1068.5" y="623.0895">boolean deleteYn</text><rect fill="none" height="6" style="stroke:#C82930;stroke-width:1.0;" width="6" x="1056.5" y="633.4703"/><text fill="#000000" font-family="sans-serif" font-size="14" lengthAdjust="spacing" textLength="166" x="1068.5" y="640.6988">List&lt;Comment&gt; comments</text><rect fill="none" height="6" style="stroke:#C82930;stroke-width:1.0;" width="6" x="1056.5" y="651.0797"/><text fill="#000000" font-family="sans-serif" font-size="14" lengthAdjust="spacing" textLength="190" x="1068.5" y="658.3082">List&lt;Attachment&gt; attachments</text><line style="stroke:#181818;stroke-width:0.5;" x1="1049.5" x2="1340.5" y1="665.3844" y2="665.3844"/><rect fill="#F24D5C" height="6" style="stroke:#C82930;stroke-width:1.0;" width="6" x="1056.5" y="676.6891"/><text fill="#000000" font-family="sans-serif" font-size="14" lengthAdjust="spacing" textLength="267" x="1068.5" y="683.9176">void setRelationshipWithMember(Member)</text><ellipse cx="1059.5" cy="697.2984" fill="#84BE84" rx="3" ry="3" style="stroke:#038048;stroke-width:1.0;"/><text fill="#000000" font-family="sans-serif" font-size="14" lengthAdjust="spacing" textLength="148" x="1068.5" y="701.527">void updateTitle(String)</text><ellipse cx="1059.5" cy="714.9078" fill="#84BE84" rx="3" ry="3" style="stroke:#038048;stroke-width:1.0;"/><text fill="#000000" font-family="sans-serif" font-size="14" lengthAdjust="spacing" textLength="171" x="1068.5" y="719.1363">void updateContent(String)</text><ellipse cx="1059.5" cy="732.5172" fill="#84BE84" rx="3" ry="3" style="stroke:#038048;stroke-width:1.0;"/><text fill="#000000" font-family="sans-serif" font-size="14" lengthAdjust="spacing" textLength="191" x="1068.5" y="736.7457">void updateNoticeYn(boolean)</text><ellipse cx="1059.5" cy="750.1266" fill="#84BE84" rx="3" ry="3" style="stroke:#038048;stroke-width:1.0;"/><text fill="#000000" font-family="sans-serif" font-size="14" lengthAdjust="spacing" textLength="142" x="1068.5" y="754.3551">void isDelete(boolean)</text><ellipse cx="1059.5" cy="767.7359" fill="#84BE84" rx="3" ry="3" style="stroke:#038048;stroke-width:1.0;"/><text fill="#000000" font-family="sans-serif" font-size="14" lengthAdjust="spacing" textLength="131" x="1068.5" y="771.9645">void addViewCount()</text><ellipse cx="1059.5" cy="785.3453" fill="#84BE84" rx="3" ry="3" style="stroke:#038048;stroke-width:1.0;"/><text fill="#000000" font-family="sans-serif" font-size="14" lengthAdjust="spacing" textLength="154" x="1068.5" y="789.5738">int getCommentsCount()</text><ellipse cx="1059.5" cy="802.9547" fill="#84BE84" rx="3" ry="3" style="stroke:#038048;stroke-width:1.0;"/><text fill="#000000" font-family="sans-serif" font-size="14" lengthAdjust="spacing" textLength="165" x="1068.5" y="807.1832">int getAttachmentsCount()</text></g><!--reverse link BaseTimeEntity to Comment--><g id="link_BaseTimeEntity_Comment"><path codeLine="108" d="M713.36,329.02 C658.7,357.59 593.03,396.35 541,440.49 C507.96,468.51 476.47,503.79 450.07,536.84 " fill="none" id="BaseTimeEntity-backto-Comment" style="stroke:#181818;stroke-width:1.0;"/><polygon fill="none" points="709.86,322.95,730.85,320.04,716.26,335.4,709.86,322.95" style="stroke:#181818;stroke-width:1.0;"/></g><!--reverse link BaseTimeEntity to Member--><g id="link_BaseTimeEntity_Member"><path codeLine="109" d="M797.73,339.17 C786.85,367.66 773.21,403.38 759.16,440.15 " fill="none" id="BaseTimeEntity-backto-Member" style="stroke:#181818;stroke-width:1.0;"/><polygon fill="none" points="791.09,336.94,804.76,320.76,804.17,341.94,791.09,336.94" style="stroke:#181818;stroke-width:1.0;"/></g><!--reverse link UploadFile to Attachment--><g id="link_UploadFile_Attachment"><path codeLine="110" d="M928,721.47 C928,776.29 928,848.24 928,900.2 " fill="none" id="UploadFile-backto-Attachment" style="stroke:#181818;stroke-width:1.0;"/><polygon fill="none" points="921,721.77,928,701.77,935,721.77,921,721.77" style="stroke:#181818;stroke-width:1.0;"/></g><!--reverse link BaseTimeEntity to UploadFile--><g id="link_BaseTimeEntity_UploadFile"><path codeLine="111" d="M839.21,339.73 C859.18,407.17 891,514.62 910.63,580.92 " fill="none" id="BaseTimeEntity-backto-UploadFile" style="stroke:#181818;stroke-width:1.0;"/><polygon fill="none" points="832.57,341.96,833.6,320.79,845.99,337.98,832.57,341.96" style="stroke:#181818;stroke-width:1.0;"/></g><!--reverse link BaseTimeEntity to Post--><g id="link_BaseTimeEntity_Post"><path codeLine="112" d="M898.66,331.79 C939.8,361.71 990.13,400.87 1031,440.49 C1039.6,448.82 1048.2,457.59 1056.69,466.61 " fill="none" id="BaseTimeEntity-backto-Post" style="stroke:#181818;stroke-width:1.0;"/><polygon fill="none" points="894.74,337.59,882.59,320.23,902.91,326.22,894.74,337.59" style="stroke:#181818;stroke-width:1.0;"/></g><!--SRC=[hLRRRjim37ttL-WnHT5yGL4WIpqWG584kMpTKw5AJABLbWn9JhPr_VUHjXmxgUjuG5ySYQ8edaCTAYBXpZ5Xqc5cpKyGViYJ3H-2ziehSCEnILESiDVeXasDtZ8bSJI3z1aiErZbmU9yRfnd6NvmlFHMePymskD6D3mRam3NJ4827dveDEsDaio1Nq32lJBQxLJsNVbT6NTG_bnrEDA10_fSHTUbKvv9xc5SdZeeapWkAdTV73u8kLn5Rr4KYGlO0yfJw05Uxi1gda9joJ3OmLZo6UL-Dz4RmtWOr5vQYPVJVKvjDVUv9TC2isCMF-sqJPNpjuJwhY3RLQPGf3l2GWDNCGVQOU1ro7Lg3c05Tp0uOsqUKZ-dZT8dDWJwdE-9KwuI0heoBw3FTvO-3m5i- -go0jw-J5mCwDDHnMkcy6vkmHCfRcnoB7t36dWvBlGf-XoiGqvnFZLRfLrH_gfKOD6bwn9u8gEuBu8dzuXYfL9WUAJ78aXAW3yxRxdmx58YNx1Gj3icm-zm2vjHXGKSIfgtdZWpKcrKS7YxZ7paFHUx5hKtrVqVOdwlqNOPzcPadIM6owyADT8eYh4AwyGJifyfoniB7UOvzxiAw0RdI_Md7r6Ll2cBL-SHjNWhmyn6Zq_nutooY9zMardS88oqzAvCJO59ijHPmec-tkqyBiU_CcNXTA-XXRarUoMBzjncdiYcob4fML6PVYgdie7EqmwIYbRsYj7Ow7usUQ31UXalwcpsFCbxqLrSl-xtfrAVyWcqFK7K3_OA3aKZQ1H56-I-lCKVjTkstbeir7AvO_muTlrVjnEYLvHwUoFyu4qBBJOWQFR43vjbMMuflrLKT3NBuq8DzAIHOk7wzgxRlpStb_zZV5gyak2eLoEv4Ah6_cdPrOT_MaXIo3y0]--></g></svg>