<?xml version="1.0" encoding="us-ascii" standalone="no"?><svg xmlns="http://www.w3.org/2000/svg" xmlns:xlink="http://www.w3.org/1999/xlink" contentStyleType="text/css" height="1006px" preserveAspectRatio="none" style="width:1941px;height:1006px;background:#FFFFFF;" version="1.1" viewBox="0 0 1941 1006" width="1941px" zoomAndPan="magnify"><defs/><g><!--cluster com--><g id="cluster_com"><path d="M8.5,6 L38.5,6 A3.75,3.75 0 0 1 41,8.5 L48,29.6094 L1931.5,29.6094 A2.5,2.5 0 0 1 1934,32.1094 L1934,996.52 A2.5,2.5 0 0 1 1931.5,999.02 L8.5,999.02 A2.5,2.5 0 0 1 6,996.52 L6,8.5 A2.5,2.5 0 0 1 8.5,6 " fill="none" style="stroke:#000000;stroke-width:1.5;"/><line style="stroke:#000000;stroke-width:1.5;" x1="6" x2="48" y1="29.6094" y2="29.6094"/><text fill="#000000" font-family="sans-serif" font-size="14" font-weight="bold" lengthAdjust="spacing" textLength="29" x="10" y="22.5332">com</text></g><!--cluster project--><g id="cluster_project"><path d="M32.5,50 L83.5,50 A3.75,3.75 0 0 1 86,52.5 L93,73.6094 L1907.5,73.6094 A2.5,2.5 0 0 1 1910,76.1094 L1910,972.52 A2.5,2.5 0 0 1 1907.5,975.02 L32.5,975.02 A2.5,2.5 0 0 1 30,972.52 L30,52.5 A2.5,2.5 0 0 1 32.5,50 " fill="none" style="stroke:#000000;stroke-width:1.5;"/><line style="stroke:#000000;stroke-width:1.5;" x1="30" x2="93" y1="73.6094" y2="73.6094"/><text fill="#000000" font-family="sans-serif" font-size="14" font-weight="bold" lengthAdjust="spacing" textLength="50" x="34" y="66.5332">project</text></g><!--cluster alfa--><g id="cluster_alfa"><path d="M56.5,94 L82.5,94 A3.75,3.75 0 0 1 85,96.5 L92,117.6094 L1883.5,117.6094 A2.5,2.5 0 0 1 1886,120.1094 L1886,948.52 A2.5,2.5 0 0 1 1883.5,951.02 L56.5,951.02 A2.5,2.5 0 0 1 54,948.52 L54,96.5 A2.5,2.5 0 0 1 56.5,94 " fill="none" style="stroke:#000000;stroke-width:1.5;"/><line style="stroke:#000000;stroke-width:1.5;" x1="54" x2="92" y1="117.6094" y2="117.6094"/><text fill="#000000" font-family="sans-serif" font-size="14" font-weight="bold" lengthAdjust="spacing" textLength="25" x="58" y="110.5332">alfa</text></g><!--cluster error--><g id="cluster_error"><path d="M80.5,138 L117.5,138 A3.75,3.75 0 0 1 120,140.5 L127,161.6094 L1859.5,161.6094 A2.5,2.5 0 0 1 1862,164.1094 L1862,924.52 A2.5,2.5 0 0 1 1859.5,927.02 L80.5,927.02 A2.5,2.5 0 0 1 78,924.52 L78,140.5 A2.5,2.5 0 0 1 80.5,138 " fill="none" style="stroke:#000000;stroke-width:1.5;"/><line style="stroke:#000000;stroke-width:1.5;" x1="78" x2="127" y1="161.6094" y2="161.6094"/><text fill="#000000" font-family="sans-serif" font-size="14" font-weight="bold" lengthAdjust="spacing" textLength="36" x="82" y="154.5332">error</text></g><!--cluster exception--><g id="cluster_exception"><path d="M104.5,182 L175.5,182 A3.75,3.75 0 0 1 178,184.5 L185,205.6094 L541.5,205.6094 A2.5,2.5 0 0 1 544,208.1094 L544,900.52 A2.5,2.5 0 0 1 541.5,903.02 L104.5,903.02 A2.5,2.5 0 0 1 102,900.52 L102,184.5 A2.5,2.5 0 0 1 104.5,182 " fill="none" style="stroke:#000000;stroke-width:1.5;"/><line style="stroke:#000000;stroke-width:1.5;" x1="102" x2="185" y1="205.6094" y2="205.6094"/><text fill="#000000" font-family="sans-serif" font-size="14" font-weight="bold" lengthAdjust="spacing" textLength="70" x="106" y="198.5332">exception</text></g><!--class GlobalExceptionHandler--><g id="elem_GlobalExceptionHandler"><rect codeLine="7" fill="#F1F1F1" height="171.2656" id="GlobalExceptionHandler" rx="2.5" ry="2.5" style="stroke:#181818;stroke-width:0.5;" width="840" x="563" y="314.86"/><ellipse cx="903.25" cy="330.86" fill="#ADD1B2" rx="11" ry="11" style="stroke:#181818;stroke-width:1.0;"/><path d="M905.25,327.36 Q905.4531,326.86 905.6875,326.61 Q905.9219,326.36 906.1875,326.36 Q906.6563,326.36 906.9531,326.6413 Q907.25,326.9225 907.25,327.5788 L907.25,329.1413 Q907.25,329.7975 906.9688,330.0788 Q906.6875,330.36 906.25,330.36 Q905.8594,330.36 905.6094,330.1881 Q905.3594,330.0163 905.25,329.5631 Q905.2031,329.2506 905.0313,329.0788 Q904.7188,328.7506 904.1563,328.5631 Q903.5938,328.36 903.0313,328.36 Q902.3281,328.36 901.7344,328.6413 Q901.1563,328.9225 900.7031,329.5475 Q900.25,330.1725 900.25,331.0319 L900.25,331.9538 Q900.25,332.985 901.0938,333.6725 Q901.9375,334.36 903.4375,334.36 Q904.3281,334.36 904.9531,334.1569 Q905.3125,334.0475 905.7188,333.6881 Q905.9844,333.485 906.125,333.4225 Q906.2656,333.36 906.4375,333.36 Q906.7656,333.36 907,333.6256 Q907.25,333.8756 907.25,334.235 Q907.25,334.5788 906.9063,334.985 Q906.4063,335.5788 905.6094,335.9069 Q904.5625,336.36 903.2813,336.36 Q901.7813,336.36 900.5781,335.7663 Q899.6094,335.2975 898.9219,334.2819 Q898.25,333.2663 898.25,332.0631 L898.25,330.9694 Q898.25,329.7194 898.8438,328.6256 Q899.4531,327.5319 900.5,326.9538 Q901.5625,326.36 902.75,326.36 Q903.4688,326.36 904.0938,326.61 Q904.7188,326.86 905.25,327.36 Z " fill="#000000"/><text fill="#000000" font-family="sans-serif" font-size="14" lengthAdjust="spacing" textLength="151" x="923.75" y="336.5885">GlobalExceptionHandler</text><line style="stroke:#181818;stroke-width:0.5;" x1="564" x2="1402" y1="346.86" y2="346.86"/><line style="stroke:#181818;stroke-width:0.5;" x1="564" x2="1402" y1="354.86" y2="354.86"/><polygon fill="#FFFF44" points="574,364.1647,578,368.1647,574,372.1647,570,368.1647" style="stroke:#B38D22;stroke-width:1.0;"/><text fill="#000000" font-family="sans-serif" font-size="14" lengthAdjust="spacing" textLength="710" x="583" y="373.3932">ResponseEntity&lt;ErrorResponse&gt; handleMethodArgumentNotValidException(MethodArgumentNotValidException)</text><polygon fill="#FFFF44" points="574,381.7741,578,385.7741,574,389.7741,570,385.7741" style="stroke:#B38D22;stroke-width:1.0;"/><text fill="#000000" font-family="sans-serif" font-size="14" lengthAdjust="spacing" textLength="446" x="583" y="391.0026">ResponseEntity&lt;ErrorResponse&gt; handleBindException(BindException)</text><polygon fill="#FFFF44" points="574,399.3834,578,403.3834,574,407.3834,570,403.3834" style="stroke:#B38D22;stroke-width:1.0;"/><text fill="#000000" font-family="sans-serif" font-size="14" lengthAdjust="spacing" textLength="788" x="583" y="408.612">ResponseEntity&lt;ErrorResponse&gt; handleMethodArgumentTypeMismatchException(MethodArgumentTypeMismatchException)</text><polygon fill="#FFFF44" points="574,416.9928,578,420.9928,574,424.9928,570,420.9928" style="stroke:#B38D22;stroke-width:1.0;"/><text fill="#000000" font-family="sans-serif" font-size="14" lengthAdjust="spacing" textLength="814" x="583" y="426.2213">ResponseEntity&lt;ErrorResponse&gt; handleHttpRequestMethodNotSupportedException(HttpRequestMethodNotSupportedException)</text><polygon fill="#FFFF44" points="574,434.6022,578,438.6022,574,442.6022,570,438.6022" style="stroke:#B38D22;stroke-width:1.0;"/><text fill="#000000" font-family="sans-serif" font-size="14" lengthAdjust="spacing" textLength="570" x="583" y="443.8307">ResponseEntity&lt;ErrorResponse&gt; handleAccessDeniedException(AccessDeniedException)</text><polygon fill="#FFFF44" points="574,452.2116,578,456.2116,574,460.2116,570,456.2116" style="stroke:#B38D22;stroke-width:1.0;"/><text fill="#000000" font-family="sans-serif" font-size="14" lengthAdjust="spacing" textLength="504" x="583" y="461.4401">ResponseEntity&lt;ErrorResponse&gt; handleBusinessException(BusinessException)</text><polygon fill="#FFFF44" points="574,469.8209,578,473.8209,574,477.8209,570,473.8209" style="stroke:#B38D22;stroke-width:1.0;"/><text fill="#000000" font-family="sans-serif" font-size="14" lengthAdjust="spacing" textLength="390" x="583" y="479.0495">ResponseEntity&lt;ErrorResponse&gt; handleException(Exception)</text></g><!--class ErrorResponse--><g id="elem_ErrorResponse"><rect codeLine="38" fill="#F1F1F1" height="188.875" id="ErrorResponse" rx="2.5" ry="2.5" style="stroke:#181818;stroke-width:0.5;" width="408" x="1438" y="306.05"/><ellipse cx="1589.75" cy="322.05" fill="#ADD1B2" rx="11" ry="11" style="stroke:#181818;stroke-width:1.0;"/><path d="M1591.75,318.55 Q1591.9531,318.05 1592.1875,317.8 Q1592.4219,317.55 1592.6875,317.55 Q1593.1563,317.55 1593.4531,317.8312 Q1593.75,318.1125 1593.75,318.7687 L1593.75,320.3312 Q1593.75,320.9875 1593.4688,321.2687 Q1593.1875,321.55 1592.75,321.55 Q1592.3594,321.55 1592.1094,321.3781 Q1591.8594,321.2062 1591.75,320.7531 Q1591.7031,320.4406 1591.5313,320.2687 Q1591.2188,319.9406 1590.6563,319.7531 Q1590.0938,319.55 1589.5313,319.55 Q1588.8281,319.55 1588.2344,319.8312 Q1587.6563,320.1125 1587.2031,320.7375 Q1586.75,321.3625 1586.75,322.2219 L1586.75,323.1437 Q1586.75,324.175 1587.5938,324.8625 Q1588.4375,325.55 1589.9375,325.55 Q1590.8281,325.55 1591.4531,325.3469 Q1591.8125,325.2375 1592.2188,324.8781 Q1592.4844,324.675 1592.625,324.6125 Q1592.7656,324.55 1592.9375,324.55 Q1593.2656,324.55 1593.5,324.8156 Q1593.75,325.0656 1593.75,325.425 Q1593.75,325.7687 1593.4063,326.175 Q1592.9063,326.7687 1592.1094,327.0969 Q1591.0625,327.55 1589.7813,327.55 Q1588.2813,327.55 1587.0781,326.9562 Q1586.1094,326.4875 1585.4219,325.4719 Q1584.75,324.4562 1584.75,323.2531 L1584.75,322.1594 Q1584.75,320.9094 1585.3438,319.8156 Q1585.9531,318.7219 1587,318.1437 Q1588.0625,317.55 1589.25,317.55 Q1589.9688,317.55 1590.5938,317.8 Q1591.2188,318.05 1591.75,318.55 Z " fill="#000000"/><text fill="#000000" font-family="sans-serif" font-size="14" lengthAdjust="spacing" textLength="96" x="1610.25" y="327.7785">ErrorResponse</text><line style="stroke:#181818;stroke-width:0.5;" x1="1439" x2="1845" y1="338.05" y2="338.05"/><rect fill="none" height="6" style="stroke:#C82930;stroke-width:1.0;" width="6" x="1446" y="349.3547"/><text fill="#000000" font-family="sans-serif" font-size="14" lengthAdjust="spacing" textLength="57" x="1458" y="356.5832">int status</text><rect fill="none" height="6" style="stroke:#C82930;stroke-width:1.0;" width="6" x="1446" y="366.9641"/><text fill="#000000" font-family="sans-serif" font-size="14" lengthAdjust="spacing" textLength="72" x="1458" y="374.1926">String code</text><rect fill="none" height="6" style="stroke:#C82930;stroke-width:1.0;" width="6" x="1446" y="384.5734"/><text fill="#000000" font-family="sans-serif" font-size="14" lengthAdjust="spacing" textLength="98" x="1458" y="391.802">String message</text><rect fill="none" height="6" style="stroke:#C82930;stroke-width:1.0;" width="6" x="1446" y="402.1828"/><text fill="#000000" font-family="sans-serif" font-size="14" lengthAdjust="spacing" textLength="143" x="1458" y="409.4113">List&lt;FieldError&gt; errors</text><line style="stroke:#181818;stroke-width:0.5;" x1="1439" x2="1845" y1="416.4875" y2="416.4875"/><ellipse cx="1449" cy="430.7922" fill="#84BE84" rx="3" ry="3" style="stroke:#038048;stroke-width:1.0;"/><text fill="#000000" font-family="sans-serif" font-size="14" lengthAdjust="spacing" text-decoration="underline" textLength="188" x="1458" y="435.0207">ErrorResponse of(ErrorCode)</text><ellipse cx="1449" cy="448.4016" fill="#84BE84" rx="3" ry="3" style="stroke:#038048;stroke-width:1.0;"/><text fill="#000000" font-family="sans-serif" font-size="14" lengthAdjust="spacing" text-decoration="underline" textLength="293" x="1458" y="452.6301">ErrorResponse of(ErrorCode,List&lt;FieldError&gt;)</text><ellipse cx="1449" cy="466.0109" fill="#84BE84" rx="3" ry="3" style="stroke:#038048;stroke-width:1.0;"/><text fill="#000000" font-family="sans-serif" font-size="14" lengthAdjust="spacing" text-decoration="underline" textLength="279" x="1458" y="470.2395">ErrorResponse of(ErrorCode,BindingResult)</text><ellipse cx="1449" cy="483.6203" fill="#84BE84" rx="3" ry="3" style="stroke:#038048;stroke-width:1.0;"/><text fill="#000000" font-family="sans-serif" font-size="14" lengthAdjust="spacing" text-decoration="underline" textLength="382" x="1458" y="487.8488">ErrorResponse of(MethodArgumentTypeMismatchException)</text></g><!--class ErrorResponse$FieldError--><g id="elem_ErrorResponse$FieldError"><rect codeLine="50" fill="#F1F1F1" height="136.0469" id="ErrorResponse$FieldError" rx="2.5" ry="2.5" style="stroke:#181818;stroke-width:0.5;" width="272" x="1506" y="642.97"/><ellipse cx="1554.25" cy="658.97" fill="#ADD1B2" rx="11" ry="11" style="stroke:#181818;stroke-width:1.0;"/><path d="M1556.25,655.47 Q1556.4531,654.97 1556.6875,654.72 Q1556.9219,654.47 1557.1875,654.47 Q1557.6563,654.47 1557.9531,654.7513 Q1558.25,655.0325 1558.25,655.6888 L1558.25,657.2513 Q1558.25,657.9075 1557.9688,658.1888 Q1557.6875,658.47 1557.25,658.47 Q1556.8594,658.47 1556.6094,658.2981 Q1556.3594,658.1263 1556.25,657.6731 Q1556.2031,657.3606 1556.0313,657.1888 Q1555.7188,656.8606 1555.1563,656.6731 Q1554.5938,656.47 1554.0313,656.47 Q1553.3281,656.47 1552.7344,656.7513 Q1552.1563,657.0325 1551.7031,657.6575 Q1551.25,658.2825 1551.25,659.1419 L1551.25,660.0638 Q1551.25,661.095 1552.0938,661.7825 Q1552.9375,662.47 1554.4375,662.47 Q1555.3281,662.47 1555.9531,662.2669 Q1556.3125,662.1575 1556.7188,661.7981 Q1556.9844,661.595 1557.125,661.5325 Q1557.2656,661.47 1557.4375,661.47 Q1557.7656,661.47 1558,661.7356 Q1558.25,661.9856 1558.25,662.345 Q1558.25,662.6888 1557.9063,663.095 Q1557.4063,663.6888 1556.6094,664.0169 Q1555.5625,664.47 1554.2813,664.47 Q1552.7813,664.47 1551.5781,663.8763 Q1550.6094,663.4075 1549.9219,662.3919 Q1549.25,661.3763 1549.25,660.1731 L1549.25,659.0794 Q1549.25,657.8294 1549.8438,656.7356 Q1550.4531,655.6419 1551.5,655.0638 Q1552.5625,654.47 1553.75,654.47 Q1554.4688,654.47 1555.0938,654.72 Q1555.7188,654.97 1556.25,655.47 Z " fill="#000000"/><text fill="#000000" font-family="sans-serif" font-size="14" lengthAdjust="spacing" textLength="167" x="1574.75" y="664.6985">ErrorResponse$FieldError</text><line style="stroke:#181818;stroke-width:0.5;" x1="1507" x2="1777" y1="674.97" y2="674.97"/><rect fill="none" height="6" style="stroke:#C82930;stroke-width:1.0;" width="6" x="1514" y="686.2747"/><text fill="#000000" font-family="sans-serif" font-size="14" lengthAdjust="spacing" textLength="67" x="1526" y="693.5032">String field</text><rect fill="none" height="6" style="stroke:#C82930;stroke-width:1.0;" width="6" x="1514" y="703.8841"/><text fill="#000000" font-family="sans-serif" font-size="14" lengthAdjust="spacing" textLength="75" x="1526" y="711.1126">String value</text><rect fill="none" height="6" style="stroke:#C82930;stroke-width:1.0;" width="6" x="1514" y="721.4934"/><text fill="#000000" font-family="sans-serif" font-size="14" lengthAdjust="spacing" textLength="85" x="1526" y="728.722">String reason</text><line style="stroke:#181818;stroke-width:0.5;" x1="1507" x2="1777" y1="735.7981" y2="735.7981"/><ellipse cx="1517" cy="750.1028" fill="#84BE84" rx="3" ry="3" style="stroke:#038048;stroke-width:1.0;"/><text fill="#000000" font-family="sans-serif" font-size="14" lengthAdjust="spacing" text-decoration="underline" textLength="246" x="1526" y="754.3313">List&lt;FieldError&gt; of(String,String,String)</text><ellipse cx="1517" cy="767.7122" fill="#84BE84" rx="3" ry="3" style="stroke:#038048;stroke-width:1.0;"/><text fill="#000000" font-family="sans-serif" font-size="14" lengthAdjust="spacing" text-decoration="underline" textLength="214" x="1526" y="771.9407">List&lt;FieldError&gt; of(BindingResult)</text></g><!--class EntityNotFoundException--><g id="elem_EntityNotFoundException"><rect codeLine="1" fill="#F1F1F1" height="48" id="EntityNotFoundException" rx="2.5" ry="2.5" style="stroke:#181818;stroke-width:0.5;" width="190" x="135" y="839.02"/><ellipse cx="150" cy="855.02" fill="#ADD1B2" rx="11" ry="11" style="stroke:#181818;stroke-width:1.0;"/><path d="M152,851.52 Q152.2031,851.02 152.4375,850.77 Q152.6719,850.52 152.9375,850.52 Q153.4063,850.52 153.7031,850.8013 Q154,851.0825 154,851.7388 L154,853.3013 Q154,853.9575 153.7188,854.2388 Q153.4375,854.52 153,854.52 Q152.6094,854.52 152.3594,854.3481 Q152.1094,854.1763 152,853.7231 Q151.9531,853.4106 151.7813,853.2388 Q151.4688,852.9106 150.9063,852.7231 Q150.3438,852.52 149.7813,852.52 Q149.0781,852.52 148.4844,852.8013 Q147.9063,853.0825 147.4531,853.7075 Q147,854.3325 147,855.1919 L147,856.1138 Q147,857.145 147.8438,857.8325 Q148.6875,858.52 150.1875,858.52 Q151.0781,858.52 151.7031,858.3169 Q152.0625,858.2075 152.4688,857.8481 Q152.7344,857.645 152.875,857.5825 Q153.0156,857.52 153.1875,857.52 Q153.5156,857.52 153.75,857.7856 Q154,858.0356 154,858.395 Q154,858.7388 153.6563,859.145 Q153.1563,859.7388 152.3594,860.0669 Q151.3125,860.52 150.0313,860.52 Q148.5313,860.52 147.3281,859.9263 Q146.3594,859.4575 145.6719,858.4419 Q145,857.4263 145,856.2231 L145,855.1294 Q145,853.8794 145.5938,852.7856 Q146.2031,851.6919 147.25,851.1138 Q148.3125,850.52 149.5,850.52 Q150.2188,850.52 150.8438,850.77 Q151.4688,851.02 152,851.52 Z " fill="#000000"/><text fill="#000000" font-family="sans-serif" font-size="14" lengthAdjust="spacing" textLength="158" x="164" y="860.7485">EntityNotFoundException</text><line style="stroke:#181818;stroke-width:0.5;" x1="136" x2="324" y1="871.02" y2="871.02"/><line style="stroke:#181818;stroke-width:0.5;" x1="136" x2="324" y1="879.02" y2="879.02"/></g><!--class BusinessException--><g id="elem_BusinessException"><rect codeLine="3" fill="#F1F1F1" height="65.6094" id="BusinessException" rx="2.5" ry="2.5" style="stroke:#181818;stroke-width:0.5;" width="161" x="363.5" y="678.19"/><ellipse cx="383.45" cy="694.19" fill="#ADD1B2" rx="11" ry="11" style="stroke:#181818;stroke-width:1.0;"/><path d="M385.45,690.69 Q385.6531,690.19 385.8875,689.94 Q386.1219,689.69 386.3875,689.69 Q386.8563,689.69 387.1531,689.9713 Q387.45,690.2525 387.45,690.9088 L387.45,692.4713 Q387.45,693.1275 387.1688,693.4088 Q386.8875,693.69 386.45,693.69 Q386.0594,693.69 385.8094,693.5181 Q385.5594,693.3463 385.45,692.8931 Q385.4031,692.5806 385.2313,692.4088 Q384.9188,692.0806 384.3563,691.8931 Q383.7938,691.69 383.2313,691.69 Q382.5281,691.69 381.9344,691.9713 Q381.3563,692.2525 380.9031,692.8775 Q380.45,693.5025 380.45,694.3619 L380.45,695.2838 Q380.45,696.315 381.2938,697.0025 Q382.1375,697.69 383.6375,697.69 Q384.5281,697.69 385.1531,697.4869 Q385.5125,697.3775 385.9188,697.0181 Q386.1844,696.815 386.325,696.7525 Q386.4656,696.69 386.6375,696.69 Q386.9656,696.69 387.2,696.9556 Q387.45,697.2056 387.45,697.565 Q387.45,697.9088 387.1063,698.315 Q386.6063,698.9088 385.8094,699.2369 Q384.7625,699.69 383.4813,699.69 Q381.9813,699.69 380.7781,699.0963 Q379.8094,698.6275 379.1219,697.6119 Q378.45,696.5963 378.45,695.3931 L378.45,694.2994 Q378.45,693.0494 379.0438,691.9556 Q379.6531,690.8619 380.7,690.2838 Q381.7625,689.69 382.95,689.69 Q383.6688,689.69 384.2938,689.94 Q384.9188,690.19 385.45,690.69 Z " fill="#000000"/><text fill="#000000" font-family="sans-serif" font-size="14" lengthAdjust="spacing" textLength="118" x="398.55" y="699.9185">BusinessException</text><line style="stroke:#181818;stroke-width:0.5;" x1="364.5" x2="523.5" y1="710.19" y2="710.19"/><rect fill="none" height="6" style="stroke:#C82930;stroke-width:1.0;" width="6" x="371.5" y="721.4947"/><text fill="#000000" font-family="sans-serif" font-size="14" lengthAdjust="spacing" textLength="135" x="383.5" y="728.7232">ErrorCode errorCode</text><line style="stroke:#181818;stroke-width:0.5;" x1="364.5" x2="523.5" y1="735.7994" y2="735.7994"/></g><!--class ErrorCode--><g id="elem_ErrorCode"><rect codeLine="17" fill="#F1F1F1" height="364.9688" id="ErrorCode" rx="2.5" ry="2.5" style="stroke:#181818;stroke-width:0.5;" width="230" x="118" y="218"/><ellipse cx="195.75" cy="234" fill="#EB937F" rx="11" ry="11" style="stroke:#181818;stroke-width:1.0;"/><path d="M194.25,235 L194.25,237 L198.25,237 L198.25,236 L198.25,235.5156 L198.875,235 L199.25,235 L199.625,235 L200.25,235.5156 L200.25,236 L200.25,239 L192.25,239 L191.7656,239 L191.25,238.375 L191.25,238 L191.25,237.625 L191.7656,237 L192.25,237 L192.25,237 L192.25,231 L192.25,231 L191.7656,231 L191.25,230.375 L191.25,230 L191.25,229.625 L191.7656,229 L192.25,229 L200.25,229 L200.25,232 L200.25,232.4844 L199.625,233 L199.25,233 L198.875,233 L198.25,232.4844 L198.25,232 L198.25,231 L194.25,231 L194.25,233 L195.25,233 L195.25,232.5156 L195.25,232.5156 L195.875,232 L196.25,232 L196.625,232 L197.25,232.5156 L197.25,233 L197.25,235 L197.25,235.4844 L196.625,236 L196.625,236 L196.25,236 L195.875,236 L195.25,235.4844 L195.25,235.4844 L195.25,235 L194.25,235 Z " fill="#000000"/><text fill="#000000" font-family="sans-serif" font-size="14" lengthAdjust="spacing" textLength="66" x="216.25" y="239.7285">ErrorCode</text><line style="stroke:#181818;stroke-width:0.5;" x1="119" x2="347" y1="250" y2="250"/><ellipse cx="129" cy="264.3047" fill="none" rx="3" ry="3" style="stroke:#038048;stroke-width:1.0;"/><text fill="#000000" font-family="sans-serif" font-size="14" lengthAdjust="spacing" textLength="150" x="138" y="268.5332">INVALID_INPUT_VALUE</text><ellipse cx="129" cy="281.9141" fill="none" rx="3" ry="3" style="stroke:#038048;stroke-width:1.0;"/><text fill="#000000" font-family="sans-serif" font-size="14" lengthAdjust="spacing" textLength="172" x="138" y="286.1426">METHOD_NOT_ALLOWED</text><ellipse cx="129" cy="299.5234" fill="none" rx="3" ry="3" style="stroke:#038048;stroke-width:1.0;"/><text fill="#000000" font-family="sans-serif" font-size="14" lengthAdjust="spacing" textLength="141" x="138" y="303.752">ENTITY_NOT_FOUND</text><ellipse cx="129" cy="317.1328" fill="none" rx="3" ry="3" style="stroke:#038048;stroke-width:1.0;"/><text fill="#000000" font-family="sans-serif" font-size="14" lengthAdjust="spacing" textLength="188" x="138" y="321.3613">INTERNAL_SERVER_ERROR</text><ellipse cx="129" cy="334.7422" fill="none" rx="3" ry="3" style="stroke:#038048;stroke-width:1.0;"/><text fill="#000000" font-family="sans-serif" font-size="14" lengthAdjust="spacing" textLength="147" x="138" y="338.9707">INVALID_TYPE_VALUE</text><ellipse cx="129" cy="352.3516" fill="none" rx="3" ry="3" style="stroke:#038048;stroke-width:1.0;"/><text fill="#000000" font-family="sans-serif" font-size="14" lengthAdjust="spacing" textLength="176" x="138" y="356.5801">HANDLE_ACCESS_DENIED</text><ellipse cx="129" cy="369.9609" fill="none" rx="3" ry="3" style="stroke:#038048;stroke-width:1.0;"/><text fill="#000000" font-family="sans-serif" font-size="14" lengthAdjust="spacing" textLength="173" x="138" y="374.1895">USERNAME_DUPLICATION</text><ellipse cx="129" cy="387.5703" fill="none" rx="3" ry="3" style="stroke:#038048;stroke-width:1.0;"/><text fill="#000000" font-family="sans-serif" font-size="14" lengthAdjust="spacing" textLength="167" x="138" y="391.7988">NICKNAME_DUPLICATION</text><ellipse cx="129" cy="405.1797" fill="none" rx="3" ry="3" style="stroke:#038048;stroke-width:1.0;"/><text fill="#000000" font-family="sans-serif" font-size="14" lengthAdjust="spacing" textLength="167" x="138" y="409.4082">AUTH_NOT_COMPLETED</text><ellipse cx="129" cy="422.7891" fill="none" rx="3" ry="3" style="stroke:#038048;stroke-width:1.0;"/><text fill="#000000" font-family="sans-serif" font-size="14" lengthAdjust="spacing" textLength="202" x="138" y="427.0176">PASSWORD_DO_NOT_MATCH</text><ellipse cx="129" cy="440.3984" fill="none" rx="3" ry="3" style="stroke:#038048;stroke-width:1.0;"/><text fill="#000000" font-family="sans-serif" font-size="14" lengthAdjust="spacing" textLength="105" x="138" y="444.627">UNAUTHORIZED</text><ellipse cx="129" cy="458.0078" fill="none" rx="3" ry="3" style="stroke:#038048;stroke-width:1.0;"/><text fill="#000000" font-family="sans-serif" font-size="14" lengthAdjust="spacing" textLength="165" x="138" y="462.2363">NOT_WRITER_OF_POST</text><ellipse cx="129" cy="475.6172" fill="none" rx="3" ry="3" style="stroke:#038048;stroke-width:1.0;"/><text fill="#000000" font-family="sans-serif" font-size="14" lengthAdjust="spacing" textLength="197" x="138" y="479.8457">NOT_WRITER_OF_COMMENT</text><ellipse cx="129" cy="493.2266" fill="none" rx="3" ry="3" style="stroke:#038048;stroke-width:1.0;"/><text fill="#000000" font-family="sans-serif" font-size="14" lengthAdjust="spacing" textLength="181" x="138" y="497.4551">NOT_COMMENT_ON_POST</text><ellipse cx="129" cy="510.8359" fill="none" rx="3" ry="3" style="stroke:#038048;stroke-width:1.0;"/><text fill="#000000" font-family="sans-serif" font-size="14" lengthAdjust="spacing" textLength="204" x="138" y="515.0645">NOT_ATTACHMENT_ON_POST</text><rect fill="none" height="6" style="stroke:#C82930;stroke-width:1.0;" width="6" x="126" y="525.4453"/><text fill="#000000" font-family="sans-serif" font-size="14" lengthAdjust="spacing" textLength="57" x="138" y="532.6738">int status</text><rect fill="none" height="6" style="stroke:#C82930;stroke-width:1.0;" width="6" x="126" y="543.0547"/><text fill="#000000" font-family="sans-serif" font-size="14" lengthAdjust="spacing" textLength="72" x="138" y="550.2832">String code</text><rect fill="none" height="6" style="stroke:#C82930;stroke-width:1.0;" width="6" x="126" y="560.6641"/><text fill="#000000" font-family="sans-serif" font-size="14" lengthAdjust="spacing" textLength="98" x="138" y="567.8926">String message</text><line style="stroke:#181818;stroke-width:0.5;" x1="119" x2="347" y1="574.9688" y2="574.9688"/></g><!--class InvalidValueException--><g id="elem_InvalidValueException"><rect codeLine="59" fill="#F1F1F1" height="48" id="InvalidValueException" rx="2.5" ry="2.5" style="stroke:#181818;stroke-width:0.5;" width="169" x="359.5" y="839.02"/><ellipse cx="374.5" cy="855.02" fill="#ADD1B2" rx="11" ry="11" style="stroke:#181818;stroke-width:1.0;"/><path d="M376.5,851.52 Q376.7031,851.02 376.9375,850.77 Q377.1719,850.52 377.4375,850.52 Q377.9063,850.52 378.2031,850.8013 Q378.5,851.0825 378.5,851.7388 L378.5,853.3013 Q378.5,853.9575 378.2188,854.2388 Q377.9375,854.52 377.5,854.52 Q377.1094,854.52 376.8594,854.3481 Q376.6094,854.1763 376.5,853.7231 Q376.4531,853.4106 376.2813,853.2388 Q375.9688,852.9106 375.4063,852.7231 Q374.8438,852.52 374.2813,852.52 Q373.5781,852.52 372.9844,852.8013 Q372.4063,853.0825 371.9531,853.7075 Q371.5,854.3325 371.5,855.1919 L371.5,856.1138 Q371.5,857.145 372.3438,857.8325 Q373.1875,858.52 374.6875,858.52 Q375.5781,858.52 376.2031,858.3169 Q376.5625,858.2075 376.9688,857.8481 Q377.2344,857.645 377.375,857.5825 Q377.5156,857.52 377.6875,857.52 Q378.0156,857.52 378.25,857.7856 Q378.5,858.0356 378.5,858.395 Q378.5,858.7388 378.1563,859.145 Q377.6563,859.7388 376.8594,860.0669 Q375.8125,860.52 374.5313,860.52 Q373.0313,860.52 371.8281,859.9263 Q370.8594,859.4575 370.1719,858.4419 Q369.5,857.4263 369.5,856.2231 L369.5,855.1294 Q369.5,853.8794 370.0938,852.7856 Q370.7031,851.6919 371.75,851.1138 Q372.8125,850.52 374,850.52 Q374.7188,850.52 375.3438,850.77 Q375.9688,851.02 376.5,851.52 Z " fill="#000000"/><text fill="#000000" font-family="sans-serif" font-size="14" lengthAdjust="spacing" textLength="137" x="388.5" y="860.7485">InvalidValueException</text><line style="stroke:#181818;stroke-width:0.5;" x1="360.5" x2="527.5" y1="871.02" y2="871.02"/><line style="stroke:#181818;stroke-width:0.5;" x1="360.5" x2="527.5" y1="879.02" y2="879.02"/></g><!--class RuntimeException--><g id="elem_RuntimeException"><rect fill="#F1F1F1" height="48" id="RuntimeException" rx="2.5" ry="2.5" style="stroke:#181818;stroke-width:0.5;" width="145" x="382.5" y="376.49"/><ellipse cx="397.5" cy="392.49" fill="#ADD1B2" rx="11" ry="11" style="stroke:#181818;stroke-width:1.0;"/><path d="M399.5,388.99 Q399.7031,388.49 399.9375,388.24 Q400.1719,387.99 400.4375,387.99 Q400.9063,387.99 401.2031,388.2713 Q401.5,388.5525 401.5,389.2088 L401.5,390.7713 Q401.5,391.4275 401.2188,391.7088 Q400.9375,391.99 400.5,391.99 Q400.1094,391.99 399.8594,391.8181 Q399.6094,391.6463 399.5,391.1931 Q399.4531,390.8806 399.2813,390.7088 Q398.9688,390.3806 398.4063,390.1931 Q397.8438,389.99 397.2813,389.99 Q396.5781,389.99 395.9844,390.2713 Q395.4063,390.5525 394.9531,391.1775 Q394.5,391.8025 394.5,392.6619 L394.5,393.5838 Q394.5,394.615 395.3438,395.3025 Q396.1875,395.99 397.6875,395.99 Q398.5781,395.99 399.2031,395.7869 Q399.5625,395.6775 399.9688,395.3181 Q400.2344,395.115 400.375,395.0525 Q400.5156,394.99 400.6875,394.99 Q401.0156,394.99 401.25,395.2556 Q401.5,395.5056 401.5,395.865 Q401.5,396.2088 401.1563,396.615 Q400.6563,397.2088 399.8594,397.5369 Q398.8125,397.99 397.5313,397.99 Q396.0313,397.99 394.8281,397.3963 Q393.8594,396.9275 393.1719,395.9119 Q392.5,394.8963 392.5,393.6931 L392.5,392.5994 Q392.5,391.3494 393.0938,390.2556 Q393.7031,389.1619 394.75,388.5838 Q395.8125,387.99 397,387.99 Q397.7188,387.99 398.3438,388.24 Q398.9688,388.49 399.5,388.99 Z " fill="#000000"/><text fill="#000000" font-family="sans-serif" font-size="14" lengthAdjust="spacing" textLength="113" x="411.5" y="398.2185">RuntimeException</text><line style="stroke:#181818;stroke-width:0.5;" x1="383.5" x2="526.5" y1="408.49" y2="408.49"/><line style="stroke:#181818;stroke-width:0.5;" x1="383.5" x2="526.5" y1="416.49" y2="416.49"/></g><!--reverse link BusinessException to EntityNotFoundException--><g id="link_BusinessException_EntityNotFoundException"><path codeLine="63" d="M380.58,756.45 C342.08,783.45 294.5,816.8 263.26,838.71 " fill="none" id="BusinessException-backto-EntityNotFoundException" style="stroke:#181818;stroke-width:1.0;"/><polygon fill="none" points="376.46,750.8,396.85,745.05,384.49,762.26,376.46,750.8" style="stroke:#181818;stroke-width:1.0;"/></g><!--reverse link RuntimeException to BusinessException--><g id="link_RuntimeException_BusinessException"><path codeLine="64" d="M453.4,446.43 C451.15,509.52 447.11,622.82 445.14,678.02 " fill="none" id="RuntimeException-backto-BusinessException" style="stroke:#181818;stroke-width:1.0;"/><polygon fill="none" points="446.4,446.18,454.11,426.44,460.39,446.68,446.4,446.18" style="stroke:#181818;stroke-width:1.0;"/></g><!--reverse link ErrorResponse to ErrorResponse$FieldError--><g id="link_ErrorResponse_ErrorResponse$FieldError"><path codeLine="65" d="M1642,511.77 C1642,555.47 1642,604.3 1642,642.56 " fill="none" id="ErrorResponse-backto-ErrorResponse$FieldError" style="stroke:#181818;stroke-width:1.0;stroke-dasharray:7.0,7.0;"/><ellipse cx="1642" cy="504.82" fill="#FFFFFF" rx="8" ry="8" style="stroke:#181818;stroke-width:1.0;"/><line style="stroke:#181818;stroke-width:1.0;" x1="1642" x2="1642" y1="512.82" y2="496.82"/><line style="stroke:#181818;stroke-width:1.0;" x1="1634" x2="1650" y1="504.82" y2="504.82"/></g><!--reverse link BusinessException to InvalidValueException--><g id="link_BusinessException_InvalidValueException"><path codeLine="66" d="M444,765.45 C444,790.55 444,819.18 444,838.71 " fill="none" id="BusinessException-backto-InvalidValueException" style="stroke:#181818;stroke-width:1.0;"/><polygon fill="none" points="437,765.69,444,745.69,451,765.69,437,765.69" style="stroke:#181818;stroke-width:1.0;"/></g><!--SRC=[jLNTRfim5BxFKo1j5udQy0HL9HUSWGPs14wYziPYn6cPYCsmgLPrVVSPQ08aMUDKsXMSl-zyv_ZuECqJAQrKREsY53zPgkmatoGsAqjHskntoWgL2Mv3hZBrWeIQYOgluKvllOxUHgaPn5qbCywax0TFBLXxEMBDBBRxqv0VOtxBnOyat-Du2L_dhDHmNwo8oK9moLg-DmtwJdThFJMU8LDFOWtAnshBkD8rBPCywseQdx5F3DFSPRr6ZGVIv5DCoKl1mank4vK-_OljIH_JT9vIHSH-LKog5bNN7bT58Kh5UgMOkPac1McgXy9bFEldEAarxlpXf8sFDAPG7KGlLCyduzNMuDRiX_jrT6LPFbg2m7UfZ-OBGlN_0jRg418FknHXGa4Gu1LqQor4n2VtZNQ65yXj0GYC40Xe3ACbZ2YC8XpraSdz77R07a1k02bm71Z7r8N8Rw4NSOqIGkekve7l0E9ZLEkHxtm_fGSBuZL471pE0qXQb3c8unMENEhYnXW2udWDFAe3SEG_j8wrSHNvcZh5Cph7CJdMQkHGLxmpl8iKeu4_80Guti0ojJAkBAaILKajnAhC-AC-6Rr6zj9MdtpoU7wl32QWsKxcs5ChoAIwcMKiNpSuj-r2avhxQmsHfM_MC87OZFS3CZ5pkpvCOXfNhnzDLnkhN7qSPBHGT2ilwENNZd7JrlVURMfj9pudUTNhRCaIANYVwb67DTlM-NhmcPmBEkZ6sMAw6-tpv_enMDPKXw-WXhZy1RpvCvr- -l4zdp2gTEIMNPhlYEV8wC9SsVQbq_3_UdRoeFu2]--></g></svg>