<?xml version="1.0" encoding="us-ascii" standalone="no"?><svg xmlns="http://www.w3.org/2000/svg" xmlns:xlink="http://www.w3.org/1999/xlink" contentStyleType="text/css" height="1289px" preserveAspectRatio="none" style="width:4611px;height:1289px;background:#FFFFFF;" version="1.1" viewBox="0 0 4611 1289" width="4611px" zoomAndPan="magnify"><defs/><g><!--cluster com--><g id="cluster_com"><path d="M8.5,470 L38.5,470 A3.75,3.75 0 0 1 41,472.5 L48,493.6094 L4601.5,493.6094 A2.5,2.5 0 0 1 4604,496.1094 L4604,1279.62 A2.5,2.5 0 0 1 4601.5,1282.12 L8.5,1282.12 A2.5,2.5 0 0 1 6,1279.62 L6,472.5 A2.5,2.5 0 0 1 8.5,470 " fill="none" style="stroke:#000000;stroke-width:1.5;"/><line style="stroke:#000000;stroke-width:1.5;" x1="6" x2="48" y1="493.6094" y2="493.6094"/><text fill="#000000" font-family="sans-serif" font-size="14" font-weight="bold" lengthAdjust="spacing" textLength="29" x="10" y="486.5332">com</text></g><!--cluster project--><g id="cluster_project"><path d="M32.5,514 L83.5,514 A3.75,3.75 0 0 1 86,516.5 L93,537.6094 L4577.5,537.6094 A2.5,2.5 0 0 1 4580,540.1094 L4580,1255.62 A2.5,2.5 0 0 1 4577.5,1258.12 L32.5,1258.12 A2.5,2.5 0 0 1 30,1255.62 L30,516.5 A2.5,2.5 0 0 1 32.5,514 " fill="none" style="stroke:#000000;stroke-width:1.5;"/><line style="stroke:#000000;stroke-width:1.5;" x1="30" x2="93" y1="537.6094" y2="537.6094"/><text fill="#000000" font-family="sans-serif" font-size="14" font-weight="bold" lengthAdjust="spacing" textLength="50" x="34" y="530.5332">project</text></g><!--cluster alfa--><g id="cluster_alfa"><path d="M56.5,558 L82.5,558 A3.75,3.75 0 0 1 85,560.5 L92,581.6094 L4553.5,581.6094 A2.5,2.5 0 0 1 4556,584.1094 L4556,1231.62 A2.5,2.5 0 0 1 4553.5,1234.12 L56.5,1234.12 A2.5,2.5 0 0 1 54,1231.62 L54,560.5 A2.5,2.5 0 0 1 56.5,558 " fill="none" style="stroke:#000000;stroke-width:1.5;"/><line style="stroke:#000000;stroke-width:1.5;" x1="54" x2="92" y1="581.6094" y2="581.6094"/><text fill="#000000" font-family="sans-serif" font-size="14" font-weight="bold" lengthAdjust="spacing" textLength="25" x="58" y="574.5332">alfa</text></g><!--cluster security--><g id="cluster_security"><path d="M80.5,602 L137.5,602 A3.75,3.75 0 0 1 140,604.5 L147,625.6094 L4529.5,625.6094 A2.5,2.5 0 0 1 4532,628.1094 L4532,1207.62 A2.5,2.5 0 0 1 4529.5,1210.12 L80.5,1210.12 A2.5,2.5 0 0 1 78,1207.62 L78,604.5 A2.5,2.5 0 0 1 80.5,602 " fill="none" style="stroke:#000000;stroke-width:1.5;"/><line style="stroke:#000000;stroke-width:1.5;" x1="78" x2="147" y1="625.6094" y2="625.6094"/><text fill="#000000" font-family="sans-serif" font-size="14" font-weight="bold" lengthAdjust="spacing" textLength="56" x="82" y="618.5332">security</text></g><!--cluster jwt--><g id="cluster_jwt"><path d="M104.5,646 L125.5,646 A3.75,3.75 0 0 1 128,648.5 L135,669.6094 L2153.5,669.6094 A2.5,2.5 0 0 1 2156,672.1094 L2156,925.94 A2.5,2.5 0 0 1 2153.5,928.44 L104.5,928.44 A2.5,2.5 0 0 1 102,925.94 L102,648.5 A2.5,2.5 0 0 1 104.5,646 " fill="none" style="stroke:#000000;stroke-width:1.5;"/><line style="stroke:#000000;stroke-width:1.5;" x1="102" x2="135" y1="669.6094" y2="669.6094"/><text fill="#000000" font-family="sans-serif" font-size="14" font-weight="bold" lengthAdjust="spacing" textLength="20" x="106" y="662.5332">jwt</text></g><!--cluster entrypoint--><g id="cluster_entrypoint"><path d="M128.5,742.81 L201.5,742.81 A3.75,3.75 0 0 1 204,745.31 L211,766.4194 L703.5,766.4194 A2.5,2.5 0 0 1 706,768.9194 L706,857.92 A2.5,2.5 0 0 1 703.5,860.42 L128.5,860.42 A2.5,2.5 0 0 1 126,857.92 L126,745.31 A2.5,2.5 0 0 1 128.5,742.81 " fill="none" style="stroke:#000000;stroke-width:1.5;"/><line style="stroke:#000000;stroke-width:1.5;" x1="126" x2="211" y1="766.4194" y2="766.4194"/><text fill="#000000" font-family="sans-serif" font-size="14" font-weight="bold" lengthAdjust="spacing" textLength="72" x="130" y="759.3432">entrypoint</text></g><!--cluster filter--><g id="cluster_filter"><path d="M732.5,690 L766.5,690 A3.75,3.75 0 0 1 769,692.5 L776,713.6094 L2129.5,713.6094 A2.5,2.5 0 0 1 2132,716.1094 L2132,901.94 A2.5,2.5 0 0 1 2129.5,904.44 L732.5,904.44 A2.5,2.5 0 0 1 730,901.94 L730,692.5 A2.5,2.5 0 0 1 732.5,690 " fill="none" style="stroke:#000000;stroke-width:1.5;"/><line style="stroke:#000000;stroke-width:1.5;" x1="730" x2="776" y1="713.6094" y2="713.6094"/><text fill="#000000" font-family="sans-serif" font-size="14" font-weight="bold" lengthAdjust="spacing" textLength="33" x="734" y="706.5332">filter</text></g><!--cluster dto--><g id="cluster_dto"><path d="M756.5,734 L780.5,734 A3.75,3.75 0 0 1 783,736.5 L790,757.6094 L913.5,757.6094 A2.5,2.5 0 0 1 916,760.1094 L916,866.72 A2.5,2.5 0 0 1 913.5,869.22 L756.5,869.22 A2.5,2.5 0 0 1 754,866.72 L754,736.5 A2.5,2.5 0 0 1 756.5,734 " fill="none" style="stroke:#000000;stroke-width:1.5;"/><line style="stroke:#000000;stroke-width:1.5;" x1="754" x2="790" y1="757.6094" y2="757.6094"/><text fill="#000000" font-family="sans-serif" font-size="14" font-weight="bold" lengthAdjust="spacing" textLength="23" x="758" y="750.5332">dto</text></g><!--cluster oauth2--><g id="cluster_oauth2"><path d="M2182.5,681.2 L2231.5,681.2 A3.75,3.75 0 0 1 2234,683.7 L2241,704.8094 L2781.5,704.8094 A2.5,2.5 0 0 1 2784,707.3094 L2784,1183.62 A2.5,2.5 0 0 1 2781.5,1186.12 L2182.5,1186.12 A2.5,2.5 0 0 1 2180,1183.62 L2180,683.7 A2.5,2.5 0 0 1 2182.5,681.2 " fill="none" style="stroke:#000000;stroke-width:1.5;"/><line style="stroke:#000000;stroke-width:1.5;" x1="2180" x2="2241" y1="704.8094" y2="704.8094"/><text fill="#000000" font-family="sans-serif" font-size="14" font-weight="bold" lengthAdjust="spacing" textLength="48" x="2184" y="697.7332">oauth2</text></g><!--cluster provider--><g id="cluster_provider"><path d="M2206.5,725.2 L2268.5,725.2 A3.75,3.75 0 0 1 2271,727.7 L2278,748.8094 L2447.5,748.8094 A2.5,2.5 0 0 1 2450,751.3094 L2450,1159.62 A2.5,2.5 0 0 1 2447.5,1162.12 L2206.5,1162.12 A2.5,2.5 0 0 1 2204,1159.62 L2204,727.7 A2.5,2.5 0 0 1 2206.5,725.2 " fill="none" style="stroke:#000000;stroke-width:1.5;"/><line style="stroke:#000000;stroke-width:1.5;" x1="2204" x2="2278" y1="748.8094" y2="748.8094"/><text fill="#000000" font-family="sans-serif" font-size="14" font-weight="bold" lengthAdjust="spacing" textLength="61" x="2208" y="741.7332">provider</text></g><!--cluster org--><g id="cluster_org"><path d="M1819.5,6 L1844.5,6 A3.75,3.75 0 0 1 1847,8.5 L1854,29.6094 L4235.5,29.6094 A2.5,2.5 0 0 1 4238,32.1094 L4238,443.5 A2.5,2.5 0 0 1 4235.5,446 L1819.5,446 A2.5,2.5 0 0 1 1817,443.5 L1817,8.5 A2.5,2.5 0 0 1 1819.5,6 " fill="none" style="stroke:#000000;stroke-width:1.5;"/><line style="stroke:#000000;stroke-width:1.5;" x1="1817" x2="1854" y1="29.6094" y2="29.6094"/><text fill="#000000" font-family="sans-serif" font-size="14" font-weight="bold" lengthAdjust="spacing" textLength="24" x="1821" y="22.5332">org</text></g><!--cluster springframework--><g id="cluster_springframework"><path d="M1843.5,50 L1963.5,50 A3.75,3.75 0 0 1 1966,52.5 L1973,73.6094 L4211.5,73.6094 A2.5,2.5 0 0 1 4214,76.1094 L4214,419.5 A2.5,2.5 0 0 1 4211.5,422 L1843.5,422 A2.5,2.5 0 0 1 1841,419.5 L1841,52.5 A2.5,2.5 0 0 1 1843.5,50 " fill="none" style="stroke:#000000;stroke-width:1.5;"/><line style="stroke:#000000;stroke-width:1.5;" x1="1841" x2="1973" y1="73.6094" y2="73.6094"/><text fill="#000000" font-family="sans-serif" font-size="14" font-weight="bold" lengthAdjust="spacing" textLength="119" x="1845" y="66.5332">springframework</text></g><!--cluster security--><g id="cluster_security"><path d="M2145.5,94 L2202.5,94 A3.75,3.75 0 0 1 2205,96.5 L2212,117.6094 L4187.5,117.6094 A2.5,2.5 0 0 1 4190,120.1094 L4190,395.5 A2.5,2.5 0 0 1 4187.5,398 L2145.5,398 A2.5,2.5 0 0 1 2143,395.5 L2143,96.5 A2.5,2.5 0 0 1 2145.5,94 " fill="none" style="stroke:#000000;stroke-width:1.5;"/><line style="stroke:#000000;stroke-width:1.5;" x1="2143" x2="2212" y1="117.6094" y2="117.6094"/><text fill="#000000" font-family="sans-serif" font-size="14" font-weight="bold" lengthAdjust="spacing" textLength="56" x="2147" y="110.5332">security</text></g><!--cluster core--><g id="cluster_core"><path d="M3567.5,182 L3600.5,182 A3.75,3.75 0 0 1 3603,184.5 L3610,205.6094 L3931.5,205.6094 A2.5,2.5 0 0 1 3934,208.1094 L3934,347.5 A2.5,2.5 0 0 1 3931.5,350 L3567.5,350 A2.5,2.5 0 0 1 3565,347.5 L3565,184.5 A2.5,2.5 0 0 1 3567.5,182 " fill="none" style="stroke:#000000;stroke-width:1.5;"/><line style="stroke:#000000;stroke-width:1.5;" x1="3565" x2="3610" y1="205.6094" y2="205.6094"/><text fill="#000000" font-family="sans-serif" font-size="14" font-weight="bold" lengthAdjust="spacing" textLength="32" x="3569" y="198.5332">core</text></g><!--cluster userdetails--><g id="cluster_userdetails"><path d="M3591.5,226 L3671.5,226 A3.75,3.75 0 0 1 3674,228.5 L3681,249.6094 L3907.5,249.6094 A2.5,2.5 0 0 1 3910,252.1094 L3910,323.5 A2.5,2.5 0 0 1 3907.5,326 L3591.5,326 A2.5,2.5 0 0 1 3589,323.5 L3589,228.5 A2.5,2.5 0 0 1 3591.5,226 " fill="none" style="stroke:#000000;stroke-width:1.5;"/><line style="stroke:#000000;stroke-width:1.5;" x1="3589" x2="3681" y1="249.6094" y2="249.6094"/><text fill="#000000" font-family="sans-serif" font-size="14" font-weight="bold" lengthAdjust="spacing" textLength="79" x="3593" y="242.5332">userdetails</text></g><!--cluster authentication--><g id="cluster_authentication"><path d="M3960.5,226 L4062.5,226 A3.75,3.75 0 0 1 4065,228.5 L4072,249.6094 L4163.5,249.6094 A2.5,2.5 0 0 1 4166,252.1094 L4166,323.5 A2.5,2.5 0 0 1 4163.5,326 L3960.5,326 A2.5,2.5 0 0 1 3958,323.5 L3958,228.5 A2.5,2.5 0 0 1 3960.5,226 " fill="none" style="stroke:#000000;stroke-width:1.5;"/><line style="stroke:#000000;stroke-width:1.5;" x1="3958" x2="4072" y1="249.6094" y2="249.6094"/><text fill="#000000" font-family="sans-serif" font-size="14" font-weight="bold" lengthAdjust="spacing" textLength="101" x="3962" y="242.5332">authentication</text></g><!--cluster oauth2--><g id="cluster_oauth2"><path d="M2999.5,138 L3048.5,138 A3.75,3.75 0 0 1 3051,140.5 L3058,161.6094 L3538.5,161.6094 A2.5,2.5 0 0 1 3541,164.1094 L3541,371.5 A2.5,2.5 0 0 1 3538.5,374 L2999.5,374 A2.5,2.5 0 0 1 2997,371.5 L2997,140.5 A2.5,2.5 0 0 1 2999.5,138 " fill="none" style="stroke:#000000;stroke-width:1.5;"/><line style="stroke:#000000;stroke-width:1.5;" x1="2997" x2="3058" y1="161.6094" y2="161.6094"/><text fill="#000000" font-family="sans-serif" font-size="14" font-weight="bold" lengthAdjust="spacing" textLength="48" x="3001" y="154.5332">oauth2</text></g><!--cluster core--><g id="cluster_core"><path d="M3329.5,182 L3362.5,182 A3.75,3.75 0 0 1 3365,184.5 L3372,205.6094 L3514.5,205.6094 A2.5,2.5 0 0 1 3517,208.1094 L3517,347.5 A2.5,2.5 0 0 1 3514.5,350 L3329.5,350 A2.5,2.5 0 0 1 3327,347.5 L3327,184.5 A2.5,2.5 0 0 1 3329.5,182 " fill="none" style="stroke:#000000;stroke-width:1.5;"/><line style="stroke:#000000;stroke-width:1.5;" x1="3327" x2="3372" y1="205.6094" y2="205.6094"/><text fill="#000000" font-family="sans-serif" font-size="14" font-weight="bold" lengthAdjust="spacing" textLength="32" x="3331" y="198.5332">core</text></g><!--cluster user--><g id="cluster_user"><path d="M3353.5,226 L3386.5,226 A3.75,3.75 0 0 1 3389,228.5 L3396,249.6094 L3490.5,249.6094 A2.5,2.5 0 0 1 3493,252.1094 L3493,323.5 A2.5,2.5 0 0 1 3490.5,326 L3353.5,326 A2.5,2.5 0 0 1 3351,323.5 L3351,228.5 A2.5,2.5 0 0 1 3353.5,226 " fill="none" style="stroke:#000000;stroke-width:1.5;"/><line style="stroke:#000000;stroke-width:1.5;" x1="3351" x2="3396" y1="249.6094" y2="249.6094"/><text fill="#000000" font-family="sans-serif" font-size="14" font-weight="bold" lengthAdjust="spacing" textLength="32" x="3355" y="242.5332">user</text></g><!--cluster client--><g id="cluster_client"><path d="M3023.5,182 L3063.5,182 A3.75,3.75 0 0 1 3066,184.5 L3073,205.6094 L3300.5,205.6094 A2.5,2.5 0 0 1 3303,208.1094 L3303,347.5 A2.5,2.5 0 0 1 3300.5,350 L3023.5,350 A2.5,2.5 0 0 1 3021,347.5 L3021,184.5 A2.5,2.5 0 0 1 3023.5,182 " fill="none" style="stroke:#000000;stroke-width:1.5;"/><line style="stroke:#000000;stroke-width:1.5;" x1="3021" x2="3073" y1="205.6094" y2="205.6094"/><text fill="#000000" font-family="sans-serif" font-size="14" font-weight="bold" lengthAdjust="spacing" textLength="39" x="3025" y="198.5332">client</text></g><!--cluster userinfo--><g id="cluster_userinfo"><path d="M3047.5,226 L3107.5,226 A3.75,3.75 0 0 1 3110,228.5 L3117,249.6094 L3276.5,249.6094 A2.5,2.5 0 0 1 3279,252.1094 L3279,323.5 A2.5,2.5 0 0 1 3276.5,326 L3047.5,326 A2.5,2.5 0 0 1 3045,323.5 L3045,228.5 A2.5,2.5 0 0 1 3047.5,226 " fill="none" style="stroke:#000000;stroke-width:1.5;"/><line style="stroke:#000000;stroke-width:1.5;" x1="3045" x2="3117" y1="249.6094" y2="249.6094"/><text fill="#000000" font-family="sans-serif" font-size="14" font-weight="bold" lengthAdjust="spacing" textLength="59" x="3049" y="242.5332">userinfo</text></g><!--cluster web--><g id="cluster_web"><path d="M2169.5,182 L2199.5,182 A3.75,3.75 0 0 1 2202,184.5 L2209,205.6094 L2970.5,205.6094 A2.5,2.5 0 0 1 2973,208.1094 L2973,347.5 A2.5,2.5 0 0 1 2970.5,350 L2169.5,350 A2.5,2.5 0 0 1 2167,347.5 L2167,184.5 A2.5,2.5 0 0 1 2169.5,182 " fill="none" style="stroke:#000000;stroke-width:1.5;"/><line style="stroke:#000000;stroke-width:1.5;" x1="2167" x2="2209" y1="205.6094" y2="205.6094"/><text fill="#000000" font-family="sans-serif" font-size="14" font-weight="bold" lengthAdjust="spacing" textLength="29" x="2171" y="198.5332">web</text></g><!--cluster authentication--><g id="cluster_authentication"><path d="M2390.5,226 L2492.5,226 A3.75,3.75 0 0 1 2495,228.5 L2502,249.6094 L2946.5,249.6094 A2.5,2.5 0 0 1 2949,252.1094 L2949,323.5 A2.5,2.5 0 0 1 2946.5,326 L2390.5,326 A2.5,2.5 0 0 1 2388,323.5 L2388,228.5 A2.5,2.5 0 0 1 2390.5,226 " fill="none" style="stroke:#000000;stroke-width:1.5;"/><line style="stroke:#000000;stroke-width:1.5;" x1="2388" x2="2502" y1="249.6094" y2="249.6094"/><text fill="#000000" font-family="sans-serif" font-size="14" font-weight="bold" lengthAdjust="spacing" textLength="101" x="2392" y="242.5332">authentication</text></g><!--cluster web--><g id="cluster_web"><path d="M1867.5,182 L1897.5,182 A3.75,3.75 0 0 1 1900,184.5 L1907,205.6094 L2116.5,205.6094 A2.5,2.5 0 0 1 2119,208.1094 L2119,347.5 A2.5,2.5 0 0 1 2116.5,350 L1867.5,350 A2.5,2.5 0 0 1 1865,347.5 L1865,184.5 A2.5,2.5 0 0 1 1867.5,182 " fill="none" style="stroke:#000000;stroke-width:1.5;"/><line style="stroke:#000000;stroke-width:1.5;" x1="1865" x2="1907" y1="205.6094" y2="205.6094"/><text fill="#000000" font-family="sans-serif" font-size="14" font-weight="bold" lengthAdjust="spacing" textLength="29" x="1869" y="198.5332">web</text></g><!--cluster filter--><g id="cluster_filter"><path d="M1891.5,226 L1925.5,226 A3.75,3.75 0 0 1 1928,228.5 L1935,249.6094 L2092.5,249.6094 A2.5,2.5 0 0 1 2095,252.1094 L2095,323.5 A2.5,2.5 0 0 1 2092.5,326 L1891.5,326 A2.5,2.5 0 0 1 1889,323.5 L1889,228.5 A2.5,2.5 0 0 1 1891.5,226 " fill="none" style="stroke:#000000;stroke-width:1.5;"/><line style="stroke:#000000;stroke-width:1.5;" x1="1889" x2="1935" y1="249.6094" y2="249.6094"/><text fill="#000000" font-family="sans-serif" font-size="14" font-weight="bold" lengthAdjust="spacing" textLength="33" x="1893" y="242.5332">filter</text></g><!--class CustomUserDetailsService--><g id="elem_CustomUserDetailsService"><rect codeLine="1" fill="#F1F1F1" height="83.2188" id="CustomUserDetailsService" rx="2.5" ry="2.5" style="stroke:#181818;stroke-width:0.5;" width="285" x="3880.5" y="770"/><ellipse cx="3935.25" cy="786" fill="#ADD1B2" rx="11" ry="11" style="stroke:#181818;stroke-width:1.0;"/><path d="M3937.25,782.5 Q3937.4531,782 3937.6875,781.75 Q3937.9219,781.5 3938.1875,781.5 Q3938.6563,781.5 3938.9531,781.7812 Q3939.25,782.0625 3939.25,782.7187 L3939.25,784.2812 Q3939.25,784.9375 3938.9688,785.2187 Q3938.6875,785.5 3938.25,785.5 Q3937.8594,785.5 3937.6094,785.3281 Q3937.3594,785.1562 3937.25,784.7031 Q3937.2031,784.3906 3937.0313,784.2187 Q3936.7188,783.8906 3936.1563,783.7031 Q3935.5938,783.5 3935.0313,783.5 Q3934.3281,783.5 3933.7344,783.7812 Q3933.1563,784.0625 3932.7031,784.6875 Q3932.25,785.3125 3932.25,786.1719 L3932.25,787.0937 Q3932.25,788.125 3933.0938,788.8125 Q3933.9375,789.5 3935.4375,789.5 Q3936.3281,789.5 3936.9531,789.2969 Q3937.3125,789.1875 3937.7188,788.8281 Q3937.9844,788.625 3938.125,788.5625 Q3938.2656,788.5 3938.4375,788.5 Q3938.7656,788.5 3939,788.7656 Q3939.25,789.0156 3939.25,789.375 Q3939.25,789.7187 3938.9063,790.125 Q3938.4063,790.7187 3937.6094,791.0469 Q3936.5625,791.5 3935.2813,791.5 Q3933.7813,791.5 3932.5781,790.9062 Q3931.6094,790.4375 3930.9219,789.4219 Q3930.25,788.4062 3930.25,787.2031 L3930.25,786.1094 Q3930.25,784.8594 3930.8438,783.7656 Q3931.4531,782.6719 3932.5,782.0937 Q3933.5625,781.5 3934.75,781.5 Q3935.4688,781.5 3936.0938,781.75 Q3936.7188,782 3937.25,782.5 Z " fill="#000000"/><text fill="#000000" font-family="sans-serif" font-size="14" lengthAdjust="spacing" textLength="167" x="3955.75" y="791.7285">CustomUserDetailsService</text><line style="stroke:#181818;stroke-width:0.5;" x1="3881.5" x2="4164.5" y1="802" y2="802"/><rect fill="none" height="6" style="stroke:#C82930;stroke-width:1.0;" width="6" x="3888.5" y="813.3047"/><text fill="#000000" font-family="sans-serif" font-size="14" lengthAdjust="spacing" textLength="259" x="3900.5" y="820.5332">MemberRepositoryV1 memberRepository</text><line style="stroke:#181818;stroke-width:0.5;" x1="3881.5" x2="4164.5" y1="827.6094" y2="827.6094"/><ellipse cx="3891.5" cy="841.9141" fill="#84BE84" rx="3" ry="3" style="stroke:#038048;stroke-width:1.0;"/><text fill="#000000" font-family="sans-serif" font-size="14" lengthAdjust="spacing" textLength="259" x="3900.5" y="846.1426">UserDetails loadUserByUsername(String)</text></g><!--class CustomAuthenticationProvider--><g id="elem_CustomAuthenticationProvider"><rect codeLine="7" fill="#F1F1F1" height="118.4375" id="CustomAuthenticationProvider" rx="2.5" ry="2.5" style="stroke:#181818;stroke-width:0.5;" width="315" x="4200.5" y="752.39"/><ellipse cx="4258.25" cy="768.39" fill="#ADD1B2" rx="11" ry="11" style="stroke:#181818;stroke-width:1.0;"/><path d="M4260.25,764.89 Q4260.4531,764.39 4260.6875,764.14 Q4260.9219,763.89 4261.1875,763.89 Q4261.6563,763.89 4261.9531,764.1712 Q4262.25,764.4525 4262.25,765.1087 L4262.25,766.6712 Q4262.25,767.3275 4261.9688,767.6087 Q4261.6875,767.89 4261.25,767.89 Q4260.8594,767.89 4260.6094,767.7181 Q4260.3594,767.5462 4260.25,767.0931 Q4260.2031,766.7806 4260.0313,766.6087 Q4259.7188,766.2806 4259.1563,766.0931 Q4258.5938,765.89 4258.0313,765.89 Q4257.3281,765.89 4256.7344,766.1712 Q4256.1563,766.4525 4255.7031,767.0775 Q4255.25,767.7025 4255.25,768.5619 L4255.25,769.4837 Q4255.25,770.515 4256.0938,771.2025 Q4256.9375,771.89 4258.4375,771.89 Q4259.3281,771.89 4259.9531,771.6869 Q4260.3125,771.5775 4260.7188,771.2181 Q4260.9844,771.015 4261.125,770.9525 Q4261.2656,770.89 4261.4375,770.89 Q4261.7656,770.89 4262,771.1556 Q4262.25,771.4056 4262.25,771.765 Q4262.25,772.1087 4261.9063,772.515 Q4261.4063,773.1087 4260.6094,773.4369 Q4259.5625,773.89 4258.2813,773.89 Q4256.7813,773.89 4255.5781,773.2962 Q4254.6094,772.8275 4253.9219,771.8119 Q4253.25,770.7962 4253.25,769.5931 L4253.25,768.4994 Q4253.25,767.2494 4253.8438,766.1556 Q4254.4531,765.0619 4255.5,764.4837 Q4256.5625,763.89 4257.75,763.89 Q4258.4688,763.89 4259.0938,764.14 Q4259.7188,764.39 4260.25,764.89 Z " fill="#000000"/><text fill="#000000" font-family="sans-serif" font-size="14" lengthAdjust="spacing" textLength="191" x="4278.75" y="774.1185">CustomAuthenticationProvider</text><line style="stroke:#181818;stroke-width:0.5;" x1="4201.5" x2="4514.5" y1="784.39" y2="784.39"/><rect fill="none" height="6" style="stroke:#C82930;stroke-width:1.0;" width="6" x="4208.5" y="795.6947"/><text fill="#000000" font-family="sans-serif" font-size="14" lengthAdjust="spacing" textLength="289" x="4220.5" y="802.9232">CustomUserDetailsService userDetailsService</text><rect fill="none" height="6" style="stroke:#C82930;stroke-width:1.0;" width="6" x="4208.5" y="813.3041"/><text fill="#000000" font-family="sans-serif" font-size="14" lengthAdjust="spacing" textLength="231" x="4220.5" y="820.5326">PasswordEncoder passwordEncoder</text><line style="stroke:#181818;stroke-width:0.5;" x1="4201.5" x2="4514.5" y1="827.6087" y2="827.6087"/><ellipse cx="4211.5" cy="841.9134" fill="#84BE84" rx="3" ry="3" style="stroke:#038048;stroke-width:1.0;"/><text fill="#000000" font-family="sans-serif" font-size="14" lengthAdjust="spacing" textLength="272" x="4220.5" y="846.142">Authentication authenticate(Authentication)</text><ellipse cx="4211.5" cy="859.5228" fill="#84BE84" rx="3" ry="3" style="stroke:#038048;stroke-width:1.0;"/><text fill="#000000" font-family="sans-serif" font-size="14" lengthAdjust="spacing" textLength="179" x="4220.5" y="863.7513">boolean supports(Class&lt;?&gt;)</text></g><!--class CustomUserDetails--><g id="elem_CustomUserDetails"><rect codeLine="15" fill="#F1F1F1" height="312.1406" id="CustomUserDetails" rx="2.5" ry="2.5" style="stroke:#181818;stroke-width:0.5;" width="378" x="3468" y="655.54"/><ellipse cx="3592.75" cy="671.54" fill="#ADD1B2" rx="11" ry="11" style="stroke:#181818;stroke-width:1.0;"/><path d="M3594.75,668.04 Q3594.9531,667.54 3595.1875,667.29 Q3595.4219,667.04 3595.6875,667.04 Q3596.1563,667.04 3596.4531,667.3212 Q3596.75,667.6025 3596.75,668.2587 L3596.75,669.8212 Q3596.75,670.4775 3596.4688,670.7587 Q3596.1875,671.04 3595.75,671.04 Q3595.3594,671.04 3595.1094,670.8681 Q3594.8594,670.6962 3594.75,670.2431 Q3594.7031,669.9306 3594.5313,669.7587 Q3594.2188,669.4306 3593.6563,669.2431 Q3593.0938,669.04 3592.5313,669.04 Q3591.8281,669.04 3591.2344,669.3212 Q3590.6563,669.6025 3590.2031,670.2275 Q3589.75,670.8525 3589.75,671.7119 L3589.75,672.6337 Q3589.75,673.665 3590.5938,674.3525 Q3591.4375,675.04 3592.9375,675.04 Q3593.8281,675.04 3594.4531,674.8369 Q3594.8125,674.7275 3595.2188,674.3681 Q3595.4844,674.165 3595.625,674.1025 Q3595.7656,674.04 3595.9375,674.04 Q3596.2656,674.04 3596.5,674.3056 Q3596.75,674.5556 3596.75,674.915 Q3596.75,675.2587 3596.4063,675.665 Q3595.9063,676.2587 3595.1094,676.5869 Q3594.0625,677.04 3592.7813,677.04 Q3591.2813,677.04 3590.0781,676.4462 Q3589.1094,675.9775 3588.4219,674.9619 Q3587.75,673.9462 3587.75,672.7431 L3587.75,671.6494 Q3587.75,670.3994 3588.3438,669.3056 Q3588.9531,668.2119 3590,667.6337 Q3591.0625,667.04 3592.25,667.04 Q3592.9688,667.04 3593.5938,667.29 Q3594.2188,667.54 3594.75,668.04 Z " fill="#000000"/><text fill="#000000" font-family="sans-serif" font-size="14" lengthAdjust="spacing" textLength="120" x="3613.25" y="677.2685">CustomUserDetails</text><line style="stroke:#181818;stroke-width:0.5;" x1="3469" x2="3845" y1="687.54" y2="687.54"/><rect fill="none" height="6" style="stroke:#C82930;stroke-width:1.0;" width="6" x="3476" y="698.8447"/><text fill="#000000" font-family="sans-serif" font-size="14" lengthAdjust="spacing" textLength="47" x="3488" y="706.0732">Long id</text><rect fill="none" height="6" style="stroke:#C82930;stroke-width:1.0;" width="6" x="3476" y="716.4541"/><text fill="#000000" font-family="sans-serif" font-size="14" lengthAdjust="spacing" textLength="104" x="3488" y="723.6826">String username</text><rect fill="none" height="6" style="stroke:#C82930;stroke-width:1.0;" width="6" x="3476" y="734.0634"/><text fill="#000000" font-family="sans-serif" font-size="14" lengthAdjust="spacing" textLength="101" x="3488" y="741.292">String password</text><rect fill="none" height="6" style="stroke:#C82930;stroke-width:1.0;" width="6" x="3476" y="751.6728"/><text fill="#000000" font-family="sans-serif" font-size="14" lengthAdjust="spacing" textLength="83" x="3488" y="758.9013">boolean auth</text><rect fill="none" height="6" style="stroke:#C82930;stroke-width:1.0;" width="6" x="3476" y="769.2822"/><text fill="#000000" font-family="sans-serif" font-size="14" lengthAdjust="spacing" textLength="101" x="3488" y="776.5107">String nickname</text><rect fill="none" height="6" style="stroke:#C82930;stroke-width:1.0;" width="6" x="3476" y="786.8916"/><text fill="#000000" font-family="sans-serif" font-size="14" lengthAdjust="spacing" textLength="65" x="3488" y="794.1201">String role</text><rect fill="none" height="6" style="stroke:#C82930;stroke-width:1.0;" width="6" x="3476" y="804.5009"/><text fill="#000000" font-family="sans-serif" font-size="14" lengthAdjust="spacing" textLength="188" x="3488" y="811.7295">Map&lt;String,Object&gt; attributes</text><line style="stroke:#181818;stroke-width:0.5;" x1="3469" x2="3845" y1="818.8056" y2="818.8056"/><ellipse cx="3479" cy="833.1103" fill="#84BE84" rx="3" ry="3" style="stroke:#038048;stroke-width:1.0;"/><text fill="#000000" font-family="sans-serif" font-size="14" lengthAdjust="spacing" textLength="352" x="3488" y="837.3388">Collection&lt;? extends GrantedAuthority&gt; getAuthorities()</text><ellipse cx="3479" cy="850.7197" fill="#84BE84" rx="3" ry="3" style="stroke:#038048;stroke-width:1.0;"/><text fill="#000000" font-family="sans-serif" font-size="14" lengthAdjust="spacing" textLength="132" x="3488" y="854.9482">String getPassword()</text><ellipse cx="3479" cy="868.3291" fill="#84BE84" rx="3" ry="3" style="stroke:#038048;stroke-width:1.0;"/><text fill="#000000" font-family="sans-serif" font-size="14" lengthAdjust="spacing" textLength="135" x="3488" y="872.5576">String getUsername()</text><ellipse cx="3479" cy="885.9384" fill="#84BE84" rx="3" ry="3" style="stroke:#038048;stroke-width:1.0;"/><text fill="#000000" font-family="sans-serif" font-size="14" lengthAdjust="spacing" textLength="198" x="3488" y="890.167">boolean isAccountNonExpired()</text><ellipse cx="3479" cy="903.5478" fill="#84BE84" rx="3" ry="3" style="stroke:#038048;stroke-width:1.0;"/><text fill="#000000" font-family="sans-serif" font-size="14" lengthAdjust="spacing" textLength="197" x="3488" y="907.7763">boolean isAccountNonLocked()</text><ellipse cx="3479" cy="921.1572" fill="#84BE84" rx="3" ry="3" style="stroke:#038048;stroke-width:1.0;"/><text fill="#000000" font-family="sans-serif" font-size="14" lengthAdjust="spacing" textLength="219" x="3488" y="925.3857">boolean isCredentialsNonExpired()</text><ellipse cx="3479" cy="938.7666" fill="#84BE84" rx="3" ry="3" style="stroke:#038048;stroke-width:1.0;"/><text fill="#000000" font-family="sans-serif" font-size="14" lengthAdjust="spacing" textLength="127" x="3488" y="942.9951">boolean isEnabled()</text><ellipse cx="3479" cy="956.3759" fill="#84BE84" rx="3" ry="3" style="stroke:#038048;stroke-width:1.0;"/><text fill="#000000" font-family="sans-serif" font-size="14" lengthAdjust="spacing" textLength="107" x="3488" y="960.6045">String getName()</text></g><!--class CustomAuthenticationFailureHandler--><g id="elem_CustomAuthenticationFailureHandler"><rect codeLine="81" fill="#F1F1F1" height="65.6094" id="CustomAuthenticationFailureHandler" rx="2.5" ry="2.5" style="stroke:#181818;stroke-width:0.5;" width="630" x="2803" y="778.81"/><ellipse cx="2998.25" cy="794.81" fill="#ADD1B2" rx="11" ry="11" style="stroke:#181818;stroke-width:1.0;"/><path d="M3000.25,791.31 Q3000.4531,790.81 3000.6875,790.56 Q3000.9219,790.31 3001.1875,790.31 Q3001.6563,790.31 3001.9531,790.5913 Q3002.25,790.8725 3002.25,791.5288 L3002.25,793.0913 Q3002.25,793.7475 3001.9688,794.0288 Q3001.6875,794.31 3001.25,794.31 Q3000.8594,794.31 3000.6094,794.1381 Q3000.3594,793.9663 3000.25,793.5131 Q3000.2031,793.2006 3000.0313,793.0288 Q2999.7188,792.7006 2999.1563,792.5131 Q2998.5938,792.31 2998.0313,792.31 Q2997.3281,792.31 2996.7344,792.5913 Q2996.1563,792.8725 2995.7031,793.4975 Q2995.25,794.1225 2995.25,794.9819 L2995.25,795.9038 Q2995.25,796.935 2996.0938,797.6225 Q2996.9375,798.31 2998.4375,798.31 Q2999.3281,798.31 2999.9531,798.1069 Q3000.3125,797.9975 3000.7188,797.6381 Q3000.9844,797.435 3001.125,797.3725 Q3001.2656,797.31 3001.4375,797.31 Q3001.7656,797.31 3002,797.5756 Q3002.25,797.8256 3002.25,798.185 Q3002.25,798.5288 3001.9063,798.935 Q3001.4063,799.5288 3000.6094,799.8569 Q2999.5625,800.31 2998.2813,800.31 Q2996.7813,800.31 2995.5781,799.7163 Q2994.6094,799.2475 2993.9219,798.2319 Q2993.25,797.2163 2993.25,796.0131 L2993.25,794.9194 Q2993.25,793.6694 2993.8438,792.5756 Q2994.4531,791.4819 2995.5,790.9038 Q2996.5625,790.31 2997.75,790.31 Q2998.4688,790.31 2999.0938,790.56 Q2999.7188,790.81 3000.25,791.31 Z " fill="#000000"/><text fill="#000000" font-family="sans-serif" font-size="14" lengthAdjust="spacing" textLength="231" x="3018.75" y="800.5385">CustomAuthenticationFailureHandler</text><line style="stroke:#181818;stroke-width:0.5;" x1="2804" x2="3432" y1="810.81" y2="810.81"/><line style="stroke:#181818;stroke-width:0.5;" x1="2804" x2="3432" y1="818.81" y2="818.81"/><ellipse cx="2814" cy="833.1147" fill="#84BE84" rx="3" ry="3" style="stroke:#038048;stroke-width:1.0;"/><text fill="#000000" font-family="sans-serif" font-size="14" lengthAdjust="spacing" textLength="604" x="2823" y="837.3432">void onAuthenticationFailure(HttpServletRequest,HttpServletResponse,AuthenticationException)</text></g><!--class JwtAuthenticationEntryPoint--><g id="elem_JwtAuthenticationEntryPoint"><rect codeLine="34" fill="#F1F1F1" height="65.6094" id="JwtAuthenticationEntryPoint" rx="2.5" ry="2.5" style="stroke:#181818;stroke-width:0.5;" width="548" x="142" y="778.81"/><ellipse cx="324.75" cy="794.81" fill="#ADD1B2" rx="11" ry="11" style="stroke:#181818;stroke-width:1.0;"/><path d="M326.75,791.31 Q326.9531,790.81 327.1875,790.56 Q327.4219,790.31 327.6875,790.31 Q328.1563,790.31 328.4531,790.5913 Q328.75,790.8725 328.75,791.5288 L328.75,793.0913 Q328.75,793.7475 328.4688,794.0288 Q328.1875,794.31 327.75,794.31 Q327.3594,794.31 327.1094,794.1381 Q326.8594,793.9663 326.75,793.5131 Q326.7031,793.2006 326.5313,793.0288 Q326.2188,792.7006 325.6563,792.5131 Q325.0938,792.31 324.5313,792.31 Q323.8281,792.31 323.2344,792.5913 Q322.6563,792.8725 322.2031,793.4975 Q321.75,794.1225 321.75,794.9819 L321.75,795.9038 Q321.75,796.935 322.5938,797.6225 Q323.4375,798.31 324.9375,798.31 Q325.8281,798.31 326.4531,798.1069 Q326.8125,797.9975 327.2188,797.6381 Q327.4844,797.435 327.625,797.3725 Q327.7656,797.31 327.9375,797.31 Q328.2656,797.31 328.5,797.5756 Q328.75,797.8256 328.75,798.185 Q328.75,798.5288 328.4063,798.935 Q327.9063,799.5288 327.1094,799.8569 Q326.0625,800.31 324.7813,800.31 Q323.2813,800.31 322.0781,799.7163 Q321.1094,799.2475 320.4219,798.2319 Q319.75,797.2163 319.75,796.0131 L319.75,794.9194 Q319.75,793.6694 320.3438,792.5756 Q320.9531,791.4819 322,790.9038 Q323.0625,790.31 324.25,790.31 Q324.9688,790.31 325.5938,790.56 Q326.2188,790.81 326.75,791.31 Z " fill="#000000"/><text fill="#000000" font-family="sans-serif" font-size="14" lengthAdjust="spacing" textLength="174" x="345.25" y="800.5385">JwtAuthenticationEntryPoint</text><line style="stroke:#181818;stroke-width:0.5;" x1="143" x2="689" y1="810.81" y2="810.81"/><line style="stroke:#181818;stroke-width:0.5;" x1="143" x2="689" y1="818.81" y2="818.81"/><ellipse cx="153" cy="833.1147" fill="#84BE84" rx="3" ry="3" style="stroke:#038048;stroke-width:1.0;"/><text fill="#000000" font-family="sans-serif" font-size="14" lengthAdjust="spacing" textLength="522" x="162" y="837.3432">void commence(HttpServletRequest,HttpServletResponse,AuthenticationException)</text></g><!--class JwtAuthenticationFilter--><g id="elem_JwtAuthenticationFilter"><rect codeLine="44" fill="#F1F1F1" height="153.6563" id="JwtAuthenticationFilter" rx="2.5" ry="2.5" style="stroke:#181818;stroke-width:0.5;" width="652" x="1464" y="734.78"/><ellipse cx="1715.25" cy="750.78" fill="#ADD1B2" rx="11" ry="11" style="stroke:#181818;stroke-width:1.0;"/><path d="M1717.25,747.28 Q1717.4531,746.78 1717.6875,746.53 Q1717.9219,746.28 1718.1875,746.28 Q1718.6563,746.28 1718.9531,746.5612 Q1719.25,746.8425 1719.25,747.4987 L1719.25,749.0612 Q1719.25,749.7175 1718.9688,749.9987 Q1718.6875,750.28 1718.25,750.28 Q1717.8594,750.28 1717.6094,750.1081 Q1717.3594,749.9362 1717.25,749.4831 Q1717.2031,749.1706 1717.0313,748.9987 Q1716.7188,748.6706 1716.1563,748.4831 Q1715.5938,748.28 1715.0313,748.28 Q1714.3281,748.28 1713.7344,748.5612 Q1713.1563,748.8425 1712.7031,749.4675 Q1712.25,750.0925 1712.25,750.9519 L1712.25,751.8737 Q1712.25,752.905 1713.0938,753.5925 Q1713.9375,754.28 1715.4375,754.28 Q1716.3281,754.28 1716.9531,754.0769 Q1717.3125,753.9675 1717.7188,753.6081 Q1717.9844,753.405 1718.125,753.3425 Q1718.2656,753.28 1718.4375,753.28 Q1718.7656,753.28 1719,753.5456 Q1719.25,753.7956 1719.25,754.155 Q1719.25,754.4987 1718.9063,754.905 Q1718.4063,755.4987 1717.6094,755.8269 Q1716.5625,756.28 1715.2813,756.28 Q1713.7813,756.28 1712.5781,755.6862 Q1711.6094,755.2175 1710.9219,754.2019 Q1710.25,753.1862 1710.25,751.9831 L1710.25,750.8894 Q1710.25,749.6394 1710.8438,748.5456 Q1711.4531,747.4519 1712.5,746.8737 Q1713.5625,746.28 1714.75,746.28 Q1715.4688,746.28 1716.0938,746.53 Q1716.7188,746.78 1717.25,747.28 Z " fill="#000000"/><text fill="#000000" font-family="sans-serif" font-size="14" lengthAdjust="spacing" textLength="141" x="1735.75" y="756.5085">JwtAuthenticationFilter</text><line style="stroke:#181818;stroke-width:0.5;" x1="1465" x2="2115" y1="766.78" y2="766.78"/><rect fill="none" height="6" style="stroke:#C82930;stroke-width:1.0;" width="6" x="1472" y="778.0847"/><text fill="#000000" font-family="sans-serif" font-size="14" lengthAdjust="spacing" textLength="295" x="1484" y="785.3132">AuthenticationManager authenticationManager</text><rect fill="none" height="6" style="stroke:#C82930;stroke-width:1.0;" width="6" x="1472" y="795.6941"/><text fill="#000000" font-family="sans-serif" font-size="14" lengthAdjust="spacing" textLength="133" x="1484" y="802.9226">JwtService jwtService</text><rect fill="none" height="6" style="stroke:#C82930;stroke-width:1.0;" width="6" x="1472" y="813.3034"/><text fill="#000000" font-family="sans-serif" font-size="14" lengthAdjust="spacing" textLength="69" x="1484" y="820.532">Gson gson</text><line style="stroke:#181818;stroke-width:0.5;" x1="1465" x2="2115" y1="827.6081" y2="827.6081"/><ellipse cx="1475" cy="841.9128" fill="#84BE84" rx="3" ry="3" style="stroke:#038048;stroke-width:1.0;"/><text fill="#000000" font-family="sans-serif" font-size="14" lengthAdjust="spacing" textLength="500" x="1484" y="846.1413">Authentication attemptAuthentication(HttpServletRequest,HttpServletResponse)</text><polygon fill="#FFFF44" points="1475,854.5222,1479,858.5222,1475,862.5222,1471,858.5222" style="stroke:#B38D22;stroke-width:1.0;"/><text fill="#000000" font-family="sans-serif" font-size="14" lengthAdjust="spacing" textLength="622" x="1484" y="863.7507">void successfulAuthentication(HttpServletRequest,HttpServletResponse,FilterChain,Authentication)</text><polygon fill="#FFFF44" points="1475,872.1316,1479,876.1316,1475,880.1316,1471,876.1316" style="stroke:#B38D22;stroke-width:1.0;"/><text fill="#000000" font-family="sans-serif" font-size="14" lengthAdjust="spacing" textLength="626" x="1484" y="881.3601">void unsuccessfulAuthentication(HttpServletRequest,HttpServletResponse,AuthenticationException)</text></g><!--class JwtRequestFilter--><g id="elem_JwtRequestFilter"><rect codeLine="54" fill="#F1F1F1" height="100.8281" id="JwtRequestFilter" rx="2.5" ry="2.5" style="stroke:#181818;stroke-width:0.5;" width="493" x="935.5" y="761.2"/><ellipse cx="1125.75" cy="777.2" fill="#ADD1B2" rx="11" ry="11" style="stroke:#181818;stroke-width:1.0;"/><path d="M1127.75,773.7 Q1127.9531,773.2 1128.1875,772.95 Q1128.4219,772.7 1128.6875,772.7 Q1129.1563,772.7 1129.4531,772.9812 Q1129.75,773.2625 1129.75,773.9187 L1129.75,775.4812 Q1129.75,776.1375 1129.4688,776.4187 Q1129.1875,776.7 1128.75,776.7 Q1128.3594,776.7 1128.1094,776.5281 Q1127.8594,776.3562 1127.75,775.9031 Q1127.7031,775.5906 1127.5313,775.4187 Q1127.2188,775.0906 1126.6563,774.9031 Q1126.0938,774.7 1125.5313,774.7 Q1124.8281,774.7 1124.2344,774.9812 Q1123.6563,775.2625 1123.2031,775.8875 Q1122.75,776.5125 1122.75,777.3719 L1122.75,778.2937 Q1122.75,779.325 1123.5938,780.0125 Q1124.4375,780.7 1125.9375,780.7 Q1126.8281,780.7 1127.4531,780.4969 Q1127.8125,780.3875 1128.2188,780.0281 Q1128.4844,779.825 1128.625,779.7625 Q1128.7656,779.7 1128.9375,779.7 Q1129.2656,779.7 1129.5,779.9656 Q1129.75,780.2156 1129.75,780.575 Q1129.75,780.9187 1129.4063,781.325 Q1128.9063,781.9187 1128.1094,782.2469 Q1127.0625,782.7 1125.7813,782.7 Q1124.2813,782.7 1123.0781,782.1062 Q1122.1094,781.6375 1121.4219,780.6219 Q1120.75,779.6062 1120.75,778.4031 L1120.75,777.3094 Q1120.75,776.0594 1121.3438,774.9656 Q1121.9531,773.8719 1123,773.2937 Q1124.0625,772.7 1125.25,772.7 Q1125.9688,772.7 1126.5938,772.95 Q1127.2188,773.2 1127.75,773.7 Z " fill="#000000"/><text fill="#000000" font-family="sans-serif" font-size="14" lengthAdjust="spacing" textLength="104" x="1146.25" y="782.9285">JwtRequestFilter</text><line style="stroke:#181818;stroke-width:0.5;" x1="936.5" x2="1427.5" y1="793.2" y2="793.2"/><rect fill="none" height="6" style="stroke:#C82930;stroke-width:1.0;" width="6" x="943.5" y="804.5047"/><text fill="#000000" font-family="sans-serif" font-size="14" lengthAdjust="spacing" textLength="241" x="955.5" y="811.7332">UserDetailsService userDetailsService</text><rect fill="none" height="6" style="stroke:#C82930;stroke-width:1.0;" width="6" x="943.5" y="822.1141"/><text fill="#000000" font-family="sans-serif" font-size="14" lengthAdjust="spacing" textLength="133" x="955.5" y="829.3426">JwtService jwtService</text><line style="stroke:#181818;stroke-width:0.5;" x1="936.5" x2="1427.5" y1="836.4187" y2="836.4187"/><polygon fill="#FFFF44" points="946.5,845.7234,950.5,849.7234,946.5,853.7234,942.5,849.7234" style="stroke:#B38D22;stroke-width:1.0;"/><text fill="#000000" font-family="sans-serif" font-size="14" lengthAdjust="spacing" textLength="467" x="955.5" y="854.952">void doFilterInternal(HttpServletRequest,HttpServletResponse,FilterChain)</text></g><!--class LoginBody--><g id="elem_LoginBody"><rect codeLine="69" fill="#F1F1F1" height="83.2188" id="LoginBody" rx="2.5" ry="2.5" style="stroke:#181818;stroke-width:0.5;" width="130" x="770" y="770"/><ellipse cx="798.95" cy="786" fill="#ADD1B2" rx="11" ry="11" style="stroke:#181818;stroke-width:1.0;"/><path d="M800.95,782.5 Q801.1531,782 801.3875,781.75 Q801.6219,781.5 801.8875,781.5 Q802.3563,781.5 802.6531,781.7812 Q802.95,782.0625 802.95,782.7187 L802.95,784.2812 Q802.95,784.9375 802.6688,785.2187 Q802.3875,785.5 801.95,785.5 Q801.5594,785.5 801.3094,785.3281 Q801.0594,785.1562 800.95,784.7031 Q800.9031,784.3906 800.7313,784.2187 Q800.4188,783.8906 799.8563,783.7031 Q799.2938,783.5 798.7313,783.5 Q798.0281,783.5 797.4344,783.7812 Q796.8563,784.0625 796.4031,784.6875 Q795.95,785.3125 795.95,786.1719 L795.95,787.0937 Q795.95,788.125 796.7938,788.8125 Q797.6375,789.5 799.1375,789.5 Q800.0281,789.5 800.6531,789.2969 Q801.0125,789.1875 801.4188,788.8281 Q801.6844,788.625 801.825,788.5625 Q801.9656,788.5 802.1375,788.5 Q802.4656,788.5 802.7,788.7656 Q802.95,789.0156 802.95,789.375 Q802.95,789.7187 802.6063,790.125 Q802.1063,790.7187 801.3094,791.0469 Q800.2625,791.5 798.9813,791.5 Q797.4813,791.5 796.2781,790.9062 Q795.3094,790.4375 794.6219,789.4219 Q793.95,788.4062 793.95,787.2031 L793.95,786.1094 Q793.95,784.8594 794.5438,783.7656 Q795.1531,782.6719 796.2,782.0937 Q797.2625,781.5 798.45,781.5 Q799.1688,781.5 799.7938,781.75 Q800.4188,782 800.95,782.5 Z " fill="#000000"/><text fill="#000000" font-family="sans-serif" font-size="14" lengthAdjust="spacing" textLength="67" x="816.05" y="791.7285">LoginBody</text><line style="stroke:#181818;stroke-width:0.5;" x1="771" x2="899" y1="802" y2="802"/><rect fill="none" height="6" style="stroke:#C82930;stroke-width:1.0;" width="6" x="778" y="813.3047"/><text fill="#000000" font-family="sans-serif" font-size="14" lengthAdjust="spacing" textLength="104" x="790" y="820.5332">String username</text><rect fill="none" height="6" style="stroke:#C82930;stroke-width:1.0;" width="6" x="778" y="830.9141"/><text fill="#000000" font-family="sans-serif" font-size="14" lengthAdjust="spacing" textLength="101" x="790" y="838.1426">String password</text><line style="stroke:#181818;stroke-width:0.5;" x1="771" x2="899" y1="845.2187" y2="845.2187"/></g><!--class CustomOAuth2UserService--><g id="elem_CustomOAuth2UserService"><rect codeLine="74" fill="#F1F1F1" height="100.8281" id="CustomOAuth2UserService" rx="2.5" ry="2.5" style="stroke:#181818;stroke-width:0.5;" width="303" x="2465.5" y="761.2"/><ellipse cx="2526.75" cy="777.2" fill="#ADD1B2" rx="11" ry="11" style="stroke:#181818;stroke-width:1.0;"/><path d="M2528.75,773.7 Q2528.9531,773.2 2529.1875,772.95 Q2529.4219,772.7 2529.6875,772.7 Q2530.1563,772.7 2530.4531,772.9812 Q2530.75,773.2625 2530.75,773.9187 L2530.75,775.4812 Q2530.75,776.1375 2530.4688,776.4187 Q2530.1875,776.7 2529.75,776.7 Q2529.3594,776.7 2529.1094,776.5281 Q2528.8594,776.3562 2528.75,775.9031 Q2528.7031,775.5906 2528.5313,775.4187 Q2528.2188,775.0906 2527.6563,774.9031 Q2527.0938,774.7 2526.5313,774.7 Q2525.8281,774.7 2525.2344,774.9812 Q2524.6563,775.2625 2524.2031,775.8875 Q2523.75,776.5125 2523.75,777.3719 L2523.75,778.2937 Q2523.75,779.325 2524.5938,780.0125 Q2525.4375,780.7 2526.9375,780.7 Q2527.8281,780.7 2528.4531,780.4969 Q2528.8125,780.3875 2529.2188,780.0281 Q2529.4844,779.825 2529.625,779.7625 Q2529.7656,779.7 2529.9375,779.7 Q2530.2656,779.7 2530.5,779.9656 Q2530.75,780.2156 2530.75,780.575 Q2530.75,780.9187 2530.4063,781.325 Q2529.9063,781.9187 2529.1094,782.2469 Q2528.0625,782.7 2526.7813,782.7 Q2525.2813,782.7 2524.0781,782.1062 Q2523.1094,781.6375 2522.4219,780.6219 Q2521.75,779.6062 2521.75,778.4031 L2521.75,777.3094 Q2521.75,776.0594 2522.3438,774.9656 Q2522.9531,773.8719 2524,773.2937 Q2525.0625,772.7 2526.25,772.7 Q2526.9688,772.7 2527.5938,772.95 Q2528.2188,773.2 2528.75,773.7 Z " fill="#000000"/><text fill="#000000" font-family="sans-serif" font-size="14" lengthAdjust="spacing" textLength="172" x="2547.25" y="782.9285">CustomOAuth2UserService</text><line style="stroke:#181818;stroke-width:0.5;" x1="2466.5" x2="2767.5" y1="793.2" y2="793.2"/><rect fill="none" height="6" style="stroke:#C82930;stroke-width:1.0;" width="6" x="2473.5" y="804.5047"/><text fill="#000000" font-family="sans-serif" font-size="14" lengthAdjust="spacing" textLength="259" x="2485.5" y="811.7332">MemberRepositoryV1 memberRepository</text><rect fill="none" height="6" style="stroke:#C82930;stroke-width:1.0;" width="6" x="2473.5" y="822.1141"/><text fill="#000000" font-family="sans-serif" font-size="14" lengthAdjust="spacing" textLength="231" x="2485.5" y="829.3426">PasswordEncoder passwordEncoder</text><line style="stroke:#181818;stroke-width:0.5;" x1="2466.5" x2="2767.5" y1="836.4187" y2="836.4187"/><ellipse cx="2476.5" cy="850.7234" fill="#84BE84" rx="3" ry="3" style="stroke:#038048;stroke-width:1.0;"/><text fill="#000000" font-family="sans-serif" font-size="14" lengthAdjust="spacing" textLength="277" x="2485.5" y="854.952">OAuth2User loadUser(OAuth2UserRequest)</text></g><!--class OAuth2UserInfo--><g id="elem_OAuth2UserInfo"><rect codeLine="38" fill="#F1F1F1" height="100.8281" id="OAuth2UserInfo" rx="2.5" ry="2.5" style="stroke:#181818;stroke-width:0.5;" width="161" x="2246.5" y="761.2"/><ellipse cx="2273.65" cy="777.2" fill="#B4A7E5" rx="11" ry="11" style="stroke:#181818;stroke-width:1.0;"/><path d="M2274.65,774.2 L2274.65,780.2 L2276.65,780.2 L2277.1344,780.2 L2277.65,780.825 L2277.65,781.2 L2277.65,781.575 L2277.1344,782.2 L2276.65,782.2 L2270.65,782.2 L2270.1656,782.2 L2269.65,781.575 L2269.65,781.2 L2269.65,780.825 L2270.1656,780.2 L2270.65,780.2 L2272.65,780.2 L2272.65,774.2 L2270.65,774.2 L2270.1656,774.2 L2269.65,773.575 L2269.65,773.2 L2269.65,772.825 L2270.1656,772.2 L2270.65,772.2 L2276.65,772.2 L2277.1344,772.2 L2277.65,772.825 L2277.65,773.2 L2277.65,773.575 L2277.1344,774.2 L2276.65,774.2 L2274.65,774.2 Z " fill="#000000"/><text fill="#000000" font-family="sans-serif" font-size="14" font-style="italic" lengthAdjust="spacing" textLength="102" x="2290.35" y="782.9285">OAuth2UserInfo</text><line style="stroke:#181818;stroke-width:0.5;" x1="2247.5" x2="2406.5" y1="793.2" y2="793.2"/><line style="stroke:#181818;stroke-width:0.5;" x1="2247.5" x2="2406.5" y1="801.2" y2="801.2"/><polygon fill="#4177AF" points="2257.5,811.5047,2253.5,817.5047,2261.5,817.5047" style="stroke:#1963A0;stroke-width:1.0;"/><text fill="#000000" font-family="sans-serif" font-size="14" lengthAdjust="spacing" textLength="124" x="2266.5" y="819.7332">String getProvider()</text><polygon fill="#4177AF" points="2257.5,829.1141,2253.5,835.1141,2261.5,835.1141" style="stroke:#1963A0;stroke-width:1.0;"/><text fill="#000000" font-family="sans-serif" font-size="14" lengthAdjust="spacing" textLength="135" x="2266.5" y="837.3426">String getProviderId()</text><polygon fill="#4177AF" points="2257.5,846.7234,2253.5,852.7234,2261.5,852.7234" style="stroke:#1963A0;stroke-width:1.0;"/><text fill="#000000" font-family="sans-serif" font-size="14" lengthAdjust="spacing" textLength="105" x="2266.5" y="854.952">String getEmail()</text></g><!--class GoogleUserInfo--><g id="elem_GoogleUserInfo"><rect codeLine="61" fill="#F1F1F1" height="118.4375" id="GoogleUserInfo" rx="2.5" ry="2.5" style="stroke:#181818;stroke-width:0.5;" width="214" x="2220" y="1027.68"/><ellipse cx="2273.75" cy="1043.68" fill="#ADD1B2" rx="11" ry="11" style="stroke:#181818;stroke-width:1.0;"/><path d="M2275.75,1040.18 Q2275.9531,1039.68 2276.1875,1039.43 Q2276.4219,1039.18 2276.6875,1039.18 Q2277.1563,1039.18 2277.4531,1039.4612 Q2277.75,1039.7425 2277.75,1040.3987 L2277.75,1041.9612 Q2277.75,1042.6175 2277.4688,1042.8987 Q2277.1875,1043.18 2276.75,1043.18 Q2276.3594,1043.18 2276.1094,1043.0081 Q2275.8594,1042.8362 2275.75,1042.3831 Q2275.7031,1042.0706 2275.5313,1041.8987 Q2275.2188,1041.5706 2274.6563,1041.3831 Q2274.0938,1041.18 2273.5313,1041.18 Q2272.8281,1041.18 2272.2344,1041.4612 Q2271.6563,1041.7425 2271.2031,1042.3675 Q2270.75,1042.9925 2270.75,1043.8519 L2270.75,1044.7737 Q2270.75,1045.805 2271.5938,1046.4925 Q2272.4375,1047.18 2273.9375,1047.18 Q2274.8281,1047.18 2275.4531,1046.9769 Q2275.8125,1046.8675 2276.2188,1046.5081 Q2276.4844,1046.305 2276.625,1046.2425 Q2276.7656,1046.18 2276.9375,1046.18 Q2277.2656,1046.18 2277.5,1046.4456 Q2277.75,1046.6956 2277.75,1047.055 Q2277.75,1047.3987 2277.4063,1047.805 Q2276.9063,1048.3987 2276.1094,1048.7269 Q2275.0625,1049.18 2273.7813,1049.18 Q2272.2813,1049.18 2271.0781,1048.5862 Q2270.1094,1048.1175 2269.4219,1047.1019 Q2268.75,1046.0862 2268.75,1044.8831 L2268.75,1043.7894 Q2268.75,1042.5394 2269.3438,1041.4456 Q2269.9531,1040.3519 2271,1039.7737 Q2272.0625,1039.18 2273.25,1039.18 Q2273.9688,1039.18 2274.5938,1039.43 Q2275.2188,1039.68 2275.75,1040.18 Z " fill="#000000"/><text fill="#000000" font-family="sans-serif" font-size="14" lengthAdjust="spacing" textLength="98" x="2294.25" y="1049.4085">GoogleUserInfo</text><line style="stroke:#181818;stroke-width:0.5;" x1="2221" x2="2433" y1="1059.68" y2="1059.68"/><rect fill="none" height="6" style="stroke:#C82930;stroke-width:1.0;" width="6" x="2228" y="1070.9847"/><text fill="#000000" font-family="sans-serif" font-size="14" lengthAdjust="spacing" textLength="188" x="2240" y="1078.2132">Map&lt;String,Object&gt; attributes</text><line style="stroke:#181818;stroke-width:0.5;" x1="2221" x2="2433" y1="1085.2894" y2="1085.2894"/><ellipse cx="2231" cy="1099.5941" fill="#84BE84" rx="3" ry="3" style="stroke:#038048;stroke-width:1.0;"/><text fill="#000000" font-family="sans-serif" font-size="14" lengthAdjust="spacing" textLength="124" x="2240" y="1103.8226">String getProvider()</text><ellipse cx="2231" cy="1117.2034" fill="#84BE84" rx="3" ry="3" style="stroke:#038048;stroke-width:1.0;"/><text fill="#000000" font-family="sans-serif" font-size="14" lengthAdjust="spacing" textLength="135" x="2240" y="1121.432">String getProviderId()</text><ellipse cx="2231" cy="1134.8128" fill="#84BE84" rx="3" ry="3" style="stroke:#038048;stroke-width:1.0;"/><text fill="#000000" font-family="sans-serif" font-size="14" lengthAdjust="spacing" textLength="105" x="2240" y="1139.0413">String getEmail()</text></g><!--class UserDetailsService--><g id="elem_UserDetailsService"><rect fill="#F1F1F1" height="48" id="UserDetailsService" rx="2.5" ry="2.5" style="stroke:#181818;stroke-width:0.5;" width="151" x="3743.5" y="262"/><ellipse cx="3758.5" cy="278" fill="#ADD1B2" rx="11" ry="11" style="stroke:#181818;stroke-width:1.0;"/><path d="M3760.5,274.5 Q3760.7031,274 3760.9375,273.75 Q3761.1719,273.5 3761.4375,273.5 Q3761.9063,273.5 3762.2031,273.7813 Q3762.5,274.0625 3762.5,274.7188 L3762.5,276.2813 Q3762.5,276.9375 3762.2188,277.2188 Q3761.9375,277.5 3761.5,277.5 Q3761.1094,277.5 3760.8594,277.3281 Q3760.6094,277.1563 3760.5,276.7031 Q3760.4531,276.3906 3760.2813,276.2188 Q3759.9688,275.8906 3759.4063,275.7031 Q3758.8438,275.5 3758.2813,275.5 Q3757.5781,275.5 3756.9844,275.7813 Q3756.4063,276.0625 3755.9531,276.6875 Q3755.5,277.3125 3755.5,278.1719 L3755.5,279.0938 Q3755.5,280.125 3756.3438,280.8125 Q3757.1875,281.5 3758.6875,281.5 Q3759.5781,281.5 3760.2031,281.2969 Q3760.5625,281.1875 3760.9688,280.8281 Q3761.2344,280.625 3761.375,280.5625 Q3761.5156,280.5 3761.6875,280.5 Q3762.0156,280.5 3762.25,280.7656 Q3762.5,281.0156 3762.5,281.375 Q3762.5,281.7188 3762.1563,282.125 Q3761.6563,282.7188 3760.8594,283.0469 Q3759.8125,283.5 3758.5313,283.5 Q3757.0313,283.5 3755.8281,282.9063 Q3754.8594,282.4375 3754.1719,281.4219 Q3753.5,280.4063 3753.5,279.2031 L3753.5,278.1094 Q3753.5,276.8594 3754.0938,275.7656 Q3754.7031,274.6719 3755.75,274.0938 Q3756.8125,273.5 3758,273.5 Q3758.7188,273.5 3759.3438,273.75 Q3759.9688,274 3760.5,274.5 Z " fill="#000000"/><text fill="#000000" font-family="sans-serif" font-size="14" lengthAdjust="spacing" textLength="119" x="3772.5" y="283.7285">UserDetailsService</text><line style="stroke:#181818;stroke-width:0.5;" x1="3744.5" x2="3893.5" y1="294" y2="294"/><line style="stroke:#181818;stroke-width:0.5;" x1="3744.5" x2="3893.5" y1="302" y2="302"/></g><!--class UserDetails--><g id="elem_UserDetails"><rect fill="#F1F1F1" height="48" id="UserDetails" rx="2.5" ry="2.5" style="stroke:#181818;stroke-width:0.5;" width="104" x="3605" y="262"/><ellipse cx="3620" cy="278" fill="#ADD1B2" rx="11" ry="11" style="stroke:#181818;stroke-width:1.0;"/><path d="M3622,274.5 Q3622.2031,274 3622.4375,273.75 Q3622.6719,273.5 3622.9375,273.5 Q3623.4063,273.5 3623.7031,273.7813 Q3624,274.0625 3624,274.7188 L3624,276.2813 Q3624,276.9375 3623.7188,277.2188 Q3623.4375,277.5 3623,277.5 Q3622.6094,277.5 3622.3594,277.3281 Q3622.1094,277.1563 3622,276.7031 Q3621.9531,276.3906 3621.7813,276.2188 Q3621.4688,275.8906 3620.9063,275.7031 Q3620.3438,275.5 3619.7813,275.5 Q3619.0781,275.5 3618.4844,275.7813 Q3617.9063,276.0625 3617.4531,276.6875 Q3617,277.3125 3617,278.1719 L3617,279.0938 Q3617,280.125 3617.8438,280.8125 Q3618.6875,281.5 3620.1875,281.5 Q3621.0781,281.5 3621.7031,281.2969 Q3622.0625,281.1875 3622.4688,280.8281 Q3622.7344,280.625 3622.875,280.5625 Q3623.0156,280.5 3623.1875,280.5 Q3623.5156,280.5 3623.75,280.7656 Q3624,281.0156 3624,281.375 Q3624,281.7188 3623.6563,282.125 Q3623.1563,282.7188 3622.3594,283.0469 Q3621.3125,283.5 3620.0313,283.5 Q3618.5313,283.5 3617.3281,282.9063 Q3616.3594,282.4375 3615.6719,281.4219 Q3615,280.4063 3615,279.2031 L3615,278.1094 Q3615,276.8594 3615.5938,275.7656 Q3616.2031,274.6719 3617.25,274.0938 Q3618.3125,273.5 3619.5,273.5 Q3620.2188,273.5 3620.8438,273.75 Q3621.4688,274 3622,274.5 Z " fill="#000000"/><text fill="#000000" font-family="sans-serif" font-size="14" lengthAdjust="spacing" textLength="72" x="3634" y="283.7285">UserDetails</text><line style="stroke:#181818;stroke-width:0.5;" x1="3606" x2="3708" y1="294" y2="294"/><line style="stroke:#181818;stroke-width:0.5;" x1="3606" x2="3708" y1="302" y2="302"/></g><!--class AuthenticationProvider--><g id="elem_AuthenticationProvider"><rect fill="#F1F1F1" height="48" id="AuthenticationProvider" rx="2.5" ry="2.5" style="stroke:#181818;stroke-width:0.5;" width="175" x="3974.5" y="262"/><ellipse cx="3989.5" cy="278" fill="#ADD1B2" rx="11" ry="11" style="stroke:#181818;stroke-width:1.0;"/><path d="M3991.5,274.5 Q3991.7031,274 3991.9375,273.75 Q3992.1719,273.5 3992.4375,273.5 Q3992.9063,273.5 3993.2031,273.7813 Q3993.5,274.0625 3993.5,274.7188 L3993.5,276.2813 Q3993.5,276.9375 3993.2188,277.2188 Q3992.9375,277.5 3992.5,277.5 Q3992.1094,277.5 3991.8594,277.3281 Q3991.6094,277.1563 3991.5,276.7031 Q3991.4531,276.3906 3991.2813,276.2188 Q3990.9688,275.8906 3990.4063,275.7031 Q3989.8438,275.5 3989.2813,275.5 Q3988.5781,275.5 3987.9844,275.7813 Q3987.4063,276.0625 3986.9531,276.6875 Q3986.5,277.3125 3986.5,278.1719 L3986.5,279.0938 Q3986.5,280.125 3987.3438,280.8125 Q3988.1875,281.5 3989.6875,281.5 Q3990.5781,281.5 3991.2031,281.2969 Q3991.5625,281.1875 3991.9688,280.8281 Q3992.2344,280.625 3992.375,280.5625 Q3992.5156,280.5 3992.6875,280.5 Q3993.0156,280.5 3993.25,280.7656 Q3993.5,281.0156 3993.5,281.375 Q3993.5,281.7188 3993.1563,282.125 Q3992.6563,282.7188 3991.8594,283.0469 Q3990.8125,283.5 3989.5313,283.5 Q3988.0313,283.5 3986.8281,282.9063 Q3985.8594,282.4375 3985.1719,281.4219 Q3984.5,280.4063 3984.5,279.2031 L3984.5,278.1094 Q3984.5,276.8594 3985.0938,275.7656 Q3985.7031,274.6719 3986.75,274.0938 Q3987.8125,273.5 3989,273.5 Q3989.7188,273.5 3990.3438,273.75 Q3990.9688,274 3991.5,274.5 Z " fill="#000000"/><text fill="#000000" font-family="sans-serif" font-size="14" lengthAdjust="spacing" textLength="143" x="4003.5" y="283.7285">AuthenticationProvider</text><line style="stroke:#181818;stroke-width:0.5;" x1="3975.5" x2="4148.5" y1="294" y2="294"/><line style="stroke:#181818;stroke-width:0.5;" x1="3975.5" x2="4148.5" y1="302" y2="302"/></g><!--class OAuth2User--><g id="elem_OAuth2User"><rect fill="#F1F1F1" height="48" id="OAuth2User" rx="2.5" ry="2.5" style="stroke:#181818;stroke-width:0.5;" width="109" x="3367.5" y="262"/><ellipse cx="3382.5" cy="278" fill="#ADD1B2" rx="11" ry="11" style="stroke:#181818;stroke-width:1.0;"/><path d="M3384.5,274.5 Q3384.7031,274 3384.9375,273.75 Q3385.1719,273.5 3385.4375,273.5 Q3385.9063,273.5 3386.2031,273.7813 Q3386.5,274.0625 3386.5,274.7188 L3386.5,276.2813 Q3386.5,276.9375 3386.2188,277.2188 Q3385.9375,277.5 3385.5,277.5 Q3385.1094,277.5 3384.8594,277.3281 Q3384.6094,277.1563 3384.5,276.7031 Q3384.4531,276.3906 3384.2813,276.2188 Q3383.9688,275.8906 3383.4063,275.7031 Q3382.8438,275.5 3382.2813,275.5 Q3381.5781,275.5 3380.9844,275.7813 Q3380.4063,276.0625 3379.9531,276.6875 Q3379.5,277.3125 3379.5,278.1719 L3379.5,279.0938 Q3379.5,280.125 3380.3438,280.8125 Q3381.1875,281.5 3382.6875,281.5 Q3383.5781,281.5 3384.2031,281.2969 Q3384.5625,281.1875 3384.9688,280.8281 Q3385.2344,280.625 3385.375,280.5625 Q3385.5156,280.5 3385.6875,280.5 Q3386.0156,280.5 3386.25,280.7656 Q3386.5,281.0156 3386.5,281.375 Q3386.5,281.7188 3386.1563,282.125 Q3385.6563,282.7188 3384.8594,283.0469 Q3383.8125,283.5 3382.5313,283.5 Q3381.0313,283.5 3379.8281,282.9063 Q3378.8594,282.4375 3378.1719,281.4219 Q3377.5,280.4063 3377.5,279.2031 L3377.5,278.1094 Q3377.5,276.8594 3378.0938,275.7656 Q3378.7031,274.6719 3379.75,274.0938 Q3380.8125,273.5 3382,273.5 Q3382.7188,273.5 3383.3438,273.75 Q3383.9688,274 3384.5,274.5 Z " fill="#000000"/><text fill="#000000" font-family="sans-serif" font-size="14" lengthAdjust="spacing" textLength="77" x="3396.5" y="283.7285">OAuth2User</text><line style="stroke:#181818;stroke-width:0.5;" x1="3368.5" x2="3475.5" y1="294" y2="294"/><line style="stroke:#181818;stroke-width:0.5;" x1="3368.5" x2="3475.5" y1="302" y2="302"/></g><!--class DefaultOAuth2UserService--><g id="elem_DefaultOAuth2UserService"><rect fill="#F1F1F1" height="48" id="DefaultOAuth2UserService" rx="2.5" ry="2.5" style="stroke:#181818;stroke-width:0.5;" width="201" x="3061.5" y="262"/><ellipse cx="3076.5" cy="278" fill="#ADD1B2" rx="11" ry="11" style="stroke:#181818;stroke-width:1.0;"/><path d="M3078.5,274.5 Q3078.7031,274 3078.9375,273.75 Q3079.1719,273.5 3079.4375,273.5 Q3079.9063,273.5 3080.2031,273.7813 Q3080.5,274.0625 3080.5,274.7188 L3080.5,276.2813 Q3080.5,276.9375 3080.2188,277.2188 Q3079.9375,277.5 3079.5,277.5 Q3079.1094,277.5 3078.8594,277.3281 Q3078.6094,277.1563 3078.5,276.7031 Q3078.4531,276.3906 3078.2813,276.2188 Q3077.9688,275.8906 3077.4063,275.7031 Q3076.8438,275.5 3076.2813,275.5 Q3075.5781,275.5 3074.9844,275.7813 Q3074.4063,276.0625 3073.9531,276.6875 Q3073.5,277.3125 3073.5,278.1719 L3073.5,279.0938 Q3073.5,280.125 3074.3438,280.8125 Q3075.1875,281.5 3076.6875,281.5 Q3077.5781,281.5 3078.2031,281.2969 Q3078.5625,281.1875 3078.9688,280.8281 Q3079.2344,280.625 3079.375,280.5625 Q3079.5156,280.5 3079.6875,280.5 Q3080.0156,280.5 3080.25,280.7656 Q3080.5,281.0156 3080.5,281.375 Q3080.5,281.7188 3080.1563,282.125 Q3079.6563,282.7188 3078.8594,283.0469 Q3077.8125,283.5 3076.5313,283.5 Q3075.0313,283.5 3073.8281,282.9063 Q3072.8594,282.4375 3072.1719,281.4219 Q3071.5,280.4063 3071.5,279.2031 L3071.5,278.1094 Q3071.5,276.8594 3072.0938,275.7656 Q3072.7031,274.6719 3073.75,274.0938 Q3074.8125,273.5 3076,273.5 Q3076.7188,273.5 3077.3438,273.75 Q3077.9688,274 3078.5,274.5 Z " fill="#000000"/><text fill="#000000" font-family="sans-serif" font-size="14" lengthAdjust="spacing" textLength="169" x="3090.5" y="283.7285">DefaultOAuth2UserService</text><line style="stroke:#181818;stroke-width:0.5;" x1="3062.5" x2="3261.5" y1="294" y2="294"/><line style="stroke:#181818;stroke-width:0.5;" x1="3062.5" x2="3261.5" y1="302" y2="302"/></g><!--class AuthenticationEntryPoint--><g id="elem_AuthenticationEntryPoint"><rect fill="#F1F1F1" height="48" id="AuthenticationEntryPoint" rx="2.5" ry="2.5" style="stroke:#181818;stroke-width:0.5;" width="187" x="2182.5" y="262"/><ellipse cx="2197.5" cy="278" fill="#ADD1B2" rx="11" ry="11" style="stroke:#181818;stroke-width:1.0;"/><path d="M2199.5,274.5 Q2199.7031,274 2199.9375,273.75 Q2200.1719,273.5 2200.4375,273.5 Q2200.9063,273.5 2201.2031,273.7813 Q2201.5,274.0625 2201.5,274.7188 L2201.5,276.2813 Q2201.5,276.9375 2201.2188,277.2188 Q2200.9375,277.5 2200.5,277.5 Q2200.1094,277.5 2199.8594,277.3281 Q2199.6094,277.1563 2199.5,276.7031 Q2199.4531,276.3906 2199.2813,276.2188 Q2198.9688,275.8906 2198.4063,275.7031 Q2197.8438,275.5 2197.2813,275.5 Q2196.5781,275.5 2195.9844,275.7813 Q2195.4063,276.0625 2194.9531,276.6875 Q2194.5,277.3125 2194.5,278.1719 L2194.5,279.0938 Q2194.5,280.125 2195.3438,280.8125 Q2196.1875,281.5 2197.6875,281.5 Q2198.5781,281.5 2199.2031,281.2969 Q2199.5625,281.1875 2199.9688,280.8281 Q2200.2344,280.625 2200.375,280.5625 Q2200.5156,280.5 2200.6875,280.5 Q2201.0156,280.5 2201.25,280.7656 Q2201.5,281.0156 2201.5,281.375 Q2201.5,281.7188 2201.1563,282.125 Q2200.6563,282.7188 2199.8594,283.0469 Q2198.8125,283.5 2197.5313,283.5 Q2196.0313,283.5 2194.8281,282.9063 Q2193.8594,282.4375 2193.1719,281.4219 Q2192.5,280.4063 2192.5,279.2031 L2192.5,278.1094 Q2192.5,276.8594 2193.0938,275.7656 Q2193.7031,274.6719 2194.75,274.0938 Q2195.8125,273.5 2197,273.5 Q2197.7188,273.5 2198.3438,273.75 Q2198.9688,274 2199.5,274.5 Z " fill="#000000"/><text fill="#000000" font-family="sans-serif" font-size="14" lengthAdjust="spacing" textLength="155" x="2211.5" y="283.7285">AuthenticationEntryPoint</text><line style="stroke:#181818;stroke-width:0.5;" x1="2183.5" x2="2368.5" y1="294" y2="294"/><line style="stroke:#181818;stroke-width:0.5;" x1="2183.5" x2="2368.5" y1="302" y2="302"/></g><!--class UsernamePasswordAuthenticationFilter--><g id="elem_UsernamePasswordAuthenticationFilter"><rect fill="#F1F1F1" height="48" id="UsernamePasswordAuthenticationFilter" rx="2.5" ry="2.5" style="stroke:#181818;stroke-width:0.5;" width="279" x="2404.5" y="262"/><ellipse cx="2419.5" cy="278" fill="#ADD1B2" rx="11" ry="11" style="stroke:#181818;stroke-width:1.0;"/><path d="M2421.5,274.5 Q2421.7031,274 2421.9375,273.75 Q2422.1719,273.5 2422.4375,273.5 Q2422.9063,273.5 2423.2031,273.7813 Q2423.5,274.0625 2423.5,274.7188 L2423.5,276.2813 Q2423.5,276.9375 2423.2188,277.2188 Q2422.9375,277.5 2422.5,277.5 Q2422.1094,277.5 2421.8594,277.3281 Q2421.6094,277.1563 2421.5,276.7031 Q2421.4531,276.3906 2421.2813,276.2188 Q2420.9688,275.8906 2420.4063,275.7031 Q2419.8438,275.5 2419.2813,275.5 Q2418.5781,275.5 2417.9844,275.7813 Q2417.4063,276.0625 2416.9531,276.6875 Q2416.5,277.3125 2416.5,278.1719 L2416.5,279.0938 Q2416.5,280.125 2417.3438,280.8125 Q2418.1875,281.5 2419.6875,281.5 Q2420.5781,281.5 2421.2031,281.2969 Q2421.5625,281.1875 2421.9688,280.8281 Q2422.2344,280.625 2422.375,280.5625 Q2422.5156,280.5 2422.6875,280.5 Q2423.0156,280.5 2423.25,280.7656 Q2423.5,281.0156 2423.5,281.375 Q2423.5,281.7188 2423.1563,282.125 Q2422.6563,282.7188 2421.8594,283.0469 Q2420.8125,283.5 2419.5313,283.5 Q2418.0313,283.5 2416.8281,282.9063 Q2415.8594,282.4375 2415.1719,281.4219 Q2414.5,280.4063 2414.5,279.2031 L2414.5,278.1094 Q2414.5,276.8594 2415.0938,275.7656 Q2415.7031,274.6719 2416.75,274.0938 Q2417.8125,273.5 2419,273.5 Q2419.7188,273.5 2420.3438,273.75 Q2420.9688,274 2421.5,274.5 Z " fill="#000000"/><text fill="#000000" font-family="sans-serif" font-size="14" lengthAdjust="spacing" textLength="247" x="2433.5" y="283.7285">UsernamePasswordAuthenticationFilter</text><line style="stroke:#181818;stroke-width:0.5;" x1="2405.5" x2="2682.5" y1="294" y2="294"/><line style="stroke:#181818;stroke-width:0.5;" x1="2405.5" x2="2682.5" y1="302" y2="302"/></g><!--class AuthenticationFailureHandler--><g id="elem_AuthenticationFailureHandler"><rect fill="#F1F1F1" height="48" id="AuthenticationFailureHandler" rx="2.5" ry="2.5" style="stroke:#181818;stroke-width:0.5;" width="215" x="2718.5" y="262"/><ellipse cx="2733.5" cy="278" fill="#ADD1B2" rx="11" ry="11" style="stroke:#181818;stroke-width:1.0;"/><path d="M2735.5,274.5 Q2735.7031,274 2735.9375,273.75 Q2736.1719,273.5 2736.4375,273.5 Q2736.9063,273.5 2737.2031,273.7813 Q2737.5,274.0625 2737.5,274.7188 L2737.5,276.2813 Q2737.5,276.9375 2737.2188,277.2188 Q2736.9375,277.5 2736.5,277.5 Q2736.1094,277.5 2735.8594,277.3281 Q2735.6094,277.1563 2735.5,276.7031 Q2735.4531,276.3906 2735.2813,276.2188 Q2734.9688,275.8906 2734.4063,275.7031 Q2733.8438,275.5 2733.2813,275.5 Q2732.5781,275.5 2731.9844,275.7813 Q2731.4063,276.0625 2730.9531,276.6875 Q2730.5,277.3125 2730.5,278.1719 L2730.5,279.0938 Q2730.5,280.125 2731.3438,280.8125 Q2732.1875,281.5 2733.6875,281.5 Q2734.5781,281.5 2735.2031,281.2969 Q2735.5625,281.1875 2735.9688,280.8281 Q2736.2344,280.625 2736.375,280.5625 Q2736.5156,280.5 2736.6875,280.5 Q2737.0156,280.5 2737.25,280.7656 Q2737.5,281.0156 2737.5,281.375 Q2737.5,281.7188 2737.1563,282.125 Q2736.6563,282.7188 2735.8594,283.0469 Q2734.8125,283.5 2733.5313,283.5 Q2732.0313,283.5 2730.8281,282.9063 Q2729.8594,282.4375 2729.1719,281.4219 Q2728.5,280.4063 2728.5,279.2031 L2728.5,278.1094 Q2728.5,276.8594 2729.0938,275.7656 Q2729.7031,274.6719 2730.75,274.0938 Q2731.8125,273.5 2733,273.5 Q2733.7188,273.5 2734.3438,273.75 Q2734.9688,274 2735.5,274.5 Z " fill="#000000"/><text fill="#000000" font-family="sans-serif" font-size="14" lengthAdjust="spacing" textLength="183" x="2747.5" y="283.7285">AuthenticationFailureHandler</text><line style="stroke:#181818;stroke-width:0.5;" x1="2719.5" x2="2932.5" y1="294" y2="294"/><line style="stroke:#181818;stroke-width:0.5;" x1="2719.5" x2="2932.5" y1="302" y2="302"/></g><!--class OncePerRequestFilter--><g id="elem_OncePerRequestFilter"><rect fill="#F1F1F1" height="48" id="OncePerRequestFilter" rx="2.5" ry="2.5" style="stroke:#181818;stroke-width:0.5;" width="173" x="1905.5" y="262"/><ellipse cx="1920.5" cy="278" fill="#ADD1B2" rx="11" ry="11" style="stroke:#181818;stroke-width:1.0;"/><path d="M1922.5,274.5 Q1922.7031,274 1922.9375,273.75 Q1923.1719,273.5 1923.4375,273.5 Q1923.9063,273.5 1924.2031,273.7813 Q1924.5,274.0625 1924.5,274.7188 L1924.5,276.2813 Q1924.5,276.9375 1924.2188,277.2188 Q1923.9375,277.5 1923.5,277.5 Q1923.1094,277.5 1922.8594,277.3281 Q1922.6094,277.1563 1922.5,276.7031 Q1922.4531,276.3906 1922.2813,276.2188 Q1921.9688,275.8906 1921.4063,275.7031 Q1920.8438,275.5 1920.2813,275.5 Q1919.5781,275.5 1918.9844,275.7813 Q1918.4063,276.0625 1917.9531,276.6875 Q1917.5,277.3125 1917.5,278.1719 L1917.5,279.0938 Q1917.5,280.125 1918.3438,280.8125 Q1919.1875,281.5 1920.6875,281.5 Q1921.5781,281.5 1922.2031,281.2969 Q1922.5625,281.1875 1922.9688,280.8281 Q1923.2344,280.625 1923.375,280.5625 Q1923.5156,280.5 1923.6875,280.5 Q1924.0156,280.5 1924.25,280.7656 Q1924.5,281.0156 1924.5,281.375 Q1924.5,281.7188 1924.1563,282.125 Q1923.6563,282.7188 1922.8594,283.0469 Q1921.8125,283.5 1920.5313,283.5 Q1919.0313,283.5 1917.8281,282.9063 Q1916.8594,282.4375 1916.1719,281.4219 Q1915.5,280.4063 1915.5,279.2031 L1915.5,278.1094 Q1915.5,276.8594 1916.0938,275.7656 Q1916.7031,274.6719 1917.75,274.0938 Q1918.8125,273.5 1920,273.5 Q1920.7188,273.5 1921.3438,273.75 Q1921.9688,274 1922.5,274.5 Z " fill="#000000"/><text fill="#000000" font-family="sans-serif" font-size="14" lengthAdjust="spacing" textLength="141" x="1934.5" y="283.7285">OncePerRequestFilter</text><line style="stroke:#181818;stroke-width:0.5;" x1="1906.5" x2="2077.5" y1="294" y2="294"/><line style="stroke:#181818;stroke-width:0.5;" x1="1906.5" x2="2077.5" y1="302" y2="302"/></g><!--reverse link UserDetailsService to CustomUserDetailsService--><g id="link_UserDetailsService_CustomUserDetailsService"><path codeLine="87" d="M3835.78,330.08 C3874.43,429.28 3969.29,672.74 4007.08,769.75 " fill="none" id="UserDetailsService-backto-CustomUserDetailsService" style="stroke:#181818;stroke-width:1.0;stroke-dasharray:7.0,7.0;"/><polygon fill="none" points="3829.32,332.76,3828.58,311.59,3842.36,327.68,3829.32,332.76" style="stroke:#181818;stroke-width:1.0;"/></g><!--reverse link AuthenticationProvider to CustomAuthenticationProvider--><g id="link_AuthenticationProvider_CustomAuthenticationProvider"><path codeLine="88" d="M4092.29,327.33 C4117.84,362.13 4154.66,414.2 4183,462 C4241.53,560.74 4299.27,681.56 4331.61,751.93 " fill="none" id="AuthenticationProvider-backto-CustomAuthenticationProvider" style="stroke:#181818;stroke-width:1.0;stroke-dasharray:7.0,7.0;"/><polygon fill="none" points="4086.9,331.82,4080.62,311.58,4098.15,323.49,4086.9,331.82" style="stroke:#181818;stroke-width:1.0;"/></g><!--reverse link UserDetails to CustomUserDetails--><g id="link_UserDetails_CustomUserDetails"><path codeLine="89" d="M3657,331.3 C3657,402.08 3657,543.99 3657,655.12 " fill="none" id="UserDetails-backto-CustomUserDetails" style="stroke:#181818;stroke-width:1.0;stroke-dasharray:7.0,7.0;"/><polygon fill="none" points="3650,331.69,3657,311.69,3664,331.69,3650,331.69" style="stroke:#181818;stroke-width:1.0;"/></g><!--reverse link OAuth2User to CustomUserDetails--><g id="link_OAuth2User_CustomUserDetails"><path codeLine="90" d="M3441.06,329.47 C3472.54,399.61 3536.9,543.02 3587.21,655.12 " fill="none" id="OAuth2User-backto-CustomUserDetails" style="stroke:#181818;stroke-width:1.0;stroke-dasharray:7.0,7.0;"/><polygon fill="none" points="3434.82,332.67,3433.02,311.56,3447.6,326.94,3434.82,332.67" style="stroke:#181818;stroke-width:1.0;"/></g><!--reverse link AuthenticationEntryPoint to JwtAuthenticationEntryPoint--><g id="link_AuthenticationEntryPoint_JwtAuthenticationEntryPoint"><path codeLine="91" d="M2246.87,327.62 C2214.91,368.35 2159.5,428.57 2095,454 C2060.35,467.67 788.26,447.38 754,462 C598.16,528.52 478.67,705.49 434.52,778.46 " fill="none" id="AuthenticationEntryPoint-backto-JwtAuthenticationEntryPoint" style="stroke:#181818;stroke-width:1.0;stroke-dasharray:7.0,7.0;"/><polygon fill="none" points="2241.29,323.4,2258.94,311.67,2252.45,331.85,2241.29,323.4" style="stroke:#181818;stroke-width:1.0;"/></g><!--reverse link UsernamePasswordAuthenticationFilter to JwtAuthenticationFilter--><g id="link_UsernamePasswordAuthenticationFilter_JwtAuthenticationFilter"><path codeLine="92" d="M2521.73,328.94 C2497.83,369.11 2455.79,427.43 2401,454 C2361.58,473.12 2244.85,446.15 2204,462 C2057.5,518.86 1925.71,650.22 1851.95,734.47 " fill="none" id="UsernamePasswordAuthenticationFilter-backto-JwtAuthenticationFilter" style="stroke:#181818;stroke-width:1.0;"/><polygon fill="none" points="2515.56,325.63,2531.52,311.69,2527.74,332.54,2515.56,325.63" style="stroke:#181818;stroke-width:1.0;"/></g><!--reverse link OncePerRequestFilter to JwtRequestFilter--><g id="link_OncePerRequestFilter_JwtRequestFilter"><path codeLine="93" d="M1884.34,301.72 C1767.52,321.94 1579.81,367.2 1446,462 C1332.95,542.1 1246.91,685.16 1206.83,760.71 " fill="none" id="OncePerRequestFilter-backto-JwtRequestFilter" style="stroke:#181818;stroke-width:1.0;"/><polygon fill="none" points="1882.92,294.86,1903.8,298.48,1885.22,308.67,1882.92,294.86" style="stroke:#181818;stroke-width:1.0;"/></g><!--reverse link OAuth2UserInfo to GoogleUserInfo--><g id="link_OAuth2UserInfo_GoogleUserInfo"><path codeLine="94" d="M2327,883.88 C2327,928.55 2327,985.41 2327,1027.42 " fill="none" id="OAuth2UserInfo-backto-GoogleUserInfo" style="stroke:#181818;stroke-width:1.0;stroke-dasharray:7.0,7.0;"/><polygon fill="none" points="2320,883.93,2327,863.93,2334,883.93,2320,883.93" style="stroke:#181818;stroke-width:1.0;"/></g><!--reverse link DefaultOAuth2UserService to CustomOAuth2UserService--><g id="link_DefaultOAuth2UserService_CustomOAuth2UserService"><path codeLine="95" d="M3127.23,325.83 C3088.34,366.22 3021.25,427.21 2949,454 C2930.54,460.85 2788.26,450.91 2772,462 C2670.78,531.07 2634.91,682.37 2622.8,760.98 " fill="none" id="DefaultOAuth2UserService-backto-CustomOAuth2UserService" style="stroke:#181818;stroke-width:1.0;"/><polygon fill="none" points="3122.06,321.12,3140.84,311.31,3132.28,330.69,3122.06,321.12" style="stroke:#181818;stroke-width:1.0;"/></g><!--reverse link AuthenticationFailureHandler to CustomAuthenticationFailureHandler--><g id="link_AuthenticationFailureHandler_CustomAuthenticationFailureHandler"><path codeLine="96" d="M2849.32,328.82 C2905.9,430.27 3049.5,687.78 3100.06,778.44 " fill="none" id="AuthenticationFailureHandler-backto-CustomAuthenticationFailureHandler" style="stroke:#181818;stroke-width:1.0;stroke-dasharray:7.0,7.0;"/><polygon fill="none" points="2843.29,332.38,2839.66,311.5,2855.52,325.56,2843.29,332.38" style="stroke:#181818;stroke-width:1.0;"/></g><!--SRC=[hLPBJ-Cm4BxdLqJQIr6BfULSWQ2KnugNMEtUNMSQ38udQpkKQc5_-uwJz94qRTF29OfdnZFVl2qKjpOKcB3Ku3C8nxWQSsP1P4QwAHjarc7oou8v1yUbiZ_1l4e1uT_WCBo5P0Jc4LAqqg6P_luU9ZLIq0sNBeSAUUJFPrF_rJo1pazdf8uFWeyW24GhDAUPUmBjfE1Eedum-2eZC3cYjN2p5H99Fv2r2Pfeg0Lw3MdrJDYhfaA-E4AdoZiWwH6Y0gv3cwKf6cSx0-zF_-Hu5- -Mm-LTka4TXpAYlo9IkIi-SWlA33THPX0yqeM0bkAbUiMGcCyWJ_i5fNS_yf2EG-xeFCeSMF9eW4eHbVphduJmva17DhmqN3k8lF_eWH-7CRZPIOBj-5YKTeWpYtADF2-0vSX9Uoe4PjhTeHw-fT90j9P_W-9bXJsW6pufNDcrAeQQZnJKyTmLMDeawddY61anqnIbTkp7n5LhOUXv3vv76Uo6hoWZhoq1BQ1pvLpgIr21UuG_6LZNgv1iYjf2hwRnJK1Qb1a19CLWnfpAUZr6z1Lmv9bvTx1xh_381_rQZv5m_LjEKIb5_ZUHhwCQOvXGUHR1QXEhiLG4U3LE5pazh_8guvPh7XE7Dr59cZJD6ljv_alqIqjD6jEdeNMTWoIj0MYPZ8FWMv54cma1reupjPUUNk7mu8bBtQkFZz94fZzhP5Fbx9YkqinIdjgErkOCbJv6M6YyzdMikTeZVEsygJV19MAiOAa9ja_0nYRfhckIRdEJx1Bso26xmLZgCuocESJjS_-ZTIYA7RCO1hkkypPBSw5zlkyx2rgPuFqN_WM5DJDmnNMaygei9opgHhalQPi0JSniwgC-DfG3SlXbWLAW0URJ4nLjm1gwfF_Es1xlhCs6g_EHhNaOjJBTV7T_ltTsUBEfidpd5fVssHTRci28hLtdMqorVnXinr3BxUovD6k_natQVpyy_DGkReJbqPJNxka5yp3luNsiLgu6UxzVjYHYy-1lLsfAKdJoOfDqXvt3c6VAhOxEBUvl7hmxry76MRX7frSr_0S0]--></g></svg>