<?xml version="1.0" encoding="us-ascii" standalone="no"?><svg xmlns="http://www.w3.org/2000/svg" xmlns:xlink="http://www.w3.org/1999/xlink" contentStyleType="text/css" height="689px" preserveAspectRatio="none" style="width:884px;height:689px;background:#FFFFFF;" version="1.1" viewBox="0 0 884 689" width="884px" zoomAndPan="magnify"><defs/><g><!--cluster com--><g id="cluster_com"><path d="M8.5,6 L38.5,6 A3.75,3.75 0 0 1 41,8.5 L48,29.6094 L874.5,29.6094 A2.5,2.5 0 0 1 877,32.1094 L877,679.64 A2.5,2.5 0 0 1 874.5,682.14 L8.5,682.14 A2.5,2.5 0 0 1 6,679.64 L6,8.5 A2.5,2.5 0 0 1 8.5,6 " fill="none" style="stroke:#000000;stroke-width:1.5;"/><line style="stroke:#000000;stroke-width:1.5;" x1="6" x2="48" y1="29.6094" y2="29.6094"/><text fill="#000000" font-family="sans-serif" font-size="14" font-weight="bold" lengthAdjust="spacing" textLength="29" x="10" y="22.5332">com</text></g><!--cluster project--><g id="cluster_project"><path d="M32.5,50 L83.5,50 A3.75,3.75 0 0 1 86,52.5 L93,73.6094 L850.5,73.6094 A2.5,2.5 0 0 1 853,76.1094 L853,655.64 A2.5,2.5 0 0 1 850.5,658.14 L32.5,658.14 A2.5,2.5 0 0 1 30,655.64 L30,52.5 A2.5,2.5 0 0 1 32.5,50 " fill="none" style="stroke:#000000;stroke-width:1.5;"/><line style="stroke:#000000;stroke-width:1.5;" x1="30" x2="93" y1="73.6094" y2="73.6094"/><text fill="#000000" font-family="sans-serif" font-size="14" font-weight="bold" lengthAdjust="spacing" textLength="50" x="34" y="66.5332">project</text></g><!--cluster alfa--><g id="cluster_alfa"><path d="M56.5,94 L82.5,94 A3.75,3.75 0 0 1 85,96.5 L92,117.6094 L826.5,117.6094 A2.5,2.5 0 0 1 829,120.1094 L829,631.64 A2.5,2.5 0 0 1 826.5,634.14 L56.5,634.14 A2.5,2.5 0 0 1 54,631.64 L54,96.5 A2.5,2.5 0 0 1 56.5,94 " fill="none" style="stroke:#000000;stroke-width:1.5;"/><line style="stroke:#000000;stroke-width:1.5;" x1="54" x2="92" y1="117.6094" y2="117.6094"/><text fill="#000000" font-family="sans-serif" font-size="14" font-weight="bold" lengthAdjust="spacing" textLength="25" x="58" y="110.5332">alfa</text></g><!--cluster utils--><g id="cluster_utils"><path d="M80.5,138 L111.5,138 A3.75,3.75 0 0 1 114,140.5 L121,161.6094 L802.5,161.6094 A2.5,2.5 0 0 1 805,164.1094 L805,607.64 A2.5,2.5 0 0 1 802.5,610.14 L80.5,610.14 A2.5,2.5 0 0 1 78,607.64 L78,140.5 A2.5,2.5 0 0 1 80.5,138 " fill="none" style="stroke:#000000;stroke-width:1.5;"/><line style="stroke:#000000;stroke-width:1.5;" x1="78" x2="121" y1="161.6094" y2="161.6094"/><text fill="#000000" font-family="sans-serif" font-size="14" font-weight="bold" lengthAdjust="spacing" textLength="30" x="82" y="154.5332">utils</text></g><!--class RandomGenerator--><g id="elem_RandomGenerator"><rect codeLine="1" fill="#F1F1F1" height="206.4844" id="RandomGenerator" rx="2.5" ry="2.5" style="stroke:#181818;stroke-width:0.5;" width="201" x="94.5" y="174"/><ellipse cx="132.45" cy="190" fill="#ADD1B2" rx="11" ry="11" style="stroke:#181818;stroke-width:1.0;"/><path d="M134.45,186.5 Q134.6531,186 134.8875,185.75 Q135.1219,185.5 135.3875,185.5 Q135.8563,185.5 136.1531,185.7813 Q136.45,186.0625 136.45,186.7188 L136.45,188.2813 Q136.45,188.9375 136.1688,189.2188 Q135.8875,189.5 135.45,189.5 Q135.0594,189.5 134.8094,189.3281 Q134.5594,189.1563 134.45,188.7031 Q134.4031,188.3906 134.2313,188.2188 Q133.9188,187.8906 133.3563,187.7031 Q132.7938,187.5 132.2313,187.5 Q131.5281,187.5 130.9344,187.7813 Q130.3563,188.0625 129.9031,188.6875 Q129.45,189.3125 129.45,190.1719 L129.45,191.0938 Q129.45,192.125 130.2938,192.8125 Q131.1375,193.5 132.6375,193.5 Q133.5281,193.5 134.1531,193.2969 Q134.5125,193.1875 134.9188,192.8281 Q135.1844,192.625 135.325,192.5625 Q135.4656,192.5 135.6375,192.5 Q135.9656,192.5 136.2,192.7656 Q136.45,193.0156 136.45,193.375 Q136.45,193.7188 136.1063,194.125 Q135.6063,194.7188 134.8094,195.0469 Q133.7625,195.5 132.4813,195.5 Q130.9813,195.5 129.7781,194.9063 Q128.8094,194.4375 128.1219,193.4219 Q127.45,192.4063 127.45,191.2031 L127.45,190.1094 Q127.45,188.8594 128.0438,187.7656 Q128.6531,186.6719 129.7,186.0938 Q130.7625,185.5 131.95,185.5 Q132.6688,185.5 133.2938,185.75 Q133.9188,186 134.45,186.5 Z " fill="#000000"/><text fill="#000000" font-family="sans-serif" font-size="14" lengthAdjust="spacing" textLength="118" x="151.55" y="195.7285">RandomGenerator</text><line style="stroke:#181818;stroke-width:0.5;" x1="95.5" x2="294.5" y1="206" y2="206"/><rect fill="none" height="6" style="stroke:#C82930;stroke-width:1.0;" width="6" x="102.5" y="217.3047"/><text fill="#000000" font-family="sans-serif" font-size="14" lengthAdjust="spacing" text-decoration="underline" textLength="117" x="114.5" y="224.5332">Random RANDOM</text><rect fill="none" height="6" style="stroke:#C82930;stroke-width:1.0;" width="6" x="102.5" y="234.9141"/><text fill="#000000" font-family="sans-serif" font-size="14" lengthAdjust="spacing" text-decoration="underline" textLength="79" x="114.5" y="242.1426">String NUMS</text><rect fill="none" height="6" style="stroke:#C82930;stroke-width:1.0;" width="6" x="102.5" y="252.5234"/><text fill="#000000" font-family="sans-serif" font-size="14" lengthAdjust="spacing" text-decoration="underline" textLength="114" x="114.5" y="259.752">String UP_CHARS</text><rect fill="none" height="6" style="stroke:#C82930;stroke-width:1.0;" width="6" x="102.5" y="270.1328"/><text fill="#000000" font-family="sans-serif" font-size="14" lengthAdjust="spacing" text-decoration="underline" textLength="128" x="114.5" y="277.3613">String LOW_CHARS</text><rect fill="none" height="6" style="stroke:#C82930;stroke-width:1.0;" width="6" x="102.5" y="287.7422"/><text fill="#000000" font-family="sans-serif" font-size="14" lengthAdjust="spacing" text-decoration="underline" textLength="114" x="114.5" y="294.9707">String SP_CHARS</text><line style="stroke:#181818;stroke-width:0.5;" x1="95.5" x2="294.5" y1="302.0469" y2="302.0469"/><ellipse cx="105.5" cy="316.3516" fill="#84BE84" rx="3" ry="3" style="stroke:#038048;stroke-width:1.0;"/><text fill="#000000" font-family="sans-serif" font-size="14" lengthAdjust="spacing" text-decoration="underline" textLength="151" x="114.5" y="320.5801">String randomString(int)</text><ellipse cx="105.5" cy="333.9609" fill="#84BE84" rx="3" ry="3" style="stroke:#038048;stroke-width:1.0;"/><text fill="#000000" font-family="sans-serif" font-size="14" lengthAdjust="spacing" text-decoration="underline" textLength="175" x="114.5" y="338.1895">String randomPassword(int)</text><ellipse cx="105.5" cy="351.5703" fill="#84BE84" rx="3" ry="3" style="stroke:#038048;stroke-width:1.0;"/><text fill="#000000" font-family="sans-serif" font-size="14" lengthAdjust="spacing" text-decoration="underline" textLength="160" x="114.5" y="355.7988">int randomNumber(int,int)</text><ellipse cx="105.5" cy="369.1797" fill="#84BE84" rx="3" ry="3" style="stroke:#038048;stroke-width:1.0;"/><text fill="#000000" font-family="sans-serif" font-size="14" lengthAdjust="spacing" text-decoration="underline" textLength="158" x="114.5" y="373.4082">String randomHangul(int)</text></g><!--class FileUtil--><g id="elem_FileUtil"><rect codeLine="14" fill="#F1F1F1" height="206.4844" id="FileUtil" rx="2.5" ry="2.5" style="stroke:#181818;stroke-width:0.5;" width="458" x="331" y="174"/><ellipse cx="534.75" cy="190" fill="#ADD1B2" rx="11" ry="11" style="stroke:#181818;stroke-width:1.0;"/><path d="M536.75,186.5 Q536.9531,186 537.1875,185.75 Q537.4219,185.5 537.6875,185.5 Q538.1563,185.5 538.4531,185.7813 Q538.75,186.0625 538.75,186.7188 L538.75,188.2813 Q538.75,188.9375 538.4688,189.2188 Q538.1875,189.5 537.75,189.5 Q537.3594,189.5 537.1094,189.3281 Q536.8594,189.1563 536.75,188.7031 Q536.7031,188.3906 536.5313,188.2188 Q536.2188,187.8906 535.6563,187.7031 Q535.0938,187.5 534.5313,187.5 Q533.8281,187.5 533.2344,187.7813 Q532.6563,188.0625 532.2031,188.6875 Q531.75,189.3125 531.75,190.1719 L531.75,191.0938 Q531.75,192.125 532.5938,192.8125 Q533.4375,193.5 534.9375,193.5 Q535.8281,193.5 536.4531,193.2969 Q536.8125,193.1875 537.2188,192.8281 Q537.4844,192.625 537.625,192.5625 Q537.7656,192.5 537.9375,192.5 Q538.2656,192.5 538.5,192.7656 Q538.75,193.0156 538.75,193.375 Q538.75,193.7188 538.4063,194.125 Q537.9063,194.7188 537.1094,195.0469 Q536.0625,195.5 534.7813,195.5 Q533.2813,195.5 532.0781,194.9063 Q531.1094,194.4375 530.4219,193.4219 Q529.75,192.4063 529.75,191.2031 L529.75,190.1094 Q529.75,188.8594 530.3438,187.7656 Q530.9531,186.6719 532,186.0938 Q533.0625,185.5 534.25,185.5 Q534.9688,185.5 535.5938,185.75 Q536.2188,186 536.75,186.5 Z " fill="#000000"/><text fill="#000000" font-family="sans-serif" font-size="14" lengthAdjust="spacing" textLength="42" x="555.25" y="195.7285">FileUtil</text><line style="stroke:#181818;stroke-width:0.5;" x1="332" x2="788" y1="206" y2="206"/><rect fill="none" height="6" style="stroke:#C82930;stroke-width:1.0;" width="6" x="339" y="217.3047"/><text fill="#000000" font-family="sans-serif" font-size="14" lengthAdjust="spacing" textLength="83" x="351" y="224.5332">String bucket</text><rect fill="none" height="6" style="stroke:#C82930;stroke-width:1.0;" width="6" x="339" y="234.9141"/><text fill="#000000" font-family="sans-serif" font-size="14" lengthAdjust="spacing" textLength="102" x="351" y="242.1426">String uploadDir</text><rect fill="none" height="6" style="stroke:#C82930;stroke-width:1.0;" width="6" x="339" y="252.5234"/><text fill="#000000" font-family="sans-serif" font-size="14" lengthAdjust="spacing" textLength="137" x="351" y="259.752">AmazonS3 amazonS3</text><line style="stroke:#181818;stroke-width:0.5;" x1="332" x2="788" y1="266.8281" y2="266.8281"/><ellipse cx="342" cy="281.1328" fill="#84BE84" rx="3" ry="3" style="stroke:#038048;stroke-width:1.0;"/><text fill="#000000" font-family="sans-serif" font-size="14" lengthAdjust="spacing" textLength="296" x="351" y="285.3613">List&lt;UploadFile&gt; storeFiles(List&lt;MultipartFile&gt;)</text><ellipse cx="342" cy="298.7422" fill="#84BE84" rx="3" ry="3" style="stroke:#038048;stroke-width:1.0;"/><text fill="#000000" font-family="sans-serif" font-size="14" lengthAdjust="spacing" textLength="213" x="351" y="302.9707">UploadFile storeFile(MultipartFile)</text><ellipse cx="342" cy="316.3516" fill="#84BE84" rx="3" ry="3" style="stroke:#038048;stroke-width:1.0;"/><text fill="#000000" font-family="sans-serif" font-size="14" lengthAdjust="spacing" textLength="214" x="351" y="320.5801">void deleteFiles(List&lt;UploadFile&gt;)</text><ellipse cx="342" cy="333.9609" fill="#84BE84" rx="3" ry="3" style="stroke:#038048;stroke-width:1.0;"/><text fill="#000000" font-family="sans-serif" font-size="14" lengthAdjust="spacing" textLength="169" x="351" y="338.1895">void deleteFile(UploadFile)</text><ellipse cx="342" cy="351.5703" fill="#84BE84" rx="3" ry="3" style="stroke:#038048;stroke-width:1.0;"/><text fill="#000000" font-family="sans-serif" font-size="14" lengthAdjust="spacing" textLength="432" x="351" y="355.7988">Resource readAttachmentFileAsResource(AttachmentResponseDto)</text><rect fill="#F24D5C" height="6" style="stroke:#C82930;stroke-width:1.0;" width="6" x="339" y="366.1797"/><text fill="#000000" font-family="sans-serif" font-size="14" lengthAdjust="spacing" textLength="237" x="351" y="373.4082">String generateStoreFilename(String)</text></g><!--class EmailSender--><g id="elem_EmailSender"><rect codeLine="27" fill="#F1F1F1" height="153.6563" id="EmailSender" rx="2.5" ry="2.5" style="stroke:#181818;stroke-width:0.5;" width="378" x="94" y="440.48"/><ellipse cx="238.75" cy="456.48" fill="#ADD1B2" rx="11" ry="11" style="stroke:#181818;stroke-width:1.0;"/><path d="M240.75,452.98 Q240.9531,452.48 241.1875,452.23 Q241.4219,451.98 241.6875,451.98 Q242.1563,451.98 242.4531,452.2612 Q242.75,452.5425 242.75,453.1987 L242.75,454.7612 Q242.75,455.4175 242.4688,455.6987 Q242.1875,455.98 241.75,455.98 Q241.3594,455.98 241.1094,455.8081 Q240.8594,455.6362 240.75,455.1831 Q240.7031,454.8706 240.5313,454.6987 Q240.2188,454.3706 239.6563,454.1831 Q239.0938,453.98 238.5313,453.98 Q237.8281,453.98 237.2344,454.2612 Q236.6563,454.5425 236.2031,455.1675 Q235.75,455.7925 235.75,456.6519 L235.75,457.5737 Q235.75,458.605 236.5938,459.2925 Q237.4375,459.98 238.9375,459.98 Q239.8281,459.98 240.4531,459.7769 Q240.8125,459.6675 241.2188,459.3081 Q241.4844,459.105 241.625,459.0425 Q241.7656,458.98 241.9375,458.98 Q242.2656,458.98 242.5,459.2456 Q242.75,459.4956 242.75,459.855 Q242.75,460.1987 242.4063,460.605 Q241.9063,461.1987 241.1094,461.5269 Q240.0625,461.98 238.7813,461.98 Q237.2813,461.98 236.0781,461.3862 Q235.1094,460.9175 234.4219,459.9019 Q233.75,458.8862 233.75,457.6831 L233.75,456.5894 Q233.75,455.3394 234.3438,454.2456 Q234.9531,453.1519 236,452.5737 Q237.0625,451.98 238.25,451.98 Q238.9688,451.98 239.5938,452.23 Q240.2188,452.48 240.75,452.98 Z " fill="#000000"/><text fill="#000000" font-family="sans-serif" font-size="14" lengthAdjust="spacing" textLength="80" x="259.25" y="462.2085">EmailSender</text><line style="stroke:#181818;stroke-width:0.5;" x1="95" x2="471" y1="472.48" y2="472.48"/><rect fill="none" height="6" style="stroke:#C82930;stroke-width:1.0;" width="6" x="102" y="483.7847"/><text fill="#000000" font-family="sans-serif" font-size="14" lengthAdjust="spacing" textLength="121" x="114" y="491.0132">String fromAddress</text><rect fill="none" height="6" style="stroke:#C82930;stroke-width:1.0;" width="6" x="102" y="501.3941"/><text fill="#000000" font-family="sans-serif" font-size="14" lengthAdjust="spacing" textLength="57" x="114" y="508.6226">String url</text><rect fill="none" height="6" style="stroke:#C82930;stroke-width:1.0;" width="6" x="102" y="519.0034"/><text fill="#000000" font-family="sans-serif" font-size="14" lengthAdjust="spacing" textLength="175" x="114" y="526.232">JavaMailSender mailSender</text><line style="stroke:#181818;stroke-width:0.5;" x1="95" x2="471" y1="533.3081" y2="533.3081"/><ellipse cx="105" cy="547.6128" fill="#84BE84" rx="3" ry="3" style="stroke:#038048;stroke-width:1.0;"/><text fill="#000000" font-family="sans-serif" font-size="14" lengthAdjust="spacing" textLength="352" x="114" y="551.8413">void sendVerificationEmail(String,String,LocalDateTime)</text><ellipse cx="105" cy="565.2222" fill="#84BE84" rx="3" ry="3" style="stroke:#038048;stroke-width:1.0;"/><text fill="#000000" font-family="sans-serif" font-size="14" lengthAdjust="spacing" textLength="281" x="114" y="569.4507">void sendPasswordResetEmail(String,String)</text><rect fill="#F24D5C" height="6" style="stroke:#C82930;stroke-width:1.0;" width="6" x="102" y="579.8316"/><text fill="#000000" font-family="sans-serif" font-size="14" lengthAdjust="spacing" textLength="297" x="114" y="587.0601">SimpleMailMessage createMailMessage(String)</text></g><!--SRC=[ZL9DJyCm3BtlL-HO1FJ25I5LZ0-XTKCjWoFo4gy4yb4bBaYW_NVIBwLe0t6gxVTiFx-6A_2USQlJsjbNv9I2saBQa5G-BS08gs_Ge0EoZdtDJjcN9o39Twm7MP4jvwjy2fJafAdOSfsN1yhh- -VBswmu12rMJxzYvTXsl0UvJaYV9DBGqQ-S-t3hXtLYZnNoWR9iz0PTIpZvSzGjcAfH_Q3TR3RZV_buBHMkGzGPE8pPDFmDAUPDhIo8kNIXb6dujAOyOp04GSP2UZfVTwHst0NpuOzW6_gam_96aQp1KGUtoYCxafCVj9RrRgLW0XNITDfaqm5I4k4MBT3Rnd5a3a5aHC1VD9fkG-P7C8b0ADNMU9oJFOeELFqxmtBKQa1ZqeF_CFbAWrGb6e5kwlFMMPq9uT3xYTbEXUGEtY6FJR5_FDY7x16Tt4eUde0rtOf1qSdmMLWEQXvaFqWT_MmxnzSMhaKwqDgTBdMji1MH1u5G8UF1GvfMfWvy0m00]--></g></svg>