<?xml version="1.0" encoding="us-ascii" standalone="no"?><svg xmlns="http://www.w3.org/2000/svg" xmlns:xlink="http://www.w3.org/1999/xlink" contentStyleType="text/css" height="842px" preserveAspectRatio="none" style="width:1477px;height:842px;background:#FFFFFF;" version="1.1" viewBox="0 0 1477 842" width="1477px" zoomAndPan="magnify"><defs/><g><!--cluster com--><g id="cluster_com"><path d="M8.5,6 L38.5,6 A3.75,3.75 0 0 1 41,8.5 L48,29.6094 L1467.5,29.6094 A2.5,2.5 0 0 1 1470,32.1094 L1470,833.25 A2.5,2.5 0 0 1 1467.5,835.75 L8.5,835.75 A2.5,2.5 0 0 1 6,833.25 L6,8.5 A2.5,2.5 0 0 1 8.5,6 " fill="none" style="stroke:#000000;stroke-width:1.5;"/><line style="stroke:#000000;stroke-width:1.5;" x1="6" x2="48" y1="29.6094" y2="29.6094"/><text fill="#000000" font-family="sans-serif" font-size="14" font-weight="bold" lengthAdjust="spacing" textLength="29" x="10" y="22.5332">com</text></g><!--cluster project--><g id="cluster_project"><path d="M32.5,50 L83.5,50 A3.75,3.75 0 0 1 86,52.5 L93,73.6094 L1443.5,73.6094 A2.5,2.5 0 0 1 1446,76.1094 L1446,809.25 A2.5,2.5 0 0 1 1443.5,811.75 L32.5,811.75 A2.5,2.5 0 0 1 30,809.25 L30,52.5 A2.5,2.5 0 0 1 32.5,50 " fill="none" style="stroke:#000000;stroke-width:1.5;"/><line style="stroke:#000000;stroke-width:1.5;" x1="30" x2="93" y1="73.6094" y2="73.6094"/><text fill="#000000" font-family="sans-serif" font-size="14" font-weight="bold" lengthAdjust="spacing" textLength="50" x="34" y="66.5332">project</text></g><!--cluster alfa--><g id="cluster_alfa"><path d="M56.5,94 L82.5,94 A3.75,3.75 0 0 1 85,96.5 L92,117.6094 L1419.5,117.6094 A2.5,2.5 0 0 1 1422,120.1094 L1422,785.25 A2.5,2.5 0 0 1 1419.5,787.75 L56.5,787.75 A2.5,2.5 0 0 1 54,785.25 L54,96.5 A2.5,2.5 0 0 1 56.5,94 " fill="none" style="stroke:#000000;stroke-width:1.5;"/><line style="stroke:#000000;stroke-width:1.5;" x1="54" x2="92" y1="117.6094" y2="117.6094"/><text fill="#000000" font-family="sans-serif" font-size="14" font-weight="bold" lengthAdjust="spacing" textLength="25" x="58" y="110.5332">alfa</text></g><!--cluster aop--><g id="cluster_aop"><path d="M80.5,138 L107.5,138 A3.75,3.75 0 0 1 110,140.5 L117,161.6094 L1395.5,161.6094 A2.5,2.5 0 0 1 1398,164.1094 L1398,761.25 A2.5,2.5 0 0 1 1395.5,763.75 L80.5,763.75 A2.5,2.5 0 0 1 78,761.25 L78,140.5 A2.5,2.5 0 0 1 80.5,138 " fill="none" style="stroke:#000000;stroke-width:1.5;"/><line style="stroke:#000000;stroke-width:1.5;" x1="78" x2="117" y1="161.6094" y2="161.6094"/><text fill="#000000" font-family="sans-serif" font-size="14" font-weight="bold" lengthAdjust="spacing" textLength="26" x="82" y="154.5332">aop</text></g><!--cluster trace--><g id="cluster_trace"><path d="M104.5,182 L141.5,182 A3.75,3.75 0 0 1 144,184.5 L151,205.6094 L811.5,205.6094 A2.5,2.5 0 0 1 814,208.1094 L814,737.25 A2.5,2.5 0 0 1 811.5,739.75 L104.5,739.75 A2.5,2.5 0 0 1 102,737.25 L102,184.5 A2.5,2.5 0 0 1 104.5,182 " fill="none" style="stroke:#000000;stroke-width:1.5;"/><line style="stroke:#000000;stroke-width:1.5;" x1="102" x2="151" y1="205.6094" y2="205.6094"/><text fill="#000000" font-family="sans-serif" font-size="14" font-weight="bold" lengthAdjust="spacing" textLength="36" x="106" y="198.5332">trace</text></g><!--cluster logtrace--><g id="cluster_logtrace"><path d="M128.5,226 L187.5,226 A3.75,3.75 0 0 1 190,228.5 L197,249.6094 L423.5,249.6094 A2.5,2.5 0 0 1 426,252.1094 L426,713.25 A2.5,2.5 0 0 1 423.5,715.75 L128.5,715.75 A2.5,2.5 0 0 1 126,713.25 L126,228.5 A2.5,2.5 0 0 1 128.5,226 " fill="none" style="stroke:#000000;stroke-width:1.5;"/><line style="stroke:#000000;stroke-width:1.5;" x1="126" x2="197" y1="249.6094" y2="249.6094"/><text fill="#000000" font-family="sans-serif" font-size="14" font-weight="bold" lengthAdjust="spacing" textLength="58" x="130" y="242.5332">logtrace</text></g><!--class Pointcuts--><g id="elem_Pointcuts"><rect codeLine="1" fill="#F1F1F1" height="171.2656" id="Pointcuts" rx="2.5" ry="2.5" style="stroke:#181818;stroke-width:0.5;" width="159" x="910.5" y="226.78"/><ellipse cx="956.75" cy="242.78" fill="#ADD1B2" rx="11" ry="11" style="stroke:#181818;stroke-width:1.0;"/><path d="M958.75,239.28 Q958.9531,238.78 959.1875,238.53 Q959.4219,238.28 959.6875,238.28 Q960.1563,238.28 960.4531,238.5612 Q960.75,238.8425 960.75,239.4987 L960.75,241.0612 Q960.75,241.7175 960.4688,241.9987 Q960.1875,242.28 959.75,242.28 Q959.3594,242.28 959.1094,242.1081 Q958.8594,241.9362 958.75,241.4831 Q958.7031,241.1706 958.5313,240.9987 Q958.2188,240.6706 957.6563,240.4831 Q957.0938,240.28 956.5313,240.28 Q955.8281,240.28 955.2344,240.5612 Q954.6563,240.8425 954.2031,241.4675 Q953.75,242.0925 953.75,242.9519 L953.75,243.8737 Q953.75,244.905 954.5938,245.5925 Q955.4375,246.28 956.9375,246.28 Q957.8281,246.28 958.4531,246.0769 Q958.8125,245.9675 959.2188,245.6081 Q959.4844,245.405 959.625,245.3425 Q959.7656,245.28 959.9375,245.28 Q960.2656,245.28 960.5,245.5456 Q960.75,245.7956 960.75,246.155 Q960.75,246.4987 960.4063,246.905 Q959.9063,247.4987 959.1094,247.8269 Q958.0625,248.28 956.7813,248.28 Q955.2813,248.28 954.0781,247.6862 Q953.1094,247.2175 952.4219,246.2019 Q951.75,245.1862 951.75,243.9831 L951.75,242.8894 Q951.75,241.6394 952.3438,240.5456 Q952.9531,239.4519 954,238.8737 Q955.0625,238.28 956.25,238.28 Q956.9688,238.28 957.5938,238.53 Q958.2188,238.78 958.75,239.28 Z " fill="#000000"/><text fill="#000000" font-family="sans-serif" font-size="14" lengthAdjust="spacing" textLength="58" x="977.25" y="248.5085">Pointcuts</text><line style="stroke:#181818;stroke-width:0.5;" x1="911.5" x2="1068.5" y1="258.78" y2="258.78"/><line style="stroke:#181818;stroke-width:0.5;" x1="911.5" x2="1068.5" y1="266.78" y2="266.78"/><ellipse cx="921.5" cy="281.0847" fill="#84BE84" rx="3" ry="3" style="stroke:#038048;stroke-width:1.0;"/><text fill="#000000" font-family="sans-serif" font-size="14" lengthAdjust="spacing" textLength="92" x="930.5" y="285.3132">void allMatch()</text><ellipse cx="921.5" cy="298.6941" fill="#84BE84" rx="3" ry="3" style="stroke:#038048;stroke-width:1.0;"/><text fill="#000000" font-family="sans-serif" font-size="14" lengthAdjust="spacing" textLength="133" x="930.5" y="302.9226">void allRepositories()</text><ellipse cx="921.5" cy="316.3034" fill="#84BE84" rx="3" ry="3" style="stroke:#038048;stroke-width:1.0;"/><text fill="#000000" font-family="sans-serif" font-size="14" lengthAdjust="spacing" textLength="108" x="930.5" y="320.532">void allServices()</text><ellipse cx="921.5" cy="333.9128" fill="#84BE84" rx="3" ry="3" style="stroke:#038048;stroke-width:1.0;"/><text fill="#000000" font-family="sans-serif" font-size="14" lengthAdjust="spacing" textLength="123" x="930.5" y="338.1413">void allControllers()</text><ellipse cx="921.5" cy="351.5222" fill="#84BE84" rx="3" ry="3" style="stroke:#038048;stroke-width:1.0;"/><text fill="#000000" font-family="sans-serif" font-size="14" lengthAdjust="spacing" textLength="79" x="930.5" y="355.7507">void allMvc()</text><ellipse cx="921.5" cy="369.1316" fill="#84BE84" rx="3" ry="3" style="stroke:#038048;stroke-width:1.0;"/><text fill="#000000" font-family="sans-serif" font-size="14" lengthAdjust="spacing" textLength="80" x="930.5" y="373.3601">void allUtils()</text><ellipse cx="921.5" cy="386.7409" fill="#84BE84" rx="3" ry="3" style="stroke:#038048;stroke-width:1.0;"/><text fill="#000000" font-family="sans-serif" font-size="14" lengthAdjust="spacing" textLength="129" x="930.5" y="390.9695">void authentication()</text></g><!--class ProjectAspects--><g id="elem_ProjectAspects"><rect codeLine="48" fill="#F1F1F1" height="65.6094" id="ProjectAspects" rx="2.5" ry="2.5" style="stroke:#181818;stroke-width:0.5;" width="140" x="1143" y="279.61"/><ellipse cx="1164.3" cy="295.61" fill="#ADD1B2" rx="11" ry="11" style="stroke:#181818;stroke-width:1.0;"/><path d="M1166.3,292.11 Q1166.5031,291.61 1166.7375,291.36 Q1166.9719,291.11 1167.2375,291.11 Q1167.7063,291.11 1168.0031,291.3913 Q1168.3,291.6725 1168.3,292.3288 L1168.3,293.8913 Q1168.3,294.5475 1168.0188,294.8288 Q1167.7375,295.11 1167.3,295.11 Q1166.9094,295.11 1166.6594,294.9381 Q1166.4094,294.7663 1166.3,294.3131 Q1166.2531,294.0006 1166.0813,293.8288 Q1165.7688,293.5006 1165.2063,293.3131 Q1164.6438,293.11 1164.0813,293.11 Q1163.3781,293.11 1162.7844,293.3913 Q1162.2063,293.6725 1161.7531,294.2975 Q1161.3,294.9225 1161.3,295.7819 L1161.3,296.7038 Q1161.3,297.735 1162.1438,298.4225 Q1162.9875,299.11 1164.4875,299.11 Q1165.3781,299.11 1166.0031,298.9069 Q1166.3625,298.7975 1166.7688,298.4381 Q1167.0344,298.235 1167.175,298.1725 Q1167.3156,298.11 1167.4875,298.11 Q1167.8156,298.11 1168.05,298.3756 Q1168.3,298.6256 1168.3,298.985 Q1168.3,299.3288 1167.9563,299.735 Q1167.4563,300.3288 1166.6594,300.6569 Q1165.6125,301.11 1164.3313,301.11 Q1162.8313,301.11 1161.6281,300.5163 Q1160.6594,300.0475 1159.9719,299.0319 Q1159.3,298.0163 1159.3,296.8131 L1159.3,295.7194 Q1159.3,294.4694 1159.8938,293.3756 Q1160.5031,292.2819 1161.55,291.7038 Q1162.6125,291.11 1163.8,291.11 Q1164.5188,291.11 1165.1438,291.36 Q1165.7688,291.61 1166.3,292.11 Z " fill="#000000"/><text fill="#000000" font-family="sans-serif" font-size="14" lengthAdjust="spacing" textLength="94" x="1179.7" y="301.3385">ProjectAspects</text><line style="stroke:#181818;stroke-width:0.5;" x1="1144" x2="1282" y1="311.61" y2="311.61"/><rect fill="none" height="6" style="stroke:#C82930;stroke-width:1.0;" width="6" x="1151" y="322.9147"/><text fill="#000000" font-family="sans-serif" font-size="14" lengthAdjust="spacing" text-decoration="underline" textLength="114" x="1163" y="330.1432">int MAX_RETRIES</text><line style="stroke:#181818;stroke-width:0.5;" x1="1144" x2="1282" y1="337.2194" y2="337.2194"/></g><!--class ProjectAspects$LogTraceAspect--><g id="elem_ProjectAspects$LogTraceAspect"><rect codeLine="52" fill="#F1F1F1" height="83.2188" id="ProjectAspects$LogTraceAspect" rx="2.5" ry="2.5" style="stroke:#181818;stroke-width:0.5;" width="259" x="829.5" y="537.29"/><ellipse cx="853.95" cy="553.29" fill="#ADD1B2" rx="11" ry="11" style="stroke:#181818;stroke-width:1.0;"/><path d="M855.95,549.79 Q856.1531,549.29 856.3875,549.04 Q856.6219,548.79 856.8875,548.79 Q857.3563,548.79 857.6531,549.0713 Q857.95,549.3525 857.95,550.0088 L857.95,551.5713 Q857.95,552.2275 857.6688,552.5088 Q857.3875,552.79 856.95,552.79 Q856.5594,552.79 856.3094,552.6181 Q856.0594,552.4463 855.95,551.9931 Q855.9031,551.6806 855.7313,551.5088 Q855.4188,551.1806 854.8563,550.9931 Q854.2938,550.79 853.7313,550.79 Q853.0281,550.79 852.4344,551.0713 Q851.8563,551.3525 851.4031,551.9775 Q850.95,552.6025 850.95,553.4619 L850.95,554.3838 Q850.95,555.415 851.7938,556.1025 Q852.6375,556.79 854.1375,556.79 Q855.0281,556.79 855.6531,556.5869 Q856.0125,556.4775 856.4188,556.1181 Q856.6844,555.915 856.825,555.8525 Q856.9656,555.79 857.1375,555.79 Q857.4656,555.79 857.7,556.0556 Q857.95,556.3056 857.95,556.665 Q857.95,557.0088 857.6063,557.415 Q857.1063,558.0088 856.3094,558.3369 Q855.2625,558.79 853.9813,558.79 Q852.4813,558.79 851.2781,558.1963 Q850.3094,557.7275 849.6219,556.7119 Q848.95,555.6963 848.95,554.4931 L848.95,553.3994 Q848.95,552.1494 849.5438,551.0556 Q850.1531,549.9619 851.2,549.3838 Q852.2625,548.79 853.45,548.79 Q854.1688,548.79 854.7938,549.04 Q855.4188,549.29 855.95,549.79 Z " fill="#000000"/><text fill="#000000" font-family="sans-serif" font-size="14" lengthAdjust="spacing" textLength="206" x="870.05" y="559.0185">ProjectAspects$LogTraceAspect</text><line style="stroke:#181818;stroke-width:0.5;" x1="830.5" x2="1087.5" y1="569.29" y2="569.29"/><rect fill="none" height="6" style="stroke:#C82930;stroke-width:1.0;" width="6" x="837.5" y="580.5947"/><text fill="#000000" font-family="sans-serif" font-size="14" lengthAdjust="spacing" textLength="121" x="849.5" y="587.8232">LogTrace logTrace</text><line style="stroke:#181818;stroke-width:0.5;" x1="830.5" x2="1087.5" y1="594.8994" y2="594.8994"/><ellipse cx="840.5" cy="609.2041" fill="#84BE84" rx="3" ry="3" style="stroke:#038048;stroke-width:1.0;"/><text fill="#000000" font-family="sans-serif" font-size="14" lengthAdjust="spacing" textLength="233" x="849.5" y="613.4326">Object execute(ProceedingJoinPoint)</text></g><!--class ProjectAspects$LockAspect--><g id="elem_ProjectAspects$LockAspect"><rect codeLine="58" fill="#F1F1F1" height="83.2188" id="ProjectAspects$LockAspect" rx="2.5" ry="2.5" style="stroke:#181818;stroke-width:0.5;" width="259" x="1123.5" y="537.29"/><ellipse cx="1161.9" cy="553.29" fill="#ADD1B2" rx="11" ry="11" style="stroke:#181818;stroke-width:1.0;"/><path d="M1163.9,549.79 Q1164.1031,549.29 1164.3375,549.04 Q1164.5719,548.79 1164.8375,548.79 Q1165.3063,548.79 1165.6031,549.0713 Q1165.9,549.3525 1165.9,550.0088 L1165.9,551.5713 Q1165.9,552.2275 1165.6188,552.5088 Q1165.3375,552.79 1164.9,552.79 Q1164.5094,552.79 1164.2594,552.6181 Q1164.0094,552.4463 1163.9,551.9931 Q1163.8531,551.6806 1163.6813,551.5088 Q1163.3688,551.1806 1162.8063,550.9931 Q1162.2438,550.79 1161.6813,550.79 Q1160.9781,550.79 1160.3844,551.0713 Q1159.8063,551.3525 1159.3531,551.9775 Q1158.9,552.6025 1158.9,553.4619 L1158.9,554.3838 Q1158.9,555.415 1159.7438,556.1025 Q1160.5875,556.79 1162.0875,556.79 Q1162.9781,556.79 1163.6031,556.5869 Q1163.9625,556.4775 1164.3688,556.1181 Q1164.6344,555.915 1164.775,555.8525 Q1164.9156,555.79 1165.0875,555.79 Q1165.4156,555.79 1165.65,556.0556 Q1165.9,556.3056 1165.9,556.665 Q1165.9,557.0088 1165.5563,557.415 Q1165.0563,558.0088 1164.2594,558.3369 Q1163.2125,558.79 1161.9313,558.79 Q1160.4313,558.79 1159.2281,558.1963 Q1158.2594,557.7275 1157.5719,556.7119 Q1156.9,555.6963 1156.9,554.4931 L1156.9,553.3994 Q1156.9,552.1494 1157.4938,551.0556 Q1158.1031,549.9619 1159.15,549.3838 Q1160.2125,548.79 1161.4,548.79 Q1162.1188,548.79 1162.7438,549.04 Q1163.3688,549.29 1163.9,549.79 Z " fill="#000000"/><text fill="#000000" font-family="sans-serif" font-size="14" lengthAdjust="spacing" textLength="175" x="1181.1" y="559.0185">ProjectAspects$LockAspect</text><line style="stroke:#181818;stroke-width:0.5;" x1="1124.5" x2="1381.5" y1="569.29" y2="569.29"/><rect fill="none" height="6" style="stroke:#C82930;stroke-width:1.0;" width="6" x="1131.5" y="580.5947"/><text fill="#000000" font-family="sans-serif" font-size="14" lengthAdjust="spacing" textLength="122" x="1143.5" y="587.8232">ReentrantLock lock</text><line style="stroke:#181818;stroke-width:0.5;" x1="1124.5" x2="1381.5" y1="594.8994" y2="594.8994"/><ellipse cx="1134.5" cy="609.2041" fill="#84BE84" rx="3" ry="3" style="stroke:#038048;stroke-width:1.0;"/><text fill="#000000" font-family="sans-serif" font-size="14" lengthAdjust="spacing" textLength="233" x="1143.5" y="613.4326">Object execute(ProceedingJoinPoint)</text></g><!--class TraceStatus--><g id="elem_TraceStatus"><rect codeLine="11" fill="#F1F1F1" height="100.8281" id="TraceStatus" rx="2.5" ry="2.5" style="stroke:#181818;stroke-width:0.5;" width="124" x="445" y="262"/><ellipse cx="466.75" cy="278" fill="#ADD1B2" rx="11" ry="11" style="stroke:#181818;stroke-width:1.0;"/><path d="M468.75,274.5 Q468.9531,274 469.1875,273.75 Q469.4219,273.5 469.6875,273.5 Q470.1563,273.5 470.4531,273.7813 Q470.75,274.0625 470.75,274.7188 L470.75,276.2813 Q470.75,276.9375 470.4688,277.2188 Q470.1875,277.5 469.75,277.5 Q469.3594,277.5 469.1094,277.3281 Q468.8594,277.1563 468.75,276.7031 Q468.7031,276.3906 468.5313,276.2188 Q468.2188,275.8906 467.6563,275.7031 Q467.0938,275.5 466.5313,275.5 Q465.8281,275.5 465.2344,275.7813 Q464.6563,276.0625 464.2031,276.6875 Q463.75,277.3125 463.75,278.1719 L463.75,279.0938 Q463.75,280.125 464.5938,280.8125 Q465.4375,281.5 466.9375,281.5 Q467.8281,281.5 468.4531,281.2969 Q468.8125,281.1875 469.2188,280.8281 Q469.4844,280.625 469.625,280.5625 Q469.7656,280.5 469.9375,280.5 Q470.2656,280.5 470.5,280.7656 Q470.75,281.0156 470.75,281.375 Q470.75,281.7188 470.4063,282.125 Q469.9063,282.7188 469.1094,283.0469 Q468.0625,283.5 466.7813,283.5 Q465.2813,283.5 464.0781,282.9063 Q463.1094,282.4375 462.4219,281.4219 Q461.75,280.4063 461.75,279.2031 L461.75,278.1094 Q461.75,276.8594 462.3438,275.7656 Q462.9531,274.6719 464,274.0938 Q465.0625,273.5 466.25,273.5 Q466.9688,273.5 467.5938,273.75 Q468.2188,274 468.75,274.5 Z " fill="#000000"/><text fill="#000000" font-family="sans-serif" font-size="14" lengthAdjust="spacing" textLength="77" x="482.25" y="283.7285">TraceStatus</text><line style="stroke:#181818;stroke-width:0.5;" x1="446" x2="568" y1="294" y2="294"/><rect fill="none" height="6" style="stroke:#C82930;stroke-width:1.0;" width="6" x="453" y="305.3047"/><text fill="#000000" font-family="sans-serif" font-size="14" lengthAdjust="spacing" textLength="95" x="465" y="312.5332">TraceId traceId</text><rect fill="none" height="6" style="stroke:#C82930;stroke-width:1.0;" width="6" x="453" y="322.9141"/><text fill="#000000" font-family="sans-serif" font-size="14" lengthAdjust="spacing" textLength="95" x="465" y="330.1426">Long startTime</text><rect fill="none" height="6" style="stroke:#C82930;stroke-width:1.0;" width="6" x="453" y="340.5234"/><text fill="#000000" font-family="sans-serif" font-size="14" lengthAdjust="spacing" textLength="98" x="465" y="347.752">String message</text><line style="stroke:#181818;stroke-width:0.5;" x1="446" x2="568" y1="354.8281" y2="354.8281"/></g><!--class TraceId--><g id="elem_TraceId"><rect codeLine="23" fill="#F1F1F1" height="153.6563" id="TraceId" rx="2.5" ry="2.5" style="stroke:#181818;stroke-width:0.5;" width="194" x="604" y="235.59"/><ellipse cx="672.75" cy="251.59" fill="#ADD1B2" rx="11" ry="11" style="stroke:#181818;stroke-width:1.0;"/><path d="M674.75,248.09 Q674.9531,247.59 675.1875,247.34 Q675.4219,247.09 675.6875,247.09 Q676.1563,247.09 676.4531,247.3713 Q676.75,247.6525 676.75,248.3088 L676.75,249.8713 Q676.75,250.5275 676.4688,250.8088 Q676.1875,251.09 675.75,251.09 Q675.3594,251.09 675.1094,250.9181 Q674.8594,250.7463 674.75,250.2931 Q674.7031,249.9806 674.5313,249.8088 Q674.2188,249.4806 673.6563,249.2931 Q673.0938,249.09 672.5313,249.09 Q671.8281,249.09 671.2344,249.3713 Q670.6563,249.6525 670.2031,250.2775 Q669.75,250.9025 669.75,251.7619 L669.75,252.6838 Q669.75,253.715 670.5938,254.4025 Q671.4375,255.09 672.9375,255.09 Q673.8281,255.09 674.4531,254.8869 Q674.8125,254.7775 675.2188,254.4181 Q675.4844,254.215 675.625,254.1525 Q675.7656,254.09 675.9375,254.09 Q676.2656,254.09 676.5,254.3556 Q676.75,254.6056 676.75,254.965 Q676.75,255.3088 676.4063,255.715 Q675.9063,256.3088 675.1094,256.6369 Q674.0625,257.09 672.7813,257.09 Q671.2813,257.09 670.0781,256.4963 Q669.1094,256.0275 668.4219,255.0119 Q667.75,253.9963 667.75,252.7931 L667.75,251.6994 Q667.75,250.4494 668.3438,249.3556 Q668.9531,248.2619 670,247.6838 Q671.0625,247.09 672.25,247.09 Q672.9688,247.09 673.5938,247.34 Q674.2188,247.59 674.75,248.09 Z " fill="#000000"/><text fill="#000000" font-family="sans-serif" font-size="14" lengthAdjust="spacing" textLength="48" x="693.25" y="257.3185">TraceId</text><line style="stroke:#181818;stroke-width:0.5;" x1="605" x2="797" y1="267.59" y2="267.59"/><rect fill="none" height="6" style="stroke:#C82930;stroke-width:1.0;" width="6" x="612" y="278.8947"/><text fill="#000000" font-family="sans-serif" font-size="14" lengthAdjust="spacing" textLength="52" x="624" y="286.1232">String id</text><rect fill="none" height="6" style="stroke:#C82930;stroke-width:1.0;" width="6" x="612" y="296.5041"/><text fill="#000000" font-family="sans-serif" font-size="14" lengthAdjust="spacing" textLength="48" x="624" y="303.7326">int level</text><line style="stroke:#181818;stroke-width:0.5;" x1="605" x2="797" y1="310.8088" y2="310.8088"/><rect fill="#F24D5C" height="6" style="stroke:#C82930;stroke-width:1.0;" width="6" x="612" y="322.1134"/><text fill="#000000" font-family="sans-serif" font-size="14" lengthAdjust="spacing" textLength="102" x="624" y="329.342">String createId()</text><ellipse cx="615" cy="342.7228" fill="#84BE84" rx="3" ry="3" style="stroke:#038048;stroke-width:1.0;"/><text fill="#000000" font-family="sans-serif" font-size="14" lengthAdjust="spacing" textLength="140" x="624" y="346.9513">TraceId createNextId()</text><ellipse cx="615" cy="360.3322" fill="#84BE84" rx="3" ry="3" style="stroke:#038048;stroke-width:1.0;"/><text fill="#000000" font-family="sans-serif" font-size="14" lengthAdjust="spacing" textLength="168" x="624" y="364.5607">TraceId createPreviousId()</text><ellipse cx="615" cy="377.9416" fill="#84BE84" rx="3" ry="3" style="stroke:#038048;stroke-width:1.0;"/><text fill="#000000" font-family="sans-serif" font-size="14" lengthAdjust="spacing" textLength="137" x="624" y="382.1701">boolean isFirstLevel()</text></g><!--class LogTrace--><g id="elem_LogTrace"><rect codeLine="17" fill="#F1F1F1" height="100.8281" id="LogTrace" rx="2.5" ry="2.5" style="stroke:#181818;stroke-width:0.5;" width="268" x="142" y="262"/><ellipse cx="241.25" cy="278" fill="#B4A7E5" rx="11" ry="11" style="stroke:#181818;stroke-width:1.0;"/><path d="M242.25,275 L242.25,281 L244.25,281 L244.7344,281 L245.25,281.625 L245.25,282 L245.25,282.375 L244.7344,283 L244.25,283 L238.25,283 L237.7656,283 L237.25,282.375 L237.25,282 L237.25,281.625 L237.7656,281 L238.25,281 L240.25,281 L240.25,275 L238.25,275 L237.7656,275 L237.25,274.375 L237.25,274 L237.25,273.625 L237.7656,273 L238.25,273 L244.25,273 L244.7344,273 L245.25,273.625 L245.25,274 L245.25,274.375 L244.7344,275 L244.25,275 L242.25,275 Z " fill="#000000"/><text fill="#000000" font-family="sans-serif" font-size="14" font-style="italic" lengthAdjust="spacing" textLength="61" x="261.75" y="283.7285">LogTrace</text><line style="stroke:#181818;stroke-width:0.5;" x1="143" x2="409" y1="294" y2="294"/><line style="stroke:#181818;stroke-width:0.5;" x1="143" x2="409" y1="302" y2="302"/><polygon fill="#4177AF" points="153,312.3047,149,318.3047,157,318.3047" style="stroke:#1963A0;stroke-width:1.0;"/><text fill="#000000" font-family="sans-serif" font-size="14" lengthAdjust="spacing" textLength="163" x="162" y="320.5332">TraceStatus begin(String)</text><polygon fill="#4177AF" points="153,329.9141,149,335.9141,157,335.9141" style="stroke:#1963A0;stroke-width:1.0;"/><text fill="#000000" font-family="sans-serif" font-size="14" lengthAdjust="spacing" textLength="141" x="162" y="338.1426">void end(TraceStatus)</text><polygon fill="#4177AF" points="153,347.5234,149,353.5234,157,353.5234" style="stroke:#1963A0;stroke-width:1.0;"/><text fill="#000000" font-family="sans-serif" font-size="14" lengthAdjust="spacing" textLength="242" x="162" y="355.752">void exception(TraceStatus,Exception)</text></g><!--class ThreadLocalLogTrace--><g id="elem_ThreadLocalLogTrace"><rect codeLine="33" fill="#F1F1F1" height="241.7031" id="ThreadLocalLogTrace" rx="2.5" ry="2.5" style="stroke:#181818;stroke-width:0.5;" width="268" x="142" y="458.05"/><ellipse cx="201.25" cy="474.05" fill="#ADD1B2" rx="11" ry="11" style="stroke:#181818;stroke-width:1.0;"/><path d="M203.25,470.55 Q203.4531,470.05 203.6875,469.8 Q203.9219,469.55 204.1875,469.55 Q204.6563,469.55 204.9531,469.8313 Q205.25,470.1125 205.25,470.7688 L205.25,472.3313 Q205.25,472.9875 204.9688,473.2688 Q204.6875,473.55 204.25,473.55 Q203.8594,473.55 203.6094,473.3781 Q203.3594,473.2063 203.25,472.7531 Q203.2031,472.4406 203.0313,472.2688 Q202.7188,471.9406 202.1563,471.7531 Q201.5938,471.55 201.0313,471.55 Q200.3281,471.55 199.7344,471.8313 Q199.1563,472.1125 198.7031,472.7375 Q198.25,473.3625 198.25,474.2219 L198.25,475.1438 Q198.25,476.175 199.0938,476.8625 Q199.9375,477.55 201.4375,477.55 Q202.3281,477.55 202.9531,477.3469 Q203.3125,477.2375 203.7188,476.8781 Q203.9844,476.675 204.125,476.6125 Q204.2656,476.55 204.4375,476.55 Q204.7656,476.55 205,476.8156 Q205.25,477.0656 205.25,477.425 Q205.25,477.7688 204.9063,478.175 Q204.4063,478.7688 203.6094,479.0969 Q202.5625,479.55 201.2813,479.55 Q199.7813,479.55 198.5781,478.9563 Q197.6094,478.4875 196.9219,477.4719 Q196.25,476.4563 196.25,475.2531 L196.25,474.1594 Q196.25,472.9094 196.8438,471.8156 Q197.4531,470.7219 198.5,470.1438 Q199.5625,469.55 200.75,469.55 Q201.4688,469.55 202.0938,469.8 Q202.7188,470.05 203.25,470.55 Z " fill="#000000"/><text fill="#000000" font-family="sans-serif" font-size="14" lengthAdjust="spacing" textLength="141" x="221.75" y="479.7785">ThreadLocalLogTrace</text><line style="stroke:#181818;stroke-width:0.5;" x1="143" x2="409" y1="490.05" y2="490.05"/><rect fill="none" height="6" style="stroke:#C82930;stroke-width:1.0;" width="6" x="150" y="501.3547"/><text fill="#000000" font-family="sans-serif" font-size="14" lengthAdjust="spacing" text-decoration="underline" textLength="143" x="162" y="508.5832">String START_PREFIX</text><rect fill="none" height="6" style="stroke:#C82930;stroke-width:1.0;" width="6" x="150" y="518.9641"/><text fill="#000000" font-family="sans-serif" font-size="14" lengthAdjust="spacing" text-decoration="underline" textLength="173" x="162" y="526.1926">String COMPLETE_PREFIX</text><rect fill="none" height="6" style="stroke:#C82930;stroke-width:1.0;" width="6" x="150" y="536.5734"/><text fill="#000000" font-family="sans-serif" font-size="14" lengthAdjust="spacing" text-decoration="underline" textLength="114" x="162" y="543.802">String EX_PREFIX</text><rect fill="none" height="6" style="stroke:#C82930;stroke-width:1.0;" width="6" x="150" y="554.1828"/><text fill="#000000" font-family="sans-serif" font-size="14" lengthAdjust="spacing" textLength="232" x="162" y="561.4113">ThreadLocal&lt;TraceId&gt; traceIdHolder</text><line style="stroke:#181818;stroke-width:0.5;" x1="143" x2="409" y1="568.4875" y2="568.4875"/><ellipse cx="153" cy="582.7922" fill="#84BE84" rx="3" ry="3" style="stroke:#038048;stroke-width:1.0;"/><text fill="#000000" font-family="sans-serif" font-size="14" lengthAdjust="spacing" textLength="163" x="162" y="587.0207">TraceStatus begin(String)</text><ellipse cx="153" cy="600.4016" fill="#84BE84" rx="3" ry="3" style="stroke:#038048;stroke-width:1.0;"/><text fill="#000000" font-family="sans-serif" font-size="14" lengthAdjust="spacing" textLength="141" x="162" y="604.6301">void end(TraceStatus)</text><ellipse cx="153" cy="618.0109" fill="#84BE84" rx="3" ry="3" style="stroke:#038048;stroke-width:1.0;"/><text fill="#000000" font-family="sans-serif" font-size="14" lengthAdjust="spacing" textLength="242" x="162" y="622.2395">void exception(TraceStatus,Exception)</text><rect fill="#F24D5C" height="6" style="stroke:#C82930;stroke-width:1.0;" width="6" x="150" y="632.6203"/><text fill="#000000" font-family="sans-serif" font-size="14" lengthAdjust="spacing" textLength="239" x="162" y="639.8488">void complete(TraceStatus,Exception)</text><rect fill="#F24D5C" height="6" style="stroke:#C82930;stroke-width:1.0;" width="6" x="150" y="650.2297"/><text fill="#000000" font-family="sans-serif" font-size="14" lengthAdjust="spacing" textLength="117" x="162" y="657.4582">void syncTraceId()</text><rect fill="#F24D5C" height="6" style="stroke:#C82930;stroke-width:1.0;" width="6" x="150" y="667.8391"/><text fill="#000000" font-family="sans-serif" font-size="14" lengthAdjust="spacing" textLength="135" x="162" y="675.0676">void releaseTraceId()</text><rect fill="#F24D5C" height="6" style="stroke:#C82930;stroke-width:1.0;" width="6" x="150" y="685.4484"/><text fill="#000000" font-family="sans-serif" font-size="14" lengthAdjust="spacing" text-decoration="underline" textLength="171" x="162" y="692.677">String addSpace(String,int)</text></g><!--reverse link LogTrace to ThreadLocalLogTrace--><g id="link_LogTrace_ThreadLocalLogTrace"><path codeLine="66" d="M276,384.59 C276,407.17 276,432.79 276,457.82 " fill="none" id="LogTrace-backto-ThreadLocalLogTrace" style="stroke:#181818;stroke-width:1.0;stroke-dasharray:7.0,7.0;"/><polygon fill="none" points="269,384.68,276,364.68,283,384.68,269,384.68" style="stroke:#181818;stroke-width:1.0;"/></g><!--reverse link ProjectAspects to ProjectAspects$LogTraceAspect--><g id="link_ProjectAspects_ProjectAspects$LogTraceAspect"><path codeLine="67" d="M1170.89,357.26 C1122.94,407.19 1045.21,488.13 998.41,536.86 " fill="none" id="ProjectAspects-backto-ProjectAspects$LogTraceAspect" style="stroke:#181818;stroke-width:1.0;stroke-dasharray:7.0,7.0;"/><ellipse cx="1175.5185" cy="352.4399" fill="#FFFFFF" rx="8" ry="8" style="stroke:#181818;stroke-width:1.0;"/><line style="stroke:#181818;stroke-width:1.0;" x1="1169.977" x2="1181.06" y1="358.2098" y2="346.67"/><line style="stroke:#181818;stroke-width:1.0;" x1="1169.7486" x2="1181.2884" y1="346.8984" y2="357.9814"/></g><!--reverse link ProjectAspects to ProjectAspects$LockAspect--><g id="link_ProjectAspects_ProjectAspects$LockAspect"><path codeLine="68" d="M1220.31,361.78 C1227.9,411.96 1239.64,489.58 1246.79,536.86 " fill="none" id="ProjectAspects-backto-ProjectAspects$LockAspect" style="stroke:#181818;stroke-width:1.0;stroke-dasharray:7.0,7.0;"/><ellipse cx="1219.2853" cy="354.9902" fill="#FFFFFF" rx="8" ry="8" style="stroke:#181818;stroke-width:1.0;"/><line style="stroke:#181818;stroke-width:1.0;" x1="1220.4806" x2="1218.09" y1="362.9004" y2="347.08"/><line style="stroke:#181818;stroke-width:1.0;" x1="1211.3751" x2="1227.1955" y1="356.1855" y2="353.7949"/></g><!--SRC=[hLHDJ-Cm4BttL_Z08QWqlm2jLA4WYj8bIh9IRyXrXjJWsf4zZLXrsT_EvAjDK4ifufB4RyRpvirpB1HtZWcpzWjhda6WpzKJzxaf_CX8ZMA3Zcr7OrOQcJ6kr9oZM7cNFII6mZY9nafmWq02jfJY0tXZD5gZ5DWXFY_5OFq7fUfdR7056gNWA8qc_6qq4iTxHyi5-6drJ93Zfj8mOVLwbZ5iteI4HkVC8RUOoZKGaA2L1At1EPv3nK930Fj46pvZKYPlFaAJrop4zv_r-PUGI-qrvIyfLgi2dNczf3t-Ag2eXVQYLq67dg6Ur6xticIbcGGn1IMeFIuiSAJSUjxTlWRy3QzuC11PAANPk3QuD4O1rqowMsaTXXL1OzFfJdVJIrTKEWkDuAeto0dRaaNa_LlNRv9Eu_GnYeFRsU90-EPX7eL16XpF21RxM8_qkfNugpiYTqPbO3lj1wqS7x5o_4Kh9qqUZQTGW70YpVtLectIsu4MQFGE-lX7mJpBaeB2RTjNT0XEcXCrmDGLz7H38wf3D9yk7kCWZMT1Sk903YjTTDuswxhmpcxLVj3y7fRL9feWq2q47XKH01brVqytKtqxdIc1YCLBZpG6kb8irrZXn2nUpc0btdFkW-j_ll_TVs3q5Nl6n-f_ElmVBjsDznq0]--></g></svg>