<?xml version="1.0" encoding="us-ascii" standalone="no"?><svg xmlns="http://www.w3.org/2000/svg" xmlns:xlink="http://www.w3.org/1999/xlink" contentStyleType="text/css" height="1205px" preserveAspectRatio="none" style="width:2106px;height:1205px;background:#FFFFFF;" version="1.1" viewBox="0 0 2106 1205" width="2106px" zoomAndPan="magnify"><defs/><g><!--cluster com--><g id="cluster_com"><path d="M8.5,470 L38.5,470 A3.75,3.75 0 0 1 41,472.5 L48,493.6094 L2096.5,493.6094 A2.5,2.5 0 0 1 2099,496.1094 L2099,1196.47 A2.5,2.5 0 0 1 2096.5,1198.97 L8.5,1198.97 A2.5,2.5 0 0 1 6,1196.47 L6,472.5 A2.5,2.5 0 0 1 8.5,470 " fill="none" style="stroke:#000000;stroke-width:1.5;"/><line style="stroke:#000000;stroke-width:1.5;" x1="6" x2="48" y1="493.6094" y2="493.6094"/><text fill="#000000" font-family="sans-serif" font-size="14" font-weight="bold" lengthAdjust="spacing" textLength="29" x="10" y="486.5332">com</text></g><!--cluster project--><g id="cluster_project"><path d="M32.5,514 L83.5,514 A3.75,3.75 0 0 1 86,516.5 L93,537.6094 L2072.5,537.6094 A2.5,2.5 0 0 1 2075,540.1094 L2075,1172.47 A2.5,2.5 0 0 1 2072.5,1174.97 L32.5,1174.97 A2.5,2.5 0 0 1 30,1172.47 L30,516.5 A2.5,2.5 0 0 1 32.5,514 " fill="none" style="stroke:#000000;stroke-width:1.5;"/><line style="stroke:#000000;stroke-width:1.5;" x1="30" x2="93" y1="537.6094" y2="537.6094"/><text fill="#000000" font-family="sans-serif" font-size="14" font-weight="bold" lengthAdjust="spacing" textLength="50" x="34" y="530.5332">project</text></g><!--cluster alfa--><g id="cluster_alfa"><path d="M56.5,558 L82.5,558 A3.75,3.75 0 0 1 85,560.5 L92,581.6094 L2048.5,581.6094 A2.5,2.5 0 0 1 2051,584.1094 L2051,1148.47 A2.5,2.5 0 0 1 2048.5,1150.97 L56.5,1150.97 A2.5,2.5 0 0 1 54,1148.47 L54,560.5 A2.5,2.5 0 0 1 56.5,558 " fill="none" style="stroke:#000000;stroke-width:1.5;"/><line style="stroke:#000000;stroke-width:1.5;" x1="54" x2="92" y1="581.6094" y2="581.6094"/><text fill="#000000" font-family="sans-serif" font-size="14" font-weight="bold" lengthAdjust="spacing" textLength="25" x="58" y="574.5332">alfa</text></g><!--cluster config--><g id="cluster_config"><path d="M80.5,602 L125.5,602 A3.75,3.75 0 0 1 128,604.5 L135,625.6094 L2024.5,625.6094 A2.5,2.5 0 0 1 2027,628.1094 L2027,1124.47 A2.5,2.5 0 0 1 2024.5,1126.97 L80.5,1126.97 A2.5,2.5 0 0 1 78,1124.47 L78,604.5 A2.5,2.5 0 0 1 80.5,602 " fill="none" style="stroke:#000000;stroke-width:1.5;"/><line style="stroke:#000000;stroke-width:1.5;" x1="78" x2="135" y1="625.6094" y2="625.6094"/><text fill="#000000" font-family="sans-serif" font-size="14" font-weight="bold" lengthAdjust="spacing" textLength="44" x="82" y="618.5332">config</text></g><!--cluster org--><g id="cluster_org"><path d="M1331.5,6 L1356.5,6 A3.75,3.75 0 0 1 1359,8.5 L1366,29.6094 L2058.5,29.6094 A2.5,2.5 0 0 1 2061,32.1094 L2061,443.5 A2.5,2.5 0 0 1 2058.5,446 L1331.5,446 A2.5,2.5 0 0 1 1329,443.5 L1329,8.5 A2.5,2.5 0 0 1 1331.5,6 " fill="none" style="stroke:#000000;stroke-width:1.5;"/><line style="stroke:#000000;stroke-width:1.5;" x1="1329" x2="1366" y1="29.6094" y2="29.6094"/><text fill="#000000" font-family="sans-serif" font-size="14" font-weight="bold" lengthAdjust="spacing" textLength="24" x="1333" y="22.5332">org</text></g><!--cluster springframework--><g id="cluster_springframework"><path d="M1355.5,50 L1475.5,50 A3.75,3.75 0 0 1 1478,52.5 L1485,73.6094 L2034.5,73.6094 A2.5,2.5 0 0 1 2037,76.1094 L2037,419.5 A2.5,2.5 0 0 1 2034.5,422 L1355.5,422 A2.5,2.5 0 0 1 1353,419.5 L1353,52.5 A2.5,2.5 0 0 1 1355.5,50 " fill="none" style="stroke:#000000;stroke-width:1.5;"/><line style="stroke:#000000;stroke-width:1.5;" x1="1353" x2="1485" y1="73.6094" y2="73.6094"/><text fill="#000000" font-family="sans-serif" font-size="14" font-weight="bold" lengthAdjust="spacing" textLength="119" x="1357" y="66.5332">springframework</text></g><!--cluster cache--><g id="cluster_cache"><path d="M1379.5,182 L1422.5,182 A3.75,3.75 0 0 1 1425,184.5 L1432,205.6094 L1656.5,205.6094 A2.5,2.5 0 0 1 1659,208.1094 L1659,347.5 A2.5,2.5 0 0 1 1656.5,350 L1379.5,350 A2.5,2.5 0 0 1 1377,347.5 L1377,184.5 A2.5,2.5 0 0 1 1379.5,182 " fill="none" style="stroke:#000000;stroke-width:1.5;"/><line style="stroke:#000000;stroke-width:1.5;" x1="1377" x2="1432" y1="205.6094" y2="205.6094"/><text fill="#000000" font-family="sans-serif" font-size="14" font-weight="bold" lengthAdjust="spacing" textLength="42" x="1381" y="198.5332">cache</text></g><!--cluster annotation--><g id="cluster_annotation"><path d="M1403.5,226 L1479.5,226 A3.75,3.75 0 0 1 1482,228.5 L1489,249.6094 L1632.5,249.6094 A2.5,2.5 0 0 1 1635,252.1094 L1635,323.5 A2.5,2.5 0 0 1 1632.5,326 L1403.5,326 A2.5,2.5 0 0 1 1401,323.5 L1401,228.5 A2.5,2.5 0 0 1 1403.5,226 " fill="none" style="stroke:#000000;stroke-width:1.5;"/><line style="stroke:#000000;stroke-width:1.5;" x1="1401" x2="1489" y1="249.6094" y2="249.6094"/><text fill="#000000" font-family="sans-serif" font-size="14" font-weight="bold" lengthAdjust="spacing" textLength="75" x="1405" y="242.5332">annotation</text></g><!--cluster web--><g id="cluster_web"><path d="M1685.5,94 L1715.5,94 A3.75,3.75 0 0 1 1718,96.5 L1725,117.6094 L2010.5,117.6094 A2.5,2.5 0 0 1 2013,120.1094 L2013,395.5 A2.5,2.5 0 0 1 2010.5,398 L1685.5,398 A2.5,2.5 0 0 1 1683,395.5 L1683,96.5 A2.5,2.5 0 0 1 1685.5,94 " fill="none" style="stroke:#000000;stroke-width:1.5;"/><line style="stroke:#000000;stroke-width:1.5;" x1="1683" x2="1725" y1="117.6094" y2="117.6094"/><text fill="#000000" font-family="sans-serif" font-size="14" font-weight="bold" lengthAdjust="spacing" textLength="29" x="1687" y="110.5332">web</text></g><!--cluster servlet--><g id="cluster_servlet"><path d="M1709.5,138 L1760.5,138 A3.75,3.75 0 0 1 1763,140.5 L1770,161.6094 L1986.5,161.6094 A2.5,2.5 0 0 1 1989,164.1094 L1989,371.5 A2.5,2.5 0 0 1 1986.5,374 L1709.5,374 A2.5,2.5 0 0 1 1707,371.5 L1707,140.5 A2.5,2.5 0 0 1 1709.5,138 " fill="none" style="stroke:#000000;stroke-width:1.5;"/><line style="stroke:#000000;stroke-width:1.5;" x1="1707" x2="1770" y1="161.6094" y2="161.6094"/><text fill="#000000" font-family="sans-serif" font-size="14" font-weight="bold" lengthAdjust="spacing" textLength="50" x="1711" y="154.5332">servlet</text></g><!--cluster config--><g id="cluster_config"><path d="M1733.5,182 L1778.5,182 A3.75,3.75 0 0 1 1781,184.5 L1788,205.6094 L1962.5,205.6094 A2.5,2.5 0 0 1 1965,208.1094 L1965,347.5 A2.5,2.5 0 0 1 1962.5,350 L1733.5,350 A2.5,2.5 0 0 1 1731,347.5 L1731,184.5 A2.5,2.5 0 0 1 1733.5,182 " fill="none" style="stroke:#000000;stroke-width:1.5;"/><line style="stroke:#000000;stroke-width:1.5;" x1="1731" x2="1788" y1="205.6094" y2="205.6094"/><text fill="#000000" font-family="sans-serif" font-size="14" font-weight="bold" lengthAdjust="spacing" textLength="44" x="1735" y="198.5332">config</text></g><!--cluster annotation--><g id="cluster_annotation"><path d="M1757.5,226 L1833.5,226 A3.75,3.75 0 0 1 1836,228.5 L1843,249.6094 L1938.5,249.6094 A2.5,2.5 0 0 1 1941,252.1094 L1941,323.5 A2.5,2.5 0 0 1 1938.5,326 L1757.5,326 A2.5,2.5 0 0 1 1755,323.5 L1755,228.5 A2.5,2.5 0 0 1 1757.5,226 " fill="none" style="stroke:#000000;stroke-width:1.5;"/><line style="stroke:#000000;stroke-width:1.5;" x1="1755" x2="1843" y1="249.6094" y2="249.6094"/><text fill="#000000" font-family="sans-serif" font-size="14" font-weight="bold" lengthAdjust="spacing" textLength="75" x="1759" y="242.5332">annotation</text></g><!--class CacheConfig--><g id="elem_CacheConfig"><rect codeLine="1" fill="#F1F1F1" height="100.8281" id="CacheConfig" rx="2.5" ry="2.5" style="stroke:#181818;stroke-width:0.5;" width="387" x="1304.5" y="717.24"/><ellipse cx="1452.75" cy="733.24" fill="#ADD1B2" rx="11" ry="11" style="stroke:#181818;stroke-width:1.0;"/><path d="M1454.75,729.74 Q1454.9531,729.24 1455.1875,728.99 Q1455.4219,728.74 1455.6875,728.74 Q1456.1563,728.74 1456.4531,729.0213 Q1456.75,729.3025 1456.75,729.9588 L1456.75,731.5213 Q1456.75,732.1775 1456.4688,732.4588 Q1456.1875,732.74 1455.75,732.74 Q1455.3594,732.74 1455.1094,732.5681 Q1454.8594,732.3963 1454.75,731.9431 Q1454.7031,731.6306 1454.5313,731.4588 Q1454.2188,731.1306 1453.6563,730.9431 Q1453.0938,730.74 1452.5313,730.74 Q1451.8281,730.74 1451.2344,731.0213 Q1450.6563,731.3025 1450.2031,731.9275 Q1449.75,732.5525 1449.75,733.4119 L1449.75,734.3338 Q1449.75,735.365 1450.5938,736.0525 Q1451.4375,736.74 1452.9375,736.74 Q1453.8281,736.74 1454.4531,736.5369 Q1454.8125,736.4275 1455.2188,736.0681 Q1455.4844,735.865 1455.625,735.8025 Q1455.7656,735.74 1455.9375,735.74 Q1456.2656,735.74 1456.5,736.0056 Q1456.75,736.2556 1456.75,736.615 Q1456.75,736.9588 1456.4063,737.365 Q1455.9063,737.9588 1455.1094,738.2869 Q1454.0625,738.74 1452.7813,738.74 Q1451.2813,738.74 1450.0781,738.1463 Q1449.1094,737.6775 1448.4219,736.6619 Q1447.75,735.6463 1447.75,734.4431 L1447.75,733.3494 Q1447.75,732.0994 1448.3438,731.0056 Q1448.9531,729.9119 1450,729.3338 Q1451.0625,728.74 1452.25,728.74 Q1452.9688,728.74 1453.5938,728.99 Q1454.2188,729.24 1454.75,729.74 Z " fill="#000000"/><text fill="#000000" font-family="sans-serif" font-size="14" lengthAdjust="spacing" textLength="82" x="1473.25" y="738.9685">CacheConfig</text><line style="stroke:#181818;stroke-width:0.5;" x1="1305.5" x2="1690.5" y1="749.24" y2="749.24"/><line style="stroke:#181818;stroke-width:0.5;" x1="1305.5" x2="1690.5" y1="757.24" y2="757.24"/><ellipse cx="1315.5" cy="771.5447" fill="#84BE84" rx="3" ry="3" style="stroke:#038048;stroke-width:1.0;"/><text fill="#000000" font-family="sans-serif" font-size="14" lengthAdjust="spacing" textLength="361" x="1324.5" y="775.7732">CacheManager cacheManager(RedisConnectionFactory)</text><ellipse cx="1315.5" cy="789.1541" fill="#84BE84" rx="3" ry="3" style="stroke:#038048;stroke-width:1.0;"/><text fill="#000000" font-family="sans-serif" font-size="14" lengthAdjust="spacing" textLength="190" x="1324.5" y="793.3826">KeyGenerator keyGenerator()</text><ellipse cx="1315.5" cy="806.7634" fill="#84BE84" rx="3" ry="3" style="stroke:#038048;stroke-width:1.0;"/><text fill="#000000" font-family="sans-serif" font-size="14" lengthAdjust="spacing" textLength="237" x="1324.5" y="810.992">KeyGenerator customKeyGenerator()</text></g><!--class AopConfig--><g id="elem_AopConfig"><rect codeLine="7" fill="#F1F1F1" height="100.8281" id="AopConfig" rx="2.5" ry="2.5" style="stroke:#181818;stroke-width:0.5;" width="304" x="94" y="717.24"/><ellipse cx="208.75" cy="733.24" fill="#ADD1B2" rx="11" ry="11" style="stroke:#181818;stroke-width:1.0;"/><path d="M210.75,729.74 Q210.9531,729.24 211.1875,728.99 Q211.4219,728.74 211.6875,728.74 Q212.1563,728.74 212.4531,729.0213 Q212.75,729.3025 212.75,729.9588 L212.75,731.5213 Q212.75,732.1775 212.4688,732.4588 Q212.1875,732.74 211.75,732.74 Q211.3594,732.74 211.1094,732.5681 Q210.8594,732.3963 210.75,731.9431 Q210.7031,731.6306 210.5313,731.4588 Q210.2188,731.1306 209.6563,730.9431 Q209.0938,730.74 208.5313,730.74 Q207.8281,730.74 207.2344,731.0213 Q206.6563,731.3025 206.2031,731.9275 Q205.75,732.5525 205.75,733.4119 L205.75,734.3338 Q205.75,735.365 206.5938,736.0525 Q207.4375,736.74 208.9375,736.74 Q209.8281,736.74 210.4531,736.5369 Q210.8125,736.4275 211.2188,736.0681 Q211.4844,735.865 211.625,735.8025 Q211.7656,735.74 211.9375,735.74 Q212.2656,735.74 212.5,736.0056 Q212.75,736.2556 212.75,736.615 Q212.75,736.9588 212.4063,737.365 Q211.9063,737.9588 211.1094,738.2869 Q210.0625,738.74 208.7813,738.74 Q207.2813,738.74 206.0781,738.1463 Q205.1094,737.6775 204.4219,736.6619 Q203.75,735.6463 203.75,734.4431 L203.75,733.3494 Q203.75,732.0994 204.3438,731.0056 Q204.9531,729.9119 206,729.3338 Q207.0625,728.74 208.25,728.74 Q208.9688,728.74 209.5938,728.99 Q210.2188,729.24 210.75,729.74 Z " fill="#000000"/><text fill="#000000" font-family="sans-serif" font-size="14" lengthAdjust="spacing" textLength="66" x="229.25" y="738.9685">AopConfig</text><line style="stroke:#181818;stroke-width:0.5;" x1="95" x2="397" y1="749.24" y2="749.24"/><line style="stroke:#181818;stroke-width:0.5;" x1="95" x2="397" y1="757.24" y2="757.24"/><ellipse cx="105" cy="771.5447" fill="#84BE84" rx="3" ry="3" style="stroke:#038048;stroke-width:1.0;"/><text fill="#000000" font-family="sans-serif" font-size="14" lengthAdjust="spacing" textLength="278" x="114" y="775.7732">LogTraceAspect logTraceAspect(LogTrace)</text><ellipse cx="105" cy="789.1541" fill="#84BE84" rx="3" ry="3" style="stroke:#038048;stroke-width:1.0;"/><text fill="#000000" font-family="sans-serif" font-size="14" lengthAdjust="spacing" textLength="155" x="114" y="793.3826">LockAspect lockAspect()</text><ellipse cx="105" cy="806.7634" fill="#84BE84" rx="3" ry="3" style="stroke:#038048;stroke-width:1.0;"/><text fill="#000000" font-family="sans-serif" font-size="14" lengthAdjust="spacing" textLength="131" x="114" y="810.992">LogTrace logTrace()</text></g><!--class SecurityConfig--><g id="elem_SecurityConfig"><rect codeLine="13" fill="#F1F1F1" height="259.3125" id="SecurityConfig" rx="2.5" ry="2.5" style="stroke:#181818;stroke-width:0.5;" width="395" x="432.5" y="638"/><ellipse cx="579.75" cy="654" fill="#ADD1B2" rx="11" ry="11" style="stroke:#181818;stroke-width:1.0;"/><path d="M581.75,650.5 Q581.9531,650 582.1875,649.75 Q582.4219,649.5 582.6875,649.5 Q583.1563,649.5 583.4531,649.7813 Q583.75,650.0625 583.75,650.7188 L583.75,652.2813 Q583.75,652.9375 583.4688,653.2188 Q583.1875,653.5 582.75,653.5 Q582.3594,653.5 582.1094,653.3281 Q581.8594,653.1563 581.75,652.7031 Q581.7031,652.3906 581.5313,652.2188 Q581.2188,651.8906 580.6563,651.7031 Q580.0938,651.5 579.5313,651.5 Q578.8281,651.5 578.2344,651.7813 Q577.6563,652.0625 577.2031,652.6875 Q576.75,653.3125 576.75,654.1719 L576.75,655.0938 Q576.75,656.125 577.5938,656.8125 Q578.4375,657.5 579.9375,657.5 Q580.8281,657.5 581.4531,657.2969 Q581.8125,657.1875 582.2188,656.8281 Q582.4844,656.625 582.625,656.5625 Q582.7656,656.5 582.9375,656.5 Q583.2656,656.5 583.5,656.7656 Q583.75,657.0156 583.75,657.375 Q583.75,657.7188 583.4063,658.125 Q582.9063,658.7188 582.1094,659.0469 Q581.0625,659.5 579.7813,659.5 Q578.2813,659.5 577.0781,658.9063 Q576.1094,658.4375 575.4219,657.4219 Q574.75,656.4063 574.75,655.2031 L574.75,654.1094 Q574.75,652.8594 575.3438,651.7656 Q575.9531,650.6719 577,650.0938 Q578.0625,649.5 579.25,649.5 Q579.9688,649.5 580.5938,649.75 Q581.2188,650 581.75,650.5 Z " fill="#000000"/><text fill="#000000" font-family="sans-serif" font-size="14" lengthAdjust="spacing" textLength="92" x="600.25" y="659.7285">SecurityConfig</text><line style="stroke:#181818;stroke-width:0.5;" x1="433.5" x2="826.5" y1="670" y2="670"/><rect fill="none" height="6" style="stroke:#C82930;stroke-width:1.0;" width="6" x="440.5" y="681.3047"/><text fill="#000000" font-family="sans-serif" font-size="14" lengthAdjust="spacing" textLength="241" x="452.5" y="688.5332">UserDetailsService userDetailsService</text><rect fill="none" height="6" style="stroke:#C82930;stroke-width:1.0;" width="6" x="440.5" y="698.9141"/><text fill="#000000" font-family="sans-serif" font-size="14" lengthAdjust="spacing" textLength="249" x="452.5" y="706.1426">OAuth2UserService oAuth2UserService</text><rect fill="none" height="6" style="stroke:#C82930;stroke-width:1.0;" width="6" x="440.5" y="716.5234"/><text fill="#000000" font-family="sans-serif" font-size="14" lengthAdjust="spacing" textLength="295" x="452.5" y="723.752">AuthenticationManager authenticationManager</text><rect fill="none" height="6" style="stroke:#C82930;stroke-width:1.0;" width="6" x="440.5" y="734.1328"/><text fill="#000000" font-family="sans-serif" font-size="14" lengthAdjust="spacing" textLength="289" x="452.5" y="741.3613">AuthenticationProvider authenticationProvider</text><rect fill="none" height="6" style="stroke:#C82930;stroke-width:1.0;" width="6" x="440.5" y="751.7422"/><text fill="#000000" font-family="sans-serif" font-size="14" lengthAdjust="spacing" textLength="369" x="452.5" y="758.9707">AuthenticationFailureHandler authenticationFailureHandler</text><rect fill="none" height="6" style="stroke:#C82930;stroke-width:1.0;" width="6" x="440.5" y="769.3516"/><text fill="#000000" font-family="sans-serif" font-size="14" lengthAdjust="spacing" textLength="305" x="452.5" y="776.5801">PersistentTokenMapper persistentTokenMapper</text><rect fill="none" height="6" style="stroke:#C82930;stroke-width:1.0;" width="6" x="440.5" y="786.9609"/><text fill="#000000" font-family="sans-serif" font-size="14" lengthAdjust="spacing" textLength="349" x="452.5" y="794.1895">JwtAuthenticationEntryPoint jwtAuthenticationEntryPoint</text><rect fill="none" height="6" style="stroke:#C82930;stroke-width:1.0;" width="6" x="440.5" y="804.5703"/><text fill="#000000" font-family="sans-serif" font-size="14" lengthAdjust="spacing" textLength="133" x="452.5" y="811.7988">JwtService jwtService</text><line style="stroke:#181818;stroke-width:0.5;" x1="433.5" x2="826.5" y1="818.875" y2="818.875"/><ellipse cx="443.5" cy="833.1797" fill="#84BE84" rx="3" ry="3" style="stroke:#038048;stroke-width:1.0;"/><text fill="#000000" font-family="sans-serif" font-size="14" lengthAdjust="spacing" textLength="288" x="452.5" y="837.4082">PersistentTokenRepository tokenRepository()</text><ellipse cx="443.5" cy="850.7891" fill="#84BE84" rx="3" ry="3" style="stroke:#038048;stroke-width:1.0;"/><text fill="#000000" font-family="sans-serif" font-size="14" lengthAdjust="spacing" textLength="310" x="452.5" y="855.0176">WebSecurityCustomizer webSecurityCustomizer()</text><ellipse cx="443.5" cy="868.3984" fill="#84BE84" rx="3" ry="3" style="stroke:#038048;stroke-width:1.0;"/><text fill="#000000" font-family="sans-serif" font-size="14" lengthAdjust="spacing" textLength="328" x="452.5" y="872.627">SecurityFilterChain securityFilterChain(HttpSecurity)</text><rect fill="#F24D5C" height="6" style="stroke:#C82930;stroke-width:1.0;" width="6" x="440.5" y="883.0078"/><text fill="#000000" font-family="sans-serif" font-size="14" lengthAdjust="spacing" textLength="283" x="452.5" y="890.2363">String getRefreshToken(HttpServletRequest)</text></g><!--class ProjectConfig--><g id="elem_ProjectConfig"><rect codeLine="29" fill="#F1F1F1" height="100.8281" id="ProjectConfig" rx="2.5" ry="2.5" style="stroke:#181818;stroke-width:0.5;" width="407" x="862.5" y="717.24"/><ellipse cx="1019.25" cy="733.24" fill="#ADD1B2" rx="11" ry="11" style="stroke:#181818;stroke-width:1.0;"/><path d="M1021.25,729.74 Q1021.4531,729.24 1021.6875,728.99 Q1021.9219,728.74 1022.1875,728.74 Q1022.6563,728.74 1022.9531,729.0213 Q1023.25,729.3025 1023.25,729.9588 L1023.25,731.5213 Q1023.25,732.1775 1022.9688,732.4588 Q1022.6875,732.74 1022.25,732.74 Q1021.8594,732.74 1021.6094,732.5681 Q1021.3594,732.3963 1021.25,731.9431 Q1021.2031,731.6306 1021.0313,731.4588 Q1020.7188,731.1306 1020.1563,730.9431 Q1019.5938,730.74 1019.0313,730.74 Q1018.3281,730.74 1017.7344,731.0213 Q1017.1563,731.3025 1016.7031,731.9275 Q1016.25,732.5525 1016.25,733.4119 L1016.25,734.3338 Q1016.25,735.365 1017.0938,736.0525 Q1017.9375,736.74 1019.4375,736.74 Q1020.3281,736.74 1020.9531,736.5369 Q1021.3125,736.4275 1021.7188,736.0681 Q1021.9844,735.865 1022.125,735.8025 Q1022.2656,735.74 1022.4375,735.74 Q1022.7656,735.74 1023,736.0056 Q1023.25,736.2556 1023.25,736.615 Q1023.25,736.9588 1022.9063,737.365 Q1022.4063,737.9588 1021.6094,738.2869 Q1020.5625,738.74 1019.2813,738.74 Q1017.7813,738.74 1016.5781,738.1463 Q1015.6094,737.6775 1014.9219,736.6619 Q1014.25,735.6463 1014.25,734.4431 L1014.25,733.3494 Q1014.25,732.0994 1014.8438,731.0056 Q1015.4531,729.9119 1016.5,729.3338 Q1017.5625,728.74 1018.75,728.74 Q1019.4688,728.74 1020.0938,728.99 Q1020.7188,729.24 1021.25,729.74 Z " fill="#000000"/><text fill="#000000" font-family="sans-serif" font-size="14" lengthAdjust="spacing" textLength="85" x="1039.75" y="738.9685">ProjectConfig</text><line style="stroke:#181818;stroke-width:0.5;" x1="863.5" x2="1268.5" y1="749.24" y2="749.24"/><rect fill="none" height="6" style="stroke:#C82930;stroke-width:1.0;" width="6" x="870.5" y="760.5447"/><text fill="#000000" font-family="sans-serif" font-size="14" lengthAdjust="spacing" textLength="241" x="882.5" y="767.7732">UserDetailsService userDetailsService</text><line style="stroke:#181818;stroke-width:0.5;" x1="863.5" x2="1268.5" y1="774.8494" y2="774.8494"/><ellipse cx="873.5" cy="789.1541" fill="#84BE84" rx="3" ry="3" style="stroke:#038048;stroke-width:1.0;"/><text fill="#000000" font-family="sans-serif" font-size="14" lengthAdjust="spacing" textLength="241" x="882.5" y="793.3826">PasswordEncoder passwordEncoder()</text><ellipse cx="873.5" cy="806.7634" fill="#84BE84" rx="3" ry="3" style="stroke:#038048;stroke-width:1.0;"/><text fill="#000000" font-family="sans-serif" font-size="14" lengthAdjust="spacing" textLength="381" x="882.5" y="810.992">AuthenticationManager authenticationManager(HttpSecurity)</text></g><!--class WebConfig--><g id="elem_WebConfig"><rect codeLine="36" fill="#F1F1F1" height="65.6094" id="WebConfig" rx="2.5" ry="2.5" style="stroke:#181818;stroke-width:0.5;" width="285" x="1726.5" y="734.85"/><ellipse cx="1829.75" cy="750.85" fill="#ADD1B2" rx="11" ry="11" style="stroke:#181818;stroke-width:1.0;"/><path d="M1831.75,747.35 Q1831.9531,746.85 1832.1875,746.6 Q1832.4219,746.35 1832.6875,746.35 Q1833.1563,746.35 1833.4531,746.6313 Q1833.75,746.9125 1833.75,747.5688 L1833.75,749.1313 Q1833.75,749.7875 1833.4688,750.0688 Q1833.1875,750.35 1832.75,750.35 Q1832.3594,750.35 1832.1094,750.1781 Q1831.8594,750.0063 1831.75,749.5531 Q1831.7031,749.2406 1831.5313,749.0688 Q1831.2188,748.7406 1830.6563,748.5531 Q1830.0938,748.35 1829.5313,748.35 Q1828.8281,748.35 1828.2344,748.6313 Q1827.6563,748.9125 1827.2031,749.5375 Q1826.75,750.1625 1826.75,751.0219 L1826.75,751.9438 Q1826.75,752.975 1827.5938,753.6625 Q1828.4375,754.35 1829.9375,754.35 Q1830.8281,754.35 1831.4531,754.1469 Q1831.8125,754.0375 1832.2188,753.6781 Q1832.4844,753.475 1832.625,753.4125 Q1832.7656,753.35 1832.9375,753.35 Q1833.2656,753.35 1833.5,753.6156 Q1833.75,753.8656 1833.75,754.225 Q1833.75,754.5688 1833.4063,754.975 Q1832.9063,755.5688 1832.1094,755.8969 Q1831.0625,756.35 1829.7813,756.35 Q1828.2813,756.35 1827.0781,755.7563 Q1826.1094,755.2875 1825.4219,754.2719 Q1824.75,753.2563 1824.75,752.0531 L1824.75,750.9594 Q1824.75,749.7094 1825.3438,748.6156 Q1825.9531,747.5219 1827,746.9438 Q1828.0625,746.35 1829.25,746.35 Q1829.9688,746.35 1830.5938,746.6 Q1831.2188,746.85 1831.75,747.35 Z " fill="#000000"/><text fill="#000000" font-family="sans-serif" font-size="14" lengthAdjust="spacing" textLength="70" x="1850.25" y="756.5785">WebConfig</text><line style="stroke:#181818;stroke-width:0.5;" x1="1727.5" x2="2010.5" y1="766.85" y2="766.85"/><line style="stroke:#181818;stroke-width:0.5;" x1="1727.5" x2="2010.5" y1="774.85" y2="774.85"/><ellipse cx="1737.5" cy="789.1547" fill="#84BE84" rx="3" ry="3" style="stroke:#038048;stroke-width:1.0;"/><text fill="#000000" font-family="sans-serif" font-size="14" lengthAdjust="spacing" textLength="259" x="1746.5" y="793.3832">void addInterceptors(InterceptorRegistry)</text></g><!--class RedisConfig--><g id="elem_RedisConfig"><rect codeLine="40" fill="#F1F1F1" height="153.6563" id="RedisConfig" rx="2.5" ry="2.5" style="stroke:#181818;stroke-width:0.5;" width="347" x="93.5" y="957.31"/><ellipse cx="224.25" cy="973.31" fill="#ADD1B2" rx="11" ry="11" style="stroke:#181818;stroke-width:1.0;"/><path d="M226.25,969.81 Q226.4531,969.31 226.6875,969.06 Q226.9219,968.81 227.1875,968.81 Q227.6563,968.81 227.9531,969.0913 Q228.25,969.3725 228.25,970.0288 L228.25,971.5913 Q228.25,972.2475 227.9688,972.5288 Q227.6875,972.81 227.25,972.81 Q226.8594,972.81 226.6094,972.6381 Q226.3594,972.4663 226.25,972.0131 Q226.2031,971.7006 226.0313,971.5288 Q225.7188,971.2006 225.1563,971.0131 Q224.5938,970.81 224.0313,970.81 Q223.3281,970.81 222.7344,971.0913 Q222.1563,971.3725 221.7031,971.9975 Q221.25,972.6225 221.25,973.4819 L221.25,974.4038 Q221.25,975.435 222.0938,976.1225 Q222.9375,976.81 224.4375,976.81 Q225.3281,976.81 225.9531,976.6069 Q226.3125,976.4975 226.7188,976.1381 Q226.9844,975.935 227.125,975.8725 Q227.2656,975.81 227.4375,975.81 Q227.7656,975.81 228,976.0756 Q228.25,976.3256 228.25,976.685 Q228.25,977.0288 227.9063,977.435 Q227.4063,978.0288 226.6094,978.3569 Q225.5625,978.81 224.2813,978.81 Q222.7813,978.81 221.5781,978.2163 Q220.6094,977.7475 219.9219,976.7319 Q219.25,975.7163 219.25,974.5131 L219.25,973.4194 Q219.25,972.1694 219.8438,971.0756 Q220.4531,969.9819 221.5,969.4038 Q222.5625,968.81 223.75,968.81 Q224.4688,968.81 225.0938,969.06 Q225.7188,969.31 226.25,969.81 Z " fill="#000000"/><text fill="#000000" font-family="sans-serif" font-size="14" lengthAdjust="spacing" textLength="77" x="244.75" y="979.0385">RedisConfig</text><line style="stroke:#181818;stroke-width:0.5;" x1="94.5" x2="439.5" y1="989.31" y2="989.31"/><rect fill="none" height="6" style="stroke:#C82930;stroke-width:1.0;" width="6" x="101.5" y="1000.6147"/><text fill="#000000" font-family="sans-serif" font-size="14" lengthAdjust="spacing" textLength="68" x="113.5" y="1007.8432">String host</text><rect fill="none" height="6" style="stroke:#C82930;stroke-width:1.0;" width="6" x="101.5" y="1018.2241"/><text fill="#000000" font-family="sans-serif" font-size="14" lengthAdjust="spacing" textLength="44" x="113.5" y="1025.4526">int port</text><rect fill="none" height="6" style="stroke:#C82930;stroke-width:1.0;" width="6" x="101.5" y="1035.8334"/><text fill="#000000" font-family="sans-serif" font-size="14" lengthAdjust="spacing" textLength="101" x="113.5" y="1043.062">String password</text><line style="stroke:#181818;stroke-width:0.5;" x1="94.5" x2="439.5" y1="1050.1381" y2="1050.1381"/><ellipse cx="104.5" cy="1064.4428" fill="#84BE84" rx="3" ry="3" style="stroke:#038048;stroke-width:1.0;"/><text fill="#000000" font-family="sans-serif" font-size="14" lengthAdjust="spacing" textLength="321" x="113.5" y="1068.6713">RedisConnectionFactory redisConnectionFactory()</text><ellipse cx="104.5" cy="1082.0522" fill="#84BE84" rx="3" ry="3" style="stroke:#038048;stroke-width:1.0;"/><text fill="#000000" font-family="sans-serif" font-size="14" lengthAdjust="spacing" textLength="297" x="113.5" y="1086.2807">RedisTemplate&lt;String,Object&gt; redisTemplate()</text><ellipse cx="104.5" cy="1099.6616" fill="#84BE84" rx="3" ry="3" style="stroke:#038048;stroke-width:1.0;"/><text fill="#000000" font-family="sans-serif" font-size="14" lengthAdjust="spacing" textLength="276" x="113.5" y="1103.8901">StringRedisTemplate stringRedisTemplate()</text></g><!--class AwsS3Config--><g id="elem_AwsS3Config"><rect codeLine="50" fill="#F1F1F1" height="118.4375" id="AwsS3Config" rx="2.5" ry="2.5" style="stroke:#181818;stroke-width:0.5;" width="173" x="475.5" y="974.92"/><ellipse cx="516.6" cy="990.92" fill="#ADD1B2" rx="11" ry="11" style="stroke:#181818;stroke-width:1.0;"/><path d="M518.6,987.42 Q518.8031,986.92 519.0375,986.67 Q519.2719,986.42 519.5375,986.42 Q520.0063,986.42 520.3031,986.7013 Q520.6,986.9825 520.6,987.6388 L520.6,989.2013 Q520.6,989.8575 520.3188,990.1388 Q520.0375,990.42 519.6,990.42 Q519.2094,990.42 518.9594,990.2481 Q518.7094,990.0763 518.6,989.6231 Q518.5531,989.3106 518.3813,989.1388 Q518.0688,988.8106 517.5063,988.6231 Q516.9438,988.42 516.3813,988.42 Q515.6781,988.42 515.0844,988.7013 Q514.5063,988.9825 514.0531,989.6075 Q513.6,990.2325 513.6,991.0919 L513.6,992.0138 Q513.6,993.045 514.4438,993.7325 Q515.2875,994.42 516.7875,994.42 Q517.6781,994.42 518.3031,994.2169 Q518.6625,994.1075 519.0688,993.7481 Q519.3344,993.545 519.475,993.4825 Q519.6156,993.42 519.7875,993.42 Q520.1156,993.42 520.35,993.6856 Q520.6,993.9356 520.6,994.295 Q520.6,994.6388 520.2563,995.045 Q519.7563,995.6388 518.9594,995.9669 Q517.9125,996.42 516.6313,996.42 Q515.1313,996.42 513.9281,995.8263 Q512.9594,995.3575 512.2719,994.3419 Q511.6,993.3263 511.6,992.1231 L511.6,991.0294 Q511.6,989.7794 512.1938,988.6856 Q512.8031,987.5919 513.85,987.0138 Q514.9125,986.42 516.1,986.42 Q516.8188,986.42 517.4438,986.67 Q518.0688,986.92 518.6,987.42 Z " fill="#000000"/><text fill="#000000" font-family="sans-serif" font-size="14" lengthAdjust="spacing" textLength="83" x="536.4" y="996.6485">AwsS3Config</text><line style="stroke:#181818;stroke-width:0.5;" x1="476.5" x2="647.5" y1="1006.92" y2="1006.92"/><rect fill="none" height="6" style="stroke:#C82930;stroke-width:1.0;" width="6" x="483.5" y="1018.2247"/><text fill="#000000" font-family="sans-serif" font-size="14" lengthAdjust="spacing" textLength="109" x="495.5" y="1025.4532">String accessKey</text><rect fill="none" height="6" style="stroke:#C82930;stroke-width:1.0;" width="6" x="483.5" y="1035.8341"/><text fill="#000000" font-family="sans-serif" font-size="14" lengthAdjust="spacing" textLength="104" x="495.5" y="1043.0626">String secretKey</text><rect fill="none" height="6" style="stroke:#C82930;stroke-width:1.0;" width="6" x="483.5" y="1053.4434"/><text fill="#000000" font-family="sans-serif" font-size="14" lengthAdjust="spacing" textLength="81" x="495.5" y="1060.672">String region</text><line style="stroke:#181818;stroke-width:0.5;" x1="476.5" x2="647.5" y1="1067.7481" y2="1067.7481"/><ellipse cx="486.5" cy="1082.0528" fill="#84BE84" rx="3" ry="3" style="stroke:#038048;stroke-width:1.0;"/><text fill="#000000" font-family="sans-serif" font-size="14" lengthAdjust="spacing" textLength="147" x="495.5" y="1086.2813">AmazonS3 amazonS3()</text></g><!--class CachingConfigurerSupport--><g id="elem_CachingConfigurerSupport"><rect fill="#F1F1F1" height="48" id="CachingConfigurerSupport" rx="2.5" ry="2.5" style="stroke:#181818;stroke-width:0.5;" width="201" x="1417.5" y="262"/><ellipse cx="1432.5" cy="278" fill="#ADD1B2" rx="11" ry="11" style="stroke:#181818;stroke-width:1.0;"/><path d="M1434.5,274.5 Q1434.7031,274 1434.9375,273.75 Q1435.1719,273.5 1435.4375,273.5 Q1435.9063,273.5 1436.2031,273.7813 Q1436.5,274.0625 1436.5,274.7188 L1436.5,276.2813 Q1436.5,276.9375 1436.2188,277.2188 Q1435.9375,277.5 1435.5,277.5 Q1435.1094,277.5 1434.8594,277.3281 Q1434.6094,277.1563 1434.5,276.7031 Q1434.4531,276.3906 1434.2813,276.2188 Q1433.9688,275.8906 1433.4063,275.7031 Q1432.8438,275.5 1432.2813,275.5 Q1431.5781,275.5 1430.9844,275.7813 Q1430.4063,276.0625 1429.9531,276.6875 Q1429.5,277.3125 1429.5,278.1719 L1429.5,279.0938 Q1429.5,280.125 1430.3438,280.8125 Q1431.1875,281.5 1432.6875,281.5 Q1433.5781,281.5 1434.2031,281.2969 Q1434.5625,281.1875 1434.9688,280.8281 Q1435.2344,280.625 1435.375,280.5625 Q1435.5156,280.5 1435.6875,280.5 Q1436.0156,280.5 1436.25,280.7656 Q1436.5,281.0156 1436.5,281.375 Q1436.5,281.7188 1436.1563,282.125 Q1435.6563,282.7188 1434.8594,283.0469 Q1433.8125,283.5 1432.5313,283.5 Q1431.0313,283.5 1429.8281,282.9063 Q1428.8594,282.4375 1428.1719,281.4219 Q1427.5,280.4063 1427.5,279.2031 L1427.5,278.1094 Q1427.5,276.8594 1428.0938,275.7656 Q1428.7031,274.6719 1429.75,274.0938 Q1430.8125,273.5 1432,273.5 Q1432.7188,273.5 1433.3438,273.75 Q1433.9688,274 1434.5,274.5 Z " fill="#000000"/><text fill="#000000" font-family="sans-serif" font-size="14" lengthAdjust="spacing" textLength="169" x="1446.5" y="283.7285">CachingConfigurerSupport</text><line style="stroke:#181818;stroke-width:0.5;" x1="1418.5" x2="1617.5" y1="294" y2="294"/><line style="stroke:#181818;stroke-width:0.5;" x1="1418.5" x2="1617.5" y1="302" y2="302"/></g><!--class WebMvcConfigurer--><g id="elem_WebMvcConfigurer"><rect fill="#F1F1F1" height="48" id="WebMvcConfigurer" rx="2.5" ry="2.5" style="stroke:#181818;stroke-width:0.5;" width="153" x="1771.5" y="262"/><ellipse cx="1786.5" cy="278" fill="#ADD1B2" rx="11" ry="11" style="stroke:#181818;stroke-width:1.0;"/><path d="M1788.5,274.5 Q1788.7031,274 1788.9375,273.75 Q1789.1719,273.5 1789.4375,273.5 Q1789.9063,273.5 1790.2031,273.7813 Q1790.5,274.0625 1790.5,274.7188 L1790.5,276.2813 Q1790.5,276.9375 1790.2188,277.2188 Q1789.9375,277.5 1789.5,277.5 Q1789.1094,277.5 1788.8594,277.3281 Q1788.6094,277.1563 1788.5,276.7031 Q1788.4531,276.3906 1788.2813,276.2188 Q1787.9688,275.8906 1787.4063,275.7031 Q1786.8438,275.5 1786.2813,275.5 Q1785.5781,275.5 1784.9844,275.7813 Q1784.4063,276.0625 1783.9531,276.6875 Q1783.5,277.3125 1783.5,278.1719 L1783.5,279.0938 Q1783.5,280.125 1784.3438,280.8125 Q1785.1875,281.5 1786.6875,281.5 Q1787.5781,281.5 1788.2031,281.2969 Q1788.5625,281.1875 1788.9688,280.8281 Q1789.2344,280.625 1789.375,280.5625 Q1789.5156,280.5 1789.6875,280.5 Q1790.0156,280.5 1790.25,280.7656 Q1790.5,281.0156 1790.5,281.375 Q1790.5,281.7188 1790.1563,282.125 Q1789.6563,282.7188 1788.8594,283.0469 Q1787.8125,283.5 1786.5313,283.5 Q1785.0313,283.5 1783.8281,282.9063 Q1782.8594,282.4375 1782.1719,281.4219 Q1781.5,280.4063 1781.5,279.2031 L1781.5,278.1094 Q1781.5,276.8594 1782.0938,275.7656 Q1782.7031,274.6719 1783.75,274.0938 Q1784.8125,273.5 1786,273.5 Q1786.7188,273.5 1787.3438,273.75 Q1787.9688,274 1788.5,274.5 Z " fill="#000000"/><text fill="#000000" font-family="sans-serif" font-size="14" lengthAdjust="spacing" textLength="121" x="1800.5" y="283.7285">WebMvcConfigurer</text><line style="stroke:#181818;stroke-width:0.5;" x1="1772.5" x2="1923.5" y1="294" y2="294"/><line style="stroke:#181818;stroke-width:0.5;" x1="1772.5" x2="1923.5" y1="302" y2="302"/></g><!--reverse link CachingConfigurerSupport to CacheConfig--><g id="link_CachingConfigurerSupport_CacheConfig"><path codeLine="60" d="M1516.14,331.69 C1512.39,421.47 1503.98,623.15 1500.07,716.94 " fill="none" id="CachingConfigurerSupport-backto-CacheConfig" style="stroke:#181818;stroke-width:1.0;"/><polygon fill="none" points="1509.13,331.66,1516.96,311.97,1523.12,332.25,1509.13,331.66" style="stroke:#181818;stroke-width:1.0;"/></g><!--reverse link WebMvcConfigurer to WebConfig--><g id="link_WebMvcConfigurer_WebConfig"><path codeLine="61" d="M1849.96,331.67 C1854.15,427.52 1863.94,650.98 1867.59,734.45 " fill="none" id="WebMvcConfigurer-backto-WebConfig" style="stroke:#181818;stroke-width:1.0;stroke-dasharray:7.0,7.0;"/><polygon fill="none" points="1842.97,332.26,1849.09,311.97,1856.96,331.65,1842.97,332.26" style="stroke:#181818;stroke-width:1.0;"/></g><!--SRC=[bLN1Sjem4Btp5JgQQUD3SyrqXg6XQTDC64odPqLUZC18wag68Mt_lIiPWOtTGcxQfxVQfzqdMvJSMYRq9ZMeLo1Soii5JuLM2rcaOowMC0vhzclmZeNuYIjU03BH298PvD8IKz4HKgi95qxZVaWvZx3_30gG4y3MZI3fx8hAEhrvR7F-30RYlo97sZGaVjF57Bc0aJL4P6KhJEBkC335-iYAosJOEEEOVOsC34I5qksFMcxOTmlu2HoNfSq0jv9Eh3eGyPv7bLj-yEn8q-S8iJm4oad1VOVZ57WVsc5FKMzbtg57kCEVaC0AuO6hlEnajJSfTmfefNN4cEira0XZACdqeSJ-kdFjOlVAuNwgfN9izU-zEZCsQ7LSqhpEwi_0Q2kz_vXhns6wF-3bEAjWEFbAQdTzQE17U29B1pXUSgcOxMB9WtCcSeUaDdCeLS4AS3DO8DXb47UWuRRq-CyAh0lckk2kQOszsLpK73fsfp6_Lq9x1vXs7Axu1ckTNVEoScftutbkjSmPp_ClYlecmD1KRD88Pb3G975_nOEBdvpOa4E_bzfwhtWt6Otkj14lJYhwlrOCU-7GeP0nXuqfkOEx-iJtpozUrCSwBsxMdWc4LXApNIovfe6ZdSrkk_VaGe2rzB4yGUHA1DU2aFgfbH_nXhzgbTqoVbWSQWy66elK6izU8Dy0jMYTXczxofNIBWm__0c8KSkWnuzPPNnxsTtlcvjh_X-zPUZHfRP-2p6bKPESyxGLfv9KAqql- -ml]--></g></svg>