<?xml version="1.0" encoding="us-ascii" standalone="no"?><svg xmlns="http://www.w3.org/2000/svg" xmlns:xlink="http://www.w3.org/1999/xlink" contentStyleType="text/css" height="739px" preserveAspectRatio="none" style="width:2369px;height:739px;background:#FFFFFF;" version="1.1" viewBox="0 0 2369 739" width="2369px" zoomAndPan="magnify"><defs/><g><!--cluster com--><g id="cluster_com"><path d="M8.5,6 L38.5,6 A3.75,3.75 0 0 1 41,8.5 L48,29.6094 L2359.5,29.6094 A2.5,2.5 0 0 1 2362,32.1094 L2362,730.03 A2.5,2.5 0 0 1 2359.5,732.53 L8.5,732.53 A2.5,2.5 0 0 1 6,730.03 L6,8.5 A2.5,2.5 0 0 1 8.5,6 " fill="none" style="stroke:#000000;stroke-width:1.5;"/><line style="stroke:#000000;stroke-width:1.5;" x1="6" x2="48" y1="29.6094" y2="29.6094"/><text fill="#000000" font-family="sans-serif" font-size="14" font-weight="bold" lengthAdjust="spacing" textLength="29" x="10" y="22.5332">com</text></g><!--cluster project--><g id="cluster_project"><path d="M32.5,50 L83.5,50 A3.75,3.75 0 0 1 86,52.5 L93,73.6094 L2335.5,73.6094 A2.5,2.5 0 0 1 2338,76.1094 L2338,706.03 A2.5,2.5 0 0 1 2335.5,708.53 L32.5,708.53 A2.5,2.5 0 0 1 30,706.03 L30,52.5 A2.5,2.5 0 0 1 32.5,50 " fill="none" style="stroke:#000000;stroke-width:1.5;"/><line style="stroke:#000000;stroke-width:1.5;" x1="30" x2="93" y1="73.6094" y2="73.6094"/><text fill="#000000" font-family="sans-serif" font-size="14" font-weight="bold" lengthAdjust="spacing" textLength="50" x="34" y="66.5332">project</text></g><!--cluster alfa--><g id="cluster_alfa"><path d="M56.5,94 L82.5,94 A3.75,3.75 0 0 1 85,96.5 L92,117.6094 L2311.5,117.6094 A2.5,2.5 0 0 1 2314,120.1094 L2314,682.03 A2.5,2.5 0 0 1 2311.5,684.53 L56.5,684.53 A2.5,2.5 0 0 1 54,682.03 L54,96.5 A2.5,2.5 0 0 1 56.5,94 " fill="none" style="stroke:#000000;stroke-width:1.5;"/><line style="stroke:#000000;stroke-width:1.5;" x1="54" x2="92" y1="117.6094" y2="117.6094"/><text fill="#000000" font-family="sans-serif" font-size="14" font-weight="bold" lengthAdjust="spacing" textLength="25" x="58" y="110.5332">alfa</text></g><!--cluster controllers--><g id="cluster_controllers"><path d="M80.5,138 L158.5,138 A3.75,3.75 0 0 1 161,140.5 L168,161.6094 L2287.5,161.6094 A2.5,2.5 0 0 1 2290,164.1094 L2290,658.03 A2.5,2.5 0 0 1 2287.5,660.53 L80.5,660.53 A2.5,2.5 0 0 1 78,658.03 L78,140.5 A2.5,2.5 0 0 1 80.5,138 " fill="none" style="stroke:#000000;stroke-width:1.5;"/><line style="stroke:#000000;stroke-width:1.5;" x1="78" x2="168" y1="161.6094" y2="161.6094"/><text fill="#000000" font-family="sans-serif" font-size="14" font-weight="bold" lengthAdjust="spacing" textLength="77" x="82" y="154.5332">controllers</text></g><!--cluster api--><g id="cluster_api"><path d="M104.5,182 L126.5,182 A3.75,3.75 0 0 1 129,184.5 L136,205.6094 L1788.5,205.6094 A2.5,2.5 0 0 1 1791,208.1094 L1791,634.03 A2.5,2.5 0 0 1 1788.5,636.53 L104.5,636.53 A2.5,2.5 0 0 1 102,634.03 L102,184.5 A2.5,2.5 0 0 1 104.5,182 " fill="none" style="stroke:#000000;stroke-width:1.5;"/><line style="stroke:#000000;stroke-width:1.5;" x1="102" x2="136" y1="205.6094" y2="205.6094"/><text fill="#000000" font-family="sans-serif" font-size="14" font-weight="bold" lengthAdjust="spacing" textLength="21" x="106" y="198.5332">api</text></g><!--class MainController--><g id="elem_MainController"><rect codeLine="13" fill="#F1F1F1" height="100.8281" id="MainController" rx="2.5" ry="2.5" style="stroke:#181818;stroke-width:0.5;" width="464" x="1810" y="279.63"/><ellipse cx="1991.75" cy="295.63" fill="#ADD1B2" rx="11" ry="11" style="stroke:#181818;stroke-width:1.0;"/><path d="M1993.75,292.13 Q1993.9531,291.63 1994.1875,291.38 Q1994.4219,291.13 1994.6875,291.13 Q1995.1563,291.13 1995.4531,291.4113 Q1995.75,291.6925 1995.75,292.3488 L1995.75,293.9113 Q1995.75,294.5675 1995.4688,294.8488 Q1995.1875,295.13 1994.75,295.13 Q1994.3594,295.13 1994.1094,294.9581 Q1993.8594,294.7863 1993.75,294.3331 Q1993.7031,294.0206 1993.5313,293.8488 Q1993.2188,293.5206 1992.6563,293.3331 Q1992.0938,293.13 1991.5313,293.13 Q1990.8281,293.13 1990.2344,293.4113 Q1989.6563,293.6925 1989.2031,294.3175 Q1988.75,294.9425 1988.75,295.8019 L1988.75,296.7238 Q1988.75,297.755 1989.5938,298.4425 Q1990.4375,299.13 1991.9375,299.13 Q1992.8281,299.13 1993.4531,298.9269 Q1993.8125,298.8175 1994.2188,298.4581 Q1994.4844,298.255 1994.625,298.1925 Q1994.7656,298.13 1994.9375,298.13 Q1995.2656,298.13 1995.5,298.3956 Q1995.75,298.6456 1995.75,299.005 Q1995.75,299.3488 1995.4063,299.755 Q1994.9063,300.3488 1994.1094,300.6769 Q1993.0625,301.13 1991.7813,301.13 Q1990.2813,301.13 1989.0781,300.5363 Q1988.1094,300.0675 1987.4219,299.0519 Q1986.75,298.0363 1986.75,296.8331 L1986.75,295.7394 Q1986.75,294.4894 1987.3438,293.3956 Q1987.9531,292.3019 1989,291.7238 Q1990.0625,291.13 1991.25,291.13 Q1991.9688,291.13 1992.5938,291.38 Q1993.2188,291.63 1993.75,292.13 Z " fill="#000000"/><text fill="#000000" font-family="sans-serif" font-size="14" lengthAdjust="spacing" textLength="92" x="2012.25" y="301.3585">MainController</text><line style="stroke:#181818;stroke-width:0.5;" x1="1811" x2="2273" y1="311.63" y2="311.63"/><rect fill="none" height="6" style="stroke:#C82930;stroke-width:1.0;" width="6" x="1818" y="322.9347"/><text fill="#000000" font-family="sans-serif" font-size="14" lengthAdjust="spacing" textLength="200" x="1830" y="330.1632">MemberService memberService</text><line style="stroke:#181818;stroke-width:0.5;" x1="1811" x2="2273" y1="337.2394" y2="337.2394"/><ellipse cx="1821" cy="351.5441" fill="#84BE84" rx="3" ry="3" style="stroke:#038048;stroke-width:1.0;"/><text fill="#000000" font-family="sans-serif" font-size="14" lengthAdjust="spacing" textLength="229" x="1830" y="355.7726">ResponseEntity&lt;String&gt; mainPage()</text><ellipse cx="1821" cy="369.1534" fill="#84BE84" rx="3" ry="3" style="stroke:#038048;stroke-width:1.0;"/><text fill="#000000" font-family="sans-serif" font-size="14" lengthAdjust="spacing" textLength="438" x="1830" y="373.382">ResponseEntity&lt;String&gt; verifyEmail(String,String,HttpServletRequest)</text></g><!--class CommentApiController--><g id="elem_CommentApiController"><rect codeLine="1" fill="#F1F1F1" height="188.875" id="CommentApiController" rx="2.5" ry="2.5" style="stroke:#181818;stroke-width:0.5;" width="579" x="118.5" y="235.61"/><ellipse cx="332.75" cy="251.61" fill="#ADD1B2" rx="11" ry="11" style="stroke:#181818;stroke-width:1.0;"/><path d="M334.75,248.11 Q334.9531,247.61 335.1875,247.36 Q335.4219,247.11 335.6875,247.11 Q336.1563,247.11 336.4531,247.3913 Q336.75,247.6725 336.75,248.3288 L336.75,249.8913 Q336.75,250.5475 336.4688,250.8288 Q336.1875,251.11 335.75,251.11 Q335.3594,251.11 335.1094,250.9381 Q334.8594,250.7663 334.75,250.3131 Q334.7031,250.0006 334.5313,249.8288 Q334.2188,249.5006 333.6563,249.3131 Q333.0938,249.11 332.5313,249.11 Q331.8281,249.11 331.2344,249.3913 Q330.6563,249.6725 330.2031,250.2975 Q329.75,250.9225 329.75,251.7819 L329.75,252.7038 Q329.75,253.735 330.5938,254.4225 Q331.4375,255.11 332.9375,255.11 Q333.8281,255.11 334.4531,254.9069 Q334.8125,254.7975 335.2188,254.4381 Q335.4844,254.235 335.625,254.1725 Q335.7656,254.11 335.9375,254.11 Q336.2656,254.11 336.5,254.3756 Q336.75,254.6256 336.75,254.985 Q336.75,255.3288 336.4063,255.735 Q335.9063,256.3288 335.1094,256.6569 Q334.0625,257.11 332.7813,257.11 Q331.2813,257.11 330.0781,256.5163 Q329.1094,256.0475 328.4219,255.0319 Q327.75,254.0163 327.75,252.8131 L327.75,251.7194 Q327.75,250.4694 328.3438,249.3756 Q328.9531,248.2819 330,247.7038 Q331.0625,247.11 332.25,247.11 Q332.9688,247.11 333.5938,247.36 Q334.2188,247.61 334.75,248.11 Z " fill="#000000"/><text fill="#000000" font-family="sans-serif" font-size="14" lengthAdjust="spacing" textLength="142" x="353.25" y="257.3385">CommentApiController</text><line style="stroke:#181818;stroke-width:0.5;" x1="119.5" x2="696.5" y1="267.61" y2="267.61"/><rect fill="none" height="6" style="stroke:#C82930;stroke-width:1.0;" width="6" x="126.5" y="278.9147"/><text fill="#000000" font-family="sans-serif" font-size="14" lengthAdjust="spacing" textLength="215" x="138.5" y="286.1432">CommentService commentService</text><line style="stroke:#181818;stroke-width:0.5;" x1="119.5" x2="696.5" y1="293.2194" y2="293.2194"/><ellipse cx="129.5" cy="307.5241" fill="#84BE84" rx="3" ry="3" style="stroke:#038048;stroke-width:1.0;"/><text fill="#000000" font-family="sans-serif" font-size="14" lengthAdjust="spacing" textLength="348" x="138.5" y="311.7526">ResponseEntity&lt;String&gt; commentsList(Long,Pageable)</text><ellipse cx="129.5" cy="325.1334" fill="#84BE84" rx="3" ry="3" style="stroke:#038048;stroke-width:1.0;"/><text fill="#000000" font-family="sans-serif" font-size="14" lengthAdjust="spacing" textLength="442" x="138.5" y="329.362">ResponseEntity&lt;String&gt; commentsListByWriter(UserDetails,Pageable)</text><ellipse cx="129.5" cy="342.7428" fill="#84BE84" rx="3" ry="3" style="stroke:#038048;stroke-width:1.0;"/><text fill="#000000" font-family="sans-serif" font-size="14" lengthAdjust="spacing" textLength="320" x="138.5" y="346.9713">ResponseEntity&lt;String&gt; writeCommentPage(Long)</text><ellipse cx="129.5" cy="360.3522" fill="#84BE84" rx="3" ry="3" style="stroke:#038048;stroke-width:1.0;"/><text fill="#000000" font-family="sans-serif" font-size="14" lengthAdjust="spacing" textLength="502" x="138.5" y="364.5807">ResponseEntity&lt;String&gt; writeComment(Long,UserDetails,CommentRequestDto)</text><ellipse cx="129.5" cy="377.9616" fill="#84BE84" rx="3" ry="3" style="stroke:#038048;stroke-width:1.0;"/><text fill="#000000" font-family="sans-serif" font-size="14" lengthAdjust="spacing" textLength="371" x="138.5" y="382.1901">ResponseEntity&lt;String&gt; updateCommentPage(Long,Long)</text><ellipse cx="129.5" cy="395.5709" fill="#84BE84" rx="3" ry="3" style="stroke:#038048;stroke-width:1.0;"/><text fill="#000000" font-family="sans-serif" font-size="14" lengthAdjust="spacing" textLength="553" x="138.5" y="399.7995">ResponseEntity&lt;String&gt; updateComment(Long,Long,UserDetails,CommentRequestDto)</text><ellipse cx="129.5" cy="413.1803" fill="#84BE84" rx="3" ry="3" style="stroke:#038048;stroke-width:1.0;"/><text fill="#000000" font-family="sans-serif" font-size="14" lengthAdjust="spacing" textLength="512" x="138.5" y="417.4088">ResponseEntity&lt;String&gt; deleteComment(Long,UserDetails,CommentRequestDto)</text></g><!--class PostApiController--><g id="elem_PostApiController"><rect codeLine="20" fill="#F1F1F1" height="224.0938" id="PostApiController" rx="2.5" ry="2.5" style="stroke:#181818;stroke-width:0.5;" width="479" x="732.5" y="218"/><ellipse cx="912.75" cy="234" fill="#ADD1B2" rx="11" ry="11" style="stroke:#181818;stroke-width:1.0;"/><path d="M914.75,230.5 Q914.9531,230 915.1875,229.75 Q915.4219,229.5 915.6875,229.5 Q916.1563,229.5 916.4531,229.7813 Q916.75,230.0625 916.75,230.7188 L916.75,232.2813 Q916.75,232.9375 916.4688,233.2188 Q916.1875,233.5 915.75,233.5 Q915.3594,233.5 915.1094,233.3281 Q914.8594,233.1563 914.75,232.7031 Q914.7031,232.3906 914.5313,232.2188 Q914.2188,231.8906 913.6563,231.7031 Q913.0938,231.5 912.5313,231.5 Q911.8281,231.5 911.2344,231.7813 Q910.6563,232.0625 910.2031,232.6875 Q909.75,233.3125 909.75,234.1719 L909.75,235.0938 Q909.75,236.125 910.5938,236.8125 Q911.4375,237.5 912.9375,237.5 Q913.8281,237.5 914.4531,237.2969 Q914.8125,237.1875 915.2188,236.8281 Q915.4844,236.625 915.625,236.5625 Q915.7656,236.5 915.9375,236.5 Q916.2656,236.5 916.5,236.7656 Q916.75,237.0156 916.75,237.375 Q916.75,237.7188 916.4063,238.125 Q915.9063,238.7188 915.1094,239.0469 Q914.0625,239.5 912.7813,239.5 Q911.2813,239.5 910.0781,238.9063 Q909.1094,238.4375 908.4219,237.4219 Q907.75,236.4063 907.75,235.2031 L907.75,234.1094 Q907.75,232.8594 908.3438,231.7656 Q908.9531,230.6719 910,230.0938 Q911.0625,229.5 912.25,229.5 Q912.9688,229.5 913.5938,229.75 Q914.2188,230 914.75,230.5 Z " fill="#000000"/><text fill="#000000" font-family="sans-serif" font-size="14" lengthAdjust="spacing" textLength="110" x="933.25" y="239.7285">PostApiController</text><line style="stroke:#181818;stroke-width:0.5;" x1="733.5" x2="1210.5" y1="250" y2="250"/><rect fill="none" height="6" style="stroke:#C82930;stroke-width:1.0;" width="6" x="740.5" y="261.3047"/><text fill="#000000" font-family="sans-serif" font-size="14" lengthAdjust="spacing" textLength="153" x="752.5" y="268.5332">PostService postService</text><rect fill="none" height="6" style="stroke:#C82930;stroke-width:1.0;" width="6" x="740.5" y="278.9141"/><text fill="#000000" font-family="sans-serif" font-size="14" lengthAdjust="spacing" textLength="239" x="752.5" y="286.1426">AttachmentService attachmentService</text><line style="stroke:#181818;stroke-width:0.5;" x1="733.5" x2="1210.5" y1="293.2188" y2="293.2188"/><ellipse cx="743.5" cy="307.5234" fill="#84BE84" rx="3" ry="3" style="stroke:#038048;stroke-width:1.0;"/><text fill="#000000" font-family="sans-serif" font-size="14" lengthAdjust="spacing" textLength="364" x="752.5" y="311.752">ResponseEntity&lt;String&gt; postsList(String,String,Pageable)</text><ellipse cx="743.5" cy="325.1328" fill="#84BE84" rx="3" ry="3" style="stroke:#038048;stroke-width:1.0;"/><text fill="#000000" font-family="sans-serif" font-size="14" lengthAdjust="spacing" textLength="412" x="752.5" y="329.3613">ResponseEntity&lt;String&gt; postsListByWriter(UserDetails,Pageable)</text><ellipse cx="743.5" cy="342.7422" fill="#84BE84" rx="3" ry="3" style="stroke:#038048;stroke-width:1.0;"/><text fill="#000000" font-family="sans-serif" font-size="14" lengthAdjust="spacing" textLength="414" x="752.5" y="346.9707">ResponseEntity&lt;String&gt; readPostPage(Long,HttpServletRequest)</text><ellipse cx="743.5" cy="360.3516" fill="#84BE84" rx="3" ry="3" style="stroke:#038048;stroke-width:1.0;"/><text fill="#000000" font-family="sans-serif" font-size="14" lengthAdjust="spacing" textLength="256" x="752.5" y="364.5801">ResponseEntity&lt;String&gt; writePostPage()</text><ellipse cx="743.5" cy="377.9609" fill="#84BE84" rx="3" ry="3" style="stroke:#038048;stroke-width:1.0;"/><text fill="#000000" font-family="sans-serif" font-size="14" lengthAdjust="spacing" textLength="402" x="752.5" y="382.1895">ResponseEntity&lt;String&gt; writePost(UserDetails,PostRequestDto)</text><ellipse cx="743.5" cy="395.5703" fill="#84BE84" rx="3" ry="3" style="stroke:#038048;stroke-width:1.0;"/><text fill="#000000" font-family="sans-serif" font-size="14" lengthAdjust="spacing" textLength="303" x="752.5" y="399.7988">ResponseEntity&lt;String&gt; updatePostPage(Long)</text><ellipse cx="743.5" cy="413.1797" fill="#84BE84" rx="3" ry="3" style="stroke:#038048;stroke-width:1.0;"/><text fill="#000000" font-family="sans-serif" font-size="14" lengthAdjust="spacing" textLength="453" x="752.5" y="417.4082">ResponseEntity&lt;String&gt; updatePost(Long,UserDetails,PostRequestDto)</text><ellipse cx="743.5" cy="430.7891" fill="#84BE84" rx="3" ry="3" style="stroke:#038048;stroke-width:1.0;"/><text fill="#000000" font-family="sans-serif" font-size="14" lengthAdjust="spacing" textLength="412" x="752.5" y="435.0176">ResponseEntity&lt;String&gt; deletePost(UserDetails,PostRequestDto)</text></g><!--class MemberApiController--><g id="elem_MemberApiController"><rect codeLine="34" fill="#F1F1F1" height="188.875" id="MemberApiController" rx="2.5" ry="2.5" style="stroke:#181818;stroke-width:0.5;" width="529" x="1246.5" y="235.61"/><ellipse cx="1440.25" cy="251.61" fill="#ADD1B2" rx="11" ry="11" style="stroke:#181818;stroke-width:1.0;"/><path d="M1442.25,248.11 Q1442.4531,247.61 1442.6875,247.36 Q1442.9219,247.11 1443.1875,247.11 Q1443.6563,247.11 1443.9531,247.3913 Q1444.25,247.6725 1444.25,248.3288 L1444.25,249.8913 Q1444.25,250.5475 1443.9688,250.8288 Q1443.6875,251.11 1443.25,251.11 Q1442.8594,251.11 1442.6094,250.9381 Q1442.3594,250.7663 1442.25,250.3131 Q1442.2031,250.0006 1442.0313,249.8288 Q1441.7188,249.5006 1441.1563,249.3131 Q1440.5938,249.11 1440.0313,249.11 Q1439.3281,249.11 1438.7344,249.3913 Q1438.1563,249.6725 1437.7031,250.2975 Q1437.25,250.9225 1437.25,251.7819 L1437.25,252.7038 Q1437.25,253.735 1438.0938,254.4225 Q1438.9375,255.11 1440.4375,255.11 Q1441.3281,255.11 1441.9531,254.9069 Q1442.3125,254.7975 1442.7188,254.4381 Q1442.9844,254.235 1443.125,254.1725 Q1443.2656,254.11 1443.4375,254.11 Q1443.7656,254.11 1444,254.3756 Q1444.25,254.6256 1444.25,254.985 Q1444.25,255.3288 1443.9063,255.735 Q1443.4063,256.3288 1442.6094,256.6569 Q1441.5625,257.11 1440.2813,257.11 Q1438.7813,257.11 1437.5781,256.5163 Q1436.6094,256.0475 1435.9219,255.0319 Q1435.25,254.0163 1435.25,252.8131 L1435.25,251.7194 Q1435.25,250.4694 1435.8438,249.3756 Q1436.4531,248.2819 1437.5,247.7038 Q1438.5625,247.11 1439.75,247.11 Q1440.4688,247.11 1441.0938,247.36 Q1441.7188,247.61 1442.25,248.11 Z " fill="#000000"/><text fill="#000000" font-family="sans-serif" font-size="14" lengthAdjust="spacing" textLength="133" x="1460.75" y="257.3385">MemberApiController</text><line style="stroke:#181818;stroke-width:0.5;" x1="1247.5" x2="1774.5" y1="267.61" y2="267.61"/><rect fill="none" height="6" style="stroke:#C82930;stroke-width:1.0;" width="6" x="1254.5" y="278.9147"/><text fill="#000000" font-family="sans-serif" font-size="14" lengthAdjust="spacing" textLength="200" x="1266.5" y="286.1432">MemberService memberService</text><line style="stroke:#181818;stroke-width:0.5;" x1="1247.5" x2="1774.5" y1="293.2194" y2="293.2194"/><ellipse cx="1257.5" cy="307.5241" fill="#84BE84" rx="3" ry="3" style="stroke:#038048;stroke-width:1.0;"/><text fill="#000000" font-family="sans-serif" font-size="14" lengthAdjust="spacing" textLength="221" x="1266.5" y="311.7526">ResponseEntity&lt;String&gt; joinPage()</text><ellipse cx="1257.5" cy="325.1334" fill="#84BE84" rx="3" ry="3" style="stroke:#038048;stroke-width:1.0;"/><text fill="#000000" font-family="sans-serif" font-size="14" lengthAdjust="spacing" textLength="339" x="1266.5" y="329.362">ResponseEntity&lt;String&gt; join(MemberJoinRequestDto)</text><ellipse cx="1257.5" cy="342.7428" fill="#84BE84" rx="3" ry="3" style="stroke:#038048;stroke-width:1.0;"/><text fill="#000000" font-family="sans-serif" font-size="14" lengthAdjust="spacing" textLength="301" x="1266.5" y="346.9713">ResponseEntity&lt;String&gt; forgotPassword(String)</text><ellipse cx="1257.5" cy="360.3522" fill="#84BE84" rx="3" ry="3" style="stroke:#038048;stroke-width:1.0;"/><text fill="#000000" font-family="sans-serif" font-size="14" lengthAdjust="spacing" textLength="310" x="1266.5" y="364.5807">ResponseEntity&lt;String&gt; profilePage(UserDetails)</text><ellipse cx="1257.5" cy="377.9616" fill="#84BE84" rx="3" ry="3" style="stroke:#038048;stroke-width:1.0;"/><text fill="#000000" font-family="sans-serif" font-size="14" lengthAdjust="spacing" textLength="355" x="1266.5" y="382.1901">ResponseEntity&lt;String&gt; profileUpdatePage(UserDetails)</text><ellipse cx="1257.5" cy="395.5709" fill="#84BE84" rx="3" ry="3" style="stroke:#038048;stroke-width:1.0;"/><text fill="#000000" font-family="sans-serif" font-size="14" lengthAdjust="spacing" textLength="497" x="1266.5" y="399.7995">ResponseEntity&lt;String&gt; profileUpdate(UserDetails,MemberUpdateRequestDto)</text><ellipse cx="1257.5" cy="413.1803" fill="#84BE84" rx="3" ry="3" style="stroke:#038048;stroke-width:1.0;"/><text fill="#000000" font-family="sans-serif" font-size="14" lengthAdjust="spacing" textLength="503" x="1266.5" y="417.4088">ResponseEntity&lt;String&gt; deleteAccount(UserDetails,MemberUpdateRequestDto)</text></g><!--class AuthApiController--><g id="elem_AuthApiController"><rect codeLine="46" fill="#F1F1F1" height="100.8281" id="AuthApiController" rx="2.5" ry="2.5" style="stroke:#181818;stroke-width:0.5;" width="737" x="117.5" y="510.9"/><ellipse cx="426.25" cy="526.9" fill="#ADD1B2" rx="11" ry="11" style="stroke:#181818;stroke-width:1.0;"/><path d="M428.25,523.4 Q428.4531,522.9 428.6875,522.65 Q428.9219,522.4 429.1875,522.4 Q429.6563,522.4 429.9531,522.6813 Q430.25,522.9625 430.25,523.6188 L430.25,525.1813 Q430.25,525.8375 429.9688,526.1188 Q429.6875,526.4 429.25,526.4 Q428.8594,526.4 428.6094,526.2281 Q428.3594,526.0563 428.25,525.6031 Q428.2031,525.2906 428.0313,525.1188 Q427.7188,524.7906 427.1563,524.6031 Q426.5938,524.4 426.0313,524.4 Q425.3281,524.4 424.7344,524.6813 Q424.1563,524.9625 423.7031,525.5875 Q423.25,526.2125 423.25,527.0719 L423.25,527.9938 Q423.25,529.025 424.0938,529.7125 Q424.9375,530.4 426.4375,530.4 Q427.3281,530.4 427.9531,530.1969 Q428.3125,530.0875 428.7188,529.7281 Q428.9844,529.525 429.125,529.4625 Q429.2656,529.4 429.4375,529.4 Q429.7656,529.4 430,529.6656 Q430.25,529.9156 430.25,530.275 Q430.25,530.6188 429.9063,531.025 Q429.4063,531.6188 428.6094,531.9469 Q427.5625,532.4 426.2813,532.4 Q424.7813,532.4 423.5781,531.8063 Q422.6094,531.3375 421.9219,530.3219 Q421.25,529.3063 421.25,528.1031 L421.25,527.0094 Q421.25,525.7594 421.8438,524.6656 Q422.4531,523.5719 423.5,522.9938 Q424.5625,522.4 425.75,522.4 Q426.4688,522.4 427.0938,522.65 Q427.7188,522.9 428.25,523.4 Z " fill="#000000"/><text fill="#000000" font-family="sans-serif" font-size="14" lengthAdjust="spacing" textLength="111" x="446.75" y="532.6285">AuthApiController</text><line style="stroke:#181818;stroke-width:0.5;" x1="118.5" x2="853.5" y1="542.9" y2="542.9"/><rect fill="none" height="6" style="stroke:#C82930;stroke-width:1.0;" width="6" x="125.5" y="554.2047"/><text fill="#000000" font-family="sans-serif" font-size="14" lengthAdjust="spacing" textLength="133" x="137.5" y="561.4332">JwtService jwtService</text><line style="stroke:#181818;stroke-width:0.5;" x1="118.5" x2="853.5" y1="568.5094" y2="568.5094"/><ellipse cx="128.5" cy="582.8141" fill="#84BE84" rx="3" ry="3" style="stroke:#038048;stroke-width:1.0;"/><text fill="#000000" font-family="sans-serif" font-size="14" lengthAdjust="spacing" textLength="711" x="137.5" y="587.0426">ResponseEntity&lt;String&gt; refreshToken(HttpServletRequest,HttpServletResponse,Map&lt;String,String&gt;,UserDetails)</text><rect fill="#F24D5C" height="6" style="stroke:#C82930;stroke-width:1.0;" width="6" x="125.5" y="597.4234"/><text fill="#000000" font-family="sans-serif" font-size="14" lengthAdjust="spacing" textLength="408" x="137.5" y="604.652">String getRefreshToken(HttpServletRequest,Map&lt;String,String&gt;)</text></g><!--class AttachmentApiController--><g id="elem_AttachmentApiController"><rect codeLine="53" fill="#F1F1F1" height="118.4375" id="AttachmentApiController" rx="2.5" ry="2.5" style="stroke:#181818;stroke-width:0.5;" width="367" x="889.5" y="502.09"/><ellipse cx="992.25" cy="518.09" fill="#ADD1B2" rx="11" ry="11" style="stroke:#181818;stroke-width:1.0;"/><path d="M994.25,514.59 Q994.4531,514.09 994.6875,513.84 Q994.9219,513.59 995.1875,513.59 Q995.6563,513.59 995.9531,513.8712 Q996.25,514.1525 996.25,514.8087 L996.25,516.3712 Q996.25,517.0275 995.9688,517.3087 Q995.6875,517.59 995.25,517.59 Q994.8594,517.59 994.6094,517.4181 Q994.3594,517.2462 994.25,516.7931 Q994.2031,516.4806 994.0313,516.3087 Q993.7188,515.9806 993.1563,515.7931 Q992.5938,515.59 992.0313,515.59 Q991.3281,515.59 990.7344,515.8712 Q990.1563,516.1525 989.7031,516.7775 Q989.25,517.4025 989.25,518.2619 L989.25,519.1837 Q989.25,520.215 990.0938,520.9025 Q990.9375,521.59 992.4375,521.59 Q993.3281,521.59 993.9531,521.3869 Q994.3125,521.2775 994.7188,520.9181 Q994.9844,520.715 995.125,520.6525 Q995.2656,520.59 995.4375,520.59 Q995.7656,520.59 996,520.8556 Q996.25,521.1056 996.25,521.465 Q996.25,521.8087 995.9063,522.215 Q995.4063,522.8087 994.6094,523.1369 Q993.5625,523.59 992.2813,523.59 Q990.7813,523.59 989.5781,522.9962 Q988.6094,522.5275 987.9219,521.5119 Q987.25,520.4962 987.25,519.2931 L987.25,518.1994 Q987.25,516.9494 987.8438,515.8556 Q988.4531,514.7619 989.5,514.1837 Q990.5625,513.59 991.75,513.59 Q992.4688,513.59 993.0938,513.84 Q993.7188,514.09 994.25,514.59 Z " fill="#000000"/><text fill="#000000" font-family="sans-serif" font-size="14" lengthAdjust="spacing" textLength="153" x="1012.75" y="523.8185">AttachmentApiController</text><line style="stroke:#181818;stroke-width:0.5;" x1="890.5" x2="1255.5" y1="534.09" y2="534.09"/><rect fill="none" height="6" style="stroke:#C82930;stroke-width:1.0;" width="6" x="897.5" y="545.3947"/><text fill="#000000" font-family="sans-serif" font-size="14" lengthAdjust="spacing" textLength="239" x="909.5" y="552.6232">AttachmentService attachmentService</text><rect fill="none" height="6" style="stroke:#C82930;stroke-width:1.0;" width="6" x="897.5" y="563.0041"/><text fill="#000000" font-family="sans-serif" font-size="14" lengthAdjust="spacing" textLength="83" x="909.5" y="570.2326">FileUtil fileUtil</text><line style="stroke:#181818;stroke-width:0.5;" x1="890.5" x2="1255.5" y1="577.3087" y2="577.3087"/><ellipse cx="900.5" cy="591.6134" fill="#84BE84" rx="3" ry="3" style="stroke:#038048;stroke-width:1.0;"/><text fill="#000000" font-family="sans-serif" font-size="14" lengthAdjust="spacing" textLength="310" x="909.5" y="595.842">ResponseEntity&lt;String&gt; findAllFilesByPost(Long)</text><ellipse cx="900.5" cy="609.2228" fill="#84BE84" rx="3" ry="3" style="stroke:#038048;stroke-width:1.0;"/><text fill="#000000" font-family="sans-serif" font-size="14" lengthAdjust="spacing" textLength="341" x="909.5" y="613.4513">ResponseEntity&lt;Resource&gt; downloadFile(Long,Long)</text></g><!--SRC=[dLNRRgCm47tdAtXajOGlg2hHcwggaQfsgpwxPY1EZOUrJL6qsd-l7HC29GMJ9toPsvavnr1Eb0efbaabSGjK9uJd9A4ej4JEGQg4L2ovnh84eTEANNStuRzW5RONBo0_6GKRgBSDVeVFe2eK2cw5PdftyQ8b4yNbmKuzCgMZHnH5_4GA8EySVlavNUtU9DCWerS5yWOqOLpvn6YiLrkqDTydzxHtXVOJjXVFyBS6fMyqJaIgguoCKySp-GTUHu-pgyY0mp90_uCWeFCiMHCcld5Z3UKxo0Crolxkvm9B4sVVdGaGdo1PlhirfZnoPt7xkTUwiYaCo1Q3Dm1ByoTK9pXkJmyegkFQtAHQ4xhf2u1yF_aPXGtb1334uC7YplLS6KWWcOLrvE6fpashelFtCHmMQ0uMQ6PGg9VrcDZUAPr0PajUG2edWp6jpfB75kVbOMqY5_t1BBrWvoWBD5rMga6PjOoSOg34d77ObzBhqxp7gnlIcNw3cJY8xcB1R5DAiHRQAzI2CQUrteo7_D1qJyEscNyJ9EGIrEOFVe28nf8SgjH5YDUakXYy89VneBEhq1s7XNMQZZ-EjQm7tUitxeJFMxaAx-oeDUDXtYucACj4bd9kFTJLhfFzYVcRBTQIWc40De8ZoQnJ__zhC7u1]--></g></svg>