<?xml version="1.0" encoding="us-ascii" standalone="no"?><svg xmlns="http://www.w3.org/2000/svg" xmlns:xlink="http://www.w3.org/1999/xlink" contentStyleType="text/css" height="1175px" preserveAspectRatio="none" style="width:1538px;height:1175px;background:#FFFFFF;" version="1.1" viewBox="0 0 1538 1175" width="1538px" zoomAndPan="magnify"><defs/><g><!--cluster com--><g id="cluster_com"><path d="M8.5,334 L38.5,334 A3.75,3.75 0 0 1 41,336.5 L48,357.6094 L1528.5,357.6094 A2.5,2.5 0 0 1 1531,360.1094 L1531,1166.13 A2.5,2.5 0 0 1 1528.5,1168.63 L8.5,1168.63 A2.5,2.5 0 0 1 6,1166.13 L6,336.5 A2.5,2.5 0 0 1 8.5,334 " fill="none" style="stroke:#000000;stroke-width:1.5;"/><line style="stroke:#000000;stroke-width:1.5;" x1="6" x2="48" y1="357.6094" y2="357.6094"/><text fill="#000000" font-family="sans-serif" font-size="14" font-weight="bold" lengthAdjust="spacing" textLength="29" x="10" y="350.5332">com</text></g><!--cluster project--><g id="cluster_project"><path d="M32.5,378 L83.5,378 A3.75,3.75 0 0 1 86,380.5 L93,401.6094 L1504.5,401.6094 A2.5,2.5 0 0 1 1507,404.1094 L1507,1142.13 A2.5,2.5 0 0 1 1504.5,1144.63 L32.5,1144.63 A2.5,2.5 0 0 1 30,1142.13 L30,380.5 A2.5,2.5 0 0 1 32.5,378 " fill="none" style="stroke:#000000;stroke-width:1.5;"/><line style="stroke:#000000;stroke-width:1.5;" x1="30" x2="93" y1="401.6094" y2="401.6094"/><text fill="#000000" font-family="sans-serif" font-size="14" font-weight="bold" lengthAdjust="spacing" textLength="50" x="34" y="394.5332">project</text></g><!--cluster alfa--><g id="cluster_alfa"><path d="M56.5,422 L82.5,422 A3.75,3.75 0 0 1 85,424.5 L92,445.6094 L1480.5,445.6094 A2.5,2.5 0 0 1 1483,448.1094 L1483,1118.13 A2.5,2.5 0 0 1 1480.5,1120.63 L56.5,1120.63 A2.5,2.5 0 0 1 54,1118.13 L54,424.5 A2.5,2.5 0 0 1 56.5,422 " fill="none" style="stroke:#000000;stroke-width:1.5;"/><line style="stroke:#000000;stroke-width:1.5;" x1="54" x2="92" y1="445.6094" y2="445.6094"/><text fill="#000000" font-family="sans-serif" font-size="14" font-weight="bold" lengthAdjust="spacing" textLength="25" x="58" y="438.5332">alfa</text></g><!--cluster entities--><g id="cluster_entities"><path d="M80.5,466 L134.5,466 A3.75,3.75 0 0 1 137,468.5 L144,489.6094 L1456.5,489.6094 A2.5,2.5 0 0 1 1459,492.1094 L1459,1094.13 A2.5,2.5 0 0 1 1456.5,1096.63 L80.5,1096.63 A2.5,2.5 0 0 1 78,1094.13 L78,468.5 A2.5,2.5 0 0 1 80.5,466 " fill="none" style="stroke:#000000;stroke-width:1.5;"/><line style="stroke:#000000;stroke-width:1.5;" x1="78" x2="144" y1="489.6094" y2="489.6094"/><text fill="#000000" font-family="sans-serif" font-size="14" font-weight="bold" lengthAdjust="spacing" textLength="53" x="82" y="482.5332">entities</text></g><!--cluster org--><g id="cluster_org"><path d="M810.5,6 L835.5,6 A3.75,3.75 0 0 1 838,8.5 L845,29.6094 L1127.5,29.6094 A2.5,2.5 0 0 1 1130,32.1094 L1130,307.5 A2.5,2.5 0 0 1 1127.5,310 L810.5,310 A2.5,2.5 0 0 1 808,307.5 L808,8.5 A2.5,2.5 0 0 1 810.5,6 " fill="none" style="stroke:#000000;stroke-width:1.5;"/><line style="stroke:#000000;stroke-width:1.5;" x1="808" x2="845" y1="29.6094" y2="29.6094"/><text fill="#000000" font-family="sans-serif" font-size="14" font-weight="bold" lengthAdjust="spacing" textLength="24" x="812" y="22.5332">org</text></g><!--cluster apache--><g id="cluster_apache"><path d="M834.5,50 L886.5,50 A3.75,3.75 0 0 1 889,52.5 L896,73.6094 L1103.5,73.6094 A2.5,2.5 0 0 1 1106,76.1094 L1106,283.5 A2.5,2.5 0 0 1 1103.5,286 L834.5,286 A2.5,2.5 0 0 1 832,283.5 L832,52.5 A2.5,2.5 0 0 1 834.5,50 " fill="none" style="stroke:#000000;stroke-width:1.5;"/><line style="stroke:#000000;stroke-width:1.5;" x1="832" x2="896" y1="73.6094" y2="73.6094"/><text fill="#000000" font-family="sans-serif" font-size="14" font-weight="bold" lengthAdjust="spacing" textLength="51" x="836" y="66.5332">apache</text></g><!--cluster ibatis--><g id="cluster_ibatis"><path d="M858.5,94 L897.5,94 A3.75,3.75 0 0 1 900,96.5 L907,117.6094 L1079.5,117.6094 A2.5,2.5 0 0 1 1082,120.1094 L1082,259.5 A2.5,2.5 0 0 1 1079.5,262 L858.5,262 A2.5,2.5 0 0 1 856,259.5 L856,96.5 A2.5,2.5 0 0 1 858.5,94 " fill="none" style="stroke:#000000;stroke-width:1.5;"/><line style="stroke:#000000;stroke-width:1.5;" x1="856" x2="907" y1="117.6094" y2="117.6094"/><text fill="#000000" font-family="sans-serif" font-size="14" font-weight="bold" lengthAdjust="spacing" textLength="38" x="860" y="110.5332">ibatis</text></g><!--cluster type--><g id="cluster_type"><path d="M882.5,138 L913.5,138 A3.75,3.75 0 0 1 916,140.5 L923,161.6094 L1055.5,161.6094 A2.5,2.5 0 0 1 1058,164.1094 L1058,235.5 A2.5,2.5 0 0 1 1055.5,238 L882.5,238 A2.5,2.5 0 0 1 880,235.5 L880,140.5 A2.5,2.5 0 0 1 882.5,138 " fill="none" style="stroke:#000000;stroke-width:1.5;"/><line style="stroke:#000000;stroke-width:1.5;" x1="880" x2="923" y1="161.6094" y2="161.6094"/><text fill="#000000" font-family="sans-serif" font-size="14" font-weight="bold" lengthAdjust="spacing" textLength="30" x="884" y="154.5332">type</text></g><!--class Role--><g id="elem_Role"><rect codeLine="1" fill="#F1F1F1" height="100.8281" id="Role" rx="2.5" ry="2.5" style="stroke:#181818;stroke-width:0.5;" width="101" x="94.5" y="581.25"/><ellipse cx="127.5" cy="597.25" fill="#EB937F" rx="11" ry="11" style="stroke:#181818;stroke-width:1.0;"/><path d="M126,598.25 L126,600.25 L130,600.25 L130,599.25 L130,598.7656 L130.625,598.25 L131,598.25 L131.375,598.25 L132,598.7656 L132,599.25 L132,602.25 L124,602.25 L123.5156,602.25 L123,601.625 L123,601.25 L123,600.875 L123.5156,600.25 L124,600.25 L124,600.25 L124,594.25 L124,594.25 L123.5156,594.25 L123,593.625 L123,593.25 L123,592.875 L123.5156,592.25 L124,592.25 L132,592.25 L132,595.25 L132,595.7344 L131.375,596.25 L131,596.25 L130.625,596.25 L130,595.7344 L130,595.25 L130,594.25 L126,594.25 L126,596.25 L127,596.25 L127,595.7656 L127,595.7656 L127.625,595.25 L128,595.25 L128.375,595.25 L129,595.7656 L129,596.25 L129,598.25 L129,598.7344 L128.375,599.25 L128.375,599.25 L128,599.25 L127.625,599.25 L127,598.7344 L127,598.7344 L127,598.25 L126,598.25 Z " fill="#000000"/><text fill="#000000" font-family="sans-serif" font-size="14" lengthAdjust="spacing" textLength="29" x="145.5" y="602.9785">Role</text><line style="stroke:#181818;stroke-width:0.5;" x1="95.5" x2="194.5" y1="613.25" y2="613.25"/><ellipse cx="105.5" cy="627.5547" fill="none" rx="3" ry="3" style="stroke:#038048;stroke-width:1.0;"/><text fill="#000000" font-family="sans-serif" font-size="14" lengthAdjust="spacing" textLength="42" x="114.5" y="631.7832">ADMIN</text><ellipse cx="105.5" cy="645.1641" fill="none" rx="3" ry="3" style="stroke:#038048;stroke-width:1.0;"/><text fill="#000000" font-family="sans-serif" font-size="14" lengthAdjust="spacing" textLength="37" x="114.5" y="649.3926">USER</text><rect fill="none" height="6" style="stroke:#C82930;stroke-width:1.0;" width="6" x="102.5" y="659.7734"/><text fill="#000000" font-family="sans-serif" font-size="14" lengthAdjust="spacing" textLength="75" x="114.5" y="667.002">String value</text><line style="stroke:#181818;stroke-width:0.5;" x1="95.5" x2="194.5" y1="674.0781" y2="674.0781"/></g><!--class Post--><g id="elem_Post"><rect codeLine="7" fill="#F1F1F1" height="259.3125" id="Post" rx="2.5" ry="2.5" style="stroke:#181818;stroke-width:0.5;" width="230" x="230" y="502"/><ellipse cx="326.75" cy="518" fill="#ADD1B2" rx="11" ry="11" style="stroke:#181818;stroke-width:1.0;"/><path d="M328.75,514.5 Q328.9531,514 329.1875,513.75 Q329.4219,513.5 329.6875,513.5 Q330.1563,513.5 330.4531,513.7813 Q330.75,514.0625 330.75,514.7188 L330.75,516.2813 Q330.75,516.9375 330.4688,517.2188 Q330.1875,517.5 329.75,517.5 Q329.3594,517.5 329.1094,517.3281 Q328.8594,517.1563 328.75,516.7031 Q328.7031,516.3906 328.5313,516.2188 Q328.2188,515.8906 327.6563,515.7031 Q327.0938,515.5 326.5313,515.5 Q325.8281,515.5 325.2344,515.7813 Q324.6563,516.0625 324.2031,516.6875 Q323.75,517.3125 323.75,518.1719 L323.75,519.0938 Q323.75,520.125 324.5938,520.8125 Q325.4375,521.5 326.9375,521.5 Q327.8281,521.5 328.4531,521.2969 Q328.8125,521.1875 329.2188,520.8281 Q329.4844,520.625 329.625,520.5625 Q329.7656,520.5 329.9375,520.5 Q330.2656,520.5 330.5,520.7656 Q330.75,521.0156 330.75,521.375 Q330.75,521.7188 330.4063,522.125 Q329.9063,522.7188 329.1094,523.0469 Q328.0625,523.5 326.7813,523.5 Q325.2813,523.5 324.0781,522.9063 Q323.1094,522.4375 322.4219,521.4219 Q321.75,520.4063 321.75,519.2031 L321.75,518.1094 Q321.75,516.8594 322.3438,515.7656 Q322.9531,514.6719 324,514.0938 Q325.0625,513.5 326.25,513.5 Q326.9688,513.5 327.5938,513.75 Q328.2188,514 328.75,514.5 Z " fill="#000000"/><text fill="#000000" font-family="sans-serif" font-size="14" lengthAdjust="spacing" textLength="28" x="347.25" y="523.7285">Post</text><line style="stroke:#181818;stroke-width:0.5;" x1="231" x2="459" y1="534" y2="534"/><rect fill="none" height="6" style="stroke:#C82930;stroke-width:1.0;" width="6" x="238" y="545.3047"/><text fill="#000000" font-family="sans-serif" font-size="14" lengthAdjust="spacing" textLength="47" x="250" y="552.5332">Long id</text><rect fill="none" height="6" style="stroke:#C82930;stroke-width:1.0;" width="6" x="238" y="562.9141"/><text fill="#000000" font-family="sans-serif" font-size="14" lengthAdjust="spacing" textLength="81" x="250" y="570.1426">Long writerId</text><rect fill="none" height="6" style="stroke:#C82930;stroke-width:1.0;" width="6" x="238" y="580.5234"/><text fill="#000000" font-family="sans-serif" font-size="14" lengthAdjust="spacing" textLength="101" x="250" y="587.752">String nickname</text><rect fill="none" height="6" style="stroke:#C82930;stroke-width:1.0;" width="6" x="238" y="598.1328"/><text fill="#000000" font-family="sans-serif" font-size="14" lengthAdjust="spacing" textLength="63" x="250" y="605.3613">String title</text><rect fill="none" height="6" style="stroke:#C82930;stroke-width:1.0;" width="6" x="238" y="615.7422"/><text fill="#000000" font-family="sans-serif" font-size="14" lengthAdjust="spacing" textLength="88" x="250" y="622.9707">String content</text><rect fill="none" height="6" style="stroke:#C82930;stroke-width:1.0;" width="6" x="238" y="633.3516"/><text fill="#000000" font-family="sans-serif" font-size="14" lengthAdjust="spacing" textLength="84" x="250" y="640.5801">int viewCount</text><rect fill="none" height="6" style="stroke:#C82930;stroke-width:1.0;" width="6" x="238" y="650.9609"/><text fill="#000000" font-family="sans-serif" font-size="14" lengthAdjust="spacing" textLength="110" x="250" y="658.1895">boolean noticeYn</text><rect fill="none" height="6" style="stroke:#C82930;stroke-width:1.0;" width="6" x="238" y="668.5703"/><text fill="#000000" font-family="sans-serif" font-size="14" lengthAdjust="spacing" textLength="177" x="250" y="675.7988">LocalDateTime createdDate</text><rect fill="none" height="6" style="stroke:#C82930;stroke-width:1.0;" width="6" x="238" y="686.1797"/><text fill="#000000" font-family="sans-serif" font-size="14" lengthAdjust="spacing" textLength="204" x="250" y="693.4082">LocalDateTime lastModifiedDate</text><rect fill="none" height="6" style="stroke:#C82930;stroke-width:1.0;" width="6" x="238" y="703.7891"/><text fill="#000000" font-family="sans-serif" font-size="14" lengthAdjust="spacing" textLength="149" x="250" y="711.0176">List&lt;Long&gt; commentIds</text><rect fill="none" height="6" style="stroke:#C82930;stroke-width:1.0;" width="6" x="238" y="721.3984"/><text fill="#000000" font-family="sans-serif" font-size="14" lengthAdjust="spacing" textLength="162" x="250" y="728.627">List&lt;Long&gt; attachmentIds</text><rect fill="none" height="6" style="stroke:#C82930;stroke-width:1.0;" width="6" x="238" y="739.0078"/><text fill="#000000" font-family="sans-serif" font-size="14" lengthAdjust="spacing" textLength="111" x="250" y="746.2363">boolean deleteYn</text><line style="stroke:#181818;stroke-width:0.5;" x1="231" x2="459" y1="753.3125" y2="753.3125"/></g><!--class Attachment--><g id="elem_Attachment"><rect codeLine="22" fill="#F1F1F1" height="100.8281" id="Attachment" rx="2.5" ry="2.5" style="stroke:#181818;stroke-width:0.5;" width="137" x="1259.5" y="900.56"/><ellipse cx="1289.8" cy="916.56" fill="#ADD1B2" rx="11" ry="11" style="stroke:#181818;stroke-width:1.0;"/><path d="M1291.8,913.06 Q1292.0031,912.56 1292.2375,912.31 Q1292.4719,912.06 1292.7375,912.06 Q1293.2063,912.06 1293.5031,912.3413 Q1293.8,912.6225 1293.8,913.2788 L1293.8,914.8413 Q1293.8,915.4975 1293.5188,915.7788 Q1293.2375,916.06 1292.8,916.06 Q1292.4094,916.06 1292.1594,915.8881 Q1291.9094,915.7163 1291.8,915.2631 Q1291.7531,914.9506 1291.5813,914.7788 Q1291.2688,914.4506 1290.7063,914.2631 Q1290.1438,914.06 1289.5813,914.06 Q1288.8781,914.06 1288.2844,914.3413 Q1287.7063,914.6225 1287.2531,915.2475 Q1286.8,915.8725 1286.8,916.7319 L1286.8,917.6538 Q1286.8,918.685 1287.6438,919.3725 Q1288.4875,920.06 1289.9875,920.06 Q1290.8781,920.06 1291.5031,919.8569 Q1291.8625,919.7475 1292.2688,919.3881 Q1292.5344,919.185 1292.675,919.1225 Q1292.8156,919.06 1292.9875,919.06 Q1293.3156,919.06 1293.55,919.3256 Q1293.8,919.5756 1293.8,919.935 Q1293.8,920.2788 1293.4563,920.685 Q1292.9563,921.2788 1292.1594,921.6069 Q1291.1125,922.06 1289.8313,922.06 Q1288.3313,922.06 1287.1281,921.4663 Q1286.1594,920.9975 1285.4719,919.9819 Q1284.8,918.9663 1284.8,917.7631 L1284.8,916.6694 Q1284.8,915.4194 1285.3938,914.3256 Q1286.0031,913.2319 1287.05,912.6538 Q1288.1125,912.06 1289.3,912.06 Q1290.0188,912.06 1290.6438,912.31 Q1291.2688,912.56 1291.8,913.06 Z " fill="#000000"/><text fill="#000000" font-family="sans-serif" font-size="14" lengthAdjust="spacing" textLength="71" x="1307.2" y="922.2885">Attachment</text><line style="stroke:#181818;stroke-width:0.5;" x1="1260.5" x2="1395.5" y1="932.56" y2="932.56"/><rect fill="none" height="6" style="stroke:#C82930;stroke-width:1.0;" width="6" x="1267.5" y="943.8647"/><text fill="#000000" font-family="sans-serif" font-size="14" lengthAdjust="spacing" textLength="47" x="1279.5" y="951.0932">Long id</text><rect fill="none" height="6" style="stroke:#C82930;stroke-width:1.0;" width="6" x="1267.5" y="961.4741"/><text fill="#000000" font-family="sans-serif" font-size="14" lengthAdjust="spacing" textLength="74" x="1279.5" y="968.7026">Long postId</text><polygon fill="none" points="1270.5,978.0834,1266.5,984.0834,1274.5,984.0834" style="stroke:#1963A0;stroke-width:1.0;"/><text fill="#000000" font-family="sans-serif" font-size="14" lengthAdjust="spacing" textLength="111" x="1279.5" y="986.312">boolean deleteYn</text><line style="stroke:#181818;stroke-width:0.5;" x1="1260.5" x2="1395.5" y1="993.3881" y2="993.3881"/></g><!--class EnumTypeHandler--><g id="elem_EnumTypeHandler"><rect codeLine="28" fill="#F1F1F1" height="153.6563" id="EnumTypeHandler" rx="2.5" ry="2.5" style="stroke:#181818;stroke-width:0.5;" width="419" x="759.5" y="554.83"/><ellipse cx="906.25" cy="570.83" fill="#ADD1B2" rx="11" ry="11" style="stroke:#181818;stroke-width:1.0;"/><path d="M908.25,567.33 Q908.4531,566.83 908.6875,566.58 Q908.9219,566.33 909.1875,566.33 Q909.6563,566.33 909.9531,566.6113 Q910.25,566.8925 910.25,567.5488 L910.25,569.1113 Q910.25,569.7675 909.9688,570.0488 Q909.6875,570.33 909.25,570.33 Q908.8594,570.33 908.6094,570.1581 Q908.3594,569.9863 908.25,569.5331 Q908.2031,569.2206 908.0313,569.0488 Q907.7188,568.7206 907.1563,568.5331 Q906.5938,568.33 906.0313,568.33 Q905.3281,568.33 904.7344,568.6113 Q904.1563,568.8925 903.7031,569.5175 Q903.25,570.1425 903.25,571.0019 L903.25,571.9238 Q903.25,572.955 904.0938,573.6425 Q904.9375,574.33 906.4375,574.33 Q907.3281,574.33 907.9531,574.1269 Q908.3125,574.0175 908.7188,573.6581 Q908.9844,573.455 909.125,573.3925 Q909.2656,573.33 909.4375,573.33 Q909.7656,573.33 910,573.5956 Q910.25,573.8456 910.25,574.205 Q910.25,574.5488 909.9063,574.955 Q909.4063,575.5488 908.6094,575.8769 Q907.5625,576.33 906.2813,576.33 Q904.7813,576.33 903.5781,575.7363 Q902.6094,575.2675 901.9219,574.2519 Q901.25,573.2363 901.25,572.0331 L901.25,570.9394 Q901.25,569.6894 901.8438,568.5956 Q902.4531,567.5019 903.5,566.9238 Q904.5625,566.33 905.75,566.33 Q906.4688,566.33 907.0938,566.58 Q907.7188,566.83 908.25,567.33 Z " fill="#000000"/><text fill="#000000" font-family="sans-serif" font-size="14" lengthAdjust="spacing" textLength="117" x="926.75" y="576.5585">EnumTypeHandler</text><line style="stroke:#181818;stroke-width:0.5;" x1="760.5" x2="1177.5" y1="586.83" y2="586.83"/><rect fill="none" height="6" style="stroke:#C82930;stroke-width:1.0;" width="6" x="767.5" y="598.1347"/><text fill="#000000" font-family="sans-serif" font-size="14" lengthAdjust="spacing" textLength="91" x="779.5" y="605.3632">Class&lt;E&gt; type</text><line style="stroke:#181818;stroke-width:0.5;" x1="760.5" x2="1177.5" y1="612.4394" y2="612.4394"/><ellipse cx="770.5" cy="626.7441" fill="#84BE84" rx="3" ry="3" style="stroke:#038048;stroke-width:1.0;"/><text fill="#000000" font-family="sans-serif" font-size="14" lengthAdjust="spacing" textLength="393" x="779.5" y="630.9726">void setNonNullParameter(PreparedStatement,int,E,JdbcType)</text><ellipse cx="770.5" cy="644.3534" fill="#84BE84" rx="3" ry="3" style="stroke:#038048;stroke-width:1.0;"/><text fill="#000000" font-family="sans-serif" font-size="14" lengthAdjust="spacing" textLength="235" x="779.5" y="648.582">E getNullableResult(ResultSet,String)</text><ellipse cx="770.5" cy="661.9628" fill="#84BE84" rx="3" ry="3" style="stroke:#038048;stroke-width:1.0;"/><text fill="#000000" font-family="sans-serif" font-size="14" lengthAdjust="spacing" textLength="213" x="779.5" y="666.1913">E getNullableResult(ResultSet,int)</text><ellipse cx="770.5" cy="679.5722" fill="#84BE84" rx="3" ry="3" style="stroke:#038048;stroke-width:1.0;"/><text fill="#000000" font-family="sans-serif" font-size="14" lengthAdjust="spacing" textLength="267" x="779.5" y="683.8007">E getNullableResult(CallableStatement,int)</text><rect fill="#F24D5C" height="6" style="stroke:#C82930;stroke-width:1.0;" width="6" x="767.5" y="694.1816"/><text fill="#000000" font-family="sans-serif" font-size="14" lengthAdjust="spacing" textLength="94" x="779.5" y="701.4101">E getEnum(int)</text></g><!--class UploadFile--><g id="elem_UploadFile"><rect codeLine="38" fill="#F1F1F1" height="153.6563" id="UploadFile" rx="2.5" ry="2.5" style="stroke:#181818;stroke-width:0.5;" width="230" x="1213" y="554.83"/><ellipse cx="1289.75" cy="570.83" fill="#A9DCDF" rx="11" ry="11" style="stroke:#181818;stroke-width:1.0;"/><path d="M1291.5,572.33 L1288.2031,572.33 L1287.7656,573.33 L1287.7656,573.33 L1288.2344,573.33 L1288.75,573.955 L1288.75,574.33 L1288.75,574.705 L1288.2344,575.33 L1287.7656,575.33 L1285.875,575.33 L1285.2656,575.33 L1284.75,574.705 L1284.75,574.33 L1284.75,573.955 L1285.2656,573.33 L1285.875,573.33 L1288.1875,567.33 L1287.3125,567.33 L1286.2656,567.33 L1285.75,566.705 L1285.75,566.33 L1285.75,565.955 L1286.2656,565.33 L1287.3125,565.33 L1290.9844,565.33 L1293.6719,573.33 L1294.2344,573.33 L1294.2344,573.33 L1294.75,573.955 L1294.75,574.33 L1294.75,574.705 L1294.2344,575.33 L1293.6719,575.33 L1291.7813,575.33 L1291.2656,575.33 L1290.75,574.705 L1290.75,574.33 L1290.75,573.955 L1291.2656,573.33 L1291.7813,573.33 L1291.7813,573.33 L1291.5,572.33 Z M1290.9531,570.33 L1289.75,566.7519 L1288.7188,570.33 L1290.9531,570.33 Z " fill="#000000"/><text fill="#000000" font-family="sans-serif" font-size="14" font-style="italic" lengthAdjust="spacing" textLength="68" x="1310.25" y="576.5585">UploadFile</text><line style="stroke:#181818;stroke-width:0.5;" x1="1214" x2="1442" y1="586.83" y2="586.83"/><polygon fill="none" points="1224,597.1347,1220,603.1347,1228,603.1347" style="stroke:#1963A0;stroke-width:1.0;"/><text fill="#000000" font-family="sans-serif" font-size="14" lengthAdjust="spacing" textLength="145" x="1233" y="605.3632">String originalFilename</text><polygon fill="none" points="1224,614.7441,1220,620.7441,1228,620.7441" style="stroke:#1963A0;stroke-width:1.0;"/><text fill="#000000" font-family="sans-serif" font-size="14" lengthAdjust="spacing" textLength="131" x="1233" y="622.9726">String storeFilename</text><polygon fill="none" points="1224,632.3534,1220,638.3534,1228,638.3534" style="stroke:#1963A0;stroke-width:1.0;"/><text fill="#000000" font-family="sans-serif" font-size="14" lengthAdjust="spacing" textLength="125" x="1233" y="640.582">String storeFilePath</text><polygon fill="none" points="1224,649.9628,1220,655.9628,1228,655.9628" style="stroke:#1963A0;stroke-width:1.0;"/><text fill="#000000" font-family="sans-serif" font-size="14" lengthAdjust="spacing" textLength="80" x="1233" y="658.1913">Long fileSize</text><polygon fill="none" points="1224,667.5722,1220,673.5722,1228,673.5722" style="stroke:#1963A0;stroke-width:1.0;"/><text fill="#000000" font-family="sans-serif" font-size="14" lengthAdjust="spacing" textLength="177" x="1233" y="675.8007">LocalDateTime createdDate</text><polygon fill="none" points="1224,685.1816,1220,691.1816,1228,691.1816" style="stroke:#1963A0;stroke-width:1.0;"/><text fill="#000000" font-family="sans-serif" font-size="14" lengthAdjust="spacing" textLength="204" x="1233" y="693.4101">LocalDateTime lastModifiedDate</text><line style="stroke:#181818;stroke-width:0.5;" x1="1214" x2="1442" y1="700.4863" y2="700.4863"/></g><!--class Comment--><g id="elem_Comment"><rect codeLine="47" fill="#F1F1F1" height="188.875" id="Comment" rx="2.5" ry="2.5" style="stroke:#181818;stroke-width:0.5;" width="230" x="495" y="537.22"/><ellipse cx="575.75" cy="553.22" fill="#ADD1B2" rx="11" ry="11" style="stroke:#181818;stroke-width:1.0;"/><path d="M577.75,549.72 Q577.9531,549.22 578.1875,548.97 Q578.4219,548.72 578.6875,548.72 Q579.1563,548.72 579.4531,549.0013 Q579.75,549.2825 579.75,549.9388 L579.75,551.5013 Q579.75,552.1575 579.4688,552.4388 Q579.1875,552.72 578.75,552.72 Q578.3594,552.72 578.1094,552.5481 Q577.8594,552.3763 577.75,551.9231 Q577.7031,551.6106 577.5313,551.4388 Q577.2188,551.1106 576.6563,550.9231 Q576.0938,550.72 575.5313,550.72 Q574.8281,550.72 574.2344,551.0013 Q573.6563,551.2825 573.2031,551.9075 Q572.75,552.5325 572.75,553.3919 L572.75,554.3138 Q572.75,555.345 573.5938,556.0325 Q574.4375,556.72 575.9375,556.72 Q576.8281,556.72 577.4531,556.5169 Q577.8125,556.4075 578.2188,556.0481 Q578.4844,555.845 578.625,555.7825 Q578.7656,555.72 578.9375,555.72 Q579.2656,555.72 579.5,555.9856 Q579.75,556.2356 579.75,556.595 Q579.75,556.9388 579.4063,557.345 Q578.9063,557.9388 578.1094,558.2669 Q577.0625,558.72 575.7813,558.72 Q574.2813,558.72 573.0781,558.1263 Q572.1094,557.6575 571.4219,556.6419 Q570.75,555.6263 570.75,554.4231 L570.75,553.3294 Q570.75,552.0794 571.3438,550.9856 Q571.9531,549.8919 573,549.3138 Q574.0625,548.72 575.25,548.72 Q575.9688,548.72 576.5938,548.97 Q577.2188,549.22 577.75,549.72 Z " fill="#000000"/><text fill="#000000" font-family="sans-serif" font-size="14" lengthAdjust="spacing" textLength="60" x="596.25" y="558.9485">Comment</text><line style="stroke:#181818;stroke-width:0.5;" x1="496" x2="724" y1="569.22" y2="569.22"/><rect fill="none" height="6" style="stroke:#C82930;stroke-width:1.0;" width="6" x="503" y="580.5247"/><text fill="#000000" font-family="sans-serif" font-size="14" lengthAdjust="spacing" textLength="47" x="515" y="587.7532">Long id</text><rect fill="none" height="6" style="stroke:#C82930;stroke-width:1.0;" width="6" x="503" y="598.1341"/><text fill="#000000" font-family="sans-serif" font-size="14" lengthAdjust="spacing" textLength="81" x="515" y="605.3626">Long writerId</text><rect fill="none" height="6" style="stroke:#C82930;stroke-width:1.0;" width="6" x="503" y="615.7434"/><text fill="#000000" font-family="sans-serif" font-size="14" lengthAdjust="spacing" textLength="74" x="515" y="622.972">Long postId</text><rect fill="none" height="6" style="stroke:#C82930;stroke-width:1.0;" width="6" x="503" y="633.3528"/><text fill="#000000" font-family="sans-serif" font-size="14" lengthAdjust="spacing" textLength="101" x="515" y="640.5813">String nickname</text><rect fill="none" height="6" style="stroke:#C82930;stroke-width:1.0;" width="6" x="503" y="650.9622"/><text fill="#000000" font-family="sans-serif" font-size="14" lengthAdjust="spacing" textLength="88" x="515" y="658.1907">String content</text><rect fill="none" height="6" style="stroke:#C82930;stroke-width:1.0;" width="6" x="503" y="668.5716"/><text fill="#000000" font-family="sans-serif" font-size="14" lengthAdjust="spacing" textLength="177" x="515" y="675.8001">LocalDateTime createdDate</text><rect fill="none" height="6" style="stroke:#C82930;stroke-width:1.0;" width="6" x="503" y="686.1809"/><text fill="#000000" font-family="sans-serif" font-size="14" lengthAdjust="spacing" textLength="204" x="515" y="693.4095">LocalDateTime lastModifiedDate</text><rect fill="none" height="6" style="stroke:#C82930;stroke-width:1.0;" width="6" x="503" y="703.7903"/><text fill="#000000" font-family="sans-serif" font-size="14" lengthAdjust="spacing" textLength="111" x="515" y="711.0188">boolean deleteYn</text><line style="stroke:#181818;stroke-width:0.5;" x1="496" x2="724" y1="718.095" y2="718.095"/></g><!--class Member--><g id="elem_Member"><rect codeLine="58" fill="#F1F1F1" height="259.3125" id="Member" rx="2.5" ry="2.5" style="stroke:#181818;stroke-width:0.5;" width="230" x="94" y="821.32"/><ellipse cx="179.25" cy="837.32" fill="#ADD1B2" rx="11" ry="11" style="stroke:#181818;stroke-width:1.0;"/><path d="M181.25,833.82 Q181.4531,833.32 181.6875,833.07 Q181.9219,832.82 182.1875,832.82 Q182.6563,832.82 182.9531,833.1013 Q183.25,833.3825 183.25,834.0388 L183.25,835.6013 Q183.25,836.2575 182.9688,836.5388 Q182.6875,836.82 182.25,836.82 Q181.8594,836.82 181.6094,836.6481 Q181.3594,836.4763 181.25,836.0231 Q181.2031,835.7106 181.0313,835.5388 Q180.7188,835.2106 180.1563,835.0231 Q179.5938,834.82 179.0313,834.82 Q178.3281,834.82 177.7344,835.1013 Q177.1563,835.3825 176.7031,836.0075 Q176.25,836.6325 176.25,837.4919 L176.25,838.4138 Q176.25,839.445 177.0938,840.1325 Q177.9375,840.82 179.4375,840.82 Q180.3281,840.82 180.9531,840.6169 Q181.3125,840.5075 181.7188,840.1481 Q181.9844,839.945 182.125,839.8825 Q182.2656,839.82 182.4375,839.82 Q182.7656,839.82 183,840.0856 Q183.25,840.3356 183.25,840.695 Q183.25,841.0388 182.9063,841.445 Q182.4063,842.0388 181.6094,842.3669 Q180.5625,842.82 179.2813,842.82 Q177.7813,842.82 176.5781,842.2263 Q175.6094,841.7575 174.9219,840.7419 Q174.25,839.7263 174.25,838.5231 L174.25,837.4294 Q174.25,836.1794 174.8438,835.0856 Q175.4531,833.9919 176.5,833.4138 Q177.5625,832.82 178.75,832.82 Q179.4688,832.82 180.0938,833.07 Q180.7188,833.32 181.25,833.82 Z " fill="#000000"/><text fill="#000000" font-family="sans-serif" font-size="14" lengthAdjust="spacing" textLength="51" x="199.75" y="843.0485">Member</text><line style="stroke:#181818;stroke-width:0.5;" x1="95" x2="323" y1="853.32" y2="853.32"/><rect fill="none" height="6" style="stroke:#C82930;stroke-width:1.0;" width="6" x="102" y="864.6247"/><text fill="#000000" font-family="sans-serif" font-size="14" lengthAdjust="spacing" textLength="47" x="114" y="871.8532">Long id</text><rect fill="none" height="6" style="stroke:#C82930;stroke-width:1.0;" width="6" x="102" y="882.2341"/><text fill="#000000" font-family="sans-serif" font-size="14" lengthAdjust="spacing" textLength="104" x="114" y="889.4626">String username</text><rect fill="none" height="6" style="stroke:#C82930;stroke-width:1.0;" width="6" x="102" y="899.8434"/><text fill="#000000" font-family="sans-serif" font-size="14" lengthAdjust="spacing" textLength="101" x="114" y="907.072">String password</text><rect fill="none" height="6" style="stroke:#C82930;stroke-width:1.0;" width="6" x="102" y="917.4528"/><text fill="#000000" font-family="sans-serif" font-size="14" lengthAdjust="spacing" textLength="107" x="114" y="924.6813">AuthInfo authInfo</text><rect fill="none" height="6" style="stroke:#C82930;stroke-width:1.0;" width="6" x="102" y="935.0622"/><text fill="#000000" font-family="sans-serif" font-size="14" lengthAdjust="spacing" textLength="101" x="114" y="942.2907">String nickname</text><rect fill="none" height="6" style="stroke:#C82930;stroke-width:1.0;" width="6" x="102" y="952.6716"/><text fill="#000000" font-family="sans-serif" font-size="14" lengthAdjust="spacing" textLength="100" x="114" y="959.9001">String signature</text><rect fill="none" height="6" style="stroke:#C82930;stroke-width:1.0;" width="6" x="102" y="970.2809"/><text fill="#000000" font-family="sans-serif" font-size="14" lengthAdjust="spacing" textLength="57" x="114" y="977.5095">Role role</text><rect fill="none" height="6" style="stroke:#C82930;stroke-width:1.0;" width="6" x="102" y="987.8903"/><text fill="#000000" font-family="sans-serif" font-size="14" lengthAdjust="spacing" textLength="177" x="114" y="995.1188">LocalDateTime createdDate</text><rect fill="none" height="6" style="stroke:#C82930;stroke-width:1.0;" width="6" x="102" y="1005.4997"/><text fill="#000000" font-family="sans-serif" font-size="14" lengthAdjust="spacing" textLength="204" x="114" y="1012.7282">LocalDateTime lastModifiedDate</text><rect fill="none" height="6" style="stroke:#C82930;stroke-width:1.0;" width="6" x="102" y="1023.1091"/><text fill="#000000" font-family="sans-serif" font-size="14" lengthAdjust="spacing" textLength="119" x="114" y="1030.3376">List&lt;Long&gt; postIds</text><rect fill="none" height="6" style="stroke:#C82930;stroke-width:1.0;" width="6" x="102" y="1040.7184"/><text fill="#000000" font-family="sans-serif" font-size="14" lengthAdjust="spacing" textLength="149" x="114" y="1047.947">List&lt;Long&gt; commentIds</text><rect fill="none" height="6" style="stroke:#C82930;stroke-width:1.0;" width="6" x="102" y="1058.3278"/><text fill="#000000" font-family="sans-serif" font-size="14" lengthAdjust="spacing" textLength="111" x="114" y="1065.5563">boolean deleteYn</text><line style="stroke:#181818;stroke-width:0.5;" x1="95" x2="323" y1="1072.6325" y2="1072.6325"/></g><!--class AuthInfo--><g id="elem_AuthInfo"><rect codeLine="73" fill="#F1F1F1" height="153.6563" id="AuthInfo" rx="2.5" ry="2.5" style="stroke:#181818;stroke-width:0.5;" width="257" x="358.5" y="874.15"/><ellipse cx="456.75" cy="890.15" fill="#ADD1B2" rx="11" ry="11" style="stroke:#181818;stroke-width:1.0;"/><path d="M458.75,886.65 Q458.9531,886.15 459.1875,885.9 Q459.4219,885.65 459.6875,885.65 Q460.1563,885.65 460.4531,885.9313 Q460.75,886.2125 460.75,886.8688 L460.75,888.4313 Q460.75,889.0875 460.4688,889.3688 Q460.1875,889.65 459.75,889.65 Q459.3594,889.65 459.1094,889.4781 Q458.8594,889.3063 458.75,888.8531 Q458.7031,888.5406 458.5313,888.3688 Q458.2188,888.0406 457.6563,887.8531 Q457.0938,887.65 456.5313,887.65 Q455.8281,887.65 455.2344,887.9313 Q454.6563,888.2125 454.2031,888.8375 Q453.75,889.4625 453.75,890.3219 L453.75,891.2438 Q453.75,892.275 454.5938,892.9625 Q455.4375,893.65 456.9375,893.65 Q457.8281,893.65 458.4531,893.4469 Q458.8125,893.3375 459.2188,892.9781 Q459.4844,892.775 459.625,892.7125 Q459.7656,892.65 459.9375,892.65 Q460.2656,892.65 460.5,892.9156 Q460.75,893.1656 460.75,893.525 Q460.75,893.8688 460.4063,894.275 Q459.9063,894.8688 459.1094,895.1969 Q458.0625,895.65 456.7813,895.65 Q455.2813,895.65 454.0781,895.0563 Q453.1094,894.5875 452.4219,893.5719 Q451.75,892.5563 451.75,891.3531 L451.75,890.2594 Q451.75,889.0094 452.3438,887.9156 Q452.9531,886.8219 454,886.2438 Q455.0625,885.65 456.25,885.65 Q456.9688,885.65 457.5938,885.9 Q458.2188,886.15 458.75,886.65 Z " fill="#000000"/><text fill="#000000" font-family="sans-serif" font-size="14" lengthAdjust="spacing" textLength="52" x="477.25" y="895.8785">AuthInfo</text><line style="stroke:#181818;stroke-width:0.5;" x1="359.5" x2="614.5" y1="906.15" y2="906.15"/><rect fill="none" height="6" style="stroke:#C82930;stroke-width:1.0;" width="6" x="366.5" y="917.4547"/><text fill="#000000" font-family="sans-serif" font-size="14" lengthAdjust="spacing" textLength="83" x="378.5" y="924.6832">boolean auth</text><rect fill="none" height="6" style="stroke:#C82930;stroke-width:1.0;" width="6" x="366.5" y="935.0641"/><text fill="#000000" font-family="sans-serif" font-size="14" lengthAdjust="spacing" textLength="216" x="378.5" y="942.2926">LocalDateTime authenticatedTime</text><rect fill="none" height="6" style="stroke:#C82930;stroke-width:1.0;" width="6" x="366.5" y="952.6734"/><text fill="#000000" font-family="sans-serif" font-size="14" lengthAdjust="spacing" textLength="143" x="378.5" y="959.902">String emailAuthToken</text><rect fill="none" height="6" style="stroke:#C82930;stroke-width:1.0;" width="6" x="366.5" y="970.2828"/><text fill="#000000" font-family="sans-serif" font-size="14" lengthAdjust="spacing" textLength="231" x="378.5" y="977.5113">LocalDateTime emailAuthExpireTime</text><rect fill="none" height="6" style="stroke:#C82930;stroke-width:1.0;" width="6" x="366.5" y="987.8922"/><text fill="#000000" font-family="sans-serif" font-size="14" lengthAdjust="spacing" textLength="131" x="378.5" y="995.1207">String oAuthProvider</text><rect fill="none" height="6" style="stroke:#C82930;stroke-width:1.0;" width="6" x="366.5" y="1005.5016"/><text fill="#000000" font-family="sans-serif" font-size="14" lengthAdjust="spacing" textLength="142" x="378.5" y="1012.7301">String oAuthProviderId</text><line style="stroke:#181818;stroke-width:0.5;" x1="359.5" x2="614.5" y1="1019.8063" y2="1019.8063"/></g><!--class BaseTypeHandler--><g id="elem_BaseTypeHandler"><rect fill="#F1F1F1" height="48" id="BaseTypeHandler" rx="2.5" ry="2.5" style="stroke:#181818;stroke-width:0.5;" width="145" x="896.5" y="174"/><ellipse cx="911.5" cy="190" fill="#ADD1B2" rx="11" ry="11" style="stroke:#181818;stroke-width:1.0;"/><path d="M913.5,186.5 Q913.7031,186 913.9375,185.75 Q914.1719,185.5 914.4375,185.5 Q914.9063,185.5 915.2031,185.7813 Q915.5,186.0625 915.5,186.7188 L915.5,188.2813 Q915.5,188.9375 915.2188,189.2188 Q914.9375,189.5 914.5,189.5 Q914.1094,189.5 913.8594,189.3281 Q913.6094,189.1563 913.5,188.7031 Q913.4531,188.3906 913.2813,188.2188 Q912.9688,187.8906 912.4063,187.7031 Q911.8438,187.5 911.2813,187.5 Q910.5781,187.5 909.9844,187.7813 Q909.4063,188.0625 908.9531,188.6875 Q908.5,189.3125 908.5,190.1719 L908.5,191.0938 Q908.5,192.125 909.3438,192.8125 Q910.1875,193.5 911.6875,193.5 Q912.5781,193.5 913.2031,193.2969 Q913.5625,193.1875 913.9688,192.8281 Q914.2344,192.625 914.375,192.5625 Q914.5156,192.5 914.6875,192.5 Q915.0156,192.5 915.25,192.7656 Q915.5,193.0156 915.5,193.375 Q915.5,193.7188 915.1563,194.125 Q914.6563,194.7188 913.8594,195.0469 Q912.8125,195.5 911.5313,195.5 Q910.0313,195.5 908.8281,194.9063 Q907.8594,194.4375 907.1719,193.4219 Q906.5,192.4063 906.5,191.2031 L906.5,190.1094 Q906.5,188.8594 907.0938,187.7656 Q907.7031,186.6719 908.75,186.0938 Q909.8125,185.5 911,185.5 Q911.7188,185.5 912.3438,185.75 Q912.9688,186 913.5,186.5 Z " fill="#000000"/><text fill="#000000" font-family="sans-serif" font-size="14" lengthAdjust="spacing" textLength="113" x="925.5" y="195.7285">BaseTypeHandler</text><line style="stroke:#181818;stroke-width:0.5;" x1="897.5" x2="1040.5" y1="206" y2="206"/><line style="stroke:#181818;stroke-width:0.5;" x1="897.5" x2="1040.5" y1="214" y2="214"/></g><!--reverse link UploadFile to Attachment--><g id="link_UploadFile_Attachment"><path codeLine="84" d="M1328,729.98 C1328,786.31 1328,854.84 1328,900.29 " fill="none" id="UploadFile-backto-Attachment" style="stroke:#181818;stroke-width:1.0;"/><polygon fill="none" points="1321,730.18,1328,710.18,1335,730.18,1321,730.18" style="stroke:#181818;stroke-width:1.0;"/></g><!--reverse link BaseTypeHandler to EnumTypeHandler--><g id="link_BaseTypeHandler_EnumTypeHandler"><path codeLine="85" d="M969,243.71 C969,317.18 969,464.25 969,554.41 " fill="none" id="BaseTypeHandler-backto-EnumTypeHandler" style="stroke:#181818;stroke-width:1.0;"/><polygon fill="none" points="962,243.73,969,223.73,976,243.73,962,243.73" style="stroke:#181818;stroke-width:1.0;"/></g><!--SRC=[hLJDZjem4BxdANnaLSWJe9KecwfK1I5W3prEx07STUp8da3RRNdsZiD2e9GVqPxY-MRco_oZhGeXNP6Mtdr5IIcOEQHeIPF6a4wSGV6Ql1EYzpGSZEBZUPfDaewOajTs8LPWAan-9Oaq4C85fh4Bn4mTyTcncrQxrzfhGZzG3QNLyiL2WGt25EP0bCuIypAWBOcLndNVLRMSEuuNhB2EjCGljlw91FC4X3DTe90U-QcYVABZ16Zeb9xhna07wiOm7sDc1VzqeC8n3aGWburg5u92WnH3kA4slJt7tofKSkMuFfkxg3Fkx-nxYH_1AeE-vkz7dsxsA8WLtDALqqe4f96peygOCNYkFZUbDVPOWaSr9Iv73A_D1MzdxKygbv7qWPqpiM1FTeFSu0H3PQYr_KoHsjkENRTZtdD6VTYAHq4yS1grSSolLGDSZ0JoG1uaYMjbUIwD0_L1rzEzsGsMytgXBPY8rnEurmHo7Y_0Ow0bmtM_vYnFzG-ivNF3jxasV3VqjhyToIjRTJX35tQiMQf_sfXxPdI8HVuscaqQRs5L0Vrne2MJhPsFDhsAbWCxTmBU7fSI37fXWIeVeVgiUMVmFnw8ROd3XQjnrsdOfVXwG13JFOakWj5DnlWZqgIE1MWJcMRk1K-FubwTVIkrnsDV5nLZxrPQeJy3ysJ5xKjkshVkpqxdfbkOEBz8eMG9Kvq3wP36WvM-Xu279-qAuHyNy3S0]--></g></svg>