<?xml version="1.0" encoding="us-ascii" standalone="no"?><svg xmlns="http://www.w3.org/2000/svg" xmlns:xlink="http://www.w3.org/1999/xlink" contentStyleType="text/css" height="988px" preserveAspectRatio="none" style="width:1940px;height:988px;background:#FFFFFF;" version="1.1" viewBox="0 0 1940 988" width="1940px" zoomAndPan="magnify"><defs/><g><!--cluster com--><g id="cluster_com"><path d="M8.5,6 L38.5,6 A3.75,3.75 0 0 1 41,8.5 L48,29.6094 L1930.5,29.6094 A2.5,2.5 0 0 1 1933,32.1094 L1933,978.91 A2.5,2.5 0 0 1 1930.5,981.41 L8.5,981.41 A2.5,2.5 0 0 1 6,978.91 L6,8.5 A2.5,2.5 0 0 1 8.5,6 " fill="none" style="stroke:#000000;stroke-width:1.5;"/><line style="stroke:#000000;stroke-width:1.5;" x1="6" x2="48" y1="29.6094" y2="29.6094"/><text fill="#000000" font-family="sans-serif" font-size="14" font-weight="bold" lengthAdjust="spacing" textLength="29" x="10" y="22.5332">com</text></g><!--cluster project--><g id="cluster_project"><path d="M32.5,50 L83.5,50 A3.75,3.75 0 0 1 86,52.5 L93,73.6094 L1906.5,73.6094 A2.5,2.5 0 0 1 1909,76.1094 L1909,954.91 A2.5,2.5 0 0 1 1906.5,957.41 L32.5,957.41 A2.5,2.5 0 0 1 30,954.91 L30,52.5 A2.5,2.5 0 0 1 32.5,50 " fill="none" style="stroke:#000000;stroke-width:1.5;"/><line style="stroke:#000000;stroke-width:1.5;" x1="30" x2="93" y1="73.6094" y2="73.6094"/><text fill="#000000" font-family="sans-serif" font-size="14" font-weight="bold" lengthAdjust="spacing" textLength="50" x="34" y="66.5332">project</text></g><!--cluster alfa--><g id="cluster_alfa"><path d="M56.5,94 L82.5,94 A3.75,3.75 0 0 1 85,96.5 L92,117.6094 L1882.5,117.6094 A2.5,2.5 0 0 1 1885,120.1094 L1885,930.91 A2.5,2.5 0 0 1 1882.5,933.41 L56.5,933.41 A2.5,2.5 0 0 1 54,930.91 L54,96.5 A2.5,2.5 0 0 1 56.5,94 " fill="none" style="stroke:#000000;stroke-width:1.5;"/><line style="stroke:#000000;stroke-width:1.5;" x1="54" x2="92" y1="117.6094" y2="117.6094"/><text fill="#000000" font-family="sans-serif" font-size="14" font-weight="bold" lengthAdjust="spacing" textLength="25" x="58" y="110.5332">alfa</text></g><!--cluster error--><g id="cluster_error"><path d="M80.5,138 L117.5,138 A3.75,3.75 0 0 1 120,140.5 L127,161.6094 L1858.5,161.6094 A2.5,2.5 0 0 1 1861,164.1094 L1861,906.91 A2.5,2.5 0 0 1 1858.5,909.41 L80.5,909.41 A2.5,2.5 0 0 1 78,906.91 L78,140.5 A2.5,2.5 0 0 1 80.5,138 " fill="none" style="stroke:#000000;stroke-width:1.5;"/><line style="stroke:#000000;stroke-width:1.5;" x1="78" x2="127" y1="161.6094" y2="161.6094"/><text fill="#000000" font-family="sans-serif" font-size="14" font-weight="bold" lengthAdjust="spacing" textLength="36" x="82" y="154.5332">error</text></g><!--cluster exception--><g id="cluster_exception"><path d="M104.5,182 L175.5,182 A3.75,3.75 0 0 1 178,184.5 L185,205.6094 L540.5,205.6094 A2.5,2.5 0 0 1 543,208.1094 L543,882.91 A2.5,2.5 0 0 1 540.5,885.41 L104.5,885.41 A2.5,2.5 0 0 1 102,882.91 L102,184.5 A2.5,2.5 0 0 1 104.5,182 " fill="none" style="stroke:#000000;stroke-width:1.5;"/><line style="stroke:#000000;stroke-width:1.5;" x1="102" x2="185" y1="205.6094" y2="205.6094"/><text fill="#000000" font-family="sans-serif" font-size="14" font-weight="bold" lengthAdjust="spacing" textLength="70" x="106" y="198.5332">exception</text></g><!--class GlobalExceptionHandler--><g id="elem_GlobalExceptionHandler"><rect codeLine="27" fill="#F1F1F1" height="171.2656" id="GlobalExceptionHandler" rx="2.5" ry="2.5" style="stroke:#181818;stroke-width:0.5;" width="840" x="562" y="306.05"/><ellipse cx="902.25" cy="322.05" fill="#ADD1B2" rx="11" ry="11" style="stroke:#181818;stroke-width:1.0;"/><path d="M904.25,318.55 Q904.4531,318.05 904.6875,317.8 Q904.9219,317.55 905.1875,317.55 Q905.6563,317.55 905.9531,317.8312 Q906.25,318.1125 906.25,318.7687 L906.25,320.3312 Q906.25,320.9875 905.9688,321.2687 Q905.6875,321.55 905.25,321.55 Q904.8594,321.55 904.6094,321.3781 Q904.3594,321.2062 904.25,320.7531 Q904.2031,320.4406 904.0313,320.2687 Q903.7188,319.9406 903.1563,319.7531 Q902.5938,319.55 902.0313,319.55 Q901.3281,319.55 900.7344,319.8312 Q900.1563,320.1125 899.7031,320.7375 Q899.25,321.3625 899.25,322.2219 L899.25,323.1437 Q899.25,324.175 900.0938,324.8625 Q900.9375,325.55 902.4375,325.55 Q903.3281,325.55 903.9531,325.3469 Q904.3125,325.2375 904.7188,324.8781 Q904.9844,324.675 905.125,324.6125 Q905.2656,324.55 905.4375,324.55 Q905.7656,324.55 906,324.8156 Q906.25,325.0656 906.25,325.425 Q906.25,325.7687 905.9063,326.175 Q905.4063,326.7687 904.6094,327.0969 Q903.5625,327.55 902.2813,327.55 Q900.7813,327.55 899.5781,326.9562 Q898.6094,326.4875 897.9219,325.4719 Q897.25,324.4562 897.25,323.2531 L897.25,322.1594 Q897.25,320.9094 897.8438,319.8156 Q898.4531,318.7219 899.5,318.1437 Q900.5625,317.55 901.75,317.55 Q902.4688,317.55 903.0938,317.8 Q903.7188,318.05 904.25,318.55 Z " fill="#000000"/><text fill="#000000" font-family="sans-serif" font-size="14" lengthAdjust="spacing" textLength="151" x="922.75" y="327.7785">GlobalExceptionHandler</text><line style="stroke:#181818;stroke-width:0.5;" x1="563" x2="1401" y1="338.05" y2="338.05"/><line style="stroke:#181818;stroke-width:0.5;" x1="563" x2="1401" y1="346.05" y2="346.05"/><polygon fill="#FFFF44" points="573,355.3547,577,359.3547,573,363.3547,569,359.3547" style="stroke:#B38D22;stroke-width:1.0;"/><text fill="#000000" font-family="sans-serif" font-size="14" lengthAdjust="spacing" textLength="710" x="582" y="364.5832">ResponseEntity&lt;ErrorResponse&gt; handleMethodArgumentNotValidException(MethodArgumentNotValidException)</text><polygon fill="#FFFF44" points="573,372.9641,577,376.9641,573,380.9641,569,376.9641" style="stroke:#B38D22;stroke-width:1.0;"/><text fill="#000000" font-family="sans-serif" font-size="14" lengthAdjust="spacing" textLength="446" x="582" y="382.1926">ResponseEntity&lt;ErrorResponse&gt; handleBindException(BindException)</text><polygon fill="#FFFF44" points="573,390.5734,577,394.5734,573,398.5734,569,394.5734" style="stroke:#B38D22;stroke-width:1.0;"/><text fill="#000000" font-family="sans-serif" font-size="14" lengthAdjust="spacing" textLength="788" x="582" y="399.802">ResponseEntity&lt;ErrorResponse&gt; handleMethodArgumentTypeMismatchException(MethodArgumentTypeMismatchException)</text><polygon fill="#FFFF44" points="573,408.1828,577,412.1828,573,416.1828,569,412.1828" style="stroke:#B38D22;stroke-width:1.0;"/><text fill="#000000" font-family="sans-serif" font-size="14" lengthAdjust="spacing" textLength="814" x="582" y="417.4113">ResponseEntity&lt;ErrorResponse&gt; handleHttpRequestMethodNotSupportedException(HttpRequestMethodNotSupportedException)</text><polygon fill="#FFFF44" points="573,425.7922,577,429.7922,573,433.7922,569,429.7922" style="stroke:#B38D22;stroke-width:1.0;"/><text fill="#000000" font-family="sans-serif" font-size="14" lengthAdjust="spacing" textLength="570" x="582" y="435.0207">ResponseEntity&lt;ErrorResponse&gt; handleAccessDeniedException(AccessDeniedException)</text><polygon fill="#FFFF44" points="573,443.4016,577,447.4016,573,451.4016,569,447.4016" style="stroke:#B38D22;stroke-width:1.0;"/><text fill="#000000" font-family="sans-serif" font-size="14" lengthAdjust="spacing" textLength="504" x="582" y="452.6301">ResponseEntity&lt;ErrorResponse&gt; handleBusinessException(BusinessException)</text><polygon fill="#FFFF44" points="573,461.0109,577,465.0109,573,469.0109,569,465.0109" style="stroke:#B38D22;stroke-width:1.0;"/><text fill="#000000" font-family="sans-serif" font-size="14" lengthAdjust="spacing" textLength="390" x="582" y="470.2395">ResponseEntity&lt;ErrorResponse&gt; handleException(Exception)</text></g><!--class ErrorResponse--><g id="elem_ErrorResponse"><rect codeLine="37" fill="#F1F1F1" height="188.875" id="ErrorResponse" rx="2.5" ry="2.5" style="stroke:#181818;stroke-width:0.5;" width="408" x="1437" y="297.25"/><ellipse cx="1588.75" cy="313.25" fill="#ADD1B2" rx="11" ry="11" style="stroke:#181818;stroke-width:1.0;"/><path d="M1590.75,309.75 Q1590.9531,309.25 1591.1875,309 Q1591.4219,308.75 1591.6875,308.75 Q1592.1563,308.75 1592.4531,309.0313 Q1592.75,309.3125 1592.75,309.9688 L1592.75,311.5313 Q1592.75,312.1875 1592.4688,312.4688 Q1592.1875,312.75 1591.75,312.75 Q1591.3594,312.75 1591.1094,312.5781 Q1590.8594,312.4063 1590.75,311.9531 Q1590.7031,311.6406 1590.5313,311.4688 Q1590.2188,311.1406 1589.6563,310.9531 Q1589.0938,310.75 1588.5313,310.75 Q1587.8281,310.75 1587.2344,311.0313 Q1586.6563,311.3125 1586.2031,311.9375 Q1585.75,312.5625 1585.75,313.4219 L1585.75,314.3438 Q1585.75,315.375 1586.5938,316.0625 Q1587.4375,316.75 1588.9375,316.75 Q1589.8281,316.75 1590.4531,316.5469 Q1590.8125,316.4375 1591.2188,316.0781 Q1591.4844,315.875 1591.625,315.8125 Q1591.7656,315.75 1591.9375,315.75 Q1592.2656,315.75 1592.5,316.0156 Q1592.75,316.2656 1592.75,316.625 Q1592.75,316.9688 1592.4063,317.375 Q1591.9063,317.9688 1591.1094,318.2969 Q1590.0625,318.75 1588.7813,318.75 Q1587.2813,318.75 1586.0781,318.1563 Q1585.1094,317.6875 1584.4219,316.6719 Q1583.75,315.6563 1583.75,314.4531 L1583.75,313.3594 Q1583.75,312.1094 1584.3438,311.0156 Q1584.9531,309.9219 1586,309.3438 Q1587.0625,308.75 1588.25,308.75 Q1588.9688,308.75 1589.5938,309 Q1590.2188,309.25 1590.75,309.75 Z " fill="#000000"/><text fill="#000000" font-family="sans-serif" font-size="14" lengthAdjust="spacing" textLength="96" x="1609.25" y="318.9785">ErrorResponse</text><line style="stroke:#181818;stroke-width:0.5;" x1="1438" x2="1844" y1="329.25" y2="329.25"/><rect fill="none" height="6" style="stroke:#C82930;stroke-width:1.0;" width="6" x="1445" y="340.5547"/><text fill="#000000" font-family="sans-serif" font-size="14" lengthAdjust="spacing" textLength="57" x="1457" y="347.7832">int status</text><rect fill="none" height="6" style="stroke:#C82930;stroke-width:1.0;" width="6" x="1445" y="358.1641"/><text fill="#000000" font-family="sans-serif" font-size="14" lengthAdjust="spacing" textLength="72" x="1457" y="365.3926">String code</text><rect fill="none" height="6" style="stroke:#C82930;stroke-width:1.0;" width="6" x="1445" y="375.7734"/><text fill="#000000" font-family="sans-serif" font-size="14" lengthAdjust="spacing" textLength="98" x="1457" y="383.002">String message</text><rect fill="none" height="6" style="stroke:#C82930;stroke-width:1.0;" width="6" x="1445" y="393.3828"/><text fill="#000000" font-family="sans-serif" font-size="14" lengthAdjust="spacing" textLength="143" x="1457" y="400.6113">List&lt;FieldError&gt; errors</text><line style="stroke:#181818;stroke-width:0.5;" x1="1438" x2="1844" y1="407.6875" y2="407.6875"/><ellipse cx="1448" cy="421.9922" fill="#84BE84" rx="3" ry="3" style="stroke:#038048;stroke-width:1.0;"/><text fill="#000000" font-family="sans-serif" font-size="14" lengthAdjust="spacing" text-decoration="underline" textLength="188" x="1457" y="426.2207">ErrorResponse of(ErrorCode)</text><ellipse cx="1448" cy="439.6016" fill="#84BE84" rx="3" ry="3" style="stroke:#038048;stroke-width:1.0;"/><text fill="#000000" font-family="sans-serif" font-size="14" lengthAdjust="spacing" text-decoration="underline" textLength="293" x="1457" y="443.8301">ErrorResponse of(ErrorCode,List&lt;FieldError&gt;)</text><ellipse cx="1448" cy="457.2109" fill="#84BE84" rx="3" ry="3" style="stroke:#038048;stroke-width:1.0;"/><text fill="#000000" font-family="sans-serif" font-size="14" lengthAdjust="spacing" text-decoration="underline" textLength="279" x="1457" y="461.4395">ErrorResponse of(ErrorCode,BindingResult)</text><ellipse cx="1448" cy="474.8203" fill="#84BE84" rx="3" ry="3" style="stroke:#038048;stroke-width:1.0;"/><text fill="#000000" font-family="sans-serif" font-size="14" lengthAdjust="spacing" text-decoration="underline" textLength="382" x="1457" y="479.0488">ErrorResponse of(MethodArgumentTypeMismatchException)</text></g><!--class ErrorResponse$FieldError--><g id="elem_ErrorResponse$FieldError"><rect codeLine="49" fill="#F1F1F1" height="136.0469" id="ErrorResponse$FieldError" rx="2.5" ry="2.5" style="stroke:#181818;stroke-width:0.5;" width="272" x="1505" y="625.36"/><ellipse cx="1553.25" cy="641.36" fill="#ADD1B2" rx="11" ry="11" style="stroke:#181818;stroke-width:1.0;"/><path d="M1555.25,637.86 Q1555.4531,637.36 1555.6875,637.11 Q1555.9219,636.86 1556.1875,636.86 Q1556.6563,636.86 1556.9531,637.1413 Q1557.25,637.4225 1557.25,638.0788 L1557.25,639.6413 Q1557.25,640.2975 1556.9688,640.5788 Q1556.6875,640.86 1556.25,640.86 Q1555.8594,640.86 1555.6094,640.6881 Q1555.3594,640.5163 1555.25,640.0631 Q1555.2031,639.7506 1555.0313,639.5788 Q1554.7188,639.2506 1554.1563,639.0631 Q1553.5938,638.86 1553.0313,638.86 Q1552.3281,638.86 1551.7344,639.1413 Q1551.1563,639.4225 1550.7031,640.0475 Q1550.25,640.6725 1550.25,641.5319 L1550.25,642.4538 Q1550.25,643.485 1551.0938,644.1725 Q1551.9375,644.86 1553.4375,644.86 Q1554.3281,644.86 1554.9531,644.6569 Q1555.3125,644.5475 1555.7188,644.1881 Q1555.9844,643.985 1556.125,643.9225 Q1556.2656,643.86 1556.4375,643.86 Q1556.7656,643.86 1557,644.1256 Q1557.25,644.3756 1557.25,644.735 Q1557.25,645.0788 1556.9063,645.485 Q1556.4063,646.0788 1555.6094,646.4069 Q1554.5625,646.86 1553.2813,646.86 Q1551.7813,646.86 1550.5781,646.2663 Q1549.6094,645.7975 1548.9219,644.7819 Q1548.25,643.7663 1548.25,642.5631 L1548.25,641.4694 Q1548.25,640.2194 1548.8438,639.1256 Q1549.4531,638.0319 1550.5,637.4538 Q1551.5625,636.86 1552.75,636.86 Q1553.4688,636.86 1554.0938,637.11 Q1554.7188,637.36 1555.25,637.86 Z " fill="#000000"/><text fill="#000000" font-family="sans-serif" font-size="14" lengthAdjust="spacing" textLength="167" x="1573.75" y="647.0885">ErrorResponse$FieldError</text><line style="stroke:#181818;stroke-width:0.5;" x1="1506" x2="1776" y1="657.36" y2="657.36"/><rect fill="none" height="6" style="stroke:#C82930;stroke-width:1.0;" width="6" x="1513" y="668.6647"/><text fill="#000000" font-family="sans-serif" font-size="14" lengthAdjust="spacing" textLength="67" x="1525" y="675.8932">String field</text><rect fill="none" height="6" style="stroke:#C82930;stroke-width:1.0;" width="6" x="1513" y="686.2741"/><text fill="#000000" font-family="sans-serif" font-size="14" lengthAdjust="spacing" textLength="75" x="1525" y="693.5026">String value</text><rect fill="none" height="6" style="stroke:#C82930;stroke-width:1.0;" width="6" x="1513" y="703.8834"/><text fill="#000000" font-family="sans-serif" font-size="14" lengthAdjust="spacing" textLength="85" x="1525" y="711.112">String reason</text><line style="stroke:#181818;stroke-width:0.5;" x1="1506" x2="1776" y1="718.1881" y2="718.1881"/><ellipse cx="1516" cy="732.4928" fill="#84BE84" rx="3" ry="3" style="stroke:#038048;stroke-width:1.0;"/><text fill="#000000" font-family="sans-serif" font-size="14" lengthAdjust="spacing" text-decoration="underline" textLength="246" x="1525" y="736.7213">List&lt;FieldError&gt; of(String,String,String)</text><ellipse cx="1516" cy="750.1022" fill="#84BE84" rx="3" ry="3" style="stroke:#038048;stroke-width:1.0;"/><text fill="#000000" font-family="sans-serif" font-size="14" lengthAdjust="spacing" text-decoration="underline" textLength="214" x="1525" y="754.3307">List&lt;FieldError&gt; of(BindingResult)</text></g><!--class InvalidValueException--><g id="elem_InvalidValueException"><rect codeLine="1" fill="#F1F1F1" height="48" id="InvalidValueException" rx="2.5" ry="2.5" style="stroke:#181818;stroke-width:0.5;" width="169" x="133.5" y="821.41"/><ellipse cx="148.5" cy="837.41" fill="#ADD1B2" rx="11" ry="11" style="stroke:#181818;stroke-width:1.0;"/><path d="M150.5,833.91 Q150.7031,833.41 150.9375,833.16 Q151.1719,832.91 151.4375,832.91 Q151.9063,832.91 152.2031,833.1913 Q152.5,833.4725 152.5,834.1288 L152.5,835.6913 Q152.5,836.3475 152.2188,836.6288 Q151.9375,836.91 151.5,836.91 Q151.1094,836.91 150.8594,836.7381 Q150.6094,836.5663 150.5,836.1131 Q150.4531,835.8006 150.2813,835.6288 Q149.9688,835.3006 149.4063,835.1131 Q148.8438,834.91 148.2813,834.91 Q147.5781,834.91 146.9844,835.1913 Q146.4063,835.4725 145.9531,836.0975 Q145.5,836.7225 145.5,837.5819 L145.5,838.5038 Q145.5,839.535 146.3438,840.2225 Q147.1875,840.91 148.6875,840.91 Q149.5781,840.91 150.2031,840.7069 Q150.5625,840.5975 150.9688,840.2381 Q151.2344,840.035 151.375,839.9725 Q151.5156,839.91 151.6875,839.91 Q152.0156,839.91 152.25,840.1756 Q152.5,840.4256 152.5,840.785 Q152.5,841.1288 152.1563,841.535 Q151.6563,842.1288 150.8594,842.4569 Q149.8125,842.91 148.5313,842.91 Q147.0313,842.91 145.8281,842.3163 Q144.8594,841.8475 144.1719,840.8319 Q143.5,839.8163 143.5,838.6131 L143.5,837.5194 Q143.5,836.2694 144.0938,835.1756 Q144.7031,834.0819 145.75,833.5038 Q146.8125,832.91 148,832.91 Q148.7188,832.91 149.3438,833.16 Q149.9688,833.41 150.5,833.91 Z " fill="#000000"/><text fill="#000000" font-family="sans-serif" font-size="14" lengthAdjust="spacing" textLength="137" x="162.5" y="843.1385">InvalidValueException</text><line style="stroke:#181818;stroke-width:0.5;" x1="134.5" x2="301.5" y1="853.41" y2="853.41"/><line style="stroke:#181818;stroke-width:0.5;" x1="134.5" x2="301.5" y1="861.41" y2="861.41"/></g><!--class BusinessException--><g id="elem_BusinessException"><rect codeLine="3" fill="#F1F1F1" height="65.6094" id="BusinessException" rx="2.5" ry="2.5" style="stroke:#181818;stroke-width:0.5;" width="161" x="351.5" y="660.58"/><ellipse cx="371.45" cy="676.58" fill="#ADD1B2" rx="11" ry="11" style="stroke:#181818;stroke-width:1.0;"/><path d="M373.45,673.08 Q373.6531,672.58 373.8875,672.33 Q374.1219,672.08 374.3875,672.08 Q374.8563,672.08 375.1531,672.3613 Q375.45,672.6425 375.45,673.2988 L375.45,674.8613 Q375.45,675.5175 375.1688,675.7988 Q374.8875,676.08 374.45,676.08 Q374.0594,676.08 373.8094,675.9081 Q373.5594,675.7363 373.45,675.2831 Q373.4031,674.9706 373.2313,674.7988 Q372.9188,674.4706 372.3563,674.2831 Q371.7938,674.08 371.2313,674.08 Q370.5281,674.08 369.9344,674.3613 Q369.3563,674.6425 368.9031,675.2675 Q368.45,675.8925 368.45,676.7519 L368.45,677.6738 Q368.45,678.705 369.2938,679.3925 Q370.1375,680.08 371.6375,680.08 Q372.5281,680.08 373.1531,679.8769 Q373.5125,679.7675 373.9188,679.4081 Q374.1844,679.205 374.325,679.1425 Q374.4656,679.08 374.6375,679.08 Q374.9656,679.08 375.2,679.3456 Q375.45,679.5956 375.45,679.955 Q375.45,680.2988 375.1063,680.705 Q374.6063,681.2988 373.8094,681.6269 Q372.7625,682.08 371.4813,682.08 Q369.9813,682.08 368.7781,681.4863 Q367.8094,681.0175 367.1219,680.0019 Q366.45,678.9863 366.45,677.7831 L366.45,676.6894 Q366.45,675.4394 367.0438,674.3456 Q367.6531,673.2519 368.7,672.6738 Q369.7625,672.08 370.95,672.08 Q371.6688,672.08 372.2938,672.33 Q372.9188,672.58 373.45,673.08 Z " fill="#000000"/><text fill="#000000" font-family="sans-serif" font-size="14" lengthAdjust="spacing" textLength="118" x="386.55" y="682.3085">BusinessException</text><line style="stroke:#181818;stroke-width:0.5;" x1="352.5" x2="511.5" y1="692.58" y2="692.58"/><rect fill="none" height="6" style="stroke:#C82930;stroke-width:1.0;" width="6" x="359.5" y="703.8847"/><text fill="#000000" font-family="sans-serif" font-size="14" lengthAdjust="spacing" textLength="135" x="371.5" y="711.1132">ErrorCode errorCode</text><line style="stroke:#181818;stroke-width:0.5;" x1="352.5" x2="511.5" y1="718.1894" y2="718.1894"/></g><!--class ErrorCode--><g id="elem_ErrorCode"><rect codeLine="7" fill="#F1F1F1" height="347.3594" id="ErrorCode" rx="2.5" ry="2.5" style="stroke:#181818;stroke-width:0.5;" width="228" x="118" y="218"/><ellipse cx="194.75" cy="234" fill="#EB937F" rx="11" ry="11" style="stroke:#181818;stroke-width:1.0;"/><path d="M193.25,235 L193.25,237 L197.25,237 L197.25,236 L197.25,235.5156 L197.875,235 L198.25,235 L198.625,235 L199.25,235.5156 L199.25,236 L199.25,239 L191.25,239 L190.7656,239 L190.25,238.375 L190.25,238 L190.25,237.625 L190.7656,237 L191.25,237 L191.25,237 L191.25,231 L191.25,231 L190.7656,231 L190.25,230.375 L190.25,230 L190.25,229.625 L190.7656,229 L191.25,229 L199.25,229 L199.25,232 L199.25,232.4844 L198.625,233 L198.25,233 L197.875,233 L197.25,232.4844 L197.25,232 L197.25,231 L193.25,231 L193.25,233 L194.25,233 L194.25,232.5156 L194.25,232.5156 L194.875,232 L195.25,232 L195.625,232 L196.25,232.5156 L196.25,233 L196.25,235 L196.25,235.4844 L195.625,236 L195.625,236 L195.25,236 L194.875,236 L194.25,235.4844 L194.25,235.4844 L194.25,235 L193.25,235 Z " fill="#000000"/><text fill="#000000" font-family="sans-serif" font-size="14" lengthAdjust="spacing" textLength="66" x="215.25" y="239.7285">ErrorCode</text><line style="stroke:#181818;stroke-width:0.5;" x1="119" x2="345" y1="250" y2="250"/><ellipse cx="129" cy="264.3047" fill="none" rx="3" ry="3" style="stroke:#038048;stroke-width:1.0;"/><text fill="#000000" font-family="sans-serif" font-size="14" lengthAdjust="spacing" textLength="150" x="138" y="268.5332">INVALID_INPUT_VALUE</text><ellipse cx="129" cy="281.9141" fill="none" rx="3" ry="3" style="stroke:#038048;stroke-width:1.0;"/><text fill="#000000" font-family="sans-serif" font-size="14" lengthAdjust="spacing" textLength="172" x="138" y="286.1426">METHOD_NOT_ALLOWED</text><ellipse cx="129" cy="299.5234" fill="none" rx="3" ry="3" style="stroke:#038048;stroke-width:1.0;"/><text fill="#000000" font-family="sans-serif" font-size="14" lengthAdjust="spacing" textLength="141" x="138" y="303.752">ENTITY_NOT_FOUND</text><ellipse cx="129" cy="317.1328" fill="none" rx="3" ry="3" style="stroke:#038048;stroke-width:1.0;"/><text fill="#000000" font-family="sans-serif" font-size="14" lengthAdjust="spacing" textLength="188" x="138" y="321.3613">INTERNAL_SERVER_ERROR</text><ellipse cx="129" cy="334.7422" fill="none" rx="3" ry="3" style="stroke:#038048;stroke-width:1.0;"/><text fill="#000000" font-family="sans-serif" font-size="14" lengthAdjust="spacing" textLength="147" x="138" y="338.9707">INVALID_TYPE_VALUE</text><ellipse cx="129" cy="352.3516" fill="none" rx="3" ry="3" style="stroke:#038048;stroke-width:1.0;"/><text fill="#000000" font-family="sans-serif" font-size="14" lengthAdjust="spacing" textLength="176" x="138" y="356.5801">HANDLE_ACCESS_DENIED</text><ellipse cx="129" cy="369.9609" fill="none" rx="3" ry="3" style="stroke:#038048;stroke-width:1.0;"/><text fill="#000000" font-family="sans-serif" font-size="14" lengthAdjust="spacing" textLength="173" x="138" y="374.1895">USERNAME_DUPLICATION</text><ellipse cx="129" cy="387.5703" fill="none" rx="3" ry="3" style="stroke:#038048;stroke-width:1.0;"/><text fill="#000000" font-family="sans-serif" font-size="14" lengthAdjust="spacing" textLength="167" x="138" y="391.7988">NICKNAME_DUPLICATION</text><ellipse cx="129" cy="405.1797" fill="none" rx="3" ry="3" style="stroke:#038048;stroke-width:1.0;"/><text fill="#000000" font-family="sans-serif" font-size="14" lengthAdjust="spacing" textLength="167" x="138" y="409.4082">AUTH_NOT_COMPLETED</text><ellipse cx="129" cy="422.7891" fill="none" rx="3" ry="3" style="stroke:#038048;stroke-width:1.0;"/><text fill="#000000" font-family="sans-serif" font-size="14" lengthAdjust="spacing" textLength="202" x="138" y="427.0176">PASSWORD_DO_NOT_MATCH</text><ellipse cx="129" cy="440.3984" fill="none" rx="3" ry="3" style="stroke:#038048;stroke-width:1.0;"/><text fill="#000000" font-family="sans-serif" font-size="14" lengthAdjust="spacing" textLength="105" x="138" y="444.627">UNAUTHORIZED</text><ellipse cx="129" cy="458.0078" fill="none" rx="3" ry="3" style="stroke:#038048;stroke-width:1.0;"/><text fill="#000000" font-family="sans-serif" font-size="14" lengthAdjust="spacing" textLength="165" x="138" y="462.2363">NOT_WRITER_OF_POST</text><ellipse cx="129" cy="475.6172" fill="none" rx="3" ry="3" style="stroke:#038048;stroke-width:1.0;"/><text fill="#000000" font-family="sans-serif" font-size="14" lengthAdjust="spacing" textLength="197" x="138" y="479.8457">NOT_WRITER_OF_COMMENT</text><ellipse cx="129" cy="493.2266" fill="none" rx="3" ry="3" style="stroke:#038048;stroke-width:1.0;"/><text fill="#000000" font-family="sans-serif" font-size="14" lengthAdjust="spacing" textLength="181" x="138" y="497.4551">NOT_COMMENT_ON_POST</text><rect fill="none" height="6" style="stroke:#C82930;stroke-width:1.0;" width="6" x="126" y="507.8359"/><text fill="#000000" font-family="sans-serif" font-size="14" lengthAdjust="spacing" textLength="57" x="138" y="515.0645">int status</text><rect fill="none" height="6" style="stroke:#C82930;stroke-width:1.0;" width="6" x="126" y="525.4453"/><text fill="#000000" font-family="sans-serif" font-size="14" lengthAdjust="spacing" textLength="72" x="138" y="532.6738">String code</text><rect fill="none" height="6" style="stroke:#C82930;stroke-width:1.0;" width="6" x="126" y="543.0547"/><text fill="#000000" font-family="sans-serif" font-size="14" lengthAdjust="spacing" textLength="98" x="138" y="550.2832">String message</text><line style="stroke:#181818;stroke-width:0.5;" x1="119" x2="345" y1="557.3594" y2="557.3594"/></g><!--class EntityNotFoundException--><g id="elem_EntityNotFoundException"><rect codeLine="58" fill="#F1F1F1" height="48" id="EntityNotFoundException" rx="2.5" ry="2.5" style="stroke:#181818;stroke-width:0.5;" width="190" x="337" y="821.41"/><ellipse cx="352" cy="837.41" fill="#ADD1B2" rx="11" ry="11" style="stroke:#181818;stroke-width:1.0;"/><path d="M354,833.91 Q354.2031,833.41 354.4375,833.16 Q354.6719,832.91 354.9375,832.91 Q355.4063,832.91 355.7031,833.1913 Q356,833.4725 356,834.1288 L356,835.6913 Q356,836.3475 355.7188,836.6288 Q355.4375,836.91 355,836.91 Q354.6094,836.91 354.3594,836.7381 Q354.1094,836.5663 354,836.1131 Q353.9531,835.8006 353.7813,835.6288 Q353.4688,835.3006 352.9063,835.1131 Q352.3438,834.91 351.7813,834.91 Q351.0781,834.91 350.4844,835.1913 Q349.9063,835.4725 349.4531,836.0975 Q349,836.7225 349,837.5819 L349,838.5038 Q349,839.535 349.8438,840.2225 Q350.6875,840.91 352.1875,840.91 Q353.0781,840.91 353.7031,840.7069 Q354.0625,840.5975 354.4688,840.2381 Q354.7344,840.035 354.875,839.9725 Q355.0156,839.91 355.1875,839.91 Q355.5156,839.91 355.75,840.1756 Q356,840.4256 356,840.785 Q356,841.1288 355.6563,841.535 Q355.1563,842.1288 354.3594,842.4569 Q353.3125,842.91 352.0313,842.91 Q350.5313,842.91 349.3281,842.3163 Q348.3594,841.8475 347.6719,840.8319 Q347,839.8163 347,838.6131 L347,837.5194 Q347,836.2694 347.5938,835.1756 Q348.2031,834.0819 349.25,833.5038 Q350.3125,832.91 351.5,832.91 Q352.2188,832.91 352.8438,833.16 Q353.4688,833.41 354,833.91 Z " fill="#000000"/><text fill="#000000" font-family="sans-serif" font-size="14" lengthAdjust="spacing" textLength="158" x="366" y="843.1385">EntityNotFoundException</text><line style="stroke:#181818;stroke-width:0.5;" x1="338" x2="526" y1="853.41" y2="853.41"/><line style="stroke:#181818;stroke-width:0.5;" x1="338" x2="526" y1="861.41" y2="861.41"/></g><!--class RuntimeException--><g id="elem_RuntimeException"><rect fill="#F1F1F1" height="48" id="RuntimeException" rx="2.5" ry="2.5" style="stroke:#181818;stroke-width:0.5;" width="145" x="381.5" y="367.68"/><ellipse cx="396.5" cy="383.68" fill="#ADD1B2" rx="11" ry="11" style="stroke:#181818;stroke-width:1.0;"/><path d="M398.5,380.18 Q398.7031,379.68 398.9375,379.43 Q399.1719,379.18 399.4375,379.18 Q399.9063,379.18 400.2031,379.4612 Q400.5,379.7425 400.5,380.3987 L400.5,381.9612 Q400.5,382.6175 400.2188,382.8987 Q399.9375,383.18 399.5,383.18 Q399.1094,383.18 398.8594,383.0081 Q398.6094,382.8362 398.5,382.3831 Q398.4531,382.0706 398.2813,381.8987 Q397.9688,381.5706 397.4063,381.3831 Q396.8438,381.18 396.2813,381.18 Q395.5781,381.18 394.9844,381.4612 Q394.4063,381.7425 393.9531,382.3675 Q393.5,382.9925 393.5,383.8519 L393.5,384.7737 Q393.5,385.805 394.3438,386.4925 Q395.1875,387.18 396.6875,387.18 Q397.5781,387.18 398.2031,386.9769 Q398.5625,386.8675 398.9688,386.5081 Q399.2344,386.305 399.375,386.2425 Q399.5156,386.18 399.6875,386.18 Q400.0156,386.18 400.25,386.4456 Q400.5,386.6956 400.5,387.055 Q400.5,387.3987 400.1563,387.805 Q399.6563,388.3987 398.8594,388.7269 Q397.8125,389.18 396.5313,389.18 Q395.0313,389.18 393.8281,388.5862 Q392.8594,388.1175 392.1719,387.1019 Q391.5,386.0862 391.5,384.8831 L391.5,383.7894 Q391.5,382.5394 392.0938,381.4456 Q392.7031,380.3519 393.75,379.7737 Q394.8125,379.18 396,379.18 Q396.7188,379.18 397.3438,379.43 Q397.9688,379.68 398.5,380.18 Z " fill="#000000"/><text fill="#000000" font-family="sans-serif" font-size="14" lengthAdjust="spacing" textLength="113" x="410.5" y="389.4085">RuntimeException</text><line style="stroke:#181818;stroke-width:0.5;" x1="382.5" x2="525.5" y1="399.68" y2="399.68"/><line style="stroke:#181818;stroke-width:0.5;" x1="382.5" x2="525.5" y1="407.68" y2="407.68"/></g><!--reverse link BusinessException to InvalidValueException--><g id="link_BusinessException_InvalidValueException"><path codeLine="62" d="M368.58,738.84 C330.08,765.84 282.5,799.19 251.26,821.1 " fill="none" id="BusinessException-backto-InvalidValueException" style="stroke:#181818;stroke-width:1.0;"/><polygon fill="none" points="364.46,733.19,384.85,727.44,372.49,744.65,364.46,733.19" style="stroke:#181818;stroke-width:1.0;"/></g><!--reverse link RuntimeException to BusinessException--><g id="link_RuntimeException_BusinessException"><path codeLine="63" d="M450.75,436.92 C446.27,497.99 438.29,606.68 434.34,660.45 " fill="none" id="RuntimeException-backto-BusinessException" style="stroke:#181818;stroke-width:1.0;"/><polygon fill="none" points="443.75,436.65,452.2,417.21,457.72,437.67,443.75,436.65" style="stroke:#181818;stroke-width:1.0;"/></g><!--reverse link ErrorResponse to ErrorResponse$FieldError--><g id="link_ErrorResponse_ErrorResponse$FieldError"><path codeLine="64" d="M1641,502.67 C1641,543.72 1641,589.07 1641,625.14 " fill="none" id="ErrorResponse-backto-ErrorResponse$FieldError" style="stroke:#181818;stroke-width:1.0;stroke-dasharray:7.0,7.0;"/><ellipse cx="1641" cy="495.79" fill="#FFFFFF" rx="8" ry="8" style="stroke:#181818;stroke-width:1.0;"/><line style="stroke:#181818;stroke-width:1.0;" x1="1641" x2="1641" y1="503.79" y2="487.79"/><line style="stroke:#181818;stroke-width:1.0;" x1="1633" x2="1649" y1="495.79" y2="495.79"/></g><!--reverse link BusinessException to EntityNotFoundException--><g id="link_BusinessException_EntityNotFoundException"><path codeLine="65" d="M432,747.84 C432,772.94 432,801.57 432,821.1 " fill="none" id="BusinessException-backto-EntityNotFoundException" style="stroke:#181818;stroke-width:1.0;"/><polygon fill="none" points="425,748.08,432,728.08,439,748.08,425,748.08" style="stroke:#181818;stroke-width:1.0;"/></g><!--SRC=[jLLVRvim47_Ffq3Q7XAruHD4bIWu0mri12PHzs8nuYHCO3DigbLPl_iCD0dvqq8gxGdkvxlVdU_ETqaM2w4bFDUBal-YYTJZR1thj2nvgTC_2IraofdkiESuIrUBEAiesAFQRlGwIeOHF5OYPLI8hl5K0xMMoLTKe_i_HJcYhChxAO_6kz6TfZbmORYEHHpeHvYe_mZKi0UmZIm24IQ6ww8bi6eKGEpWfmQTemXQBG460JHS4e9W0G82WW05NMRyv8CZiMr0omN4C4qGXiG2q6cfex1cyG2n8jzrJ0Cx2DOuTCplrt0ZmdOJY8aytmMuPV6DC5oYm28MQWuz0vjsGmzh0nGuFrh5-d0PE2fqWkR4Ho6-H1MpfswyFtWJ2OAj_bHBcTI4Z6Kbb13ACcKRbNzLZ8EKgzh5cwOw7rRyMyP_njcXodRCLXajLOM-Q04L1MU20YPJ-J9hohV77hHje-bHkUKheznKEMKIShces-v0D-uvdmnqyvYo3kc9DFbKfFYbe5ugybWcs_UYlQepr9qjPH7GtnKLicLLTm-hek2bf9sh35CRwjH84bLsYxAqw-CgEZZpvtDWV84CfJfIT4px-lE4gPb1mtj_ghcfaBDvIhDLm_FGZYsX7jQkfaYJL-tK0L-F3sDgCapj_jp9KBkwZLMuwh3AvCT6WnfJfVA6N7uzHjoazIrtwnezYi_r0ZcA9Oq5PzrGBpAiecsLxqy-apwZispqNgQpLvgUKmzdpglEO6YsdIAvVTFD_awddron_Uw2IeMRqrkzNKGv6lHWxdJzrcxuVnbxfr3_0000]--></g></svg>