<?xml version="1.0" encoding="us-ascii" standalone="no"?><svg xmlns="http://www.w3.org/2000/svg" xmlns:xlink="http://www.w3.org/1999/xlink" contentStyleType="text/css" height="715px" preserveAspectRatio="none" style="width:725px;height:715px;background:#FFFFFF;" version="1.1" viewBox="0 0 725 715" width="725px" zoomAndPan="magnify"><defs/><g><!--cluster com--><g id="cluster_com"><path d="M8.5,334 L38.5,334 A3.75,3.75 0 0 1 41,336.5 L48,357.6094 L715.5,357.6094 A2.5,2.5 0 0 1 718,360.1094 L718,705.94 A2.5,2.5 0 0 1 715.5,708.44 L8.5,708.44 A2.5,2.5 0 0 1 6,705.94 L6,336.5 A2.5,2.5 0 0 1 8.5,334 " fill="none" style="stroke:#000000;stroke-width:1.5;"/><line style="stroke:#000000;stroke-width:1.5;" x1="6" x2="48" y1="357.6094" y2="357.6094"/><text fill="#000000" font-family="sans-serif" font-size="14" font-weight="bold" lengthAdjust="spacing" textLength="29" x="10" y="350.5332">com</text></g><!--cluster project--><g id="cluster_project"><path d="M32.5,378 L83.5,378 A3.75,3.75 0 0 1 86,380.5 L93,401.6094 L691.5,401.6094 A2.5,2.5 0 0 1 694,404.1094 L694,681.94 A2.5,2.5 0 0 1 691.5,684.44 L32.5,684.44 A2.5,2.5 0 0 1 30,681.94 L30,380.5 A2.5,2.5 0 0 1 32.5,378 " fill="none" style="stroke:#000000;stroke-width:1.5;"/><line style="stroke:#000000;stroke-width:1.5;" x1="30" x2="93" y1="401.6094" y2="401.6094"/><text fill="#000000" font-family="sans-serif" font-size="14" font-weight="bold" lengthAdjust="spacing" textLength="50" x="34" y="394.5332">project</text></g><!--cluster alfa--><g id="cluster_alfa"><path d="M56.5,422 L82.5,422 A3.75,3.75 0 0 1 85,424.5 L92,445.6094 L667.5,445.6094 A2.5,2.5 0 0 1 670,448.1094 L670,657.94 A2.5,2.5 0 0 1 667.5,660.44 L56.5,660.44 A2.5,2.5 0 0 1 54,657.94 L54,424.5 A2.5,2.5 0 0 1 56.5,422 " fill="none" style="stroke:#000000;stroke-width:1.5;"/><line style="stroke:#000000;stroke-width:1.5;" x1="54" x2="92" y1="445.6094" y2="445.6094"/><text fill="#000000" font-family="sans-serif" font-size="14" font-weight="bold" lengthAdjust="spacing" textLength="25" x="58" y="438.5332">alfa</text></g><!--cluster interceptor--><g id="cluster_interceptor"><path d="M80.5,466 L160.5,466 A3.75,3.75 0 0 1 163,468.5 L170,489.6094 L643.5,489.6094 A2.5,2.5 0 0 1 646,492.1094 L646,633.94 A2.5,2.5 0 0 1 643.5,636.44 L80.5,636.44 A2.5,2.5 0 0 1 78,633.94 L78,468.5 A2.5,2.5 0 0 1 80.5,466 " fill="none" style="stroke:#000000;stroke-width:1.5;"/><line style="stroke:#000000;stroke-width:1.5;" x1="78" x2="170" y1="489.6094" y2="489.6094"/><text fill="#000000" font-family="sans-serif" font-size="14" font-weight="bold" lengthAdjust="spacing" textLength="79" x="82" y="482.5332">interceptor</text></g><!--cluster org--><g id="cluster_org"><path d="M202.5,6 L227.5,6 A3.75,3.75 0 0 1 230,8.5 L237,29.6094 L521.5,29.6094 A2.5,2.5 0 0 1 524,32.1094 L524,307.5 A2.5,2.5 0 0 1 521.5,310 L202.5,310 A2.5,2.5 0 0 1 200,307.5 L200,8.5 A2.5,2.5 0 0 1 202.5,6 " fill="none" style="stroke:#000000;stroke-width:1.5;"/><line style="stroke:#000000;stroke-width:1.5;" x1="200" x2="237" y1="29.6094" y2="29.6094"/><text fill="#000000" font-family="sans-serif" font-size="14" font-weight="bold" lengthAdjust="spacing" textLength="24" x="204" y="22.5332">org</text></g><!--cluster springframework--><g id="cluster_springframework"><path d="M226.5,50 L346.5,50 A3.75,3.75 0 0 1 349,52.5 L356,73.6094 L497.5,73.6094 A2.5,2.5 0 0 1 500,76.1094 L500,283.5 A2.5,2.5 0 0 1 497.5,286 L226.5,286 A2.5,2.5 0 0 1 224,283.5 L224,52.5 A2.5,2.5 0 0 1 226.5,50 " fill="none" style="stroke:#000000;stroke-width:1.5;"/><line style="stroke:#000000;stroke-width:1.5;" x1="224" x2="356" y1="73.6094" y2="73.6094"/><text fill="#000000" font-family="sans-serif" font-size="14" font-weight="bold" lengthAdjust="spacing" textLength="119" x="228" y="66.5332">springframework</text></g><!--cluster web--><g id="cluster_web"><path d="M250.5,94 L280.5,94 A3.75,3.75 0 0 1 283,96.5 L290,117.6094 L473.5,117.6094 A2.5,2.5 0 0 1 476,120.1094 L476,259.5 A2.5,2.5 0 0 1 473.5,262 L250.5,262 A2.5,2.5 0 0 1 248,259.5 L248,96.5 A2.5,2.5 0 0 1 250.5,94 " fill="none" style="stroke:#000000;stroke-width:1.5;"/><line style="stroke:#000000;stroke-width:1.5;" x1="248" x2="290" y1="117.6094" y2="117.6094"/><text fill="#000000" font-family="sans-serif" font-size="14" font-weight="bold" lengthAdjust="spacing" textLength="29" x="252" y="110.5332">web</text></g><!--cluster servlet--><g id="cluster_servlet"><path d="M274.5,138 L325.5,138 A3.75,3.75 0 0 1 328,140.5 L335,161.6094 L449.5,161.6094 A2.5,2.5 0 0 1 452,164.1094 L452,235.5 A2.5,2.5 0 0 1 449.5,238 L274.5,238 A2.5,2.5 0 0 1 272,235.5 L272,140.5 A2.5,2.5 0 0 1 274.5,138 " fill="none" style="stroke:#000000;stroke-width:1.5;"/><line style="stroke:#000000;stroke-width:1.5;" x1="272" x2="335" y1="161.6094" y2="161.6094"/><text fill="#000000" font-family="sans-serif" font-size="14" font-weight="bold" lengthAdjust="spacing" textLength="50" x="276" y="154.5332">servlet</text></g><!--class LogInterceptor--><g id="elem_LogInterceptor"><rect codeLine="1" fill="#F1F1F1" height="118.4375" id="LogInterceptor" rx="2.5" ry="2.5" style="stroke:#181818;stroke-width:0.5;" width="537" x="93.5" y="502"/><ellipse cx="311.75" cy="518" fill="#ADD1B2" rx="11" ry="11" style="stroke:#181818;stroke-width:1.0;"/><path d="M313.75,514.5 Q313.9531,514 314.1875,513.75 Q314.4219,513.5 314.6875,513.5 Q315.1563,513.5 315.4531,513.7813 Q315.75,514.0625 315.75,514.7188 L315.75,516.2813 Q315.75,516.9375 315.4688,517.2188 Q315.1875,517.5 314.75,517.5 Q314.3594,517.5 314.1094,517.3281 Q313.8594,517.1563 313.75,516.7031 Q313.7031,516.3906 313.5313,516.2188 Q313.2188,515.8906 312.6563,515.7031 Q312.0938,515.5 311.5313,515.5 Q310.8281,515.5 310.2344,515.7813 Q309.6563,516.0625 309.2031,516.6875 Q308.75,517.3125 308.75,518.1719 L308.75,519.0938 Q308.75,520.125 309.5938,520.8125 Q310.4375,521.5 311.9375,521.5 Q312.8281,521.5 313.4531,521.2969 Q313.8125,521.1875 314.2188,520.8281 Q314.4844,520.625 314.625,520.5625 Q314.7656,520.5 314.9375,520.5 Q315.2656,520.5 315.5,520.7656 Q315.75,521.0156 315.75,521.375 Q315.75,521.7188 315.4063,522.125 Q314.9063,522.7188 314.1094,523.0469 Q313.0625,523.5 311.7813,523.5 Q310.2813,523.5 309.0781,522.9063 Q308.1094,522.4375 307.4219,521.4219 Q306.75,520.4063 306.75,519.2031 L306.75,518.1094 Q306.75,516.8594 307.3438,515.7656 Q307.9531,514.6719 309,514.0938 Q310.0625,513.5 311.25,513.5 Q311.9688,513.5 312.5938,513.75 Q313.2188,514 313.75,514.5 Z " fill="#000000"/><text fill="#000000" font-family="sans-serif" font-size="14" lengthAdjust="spacing" textLength="92" x="332.25" y="523.7285">LogInterceptor</text><line style="stroke:#181818;stroke-width:0.5;" x1="94.5" x2="629.5" y1="534" y2="534"/><rect fill="none" height="6" style="stroke:#C82930;stroke-width:1.0;" width="6" x="101.5" y="545.3047"/><text fill="#000000" font-family="sans-serif" font-size="14" lengthAdjust="spacing" text-decoration="underline" textLength="92" x="113.5" y="552.5332">String LOG_ID</text><line style="stroke:#181818;stroke-width:0.5;" x1="94.5" x2="629.5" y1="559.6094" y2="559.6094"/><ellipse cx="104.5" cy="573.9141" fill="#84BE84" rx="3" ry="3" style="stroke:#038048;stroke-width:1.0;"/><text fill="#000000" font-family="sans-serif" font-size="14" lengthAdjust="spacing" textLength="434" x="113.5" y="578.1426">boolean preHandle(HttpServletRequest,HttpServletResponse,Object)</text><ellipse cx="104.5" cy="591.5234" fill="#84BE84" rx="3" ry="3" style="stroke:#038048;stroke-width:1.0;"/><text fill="#000000" font-family="sans-serif" font-size="14" lengthAdjust="spacing" textLength="511" x="113.5" y="595.752">void postHandle(HttpServletRequest,HttpServletResponse,Object,ModelAndView)</text><ellipse cx="104.5" cy="609.1328" fill="#84BE84" rx="3" ry="3" style="stroke:#038048;stroke-width:1.0;"/><text fill="#000000" font-family="sans-serif" font-size="14" lengthAdjust="spacing" textLength="509" x="113.5" y="613.3613">void afterCompletion(HttpServletRequest,HttpServletResponse,Object,Exception)</text></g><!--class HandlerInterceptor--><g id="elem_HandlerInterceptor"><rect fill="#F1F1F1" height="48" id="HandlerInterceptor" rx="2.5" ry="2.5" style="stroke:#181818;stroke-width:0.5;" width="149" x="287.5" y="174"/><ellipse cx="302.5" cy="190" fill="#ADD1B2" rx="11" ry="11" style="stroke:#181818;stroke-width:1.0;"/><path d="M304.5,186.5 Q304.7031,186 304.9375,185.75 Q305.1719,185.5 305.4375,185.5 Q305.9063,185.5 306.2031,185.7813 Q306.5,186.0625 306.5,186.7188 L306.5,188.2813 Q306.5,188.9375 306.2188,189.2188 Q305.9375,189.5 305.5,189.5 Q305.1094,189.5 304.8594,189.3281 Q304.6094,189.1563 304.5,188.7031 Q304.4531,188.3906 304.2813,188.2188 Q303.9688,187.8906 303.4063,187.7031 Q302.8438,187.5 302.2813,187.5 Q301.5781,187.5 300.9844,187.7813 Q300.4063,188.0625 299.9531,188.6875 Q299.5,189.3125 299.5,190.1719 L299.5,191.0938 Q299.5,192.125 300.3438,192.8125 Q301.1875,193.5 302.6875,193.5 Q303.5781,193.5 304.2031,193.2969 Q304.5625,193.1875 304.9688,192.8281 Q305.2344,192.625 305.375,192.5625 Q305.5156,192.5 305.6875,192.5 Q306.0156,192.5 306.25,192.7656 Q306.5,193.0156 306.5,193.375 Q306.5,193.7188 306.1563,194.125 Q305.6563,194.7188 304.8594,195.0469 Q303.8125,195.5 302.5313,195.5 Q301.0313,195.5 299.8281,194.9063 Q298.8594,194.4375 298.1719,193.4219 Q297.5,192.4063 297.5,191.2031 L297.5,190.1094 Q297.5,188.8594 298.0938,187.7656 Q298.7031,186.6719 299.75,186.0938 Q300.8125,185.5 302,185.5 Q302.7188,185.5 303.3438,185.75 Q303.9688,186 304.5,186.5 Z " fill="#000000"/><text fill="#000000" font-family="sans-serif" font-size="14" lengthAdjust="spacing" textLength="117" x="316.5" y="195.7285">HandlerInterceptor</text><line style="stroke:#181818;stroke-width:0.5;" x1="288.5" x2="435.5" y1="206" y2="206"/><line style="stroke:#181818;stroke-width:0.5;" x1="288.5" x2="435.5" y1="214" y2="214"/></g><!--reverse link HandlerInterceptor to LogInterceptor--><g id="link_HandlerInterceptor_LogInterceptor"><path codeLine="11" d="M362,243.68 C362,308.76 362,429.7 362,501.78 " fill="none" id="HandlerInterceptor-backto-LogInterceptor" style="stroke:#181818;stroke-width:1.0;stroke-dasharray:7.0,7.0;"/><polygon fill="none" points="355,243.94,362,223.94,369,243.94,355,243.94" style="stroke:#181818;stroke-width:1.0;"/></g><!--SRC=[dP31QiD034Jl_eez9jJH5_HIcf8ON08Dz5hMQzbikbvj9JKkEFxts0JIzfZe9i4ypOmBLiGuwY0n7T0fsD1Oy56H7IObXfBQudSrGxOoWwXLxqQpL_QnDULkyr6iimTJ4GMqqIJ6hOrrmCLMDUsHZm7r3R- -KJJ_Tv94KJ3VLVFpvOGuagzD8j5x0FahrHYUOltkiR_IR3FPVwOkJG9FyKRaoy-SVD8jip6RXxW5INFmXcs7FV4dz5Y1NFHmCSv_Itiy0TpIyXa0]--></g></svg>