<?xml version="1.0" encoding="us-ascii" standalone="no"?><svg xmlns="http://www.w3.org/2000/svg" xmlns:xlink="http://www.w3.org/1999/xlink" contentStyleType="text/css" height="1289px" preserveAspectRatio="none" style="width:4608px;height:1289px;background:#FFFFFF;" version="1.1" viewBox="0 0 4608 1289" width="4608px" zoomAndPan="magnify"><defs/><g><!--cluster com--><g id="cluster_com"><path d="M8.5,470 L38.5,470 A3.75,3.75 0 0 1 41,472.5 L48,493.6094 L4598.5,493.6094 A2.5,2.5 0 0 1 4601,496.1094 L4601,1279.62 A2.5,2.5 0 0 1 4598.5,1282.12 L8.5,1282.12 A2.5,2.5 0 0 1 6,1279.62 L6,472.5 A2.5,2.5 0 0 1 8.5,470 " fill="none" style="stroke:#000000;stroke-width:1.5;"/><line style="stroke:#000000;stroke-width:1.5;" x1="6" x2="48" y1="493.6094" y2="493.6094"/><text fill="#000000" font-family="sans-serif" font-size="14" font-weight="bold" lengthAdjust="spacing" textLength="29" x="10" y="486.5332">com</text></g><!--cluster project--><g id="cluster_project"><path d="M32.5,514 L83.5,514 A3.75,3.75 0 0 1 86,516.5 L93,537.6094 L4574.5,537.6094 A2.5,2.5 0 0 1 4577,540.1094 L4577,1255.62 A2.5,2.5 0 0 1 4574.5,1258.12 L32.5,1258.12 A2.5,2.5 0 0 1 30,1255.62 L30,516.5 A2.5,2.5 0 0 1 32.5,514 " fill="none" style="stroke:#000000;stroke-width:1.5;"/><line style="stroke:#000000;stroke-width:1.5;" x1="30" x2="93" y1="537.6094" y2="537.6094"/><text fill="#000000" font-family="sans-serif" font-size="14" font-weight="bold" lengthAdjust="spacing" textLength="50" x="34" y="530.5332">project</text></g><!--cluster alfa--><g id="cluster_alfa"><path d="M56.5,558 L82.5,558 A3.75,3.75 0 0 1 85,560.5 L92,581.6094 L4550.5,581.6094 A2.5,2.5 0 0 1 4553,584.1094 L4553,1231.62 A2.5,2.5 0 0 1 4550.5,1234.12 L56.5,1234.12 A2.5,2.5 0 0 1 54,1231.62 L54,560.5 A2.5,2.5 0 0 1 56.5,558 " fill="none" style="stroke:#000000;stroke-width:1.5;"/><line style="stroke:#000000;stroke-width:1.5;" x1="54" x2="92" y1="581.6094" y2="581.6094"/><text fill="#000000" font-family="sans-serif" font-size="14" font-weight="bold" lengthAdjust="spacing" textLength="25" x="58" y="574.5332">alfa</text></g><!--cluster security--><g id="cluster_security"><path d="M80.5,602 L137.5,602 A3.75,3.75 0 0 1 140,604.5 L147,625.6094 L4526.5,625.6094 A2.5,2.5 0 0 1 4529,628.1094 L4529,1207.62 A2.5,2.5 0 0 1 4526.5,1210.12 L80.5,1210.12 A2.5,2.5 0 0 1 78,1207.62 L78,604.5 A2.5,2.5 0 0 1 80.5,602 " fill="none" style="stroke:#000000;stroke-width:1.5;"/><line style="stroke:#000000;stroke-width:1.5;" x1="78" x2="147" y1="625.6094" y2="625.6094"/><text fill="#000000" font-family="sans-serif" font-size="14" font-weight="bold" lengthAdjust="spacing" textLength="56" x="82" y="618.5332">security</text></g><!--cluster oauth2--><g id="cluster_oauth2"><path d="M104.5,681.2 L153.5,681.2 A3.75,3.75 0 0 1 156,683.7 L163,704.8094 L703.5,704.8094 A2.5,2.5 0 0 1 706,707.3094 L706,1183.62 A2.5,2.5 0 0 1 703.5,1186.12 L104.5,1186.12 A2.5,2.5 0 0 1 102,1183.62 L102,683.7 A2.5,2.5 0 0 1 104.5,681.2 " fill="none" style="stroke:#000000;stroke-width:1.5;"/><line style="stroke:#000000;stroke-width:1.5;" x1="102" x2="163" y1="704.8094" y2="704.8094"/><text fill="#000000" font-family="sans-serif" font-size="14" font-weight="bold" lengthAdjust="spacing" textLength="48" x="106" y="697.7332">oauth2</text></g><!--cluster provider--><g id="cluster_provider"><path d="M128.5,725.2 L190.5,725.2 A3.75,3.75 0 0 1 193,727.7 L200,748.8094 L369.5,748.8094 A2.5,2.5 0 0 1 372,751.3094 L372,1159.62 A2.5,2.5 0 0 1 369.5,1162.12 L128.5,1162.12 A2.5,2.5 0 0 1 126,1159.62 L126,727.7 A2.5,2.5 0 0 1 128.5,725.2 " fill="none" style="stroke:#000000;stroke-width:1.5;"/><line style="stroke:#000000;stroke-width:1.5;" x1="126" x2="200" y1="748.8094" y2="748.8094"/><text fill="#000000" font-family="sans-serif" font-size="14" font-weight="bold" lengthAdjust="spacing" textLength="61" x="130" y="741.7332">provider</text></g><!--cluster jwt--><g id="cluster_jwt"><path d="M732.5,646 L753.5,646 A3.75,3.75 0 0 1 756,648.5 L763,669.6094 L2781.5,669.6094 A2.5,2.5 0 0 1 2784,672.1094 L2784,925.94 A2.5,2.5 0 0 1 2781.5,928.44 L732.5,928.44 A2.5,2.5 0 0 1 730,925.94 L730,648.5 A2.5,2.5 0 0 1 732.5,646 " fill="none" style="stroke:#000000;stroke-width:1.5;"/><line style="stroke:#000000;stroke-width:1.5;" x1="730" x2="763" y1="669.6094" y2="669.6094"/><text fill="#000000" font-family="sans-serif" font-size="14" font-weight="bold" lengthAdjust="spacing" textLength="20" x="734" y="662.5332">jwt</text></g><!--cluster entrypoint--><g id="cluster_entrypoint"><path d="M756.5,742.81 L829.5,742.81 A3.75,3.75 0 0 1 832,745.31 L839,766.4194 L1331.5,766.4194 A2.5,2.5 0 0 1 1334,768.9194 L1334,857.92 A2.5,2.5 0 0 1 1331.5,860.42 L756.5,860.42 A2.5,2.5 0 0 1 754,857.92 L754,745.31 A2.5,2.5 0 0 1 756.5,742.81 " fill="none" style="stroke:#000000;stroke-width:1.5;"/><line style="stroke:#000000;stroke-width:1.5;" x1="754" x2="839" y1="766.4194" y2="766.4194"/><text fill="#000000" font-family="sans-serif" font-size="14" font-weight="bold" lengthAdjust="spacing" textLength="72" x="758" y="759.3432">entrypoint</text></g><!--cluster filter--><g id="cluster_filter"><path d="M1360.5,690 L1394.5,690 A3.75,3.75 0 0 1 1397,692.5 L1404,713.6094 L2757.5,713.6094 A2.5,2.5 0 0 1 2760,716.1094 L2760,901.94 A2.5,2.5 0 0 1 2757.5,904.44 L1360.5,904.44 A2.5,2.5 0 0 1 1358,901.94 L1358,692.5 A2.5,2.5 0 0 1 1360.5,690 " fill="none" style="stroke:#000000;stroke-width:1.5;"/><line style="stroke:#000000;stroke-width:1.5;" x1="1358" x2="1404" y1="713.6094" y2="713.6094"/><text fill="#000000" font-family="sans-serif" font-size="14" font-weight="bold" lengthAdjust="spacing" textLength="33" x="1362" y="706.5332">filter</text></g><!--cluster dto--><g id="cluster_dto"><path d="M1384.5,734 L1408.5,734 A3.75,3.75 0 0 1 1411,736.5 L1418,757.6094 L1541.5,757.6094 A2.5,2.5 0 0 1 1544,760.1094 L1544,866.72 A2.5,2.5 0 0 1 1541.5,869.22 L1384.5,869.22 A2.5,2.5 0 0 1 1382,866.72 L1382,736.5 A2.5,2.5 0 0 1 1384.5,734 " fill="none" style="stroke:#000000;stroke-width:1.5;"/><line style="stroke:#000000;stroke-width:1.5;" x1="1382" x2="1418" y1="757.6094" y2="757.6094"/><text fill="#000000" font-family="sans-serif" font-size="14" font-weight="bold" lengthAdjust="spacing" textLength="23" x="1386" y="750.5332">dto</text></g><!--cluster org--><g id="cluster_org"><path d="M1637.5,6 L1662.5,6 A3.75,3.75 0 0 1 1665,8.5 L1672,29.6094 L4053.5,29.6094 A2.5,2.5 0 0 1 4056,32.1094 L4056,443.5 A2.5,2.5 0 0 1 4053.5,446 L1637.5,446 A2.5,2.5 0 0 1 1635,443.5 L1635,8.5 A2.5,2.5 0 0 1 1637.5,6 " fill="none" style="stroke:#000000;stroke-width:1.5;"/><line style="stroke:#000000;stroke-width:1.5;" x1="1635" x2="1672" y1="29.6094" y2="29.6094"/><text fill="#000000" font-family="sans-serif" font-size="14" font-weight="bold" lengthAdjust="spacing" textLength="24" x="1639" y="22.5332">org</text></g><!--cluster springframework--><g id="cluster_springframework"><path d="M1661.5,50 L1781.5,50 A3.75,3.75 0 0 1 1784,52.5 L1791,73.6094 L4029.5,73.6094 A2.5,2.5 0 0 1 4032,76.1094 L4032,419.5 A2.5,2.5 0 0 1 4029.5,422 L1661.5,422 A2.5,2.5 0 0 1 1659,419.5 L1659,52.5 A2.5,2.5 0 0 1 1661.5,50 " fill="none" style="stroke:#000000;stroke-width:1.5;"/><line style="stroke:#000000;stroke-width:1.5;" x1="1659" x2="1791" y1="73.6094" y2="73.6094"/><text fill="#000000" font-family="sans-serif" font-size="14" font-weight="bold" lengthAdjust="spacing" textLength="119" x="1663" y="66.5332">springframework</text></g><!--cluster security--><g id="cluster_security"><path d="M1963.5,94 L2020.5,94 A3.75,3.75 0 0 1 2023,96.5 L2030,117.6094 L4005.5,117.6094 A2.5,2.5 0 0 1 4008,120.1094 L4008,395.5 A2.5,2.5 0 0 1 4005.5,398 L1963.5,398 A2.5,2.5 0 0 1 1961,395.5 L1961,96.5 A2.5,2.5 0 0 1 1963.5,94 " fill="none" style="stroke:#000000;stroke-width:1.5;"/><line style="stroke:#000000;stroke-width:1.5;" x1="1961" x2="2030" y1="117.6094" y2="117.6094"/><text fill="#000000" font-family="sans-serif" font-size="14" font-weight="bold" lengthAdjust="spacing" textLength="56" x="1965" y="110.5332">security</text></g><!--cluster authentication--><g id="cluster_authentication"><path d="M3385.5,226 L3487.5,226 A3.75,3.75 0 0 1 3490,228.5 L3497,249.6094 L3588.5,249.6094 A2.5,2.5 0 0 1 3591,252.1094 L3591,323.5 A2.5,2.5 0 0 1 3588.5,326 L3385.5,326 A2.5,2.5 0 0 1 3383,323.5 L3383,228.5 A2.5,2.5 0 0 1 3385.5,226 " fill="none" style="stroke:#000000;stroke-width:1.5;"/><line style="stroke:#000000;stroke-width:1.5;" x1="3383" x2="3497" y1="249.6094" y2="249.6094"/><text fill="#000000" font-family="sans-serif" font-size="14" font-weight="bold" lengthAdjust="spacing" textLength="101" x="3387" y="242.5332">authentication</text></g><!--cluster web--><g id="cluster_web"><path d="M2555.5,182 L2585.5,182 A3.75,3.75 0 0 1 2588,184.5 L2595,205.6094 L3356.5,205.6094 A2.5,2.5 0 0 1 3359,208.1094 L3359,347.5 A2.5,2.5 0 0 1 3356.5,350 L2555.5,350 A2.5,2.5 0 0 1 2553,347.5 L2553,184.5 A2.5,2.5 0 0 1 2555.5,182 " fill="none" style="stroke:#000000;stroke-width:1.5;"/><line style="stroke:#000000;stroke-width:1.5;" x1="2553" x2="2595" y1="205.6094" y2="205.6094"/><text fill="#000000" font-family="sans-serif" font-size="14" font-weight="bold" lengthAdjust="spacing" textLength="29" x="2557" y="198.5332">web</text></g><!--cluster authentication--><g id="cluster_authentication"><path d="M2776.5,226 L2878.5,226 A3.75,3.75 0 0 1 2881,228.5 L2888,249.6094 L3332.5,249.6094 A2.5,2.5 0 0 1 3335,252.1094 L3335,323.5 A2.5,2.5 0 0 1 3332.5,326 L2776.5,326 A2.5,2.5 0 0 1 2774,323.5 L2774,228.5 A2.5,2.5 0 0 1 2776.5,226 " fill="none" style="stroke:#000000;stroke-width:1.5;"/><line style="stroke:#000000;stroke-width:1.5;" x1="2774" x2="2888" y1="249.6094" y2="249.6094"/><text fill="#000000" font-family="sans-serif" font-size="14" font-weight="bold" lengthAdjust="spacing" textLength="101" x="2778" y="242.5332">authentication</text></g><!--cluster oauth2--><g id="cluster_oauth2"><path d="M1987.5,138 L2036.5,138 A3.75,3.75 0 0 1 2039,140.5 L2046,161.6094 L2526.5,161.6094 A2.5,2.5 0 0 1 2529,164.1094 L2529,371.5 A2.5,2.5 0 0 1 2526.5,374 L1987.5,374 A2.5,2.5 0 0 1 1985,371.5 L1985,140.5 A2.5,2.5 0 0 1 1987.5,138 " fill="none" style="stroke:#000000;stroke-width:1.5;"/><line style="stroke:#000000;stroke-width:1.5;" x1="1985" x2="2046" y1="161.6094" y2="161.6094"/><text fill="#000000" font-family="sans-serif" font-size="14" font-weight="bold" lengthAdjust="spacing" textLength="48" x="1989" y="154.5332">oauth2</text></g><!--cluster client--><g id="cluster_client"><path d="M2011.5,182 L2051.5,182 A3.75,3.75 0 0 1 2054,184.5 L2061,205.6094 L2288.5,205.6094 A2.5,2.5 0 0 1 2291,208.1094 L2291,347.5 A2.5,2.5 0 0 1 2288.5,350 L2011.5,350 A2.5,2.5 0 0 1 2009,347.5 L2009,184.5 A2.5,2.5 0 0 1 2011.5,182 " fill="none" style="stroke:#000000;stroke-width:1.5;"/><line style="stroke:#000000;stroke-width:1.5;" x1="2009" x2="2061" y1="205.6094" y2="205.6094"/><text fill="#000000" font-family="sans-serif" font-size="14" font-weight="bold" lengthAdjust="spacing" textLength="39" x="2013" y="198.5332">client</text></g><!--cluster userinfo--><g id="cluster_userinfo"><path d="M2035.5,226 L2095.5,226 A3.75,3.75 0 0 1 2098,228.5 L2105,249.6094 L2264.5,249.6094 A2.5,2.5 0 0 1 2267,252.1094 L2267,323.5 A2.5,2.5 0 0 1 2264.5,326 L2035.5,326 A2.5,2.5 0 0 1 2033,323.5 L2033,228.5 A2.5,2.5 0 0 1 2035.5,226 " fill="none" style="stroke:#000000;stroke-width:1.5;"/><line style="stroke:#000000;stroke-width:1.5;" x1="2033" x2="2105" y1="249.6094" y2="249.6094"/><text fill="#000000" font-family="sans-serif" font-size="14" font-weight="bold" lengthAdjust="spacing" textLength="59" x="2037" y="242.5332">userinfo</text></g><!--cluster core--><g id="cluster_core"><path d="M2317.5,182 L2350.5,182 A3.75,3.75 0 0 1 2353,184.5 L2360,205.6094 L2502.5,205.6094 A2.5,2.5 0 0 1 2505,208.1094 L2505,347.5 A2.5,2.5 0 0 1 2502.5,350 L2317.5,350 A2.5,2.5 0 0 1 2315,347.5 L2315,184.5 A2.5,2.5 0 0 1 2317.5,182 " fill="none" style="stroke:#000000;stroke-width:1.5;"/><line style="stroke:#000000;stroke-width:1.5;" x1="2315" x2="2360" y1="205.6094" y2="205.6094"/><text fill="#000000" font-family="sans-serif" font-size="14" font-weight="bold" lengthAdjust="spacing" textLength="32" x="2319" y="198.5332">core</text></g><!--cluster user--><g id="cluster_user"><path d="M2341.5,226 L2374.5,226 A3.75,3.75 0 0 1 2377,228.5 L2384,249.6094 L2478.5,249.6094 A2.5,2.5 0 0 1 2481,252.1094 L2481,323.5 A2.5,2.5 0 0 1 2478.5,326 L2341.5,326 A2.5,2.5 0 0 1 2339,323.5 L2339,228.5 A2.5,2.5 0 0 1 2341.5,226 " fill="none" style="stroke:#000000;stroke-width:1.5;"/><line style="stroke:#000000;stroke-width:1.5;" x1="2339" x2="2384" y1="249.6094" y2="249.6094"/><text fill="#000000" font-family="sans-serif" font-size="14" font-weight="bold" lengthAdjust="spacing" textLength="32" x="2343" y="242.5332">user</text></g><!--cluster core--><g id="cluster_core"><path d="M3617.5,182 L3650.5,182 A3.75,3.75 0 0 1 3653,184.5 L3660,205.6094 L3981.5,205.6094 A2.5,2.5 0 0 1 3984,208.1094 L3984,347.5 A2.5,2.5 0 0 1 3981.5,350 L3617.5,350 A2.5,2.5 0 0 1 3615,347.5 L3615,184.5 A2.5,2.5 0 0 1 3617.5,182 " fill="none" style="stroke:#000000;stroke-width:1.5;"/><line style="stroke:#000000;stroke-width:1.5;" x1="3615" x2="3660" y1="205.6094" y2="205.6094"/><text fill="#000000" font-family="sans-serif" font-size="14" font-weight="bold" lengthAdjust="spacing" textLength="32" x="3619" y="198.5332">core</text></g><!--cluster userdetails--><g id="cluster_userdetails"><path d="M3641.5,226 L3721.5,226 A3.75,3.75 0 0 1 3724,228.5 L3731,249.6094 L3957.5,249.6094 A2.5,2.5 0 0 1 3960,252.1094 L3960,323.5 A2.5,2.5 0 0 1 3957.5,326 L3641.5,326 A2.5,2.5 0 0 1 3639,323.5 L3639,228.5 A2.5,2.5 0 0 1 3641.5,226 " fill="none" style="stroke:#000000;stroke-width:1.5;"/><line style="stroke:#000000;stroke-width:1.5;" x1="3639" x2="3731" y1="249.6094" y2="249.6094"/><text fill="#000000" font-family="sans-serif" font-size="14" font-weight="bold" lengthAdjust="spacing" textLength="79" x="3643" y="242.5332">userdetails</text></g><!--cluster web--><g id="cluster_web"><path d="M1685.5,182 L1715.5,182 A3.75,3.75 0 0 1 1718,184.5 L1725,205.6094 L1934.5,205.6094 A2.5,2.5 0 0 1 1937,208.1094 L1937,347.5 A2.5,2.5 0 0 1 1934.5,350 L1685.5,350 A2.5,2.5 0 0 1 1683,347.5 L1683,184.5 A2.5,2.5 0 0 1 1685.5,182 " fill="none" style="stroke:#000000;stroke-width:1.5;"/><line style="stroke:#000000;stroke-width:1.5;" x1="1683" x2="1725" y1="205.6094" y2="205.6094"/><text fill="#000000" font-family="sans-serif" font-size="14" font-weight="bold" lengthAdjust="spacing" textLength="29" x="1687" y="198.5332">web</text></g><!--cluster filter--><g id="cluster_filter"><path d="M1709.5,226 L1743.5,226 A3.75,3.75 0 0 1 1746,228.5 L1753,249.6094 L1910.5,249.6094 A2.5,2.5 0 0 1 1913,252.1094 L1913,323.5 A2.5,2.5 0 0 1 1910.5,326 L1709.5,326 A2.5,2.5 0 0 1 1707,323.5 L1707,228.5 A2.5,2.5 0 0 1 1709.5,226 " fill="none" style="stroke:#000000;stroke-width:1.5;"/><line style="stroke:#000000;stroke-width:1.5;" x1="1707" x2="1753" y1="249.6094" y2="249.6094"/><text fill="#000000" font-family="sans-serif" font-size="14" font-weight="bold" lengthAdjust="spacing" textLength="33" x="1711" y="242.5332">filter</text></g><!--class CustomAuthenticationProvider--><g id="elem_CustomAuthenticationProvider"><rect codeLine="1" fill="#F1F1F1" height="118.4375" id="CustomAuthenticationProvider" rx="2.5" ry="2.5" style="stroke:#181818;stroke-width:0.5;" width="315" x="3878.5" y="752.39"/><ellipse cx="3936.25" cy="768.39" fill="#ADD1B2" rx="11" ry="11" style="stroke:#181818;stroke-width:1.0;"/><path d="M3938.25,764.89 Q3938.4531,764.39 3938.6875,764.14 Q3938.9219,763.89 3939.1875,763.89 Q3939.6563,763.89 3939.9531,764.1712 Q3940.25,764.4525 3940.25,765.1087 L3940.25,766.6712 Q3940.25,767.3275 3939.9688,767.6087 Q3939.6875,767.89 3939.25,767.89 Q3938.8594,767.89 3938.6094,767.7181 Q3938.3594,767.5462 3938.25,767.0931 Q3938.2031,766.7806 3938.0313,766.6087 Q3937.7188,766.2806 3937.1563,766.0931 Q3936.5938,765.89 3936.0313,765.89 Q3935.3281,765.89 3934.7344,766.1712 Q3934.1563,766.4525 3933.7031,767.0775 Q3933.25,767.7025 3933.25,768.5619 L3933.25,769.4837 Q3933.25,770.515 3934.0938,771.2025 Q3934.9375,771.89 3936.4375,771.89 Q3937.3281,771.89 3937.9531,771.6869 Q3938.3125,771.5775 3938.7188,771.2181 Q3938.9844,771.015 3939.125,770.9525 Q3939.2656,770.89 3939.4375,770.89 Q3939.7656,770.89 3940,771.1556 Q3940.25,771.4056 3940.25,771.765 Q3940.25,772.1087 3939.9063,772.515 Q3939.4063,773.1087 3938.6094,773.4369 Q3937.5625,773.89 3936.2813,773.89 Q3934.7813,773.89 3933.5781,773.2962 Q3932.6094,772.8275 3931.9219,771.8119 Q3931.25,770.7962 3931.25,769.5931 L3931.25,768.4994 Q3931.25,767.2494 3931.8438,766.1556 Q3932.4531,765.0619 3933.5,764.4837 Q3934.5625,763.89 3935.75,763.89 Q3936.4688,763.89 3937.0938,764.14 Q3937.7188,764.39 3938.25,764.89 Z " fill="#000000"/><text fill="#000000" font-family="sans-serif" font-size="14" lengthAdjust="spacing" textLength="191" x="3956.75" y="774.1185">CustomAuthenticationProvider</text><line style="stroke:#181818;stroke-width:0.5;" x1="3879.5" x2="4192.5" y1="784.39" y2="784.39"/><rect fill="none" height="6" style="stroke:#C82930;stroke-width:1.0;" width="6" x="3886.5" y="795.6947"/><text fill="#000000" font-family="sans-serif" font-size="14" lengthAdjust="spacing" textLength="289" x="3898.5" y="802.9232">CustomUserDetailsService userDetailsService</text><rect fill="none" height="6" style="stroke:#C82930;stroke-width:1.0;" width="6" x="3886.5" y="813.3041"/><text fill="#000000" font-family="sans-serif" font-size="14" lengthAdjust="spacing" textLength="231" x="3898.5" y="820.5326">PasswordEncoder passwordEncoder</text><line style="stroke:#181818;stroke-width:0.5;" x1="3879.5" x2="4192.5" y1="827.6087" y2="827.6087"/><ellipse cx="3889.5" cy="841.9134" fill="#84BE84" rx="3" ry="3" style="stroke:#038048;stroke-width:1.0;"/><text fill="#000000" font-family="sans-serif" font-size="14" lengthAdjust="spacing" textLength="272" x="3898.5" y="846.142">Authentication authenticate(Authentication)</text><ellipse cx="3889.5" cy="859.5228" fill="#84BE84" rx="3" ry="3" style="stroke:#038048;stroke-width:1.0;"/><text fill="#000000" font-family="sans-serif" font-size="14" lengthAdjust="spacing" textLength="179" x="3898.5" y="863.7513">boolean supports(Class&lt;?&gt;)</text></g><!--class CustomAuthenticationFailureHandler--><g id="elem_CustomAuthenticationFailureHandler"><rect codeLine="21" fill="#F1F1F1" height="65.6094" id="CustomAuthenticationFailureHandler" rx="2.5" ry="2.5" style="stroke:#181818;stroke-width:0.5;" width="630" x="3213" y="778.81"/><ellipse cx="3408.25" cy="794.81" fill="#ADD1B2" rx="11" ry="11" style="stroke:#181818;stroke-width:1.0;"/><path d="M3410.25,791.31 Q3410.4531,790.81 3410.6875,790.56 Q3410.9219,790.31 3411.1875,790.31 Q3411.6563,790.31 3411.9531,790.5913 Q3412.25,790.8725 3412.25,791.5288 L3412.25,793.0913 Q3412.25,793.7475 3411.9688,794.0288 Q3411.6875,794.31 3411.25,794.31 Q3410.8594,794.31 3410.6094,794.1381 Q3410.3594,793.9663 3410.25,793.5131 Q3410.2031,793.2006 3410.0313,793.0288 Q3409.7188,792.7006 3409.1563,792.5131 Q3408.5938,792.31 3408.0313,792.31 Q3407.3281,792.31 3406.7344,792.5913 Q3406.1563,792.8725 3405.7031,793.4975 Q3405.25,794.1225 3405.25,794.9819 L3405.25,795.9038 Q3405.25,796.935 3406.0938,797.6225 Q3406.9375,798.31 3408.4375,798.31 Q3409.3281,798.31 3409.9531,798.1069 Q3410.3125,797.9975 3410.7188,797.6381 Q3410.9844,797.435 3411.125,797.3725 Q3411.2656,797.31 3411.4375,797.31 Q3411.7656,797.31 3412,797.5756 Q3412.25,797.8256 3412.25,798.185 Q3412.25,798.5288 3411.9063,798.935 Q3411.4063,799.5288 3410.6094,799.8569 Q3409.5625,800.31 3408.2813,800.31 Q3406.7813,800.31 3405.5781,799.7163 Q3404.6094,799.2475 3403.9219,798.2319 Q3403.25,797.2163 3403.25,796.0131 L3403.25,794.9194 Q3403.25,793.6694 3403.8438,792.5756 Q3404.4531,791.4819 3405.5,790.9038 Q3406.5625,790.31 3407.75,790.31 Q3408.4688,790.31 3409.0938,790.56 Q3409.7188,790.81 3410.25,791.31 Z " fill="#000000"/><text fill="#000000" font-family="sans-serif" font-size="14" lengthAdjust="spacing" textLength="231" x="3428.75" y="800.5385">CustomAuthenticationFailureHandler</text><line style="stroke:#181818;stroke-width:0.5;" x1="3214" x2="3842" y1="810.81" y2="810.81"/><line style="stroke:#181818;stroke-width:0.5;" x1="3214" x2="3842" y1="818.81" y2="818.81"/><ellipse cx="3224" cy="833.1147" fill="#84BE84" rx="3" ry="3" style="stroke:#038048;stroke-width:1.0;"/><text fill="#000000" font-family="sans-serif" font-size="14" lengthAdjust="spacing" textLength="604" x="3233" y="837.3432">void onAuthenticationFailure(HttpServletRequest,HttpServletResponse,AuthenticationException)</text></g><!--class CustomUserDetails--><g id="elem_CustomUserDetails"><rect codeLine="39" fill="#F1F1F1" height="312.1406" id="CustomUserDetails" rx="2.5" ry="2.5" style="stroke:#181818;stroke-width:0.5;" width="378" x="2800" y="655.54"/><ellipse cx="2924.75" cy="671.54" fill="#ADD1B2" rx="11" ry="11" style="stroke:#181818;stroke-width:1.0;"/><path d="M2926.75,668.04 Q2926.9531,667.54 2927.1875,667.29 Q2927.4219,667.04 2927.6875,667.04 Q2928.1563,667.04 2928.4531,667.3212 Q2928.75,667.6025 2928.75,668.2587 L2928.75,669.8212 Q2928.75,670.4775 2928.4688,670.7587 Q2928.1875,671.04 2927.75,671.04 Q2927.3594,671.04 2927.1094,670.8681 Q2926.8594,670.6962 2926.75,670.2431 Q2926.7031,669.9306 2926.5313,669.7587 Q2926.2188,669.4306 2925.6563,669.2431 Q2925.0938,669.04 2924.5313,669.04 Q2923.8281,669.04 2923.2344,669.3212 Q2922.6563,669.6025 2922.2031,670.2275 Q2921.75,670.8525 2921.75,671.7119 L2921.75,672.6337 Q2921.75,673.665 2922.5938,674.3525 Q2923.4375,675.04 2924.9375,675.04 Q2925.8281,675.04 2926.4531,674.8369 Q2926.8125,674.7275 2927.2188,674.3681 Q2927.4844,674.165 2927.625,674.1025 Q2927.7656,674.04 2927.9375,674.04 Q2928.2656,674.04 2928.5,674.3056 Q2928.75,674.5556 2928.75,674.915 Q2928.75,675.2587 2928.4063,675.665 Q2927.9063,676.2587 2927.1094,676.5869 Q2926.0625,677.04 2924.7813,677.04 Q2923.2813,677.04 2922.0781,676.4462 Q2921.1094,675.9775 2920.4219,674.9619 Q2919.75,673.9462 2919.75,672.7431 L2919.75,671.6494 Q2919.75,670.3994 2920.3438,669.3056 Q2920.9531,668.2119 2922,667.6337 Q2923.0625,667.04 2924.25,667.04 Q2924.9688,667.04 2925.5938,667.29 Q2926.2188,667.54 2926.75,668.04 Z " fill="#000000"/><text fill="#000000" font-family="sans-serif" font-size="14" lengthAdjust="spacing" textLength="120" x="2945.25" y="677.2685">CustomUserDetails</text><line style="stroke:#181818;stroke-width:0.5;" x1="2801" x2="3177" y1="687.54" y2="687.54"/><rect fill="none" height="6" style="stroke:#C82930;stroke-width:1.0;" width="6" x="2808" y="698.8447"/><text fill="#000000" font-family="sans-serif" font-size="14" lengthAdjust="spacing" textLength="47" x="2820" y="706.0732">Long id</text><rect fill="none" height="6" style="stroke:#C82930;stroke-width:1.0;" width="6" x="2808" y="716.4541"/><text fill="#000000" font-family="sans-serif" font-size="14" lengthAdjust="spacing" textLength="104" x="2820" y="723.6826">String username</text><rect fill="none" height="6" style="stroke:#C82930;stroke-width:1.0;" width="6" x="2808" y="734.0634"/><text fill="#000000" font-family="sans-serif" font-size="14" lengthAdjust="spacing" textLength="101" x="2820" y="741.292">String password</text><rect fill="none" height="6" style="stroke:#C82930;stroke-width:1.0;" width="6" x="2808" y="751.6728"/><text fill="#000000" font-family="sans-serif" font-size="14" lengthAdjust="spacing" textLength="83" x="2820" y="758.9013">boolean auth</text><rect fill="none" height="6" style="stroke:#C82930;stroke-width:1.0;" width="6" x="2808" y="769.2822"/><text fill="#000000" font-family="sans-serif" font-size="14" lengthAdjust="spacing" textLength="101" x="2820" y="776.5107">String nickname</text><rect fill="none" height="6" style="stroke:#C82930;stroke-width:1.0;" width="6" x="2808" y="786.8916"/><text fill="#000000" font-family="sans-serif" font-size="14" lengthAdjust="spacing" textLength="65" x="2820" y="794.1201">String role</text><rect fill="none" height="6" style="stroke:#C82930;stroke-width:1.0;" width="6" x="2808" y="804.5009"/><text fill="#000000" font-family="sans-serif" font-size="14" lengthAdjust="spacing" textLength="188" x="2820" y="811.7295">Map&lt;String,Object&gt; attributes</text><line style="stroke:#181818;stroke-width:0.5;" x1="2801" x2="3177" y1="818.8056" y2="818.8056"/><ellipse cx="2811" cy="833.1103" fill="#84BE84" rx="3" ry="3" style="stroke:#038048;stroke-width:1.0;"/><text fill="#000000" font-family="sans-serif" font-size="14" lengthAdjust="spacing" textLength="352" x="2820" y="837.3388">Collection&lt;? extends GrantedAuthority&gt; getAuthorities()</text><ellipse cx="2811" cy="850.7197" fill="#84BE84" rx="3" ry="3" style="stroke:#038048;stroke-width:1.0;"/><text fill="#000000" font-family="sans-serif" font-size="14" lengthAdjust="spacing" textLength="132" x="2820" y="854.9482">String getPassword()</text><ellipse cx="2811" cy="868.3291" fill="#84BE84" rx="3" ry="3" style="stroke:#038048;stroke-width:1.0;"/><text fill="#000000" font-family="sans-serif" font-size="14" lengthAdjust="spacing" textLength="135" x="2820" y="872.5576">String getUsername()</text><ellipse cx="2811" cy="885.9384" fill="#84BE84" rx="3" ry="3" style="stroke:#038048;stroke-width:1.0;"/><text fill="#000000" font-family="sans-serif" font-size="14" lengthAdjust="spacing" textLength="198" x="2820" y="890.167">boolean isAccountNonExpired()</text><ellipse cx="2811" cy="903.5478" fill="#84BE84" rx="3" ry="3" style="stroke:#038048;stroke-width:1.0;"/><text fill="#000000" font-family="sans-serif" font-size="14" lengthAdjust="spacing" textLength="197" x="2820" y="907.7763">boolean isAccountNonLocked()</text><ellipse cx="2811" cy="921.1572" fill="#84BE84" rx="3" ry="3" style="stroke:#038048;stroke-width:1.0;"/><text fill="#000000" font-family="sans-serif" font-size="14" lengthAdjust="spacing" textLength="219" x="2820" y="925.3857">boolean isCredentialsNonExpired()</text><ellipse cx="2811" cy="938.7666" fill="#84BE84" rx="3" ry="3" style="stroke:#038048;stroke-width:1.0;"/><text fill="#000000" font-family="sans-serif" font-size="14" lengthAdjust="spacing" textLength="127" x="2820" y="942.9951">boolean isEnabled()</text><ellipse cx="2811" cy="956.3759" fill="#84BE84" rx="3" ry="3" style="stroke:#038048;stroke-width:1.0;"/><text fill="#000000" font-family="sans-serif" font-size="14" lengthAdjust="spacing" textLength="107" x="2820" y="960.6045">String getName()</text></g><!--class CustomUserDetailsService--><g id="elem_CustomUserDetailsService"><rect codeLine="79" fill="#F1F1F1" height="83.2188" id="CustomUserDetailsService" rx="2.5" ry="2.5" style="stroke:#181818;stroke-width:0.5;" width="285" x="4228.5" y="770"/><ellipse cx="4283.25" cy="786" fill="#ADD1B2" rx="11" ry="11" style="stroke:#181818;stroke-width:1.0;"/><path d="M4285.25,782.5 Q4285.4531,782 4285.6875,781.75 Q4285.9219,781.5 4286.1875,781.5 Q4286.6563,781.5 4286.9531,781.7812 Q4287.25,782.0625 4287.25,782.7187 L4287.25,784.2812 Q4287.25,784.9375 4286.9688,785.2187 Q4286.6875,785.5 4286.25,785.5 Q4285.8594,785.5 4285.6094,785.3281 Q4285.3594,785.1562 4285.25,784.7031 Q4285.2031,784.3906 4285.0313,784.2187 Q4284.7188,783.8906 4284.1563,783.7031 Q4283.5938,783.5 4283.0313,783.5 Q4282.3281,783.5 4281.7344,783.7812 Q4281.1563,784.0625 4280.7031,784.6875 Q4280.25,785.3125 4280.25,786.1719 L4280.25,787.0937 Q4280.25,788.125 4281.0938,788.8125 Q4281.9375,789.5 4283.4375,789.5 Q4284.3281,789.5 4284.9531,789.2969 Q4285.3125,789.1875 4285.7188,788.8281 Q4285.9844,788.625 4286.125,788.5625 Q4286.2656,788.5 4286.4375,788.5 Q4286.7656,788.5 4287,788.7656 Q4287.25,789.0156 4287.25,789.375 Q4287.25,789.7187 4286.9063,790.125 Q4286.4063,790.7187 4285.6094,791.0469 Q4284.5625,791.5 4283.2813,791.5 Q4281.7813,791.5 4280.5781,790.9062 Q4279.6094,790.4375 4278.9219,789.4219 Q4278.25,788.4062 4278.25,787.2031 L4278.25,786.1094 Q4278.25,784.8594 4278.8438,783.7656 Q4279.4531,782.6719 4280.5,782.0937 Q4281.5625,781.5 4282.75,781.5 Q4283.4688,781.5 4284.0938,781.75 Q4284.7188,782 4285.25,782.5 Z " fill="#000000"/><text fill="#000000" font-family="sans-serif" font-size="14" lengthAdjust="spacing" textLength="167" x="4303.75" y="791.7285">CustomUserDetailsService</text><line style="stroke:#181818;stroke-width:0.5;" x1="4229.5" x2="4512.5" y1="802" y2="802"/><rect fill="none" height="6" style="stroke:#C82930;stroke-width:1.0;" width="6" x="4236.5" y="813.3047"/><text fill="#000000" font-family="sans-serif" font-size="14" lengthAdjust="spacing" textLength="242" x="4248.5" y="820.5332">MemberRepository memberRepository</text><line style="stroke:#181818;stroke-width:0.5;" x1="4229.5" x2="4512.5" y1="827.6094" y2="827.6094"/><ellipse cx="4239.5" cy="841.9141" fill="#84BE84" rx="3" ry="3" style="stroke:#038048;stroke-width:1.0;"/><text fill="#000000" font-family="sans-serif" font-size="14" lengthAdjust="spacing" textLength="259" x="4248.5" y="846.1426">UserDetails loadUserByUsername(String)</text></g><!--class CustomOAuth2UserService--><g id="elem_CustomOAuth2UserService"><rect codeLine="32" fill="#F1F1F1" height="100.8281" id="CustomOAuth2UserService" rx="2.5" ry="2.5" style="stroke:#181818;stroke-width:0.5;" width="303" x="387.5" y="761.2"/><ellipse cx="448.75" cy="777.2" fill="#ADD1B2" rx="11" ry="11" style="stroke:#181818;stroke-width:1.0;"/><path d="M450.75,773.7 Q450.9531,773.2 451.1875,772.95 Q451.4219,772.7 451.6875,772.7 Q452.1563,772.7 452.4531,772.9812 Q452.75,773.2625 452.75,773.9187 L452.75,775.4812 Q452.75,776.1375 452.4688,776.4187 Q452.1875,776.7 451.75,776.7 Q451.3594,776.7 451.1094,776.5281 Q450.8594,776.3562 450.75,775.9031 Q450.7031,775.5906 450.5313,775.4187 Q450.2188,775.0906 449.6563,774.9031 Q449.0938,774.7 448.5313,774.7 Q447.8281,774.7 447.2344,774.9812 Q446.6563,775.2625 446.2031,775.8875 Q445.75,776.5125 445.75,777.3719 L445.75,778.2937 Q445.75,779.325 446.5938,780.0125 Q447.4375,780.7 448.9375,780.7 Q449.8281,780.7 450.4531,780.4969 Q450.8125,780.3875 451.2188,780.0281 Q451.4844,779.825 451.625,779.7625 Q451.7656,779.7 451.9375,779.7 Q452.2656,779.7 452.5,779.9656 Q452.75,780.2156 452.75,780.575 Q452.75,780.9187 452.4063,781.325 Q451.9063,781.9187 451.1094,782.2469 Q450.0625,782.7 448.7813,782.7 Q447.2813,782.7 446.0781,782.1062 Q445.1094,781.6375 444.4219,780.6219 Q443.75,779.6062 443.75,778.4031 L443.75,777.3094 Q443.75,776.0594 444.3438,774.9656 Q444.9531,773.8719 446,773.2937 Q447.0625,772.7 448.25,772.7 Q448.9688,772.7 449.5938,772.95 Q450.2188,773.2 450.75,773.7 Z " fill="#000000"/><text fill="#000000" font-family="sans-serif" font-size="14" lengthAdjust="spacing" textLength="172" x="469.25" y="782.9285">CustomOAuth2UserService</text><line style="stroke:#181818;stroke-width:0.5;" x1="388.5" x2="689.5" y1="793.2" y2="793.2"/><rect fill="none" height="6" style="stroke:#C82930;stroke-width:1.0;" width="6" x="395.5" y="804.5047"/><text fill="#000000" font-family="sans-serif" font-size="14" lengthAdjust="spacing" textLength="242" x="407.5" y="811.7332">MemberRepository memberRepository</text><rect fill="none" height="6" style="stroke:#C82930;stroke-width:1.0;" width="6" x="395.5" y="822.1141"/><text fill="#000000" font-family="sans-serif" font-size="14" lengthAdjust="spacing" textLength="231" x="407.5" y="829.3426">PasswordEncoder passwordEncoder</text><line style="stroke:#181818;stroke-width:0.5;" x1="388.5" x2="689.5" y1="836.4187" y2="836.4187"/><ellipse cx="398.5" cy="850.7234" fill="#84BE84" rx="3" ry="3" style="stroke:#038048;stroke-width:1.0;"/><text fill="#000000" font-family="sans-serif" font-size="14" lengthAdjust="spacing" textLength="277" x="407.5" y="854.952">OAuth2User loadUser(OAuth2UserRequest)</text></g><!--class GoogleUserInfo--><g id="elem_GoogleUserInfo"><rect codeLine="9" fill="#F1F1F1" height="118.4375" id="GoogleUserInfo" rx="2.5" ry="2.5" style="stroke:#181818;stroke-width:0.5;" width="214" x="142" y="1027.68"/><ellipse cx="195.75" cy="1043.68" fill="#ADD1B2" rx="11" ry="11" style="stroke:#181818;stroke-width:1.0;"/><path d="M197.75,1040.18 Q197.9531,1039.68 198.1875,1039.43 Q198.4219,1039.18 198.6875,1039.18 Q199.1563,1039.18 199.4531,1039.4612 Q199.75,1039.7425 199.75,1040.3987 L199.75,1041.9612 Q199.75,1042.6175 199.4688,1042.8987 Q199.1875,1043.18 198.75,1043.18 Q198.3594,1043.18 198.1094,1043.0081 Q197.8594,1042.8362 197.75,1042.3831 Q197.7031,1042.0706 197.5313,1041.8987 Q197.2188,1041.5706 196.6563,1041.3831 Q196.0938,1041.18 195.5313,1041.18 Q194.8281,1041.18 194.2344,1041.4612 Q193.6563,1041.7425 193.2031,1042.3675 Q192.75,1042.9925 192.75,1043.8519 L192.75,1044.7737 Q192.75,1045.805 193.5938,1046.4925 Q194.4375,1047.18 195.9375,1047.18 Q196.8281,1047.18 197.4531,1046.9769 Q197.8125,1046.8675 198.2188,1046.5081 Q198.4844,1046.305 198.625,1046.2425 Q198.7656,1046.18 198.9375,1046.18 Q199.2656,1046.18 199.5,1046.4456 Q199.75,1046.6956 199.75,1047.055 Q199.75,1047.3987 199.4063,1047.805 Q198.9063,1048.3987 198.1094,1048.7269 Q197.0625,1049.18 195.7813,1049.18 Q194.2813,1049.18 193.0781,1048.5862 Q192.1094,1048.1175 191.4219,1047.1019 Q190.75,1046.0862 190.75,1044.8831 L190.75,1043.7894 Q190.75,1042.5394 191.3438,1041.4456 Q191.9531,1040.3519 193,1039.7737 Q194.0625,1039.18 195.25,1039.18 Q195.9688,1039.18 196.5938,1039.43 Q197.2188,1039.68 197.75,1040.18 Z " fill="#000000"/><text fill="#000000" font-family="sans-serif" font-size="14" lengthAdjust="spacing" textLength="98" x="216.25" y="1049.4085">GoogleUserInfo</text><line style="stroke:#181818;stroke-width:0.5;" x1="143" x2="355" y1="1059.68" y2="1059.68"/><rect fill="none" height="6" style="stroke:#C82930;stroke-width:1.0;" width="6" x="150" y="1070.9847"/><text fill="#000000" font-family="sans-serif" font-size="14" lengthAdjust="spacing" textLength="188" x="162" y="1078.2132">Map&lt;String,Object&gt; attributes</text><line style="stroke:#181818;stroke-width:0.5;" x1="143" x2="355" y1="1085.2894" y2="1085.2894"/><ellipse cx="153" cy="1099.5941" fill="#84BE84" rx="3" ry="3" style="stroke:#038048;stroke-width:1.0;"/><text fill="#000000" font-family="sans-serif" font-size="14" lengthAdjust="spacing" textLength="124" x="162" y="1103.8226">String getProvider()</text><ellipse cx="153" cy="1117.2034" fill="#84BE84" rx="3" ry="3" style="stroke:#038048;stroke-width:1.0;"/><text fill="#000000" font-family="sans-serif" font-size="14" lengthAdjust="spacing" textLength="135" x="162" y="1121.432">String getProviderId()</text><ellipse cx="153" cy="1134.8128" fill="#84BE84" rx="3" ry="3" style="stroke:#038048;stroke-width:1.0;"/><text fill="#000000" font-family="sans-serif" font-size="14" lengthAdjust="spacing" textLength="105" x="162" y="1139.0413">String getEmail()</text></g><!--class OAuth2UserInfo--><g id="elem_OAuth2UserInfo"><rect codeLine="73" fill="#F1F1F1" height="100.8281" id="OAuth2UserInfo" rx="2.5" ry="2.5" style="stroke:#181818;stroke-width:0.5;" width="161" x="168.5" y="761.2"/><ellipse cx="195.65" cy="777.2" fill="#B4A7E5" rx="11" ry="11" style="stroke:#181818;stroke-width:1.0;"/><path d="M196.65,774.2 L196.65,780.2 L198.65,780.2 L199.1344,780.2 L199.65,780.825 L199.65,781.2 L199.65,781.575 L199.1344,782.2 L198.65,782.2 L192.65,782.2 L192.1656,782.2 L191.65,781.575 L191.65,781.2 L191.65,780.825 L192.1656,780.2 L192.65,780.2 L194.65,780.2 L194.65,774.2 L192.65,774.2 L192.1656,774.2 L191.65,773.575 L191.65,773.2 L191.65,772.825 L192.1656,772.2 L192.65,772.2 L198.65,772.2 L199.1344,772.2 L199.65,772.825 L199.65,773.2 L199.65,773.575 L199.1344,774.2 L198.65,774.2 L196.65,774.2 Z " fill="#000000"/><text fill="#000000" font-family="sans-serif" font-size="14" font-style="italic" lengthAdjust="spacing" textLength="102" x="212.35" y="782.9285">OAuth2UserInfo</text><line style="stroke:#181818;stroke-width:0.5;" x1="169.5" x2="328.5" y1="793.2" y2="793.2"/><line style="stroke:#181818;stroke-width:0.5;" x1="169.5" x2="328.5" y1="801.2" y2="801.2"/><polygon fill="#4177AF" points="179.5,811.5047,175.5,817.5047,183.5,817.5047" style="stroke:#1963A0;stroke-width:1.0;"/><text fill="#000000" font-family="sans-serif" font-size="14" lengthAdjust="spacing" textLength="124" x="188.5" y="819.7332">String getProvider()</text><polygon fill="#4177AF" points="179.5,829.1141,175.5,835.1141,183.5,835.1141" style="stroke:#1963A0;stroke-width:1.0;"/><text fill="#000000" font-family="sans-serif" font-size="14" lengthAdjust="spacing" textLength="135" x="188.5" y="837.3426">String getProviderId()</text><polygon fill="#4177AF" points="179.5,846.7234,175.5,852.7234,183.5,852.7234" style="stroke:#1963A0;stroke-width:1.0;"/><text fill="#000000" font-family="sans-serif" font-size="14" lengthAdjust="spacing" textLength="105" x="188.5" y="854.952">String getEmail()</text></g><!--class JwtAuthenticationEntryPoint--><g id="elem_JwtAuthenticationEntryPoint"><rect codeLine="17" fill="#F1F1F1" height="65.6094" id="JwtAuthenticationEntryPoint" rx="2.5" ry="2.5" style="stroke:#181818;stroke-width:0.5;" width="548" x="770" y="778.81"/><ellipse cx="952.75" cy="794.81" fill="#ADD1B2" rx="11" ry="11" style="stroke:#181818;stroke-width:1.0;"/><path d="M954.75,791.31 Q954.9531,790.81 955.1875,790.56 Q955.4219,790.31 955.6875,790.31 Q956.1563,790.31 956.4531,790.5913 Q956.75,790.8725 956.75,791.5288 L956.75,793.0913 Q956.75,793.7475 956.4688,794.0288 Q956.1875,794.31 955.75,794.31 Q955.3594,794.31 955.1094,794.1381 Q954.8594,793.9663 954.75,793.5131 Q954.7031,793.2006 954.5313,793.0288 Q954.2188,792.7006 953.6563,792.5131 Q953.0938,792.31 952.5313,792.31 Q951.8281,792.31 951.2344,792.5913 Q950.6563,792.8725 950.2031,793.4975 Q949.75,794.1225 949.75,794.9819 L949.75,795.9038 Q949.75,796.935 950.5938,797.6225 Q951.4375,798.31 952.9375,798.31 Q953.8281,798.31 954.4531,798.1069 Q954.8125,797.9975 955.2188,797.6381 Q955.4844,797.435 955.625,797.3725 Q955.7656,797.31 955.9375,797.31 Q956.2656,797.31 956.5,797.5756 Q956.75,797.8256 956.75,798.185 Q956.75,798.5288 956.4063,798.935 Q955.9063,799.5288 955.1094,799.8569 Q954.0625,800.31 952.7813,800.31 Q951.2813,800.31 950.0781,799.7163 Q949.1094,799.2475 948.4219,798.2319 Q947.75,797.2163 947.75,796.0131 L947.75,794.9194 Q947.75,793.6694 948.3438,792.5756 Q948.9531,791.4819 950,790.9038 Q951.0625,790.31 952.25,790.31 Q952.9688,790.31 953.5938,790.56 Q954.2188,790.81 954.75,791.31 Z " fill="#000000"/><text fill="#000000" font-family="sans-serif" font-size="14" lengthAdjust="spacing" textLength="174" x="973.25" y="800.5385">JwtAuthenticationEntryPoint</text><line style="stroke:#181818;stroke-width:0.5;" x1="771" x2="1317" y1="810.81" y2="810.81"/><line style="stroke:#181818;stroke-width:0.5;" x1="771" x2="1317" y1="818.81" y2="818.81"/><ellipse cx="781" cy="833.1147" fill="#84BE84" rx="3" ry="3" style="stroke:#038048;stroke-width:1.0;"/><text fill="#000000" font-family="sans-serif" font-size="14" lengthAdjust="spacing" textLength="522" x="790" y="837.3432">void commence(HttpServletRequest,HttpServletResponse,AuthenticationException)</text></g><!--class JwtRequestFilter--><g id="elem_JwtRequestFilter"><rect codeLine="25" fill="#F1F1F1" height="100.8281" id="JwtRequestFilter" rx="2.5" ry="2.5" style="stroke:#181818;stroke-width:0.5;" width="493" x="1563.5" y="761.2"/><ellipse cx="1753.75" cy="777.2" fill="#ADD1B2" rx="11" ry="11" style="stroke:#181818;stroke-width:1.0;"/><path d="M1755.75,773.7 Q1755.9531,773.2 1756.1875,772.95 Q1756.4219,772.7 1756.6875,772.7 Q1757.1563,772.7 1757.4531,772.9812 Q1757.75,773.2625 1757.75,773.9187 L1757.75,775.4812 Q1757.75,776.1375 1757.4688,776.4187 Q1757.1875,776.7 1756.75,776.7 Q1756.3594,776.7 1756.1094,776.5281 Q1755.8594,776.3562 1755.75,775.9031 Q1755.7031,775.5906 1755.5313,775.4187 Q1755.2188,775.0906 1754.6563,774.9031 Q1754.0938,774.7 1753.5313,774.7 Q1752.8281,774.7 1752.2344,774.9812 Q1751.6563,775.2625 1751.2031,775.8875 Q1750.75,776.5125 1750.75,777.3719 L1750.75,778.2937 Q1750.75,779.325 1751.5938,780.0125 Q1752.4375,780.7 1753.9375,780.7 Q1754.8281,780.7 1755.4531,780.4969 Q1755.8125,780.3875 1756.2188,780.0281 Q1756.4844,779.825 1756.625,779.7625 Q1756.7656,779.7 1756.9375,779.7 Q1757.2656,779.7 1757.5,779.9656 Q1757.75,780.2156 1757.75,780.575 Q1757.75,780.9187 1757.4063,781.325 Q1756.9063,781.9187 1756.1094,782.2469 Q1755.0625,782.7 1753.7813,782.7 Q1752.2813,782.7 1751.0781,782.1062 Q1750.1094,781.6375 1749.4219,780.6219 Q1748.75,779.6062 1748.75,778.4031 L1748.75,777.3094 Q1748.75,776.0594 1749.3438,774.9656 Q1749.9531,773.8719 1751,773.2937 Q1752.0625,772.7 1753.25,772.7 Q1753.9688,772.7 1754.5938,772.95 Q1755.2188,773.2 1755.75,773.7 Z " fill="#000000"/><text fill="#000000" font-family="sans-serif" font-size="14" lengthAdjust="spacing" textLength="104" x="1774.25" y="782.9285">JwtRequestFilter</text><line style="stroke:#181818;stroke-width:0.5;" x1="1564.5" x2="2055.5" y1="793.2" y2="793.2"/><rect fill="none" height="6" style="stroke:#C82930;stroke-width:1.0;" width="6" x="1571.5" y="804.5047"/><text fill="#000000" font-family="sans-serif" font-size="14" lengthAdjust="spacing" textLength="241" x="1583.5" y="811.7332">UserDetailsService userDetailsService</text><rect fill="none" height="6" style="stroke:#C82930;stroke-width:1.0;" width="6" x="1571.5" y="822.1141"/><text fill="#000000" font-family="sans-serif" font-size="14" lengthAdjust="spacing" textLength="133" x="1583.5" y="829.3426">JwtService jwtService</text><line style="stroke:#181818;stroke-width:0.5;" x1="1564.5" x2="2055.5" y1="836.4187" y2="836.4187"/><polygon fill="#FFFF44" points="1574.5,845.7234,1578.5,849.7234,1574.5,853.7234,1570.5,849.7234" style="stroke:#B38D22;stroke-width:1.0;"/><text fill="#000000" font-family="sans-serif" font-size="14" lengthAdjust="spacing" textLength="467" x="1583.5" y="854.952">void doFilterInternal(HttpServletRequest,HttpServletResponse,FilterChain)</text></g><!--class JwtAuthenticationFilter--><g id="elem_JwtAuthenticationFilter"><rect codeLine="58" fill="#F1F1F1" height="153.6563" id="JwtAuthenticationFilter" rx="2.5" ry="2.5" style="stroke:#181818;stroke-width:0.5;" width="652" x="2092" y="734.78"/><ellipse cx="2343.25" cy="750.78" fill="#ADD1B2" rx="11" ry="11" style="stroke:#181818;stroke-width:1.0;"/><path d="M2345.25,747.28 Q2345.4531,746.78 2345.6875,746.53 Q2345.9219,746.28 2346.1875,746.28 Q2346.6563,746.28 2346.9531,746.5612 Q2347.25,746.8425 2347.25,747.4987 L2347.25,749.0612 Q2347.25,749.7175 2346.9688,749.9987 Q2346.6875,750.28 2346.25,750.28 Q2345.8594,750.28 2345.6094,750.1081 Q2345.3594,749.9362 2345.25,749.4831 Q2345.2031,749.1706 2345.0313,748.9987 Q2344.7188,748.6706 2344.1563,748.4831 Q2343.5938,748.28 2343.0313,748.28 Q2342.3281,748.28 2341.7344,748.5612 Q2341.1563,748.8425 2340.7031,749.4675 Q2340.25,750.0925 2340.25,750.9519 L2340.25,751.8737 Q2340.25,752.905 2341.0938,753.5925 Q2341.9375,754.28 2343.4375,754.28 Q2344.3281,754.28 2344.9531,754.0769 Q2345.3125,753.9675 2345.7188,753.6081 Q2345.9844,753.405 2346.125,753.3425 Q2346.2656,753.28 2346.4375,753.28 Q2346.7656,753.28 2347,753.5456 Q2347.25,753.7956 2347.25,754.155 Q2347.25,754.4987 2346.9063,754.905 Q2346.4063,755.4987 2345.6094,755.8269 Q2344.5625,756.28 2343.2813,756.28 Q2341.7813,756.28 2340.5781,755.6862 Q2339.6094,755.2175 2338.9219,754.2019 Q2338.25,753.1862 2338.25,751.9831 L2338.25,750.8894 Q2338.25,749.6394 2338.8438,748.5456 Q2339.4531,747.4519 2340.5,746.8737 Q2341.5625,746.28 2342.75,746.28 Q2343.4688,746.28 2344.0938,746.53 Q2344.7188,746.78 2345.25,747.28 Z " fill="#000000"/><text fill="#000000" font-family="sans-serif" font-size="14" lengthAdjust="spacing" textLength="141" x="2363.75" y="756.5085">JwtAuthenticationFilter</text><line style="stroke:#181818;stroke-width:0.5;" x1="2093" x2="2743" y1="766.78" y2="766.78"/><rect fill="none" height="6" style="stroke:#C82930;stroke-width:1.0;" width="6" x="2100" y="778.0847"/><text fill="#000000" font-family="sans-serif" font-size="14" lengthAdjust="spacing" textLength="295" x="2112" y="785.3132">AuthenticationManager authenticationManager</text><rect fill="none" height="6" style="stroke:#C82930;stroke-width:1.0;" width="6" x="2100" y="795.6941"/><text fill="#000000" font-family="sans-serif" font-size="14" lengthAdjust="spacing" textLength="133" x="2112" y="802.9226">JwtService jwtService</text><rect fill="none" height="6" style="stroke:#C82930;stroke-width:1.0;" width="6" x="2100" y="813.3034"/><text fill="#000000" font-family="sans-serif" font-size="14" lengthAdjust="spacing" textLength="69" x="2112" y="820.532">Gson gson</text><line style="stroke:#181818;stroke-width:0.5;" x1="2093" x2="2743" y1="827.6081" y2="827.6081"/><ellipse cx="2103" cy="841.9128" fill="#84BE84" rx="3" ry="3" style="stroke:#038048;stroke-width:1.0;"/><text fill="#000000" font-family="sans-serif" font-size="14" lengthAdjust="spacing" textLength="500" x="2112" y="846.1413">Authentication attemptAuthentication(HttpServletRequest,HttpServletResponse)</text><polygon fill="#FFFF44" points="2103,854.5222,2107,858.5222,2103,862.5222,2099,858.5222" style="stroke:#B38D22;stroke-width:1.0;"/><text fill="#000000" font-family="sans-serif" font-size="14" lengthAdjust="spacing" textLength="622" x="2112" y="863.7507">void successfulAuthentication(HttpServletRequest,HttpServletResponse,FilterChain,Authentication)</text><polygon fill="#FFFF44" points="2103,872.1316,2107,876.1316,2103,880.1316,2099,876.1316" style="stroke:#B38D22;stroke-width:1.0;"/><text fill="#000000" font-family="sans-serif" font-size="14" lengthAdjust="spacing" textLength="626" x="2112" y="881.3601">void unsuccessfulAuthentication(HttpServletRequest,HttpServletResponse,AuthenticationException)</text></g><!--class LoginBody--><g id="elem_LoginBody"><rect codeLine="68" fill="#F1F1F1" height="83.2188" id="LoginBody" rx="2.5" ry="2.5" style="stroke:#181818;stroke-width:0.5;" width="130" x="1398" y="770"/><ellipse cx="1426.95" cy="786" fill="#ADD1B2" rx="11" ry="11" style="stroke:#181818;stroke-width:1.0;"/><path d="M1428.95,782.5 Q1429.1531,782 1429.3875,781.75 Q1429.6219,781.5 1429.8875,781.5 Q1430.3563,781.5 1430.6531,781.7812 Q1430.95,782.0625 1430.95,782.7187 L1430.95,784.2812 Q1430.95,784.9375 1430.6688,785.2187 Q1430.3875,785.5 1429.95,785.5 Q1429.5594,785.5 1429.3094,785.3281 Q1429.0594,785.1562 1428.95,784.7031 Q1428.9031,784.3906 1428.7313,784.2187 Q1428.4188,783.8906 1427.8563,783.7031 Q1427.2938,783.5 1426.7313,783.5 Q1426.0281,783.5 1425.4344,783.7812 Q1424.8563,784.0625 1424.4031,784.6875 Q1423.95,785.3125 1423.95,786.1719 L1423.95,787.0937 Q1423.95,788.125 1424.7938,788.8125 Q1425.6375,789.5 1427.1375,789.5 Q1428.0281,789.5 1428.6531,789.2969 Q1429.0125,789.1875 1429.4188,788.8281 Q1429.6844,788.625 1429.825,788.5625 Q1429.9656,788.5 1430.1375,788.5 Q1430.4656,788.5 1430.7,788.7656 Q1430.95,789.0156 1430.95,789.375 Q1430.95,789.7187 1430.6063,790.125 Q1430.1063,790.7187 1429.3094,791.0469 Q1428.2625,791.5 1426.9813,791.5 Q1425.4813,791.5 1424.2781,790.9062 Q1423.3094,790.4375 1422.6219,789.4219 Q1421.95,788.4062 1421.95,787.2031 L1421.95,786.1094 Q1421.95,784.8594 1422.5438,783.7656 Q1423.1531,782.6719 1424.2,782.0937 Q1425.2625,781.5 1426.45,781.5 Q1427.1688,781.5 1427.7938,781.75 Q1428.4188,782 1428.95,782.5 Z " fill="#000000"/><text fill="#000000" font-family="sans-serif" font-size="14" lengthAdjust="spacing" textLength="67" x="1444.05" y="791.7285">LoginBody</text><line style="stroke:#181818;stroke-width:0.5;" x1="1399" x2="1527" y1="802" y2="802"/><rect fill="none" height="6" style="stroke:#C82930;stroke-width:1.0;" width="6" x="1406" y="813.3047"/><text fill="#000000" font-family="sans-serif" font-size="14" lengthAdjust="spacing" textLength="104" x="1418" y="820.5332">String username</text><rect fill="none" height="6" style="stroke:#C82930;stroke-width:1.0;" width="6" x="1406" y="830.9141"/><text fill="#000000" font-family="sans-serif" font-size="14" lengthAdjust="spacing" textLength="101" x="1418" y="838.1426">String password</text><line style="stroke:#181818;stroke-width:0.5;" x1="1399" x2="1527" y1="845.2187" y2="845.2187"/></g><!--class AuthenticationProvider--><g id="elem_AuthenticationProvider"><rect fill="#F1F1F1" height="48" id="AuthenticationProvider" rx="2.5" ry="2.5" style="stroke:#181818;stroke-width:0.5;" width="175" x="3399.5" y="262"/><ellipse cx="3414.5" cy="278" fill="#ADD1B2" rx="11" ry="11" style="stroke:#181818;stroke-width:1.0;"/><path d="M3416.5,274.5 Q3416.7031,274 3416.9375,273.75 Q3417.1719,273.5 3417.4375,273.5 Q3417.9063,273.5 3418.2031,273.7813 Q3418.5,274.0625 3418.5,274.7188 L3418.5,276.2813 Q3418.5,276.9375 3418.2188,277.2188 Q3417.9375,277.5 3417.5,277.5 Q3417.1094,277.5 3416.8594,277.3281 Q3416.6094,277.1563 3416.5,276.7031 Q3416.4531,276.3906 3416.2813,276.2188 Q3415.9688,275.8906 3415.4063,275.7031 Q3414.8438,275.5 3414.2813,275.5 Q3413.5781,275.5 3412.9844,275.7813 Q3412.4063,276.0625 3411.9531,276.6875 Q3411.5,277.3125 3411.5,278.1719 L3411.5,279.0938 Q3411.5,280.125 3412.3438,280.8125 Q3413.1875,281.5 3414.6875,281.5 Q3415.5781,281.5 3416.2031,281.2969 Q3416.5625,281.1875 3416.9688,280.8281 Q3417.2344,280.625 3417.375,280.5625 Q3417.5156,280.5 3417.6875,280.5 Q3418.0156,280.5 3418.25,280.7656 Q3418.5,281.0156 3418.5,281.375 Q3418.5,281.7188 3418.1563,282.125 Q3417.6563,282.7188 3416.8594,283.0469 Q3415.8125,283.5 3414.5313,283.5 Q3413.0313,283.5 3411.8281,282.9063 Q3410.8594,282.4375 3410.1719,281.4219 Q3409.5,280.4063 3409.5,279.2031 L3409.5,278.1094 Q3409.5,276.8594 3410.0938,275.7656 Q3410.7031,274.6719 3411.75,274.0938 Q3412.8125,273.5 3414,273.5 Q3414.7188,273.5 3415.3438,273.75 Q3415.9688,274 3416.5,274.5 Z " fill="#000000"/><text fill="#000000" font-family="sans-serif" font-size="14" lengthAdjust="spacing" textLength="143" x="3428.5" y="283.7285">AuthenticationProvider</text><line style="stroke:#181818;stroke-width:0.5;" x1="3400.5" x2="3573.5" y1="294" y2="294"/><line style="stroke:#181818;stroke-width:0.5;" x1="3400.5" x2="3573.5" y1="302" y2="302"/></g><!--class AuthenticationEntryPoint--><g id="elem_AuthenticationEntryPoint"><rect fill="#F1F1F1" height="48" id="AuthenticationEntryPoint" rx="2.5" ry="2.5" style="stroke:#181818;stroke-width:0.5;" width="187" x="2568.5" y="262"/><ellipse cx="2583.5" cy="278" fill="#ADD1B2" rx="11" ry="11" style="stroke:#181818;stroke-width:1.0;"/><path d="M2585.5,274.5 Q2585.7031,274 2585.9375,273.75 Q2586.1719,273.5 2586.4375,273.5 Q2586.9063,273.5 2587.2031,273.7813 Q2587.5,274.0625 2587.5,274.7188 L2587.5,276.2813 Q2587.5,276.9375 2587.2188,277.2188 Q2586.9375,277.5 2586.5,277.5 Q2586.1094,277.5 2585.8594,277.3281 Q2585.6094,277.1563 2585.5,276.7031 Q2585.4531,276.3906 2585.2813,276.2188 Q2584.9688,275.8906 2584.4063,275.7031 Q2583.8438,275.5 2583.2813,275.5 Q2582.5781,275.5 2581.9844,275.7813 Q2581.4063,276.0625 2580.9531,276.6875 Q2580.5,277.3125 2580.5,278.1719 L2580.5,279.0938 Q2580.5,280.125 2581.3438,280.8125 Q2582.1875,281.5 2583.6875,281.5 Q2584.5781,281.5 2585.2031,281.2969 Q2585.5625,281.1875 2585.9688,280.8281 Q2586.2344,280.625 2586.375,280.5625 Q2586.5156,280.5 2586.6875,280.5 Q2587.0156,280.5 2587.25,280.7656 Q2587.5,281.0156 2587.5,281.375 Q2587.5,281.7188 2587.1563,282.125 Q2586.6563,282.7188 2585.8594,283.0469 Q2584.8125,283.5 2583.5313,283.5 Q2582.0313,283.5 2580.8281,282.9063 Q2579.8594,282.4375 2579.1719,281.4219 Q2578.5,280.4063 2578.5,279.2031 L2578.5,278.1094 Q2578.5,276.8594 2579.0938,275.7656 Q2579.7031,274.6719 2580.75,274.0938 Q2581.8125,273.5 2583,273.5 Q2583.7188,273.5 2584.3438,273.75 Q2584.9688,274 2585.5,274.5 Z " fill="#000000"/><text fill="#000000" font-family="sans-serif" font-size="14" lengthAdjust="spacing" textLength="155" x="2597.5" y="283.7285">AuthenticationEntryPoint</text><line style="stroke:#181818;stroke-width:0.5;" x1="2569.5" x2="2754.5" y1="294" y2="294"/><line style="stroke:#181818;stroke-width:0.5;" x1="2569.5" x2="2754.5" y1="302" y2="302"/></g><!--class AuthenticationFailureHandler--><g id="elem_AuthenticationFailureHandler"><rect fill="#F1F1F1" height="48" id="AuthenticationFailureHandler" rx="2.5" ry="2.5" style="stroke:#181818;stroke-width:0.5;" width="215" x="3104.5" y="262"/><ellipse cx="3119.5" cy="278" fill="#ADD1B2" rx="11" ry="11" style="stroke:#181818;stroke-width:1.0;"/><path d="M3121.5,274.5 Q3121.7031,274 3121.9375,273.75 Q3122.1719,273.5 3122.4375,273.5 Q3122.9063,273.5 3123.2031,273.7813 Q3123.5,274.0625 3123.5,274.7188 L3123.5,276.2813 Q3123.5,276.9375 3123.2188,277.2188 Q3122.9375,277.5 3122.5,277.5 Q3122.1094,277.5 3121.8594,277.3281 Q3121.6094,277.1563 3121.5,276.7031 Q3121.4531,276.3906 3121.2813,276.2188 Q3120.9688,275.8906 3120.4063,275.7031 Q3119.8438,275.5 3119.2813,275.5 Q3118.5781,275.5 3117.9844,275.7813 Q3117.4063,276.0625 3116.9531,276.6875 Q3116.5,277.3125 3116.5,278.1719 L3116.5,279.0938 Q3116.5,280.125 3117.3438,280.8125 Q3118.1875,281.5 3119.6875,281.5 Q3120.5781,281.5 3121.2031,281.2969 Q3121.5625,281.1875 3121.9688,280.8281 Q3122.2344,280.625 3122.375,280.5625 Q3122.5156,280.5 3122.6875,280.5 Q3123.0156,280.5 3123.25,280.7656 Q3123.5,281.0156 3123.5,281.375 Q3123.5,281.7188 3123.1563,282.125 Q3122.6563,282.7188 3121.8594,283.0469 Q3120.8125,283.5 3119.5313,283.5 Q3118.0313,283.5 3116.8281,282.9063 Q3115.8594,282.4375 3115.1719,281.4219 Q3114.5,280.4063 3114.5,279.2031 L3114.5,278.1094 Q3114.5,276.8594 3115.0938,275.7656 Q3115.7031,274.6719 3116.75,274.0938 Q3117.8125,273.5 3119,273.5 Q3119.7188,273.5 3120.3438,273.75 Q3120.9688,274 3121.5,274.5 Z " fill="#000000"/><text fill="#000000" font-family="sans-serif" font-size="14" lengthAdjust="spacing" textLength="183" x="3133.5" y="283.7285">AuthenticationFailureHandler</text><line style="stroke:#181818;stroke-width:0.5;" x1="3105.5" x2="3318.5" y1="294" y2="294"/><line style="stroke:#181818;stroke-width:0.5;" x1="3105.5" x2="3318.5" y1="302" y2="302"/></g><!--class UsernamePasswordAuthenticationFilter--><g id="elem_UsernamePasswordAuthenticationFilter"><rect fill="#F1F1F1" height="48" id="UsernamePasswordAuthenticationFilter" rx="2.5" ry="2.5" style="stroke:#181818;stroke-width:0.5;" width="279" x="2790.5" y="262"/><ellipse cx="2805.5" cy="278" fill="#ADD1B2" rx="11" ry="11" style="stroke:#181818;stroke-width:1.0;"/><path d="M2807.5,274.5 Q2807.7031,274 2807.9375,273.75 Q2808.1719,273.5 2808.4375,273.5 Q2808.9063,273.5 2809.2031,273.7813 Q2809.5,274.0625 2809.5,274.7188 L2809.5,276.2813 Q2809.5,276.9375 2809.2188,277.2188 Q2808.9375,277.5 2808.5,277.5 Q2808.1094,277.5 2807.8594,277.3281 Q2807.6094,277.1563 2807.5,276.7031 Q2807.4531,276.3906 2807.2813,276.2188 Q2806.9688,275.8906 2806.4063,275.7031 Q2805.8438,275.5 2805.2813,275.5 Q2804.5781,275.5 2803.9844,275.7813 Q2803.4063,276.0625 2802.9531,276.6875 Q2802.5,277.3125 2802.5,278.1719 L2802.5,279.0938 Q2802.5,280.125 2803.3438,280.8125 Q2804.1875,281.5 2805.6875,281.5 Q2806.5781,281.5 2807.2031,281.2969 Q2807.5625,281.1875 2807.9688,280.8281 Q2808.2344,280.625 2808.375,280.5625 Q2808.5156,280.5 2808.6875,280.5 Q2809.0156,280.5 2809.25,280.7656 Q2809.5,281.0156 2809.5,281.375 Q2809.5,281.7188 2809.1563,282.125 Q2808.6563,282.7188 2807.8594,283.0469 Q2806.8125,283.5 2805.5313,283.5 Q2804.0313,283.5 2802.8281,282.9063 Q2801.8594,282.4375 2801.1719,281.4219 Q2800.5,280.4063 2800.5,279.2031 L2800.5,278.1094 Q2800.5,276.8594 2801.0938,275.7656 Q2801.7031,274.6719 2802.75,274.0938 Q2803.8125,273.5 2805,273.5 Q2805.7188,273.5 2806.3438,273.75 Q2806.9688,274 2807.5,274.5 Z " fill="#000000"/><text fill="#000000" font-family="sans-serif" font-size="14" lengthAdjust="spacing" textLength="247" x="2819.5" y="283.7285">UsernamePasswordAuthenticationFilter</text><line style="stroke:#181818;stroke-width:0.5;" x1="2791.5" x2="3068.5" y1="294" y2="294"/><line style="stroke:#181818;stroke-width:0.5;" x1="2791.5" x2="3068.5" y1="302" y2="302"/></g><!--class DefaultOAuth2UserService--><g id="elem_DefaultOAuth2UserService"><rect fill="#F1F1F1" height="48" id="DefaultOAuth2UserService" rx="2.5" ry="2.5" style="stroke:#181818;stroke-width:0.5;" width="201" x="2049.5" y="262"/><ellipse cx="2064.5" cy="278" fill="#ADD1B2" rx="11" ry="11" style="stroke:#181818;stroke-width:1.0;"/><path d="M2066.5,274.5 Q2066.7031,274 2066.9375,273.75 Q2067.1719,273.5 2067.4375,273.5 Q2067.9063,273.5 2068.2031,273.7813 Q2068.5,274.0625 2068.5,274.7188 L2068.5,276.2813 Q2068.5,276.9375 2068.2188,277.2188 Q2067.9375,277.5 2067.5,277.5 Q2067.1094,277.5 2066.8594,277.3281 Q2066.6094,277.1563 2066.5,276.7031 Q2066.4531,276.3906 2066.2813,276.2188 Q2065.9688,275.8906 2065.4063,275.7031 Q2064.8438,275.5 2064.2813,275.5 Q2063.5781,275.5 2062.9844,275.7813 Q2062.4063,276.0625 2061.9531,276.6875 Q2061.5,277.3125 2061.5,278.1719 L2061.5,279.0938 Q2061.5,280.125 2062.3438,280.8125 Q2063.1875,281.5 2064.6875,281.5 Q2065.5781,281.5 2066.2031,281.2969 Q2066.5625,281.1875 2066.9688,280.8281 Q2067.2344,280.625 2067.375,280.5625 Q2067.5156,280.5 2067.6875,280.5 Q2068.0156,280.5 2068.25,280.7656 Q2068.5,281.0156 2068.5,281.375 Q2068.5,281.7188 2068.1563,282.125 Q2067.6563,282.7188 2066.8594,283.0469 Q2065.8125,283.5 2064.5313,283.5 Q2063.0313,283.5 2061.8281,282.9063 Q2060.8594,282.4375 2060.1719,281.4219 Q2059.5,280.4063 2059.5,279.2031 L2059.5,278.1094 Q2059.5,276.8594 2060.0938,275.7656 Q2060.7031,274.6719 2061.75,274.0938 Q2062.8125,273.5 2064,273.5 Q2064.7188,273.5 2065.3438,273.75 Q2065.9688,274 2066.5,274.5 Z " fill="#000000"/><text fill="#000000" font-family="sans-serif" font-size="14" lengthAdjust="spacing" textLength="169" x="2078.5" y="283.7285">DefaultOAuth2UserService</text><line style="stroke:#181818;stroke-width:0.5;" x1="2050.5" x2="2249.5" y1="294" y2="294"/><line style="stroke:#181818;stroke-width:0.5;" x1="2050.5" x2="2249.5" y1="302" y2="302"/></g><!--class OAuth2User--><g id="elem_OAuth2User"><rect fill="#F1F1F1" height="48" id="OAuth2User" rx="2.5" ry="2.5" style="stroke:#181818;stroke-width:0.5;" width="109" x="2355.5" y="262"/><ellipse cx="2370.5" cy="278" fill="#ADD1B2" rx="11" ry="11" style="stroke:#181818;stroke-width:1.0;"/><path d="M2372.5,274.5 Q2372.7031,274 2372.9375,273.75 Q2373.1719,273.5 2373.4375,273.5 Q2373.9063,273.5 2374.2031,273.7813 Q2374.5,274.0625 2374.5,274.7188 L2374.5,276.2813 Q2374.5,276.9375 2374.2188,277.2188 Q2373.9375,277.5 2373.5,277.5 Q2373.1094,277.5 2372.8594,277.3281 Q2372.6094,277.1563 2372.5,276.7031 Q2372.4531,276.3906 2372.2813,276.2188 Q2371.9688,275.8906 2371.4063,275.7031 Q2370.8438,275.5 2370.2813,275.5 Q2369.5781,275.5 2368.9844,275.7813 Q2368.4063,276.0625 2367.9531,276.6875 Q2367.5,277.3125 2367.5,278.1719 L2367.5,279.0938 Q2367.5,280.125 2368.3438,280.8125 Q2369.1875,281.5 2370.6875,281.5 Q2371.5781,281.5 2372.2031,281.2969 Q2372.5625,281.1875 2372.9688,280.8281 Q2373.2344,280.625 2373.375,280.5625 Q2373.5156,280.5 2373.6875,280.5 Q2374.0156,280.5 2374.25,280.7656 Q2374.5,281.0156 2374.5,281.375 Q2374.5,281.7188 2374.1563,282.125 Q2373.6563,282.7188 2372.8594,283.0469 Q2371.8125,283.5 2370.5313,283.5 Q2369.0313,283.5 2367.8281,282.9063 Q2366.8594,282.4375 2366.1719,281.4219 Q2365.5,280.4063 2365.5,279.2031 L2365.5,278.1094 Q2365.5,276.8594 2366.0938,275.7656 Q2366.7031,274.6719 2367.75,274.0938 Q2368.8125,273.5 2370,273.5 Q2370.7188,273.5 2371.3438,273.75 Q2371.9688,274 2372.5,274.5 Z " fill="#000000"/><text fill="#000000" font-family="sans-serif" font-size="14" lengthAdjust="spacing" textLength="77" x="2384.5" y="283.7285">OAuth2User</text><line style="stroke:#181818;stroke-width:0.5;" x1="2356.5" x2="2463.5" y1="294" y2="294"/><line style="stroke:#181818;stroke-width:0.5;" x1="2356.5" x2="2463.5" y1="302" y2="302"/></g><!--class UserDetails--><g id="elem_UserDetails"><rect fill="#F1F1F1" height="48" id="UserDetails" rx="2.5" ry="2.5" style="stroke:#181818;stroke-width:0.5;" width="104" x="3655" y="262"/><ellipse cx="3670" cy="278" fill="#ADD1B2" rx="11" ry="11" style="stroke:#181818;stroke-width:1.0;"/><path d="M3672,274.5 Q3672.2031,274 3672.4375,273.75 Q3672.6719,273.5 3672.9375,273.5 Q3673.4063,273.5 3673.7031,273.7813 Q3674,274.0625 3674,274.7188 L3674,276.2813 Q3674,276.9375 3673.7188,277.2188 Q3673.4375,277.5 3673,277.5 Q3672.6094,277.5 3672.3594,277.3281 Q3672.1094,277.1563 3672,276.7031 Q3671.9531,276.3906 3671.7813,276.2188 Q3671.4688,275.8906 3670.9063,275.7031 Q3670.3438,275.5 3669.7813,275.5 Q3669.0781,275.5 3668.4844,275.7813 Q3667.9063,276.0625 3667.4531,276.6875 Q3667,277.3125 3667,278.1719 L3667,279.0938 Q3667,280.125 3667.8438,280.8125 Q3668.6875,281.5 3670.1875,281.5 Q3671.0781,281.5 3671.7031,281.2969 Q3672.0625,281.1875 3672.4688,280.8281 Q3672.7344,280.625 3672.875,280.5625 Q3673.0156,280.5 3673.1875,280.5 Q3673.5156,280.5 3673.75,280.7656 Q3674,281.0156 3674,281.375 Q3674,281.7188 3673.6563,282.125 Q3673.1563,282.7188 3672.3594,283.0469 Q3671.3125,283.5 3670.0313,283.5 Q3668.5313,283.5 3667.3281,282.9063 Q3666.3594,282.4375 3665.6719,281.4219 Q3665,280.4063 3665,279.2031 L3665,278.1094 Q3665,276.8594 3665.5938,275.7656 Q3666.2031,274.6719 3667.25,274.0938 Q3668.3125,273.5 3669.5,273.5 Q3670.2188,273.5 3670.8438,273.75 Q3671.4688,274 3672,274.5 Z " fill="#000000"/><text fill="#000000" font-family="sans-serif" font-size="14" lengthAdjust="spacing" textLength="72" x="3684" y="283.7285">UserDetails</text><line style="stroke:#181818;stroke-width:0.5;" x1="3656" x2="3758" y1="294" y2="294"/><line style="stroke:#181818;stroke-width:0.5;" x1="3656" x2="3758" y1="302" y2="302"/></g><!--class UserDetailsService--><g id="elem_UserDetailsService"><rect fill="#F1F1F1" height="48" id="UserDetailsService" rx="2.5" ry="2.5" style="stroke:#181818;stroke-width:0.5;" width="151" x="3793.5" y="262"/><ellipse cx="3808.5" cy="278" fill="#ADD1B2" rx="11" ry="11" style="stroke:#181818;stroke-width:1.0;"/><path d="M3810.5,274.5 Q3810.7031,274 3810.9375,273.75 Q3811.1719,273.5 3811.4375,273.5 Q3811.9063,273.5 3812.2031,273.7813 Q3812.5,274.0625 3812.5,274.7188 L3812.5,276.2813 Q3812.5,276.9375 3812.2188,277.2188 Q3811.9375,277.5 3811.5,277.5 Q3811.1094,277.5 3810.8594,277.3281 Q3810.6094,277.1563 3810.5,276.7031 Q3810.4531,276.3906 3810.2813,276.2188 Q3809.9688,275.8906 3809.4063,275.7031 Q3808.8438,275.5 3808.2813,275.5 Q3807.5781,275.5 3806.9844,275.7813 Q3806.4063,276.0625 3805.9531,276.6875 Q3805.5,277.3125 3805.5,278.1719 L3805.5,279.0938 Q3805.5,280.125 3806.3438,280.8125 Q3807.1875,281.5 3808.6875,281.5 Q3809.5781,281.5 3810.2031,281.2969 Q3810.5625,281.1875 3810.9688,280.8281 Q3811.2344,280.625 3811.375,280.5625 Q3811.5156,280.5 3811.6875,280.5 Q3812.0156,280.5 3812.25,280.7656 Q3812.5,281.0156 3812.5,281.375 Q3812.5,281.7188 3812.1563,282.125 Q3811.6563,282.7188 3810.8594,283.0469 Q3809.8125,283.5 3808.5313,283.5 Q3807.0313,283.5 3805.8281,282.9063 Q3804.8594,282.4375 3804.1719,281.4219 Q3803.5,280.4063 3803.5,279.2031 L3803.5,278.1094 Q3803.5,276.8594 3804.0938,275.7656 Q3804.7031,274.6719 3805.75,274.0938 Q3806.8125,273.5 3808,273.5 Q3808.7188,273.5 3809.3438,273.75 Q3809.9688,274 3810.5,274.5 Z " fill="#000000"/><text fill="#000000" font-family="sans-serif" font-size="14" lengthAdjust="spacing" textLength="119" x="3822.5" y="283.7285">UserDetailsService</text><line style="stroke:#181818;stroke-width:0.5;" x1="3794.5" x2="3943.5" y1="294" y2="294"/><line style="stroke:#181818;stroke-width:0.5;" x1="3794.5" x2="3943.5" y1="302" y2="302"/></g><!--class OncePerRequestFilter--><g id="elem_OncePerRequestFilter"><rect fill="#F1F1F1" height="48" id="OncePerRequestFilter" rx="2.5" ry="2.5" style="stroke:#181818;stroke-width:0.5;" width="173" x="1723.5" y="262"/><ellipse cx="1738.5" cy="278" fill="#ADD1B2" rx="11" ry="11" style="stroke:#181818;stroke-width:1.0;"/><path d="M1740.5,274.5 Q1740.7031,274 1740.9375,273.75 Q1741.1719,273.5 1741.4375,273.5 Q1741.9063,273.5 1742.2031,273.7813 Q1742.5,274.0625 1742.5,274.7188 L1742.5,276.2813 Q1742.5,276.9375 1742.2188,277.2188 Q1741.9375,277.5 1741.5,277.5 Q1741.1094,277.5 1740.8594,277.3281 Q1740.6094,277.1563 1740.5,276.7031 Q1740.4531,276.3906 1740.2813,276.2188 Q1739.9688,275.8906 1739.4063,275.7031 Q1738.8438,275.5 1738.2813,275.5 Q1737.5781,275.5 1736.9844,275.7813 Q1736.4063,276.0625 1735.9531,276.6875 Q1735.5,277.3125 1735.5,278.1719 L1735.5,279.0938 Q1735.5,280.125 1736.3438,280.8125 Q1737.1875,281.5 1738.6875,281.5 Q1739.5781,281.5 1740.2031,281.2969 Q1740.5625,281.1875 1740.9688,280.8281 Q1741.2344,280.625 1741.375,280.5625 Q1741.5156,280.5 1741.6875,280.5 Q1742.0156,280.5 1742.25,280.7656 Q1742.5,281.0156 1742.5,281.375 Q1742.5,281.7188 1742.1563,282.125 Q1741.6563,282.7188 1740.8594,283.0469 Q1739.8125,283.5 1738.5313,283.5 Q1737.0313,283.5 1735.8281,282.9063 Q1734.8594,282.4375 1734.1719,281.4219 Q1733.5,280.4063 1733.5,279.2031 L1733.5,278.1094 Q1733.5,276.8594 1734.0938,275.7656 Q1734.7031,274.6719 1735.75,274.0938 Q1736.8125,273.5 1738,273.5 Q1738.7188,273.5 1739.3438,273.75 Q1739.9688,274 1740.5,274.5 Z " fill="#000000"/><text fill="#000000" font-family="sans-serif" font-size="14" lengthAdjust="spacing" textLength="141" x="1752.5" y="283.7285">OncePerRequestFilter</text><line style="stroke:#181818;stroke-width:0.5;" x1="1724.5" x2="1895.5" y1="294" y2="294"/><line style="stroke:#181818;stroke-width:0.5;" x1="1724.5" x2="1895.5" y1="302" y2="302"/></g><!--reverse link AuthenticationProvider to CustomAuthenticationProvider--><g id="link_AuthenticationProvider_CustomAuthenticationProvider"><path codeLine="87" d="M3510.95,328.5 C3536.79,368.78 3582,427.57 3639,454 C3661.39,464.39 3840.23,448.67 3861,462 C3962.72,527.31 4007.67,671.03 4025.56,752.07 " fill="none" id="AuthenticationProvider-backto-CustomAuthenticationProvider" style="stroke:#181818;stroke-width:1.0;stroke-dasharray:7.0,7.0;"/><polygon fill="none" points="3505.16,332.44,3500.65,311.73,3517.09,325.11,3505.16,332.44" style="stroke:#181818;stroke-width:1.0;"/></g><!--reverse link OAuth2UserInfo to GoogleUserInfo--><g id="link_OAuth2UserInfo_GoogleUserInfo"><path codeLine="88" d="M249,883.88 C249,928.55 249,985.41 249,1027.42 " fill="none" id="OAuth2UserInfo-backto-GoogleUserInfo" style="stroke:#181818;stroke-width:1.0;stroke-dasharray:7.0,7.0;"/><polygon fill="none" points="242,883.93,249,863.93,256,883.93,242,883.93" style="stroke:#181818;stroke-width:1.0;"/></g><!--reverse link AuthenticationEntryPoint to JwtAuthenticationEntryPoint--><g id="link_AuthenticationEntryPoint_JwtAuthenticationEntryPoint"><path codeLine="89" d="M2632.86,327.6 C2600.9,368.32 2545.48,428.53 2481,454 C2452.61,465.22 1410.07,450 1382,462 C1226.2,528.62 1106.69,705.53 1062.53,778.48 " fill="none" id="AuthenticationEntryPoint-backto-JwtAuthenticationEntryPoint" style="stroke:#181818;stroke-width:1.0;stroke-dasharray:7.0,7.0;"/><polygon fill="none" points="2627.28,323.38,2644.93,311.66,2638.44,331.83,2627.28,323.38" style="stroke:#181818;stroke-width:1.0;"/></g><!--reverse link AuthenticationFailureHandler to CustomAuthenticationFailureHandler--><g id="link_AuthenticationFailureHandler_CustomAuthenticationFailureHandler"><path codeLine="90" d="M3237.04,328.5 C3298.14,429.73 3453.82,687.69 3508.58,778.44 " fill="none" id="AuthenticationFailureHandler-backto-CustomAuthenticationFailureHandler" style="stroke:#181818;stroke-width:1.0;stroke-dasharray:7.0,7.0;"/><polygon fill="none" points="3231.11,332.21,3226.77,311.47,3243.1,324.98,3231.11,332.21" style="stroke:#181818;stroke-width:1.0;"/></g><!--reverse link OncePerRequestFilter to JwtRequestFilter--><g id="link_OncePerRequestFilter_JwtRequestFilter"><path codeLine="91" d="M1810,331.62 C1810,428.89 1810,659.4 1810,761.03 " fill="none" id="OncePerRequestFilter-backto-JwtRequestFilter" style="stroke:#181818;stroke-width:1.0;"/><polygon fill="none" points="1803,331.69,1810,311.69,1817,331.69,1803,331.69" style="stroke:#181818;stroke-width:1.0;"/></g><!--reverse link DefaultOAuth2UserService to CustomOAuth2UserService--><g id="link_DefaultOAuth2UserService_CustomOAuth2UserService"><path codeLine="92" d="M2112.14,325.03 C2068.5,365.92 1992.51,428.5 1913,454 C1882.34,463.84 782.06,446.21 754,462 C638.89,526.77 577.63,681.09 552.68,760.9 " fill="none" id="DefaultOAuth2UserService-backto-CustomOAuth2UserService" style="stroke:#181818;stroke-width:1.0;"/><polygon fill="none" points="2107.12,320.14,2126.39,311.33,2116.82,330.24,2107.12,320.14" style="stroke:#181818;stroke-width:1.0;"/></g><!--reverse link UserDetails to CustomUserDetails--><g id="link_UserDetails_CustomUserDetails"><path codeLine="93" d="M3690.66,330.04 C3672.86,370.15 3640.19,427.64 3591,454 C3552.31,474.74 3233.93,439.9 3196,462 C3123.32,504.35 3073.39,583.13 3040.81,655.09 " fill="none" id="UserDetails-backto-CustomUserDetails" style="stroke:#181818;stroke-width:1.0;stroke-dasharray:7.0,7.0;"/><polygon fill="none" points="3684.11,327.55,3698.24,311.77,3697.04,332.92,3684.11,327.55" style="stroke:#181818;stroke-width:1.0;"/></g><!--reverse link OAuth2User to CustomUserDetails--><g id="link_OAuth2User_CustomUserDetails"><path codeLine="94" d="M2432.26,328.96 C2456.15,369.15 2498.18,427.48 2553,454 C2573.72,464.03 2739.96,450.68 2760,462 C2835.35,504.56 2890.25,583.34 2927.38,655.27 " fill="none" id="OAuth2User-backto-CustomUserDetails" style="stroke:#181818;stroke-width:1.0;stroke-dasharray:7.0,7.0;"/><polygon fill="none" points="2426.25,332.56,2422.47,311.71,2438.43,325.65,2426.25,332.56" style="stroke:#181818;stroke-width:1.0;"/></g><!--reverse link UsernamePasswordAuthenticationFilter to JwtAuthenticationFilter--><g id="link_UsernamePasswordAuthenticationFilter_JwtAuthenticationFilter"><path codeLine="95" d="M2905.77,328.61 C2880.97,367.32 2838.79,423.49 2787,454 C2771.76,462.99 2763.46,453.4 2748,462 C2628.19,528.64 2526.1,653.58 2468.42,734.38 " fill="none" id="UsernamePasswordAuthenticationFilter-backto-JwtAuthenticationFilter" style="stroke:#181818;stroke-width:1.0;"/><polygon fill="none" points="2899.72,325.09,2916.17,311.73,2911.64,332.43,2899.72,325.09" style="stroke:#181818;stroke-width:1.0;"/></g><!--reverse link UserDetailsService to CustomUserDetailsService--><g id="link_UserDetailsService_CustomUserDetailsService"><path codeLine="96" d="M3964.93,316.52 C4040.12,343.86 4143.05,391.09 4211,462 C4297.85,552.64 4343.55,698.81 4361.61,769.59 " fill="none" id="UserDetailsService-backto-CustomUserDetailsService" style="stroke:#181818;stroke-width:1.0;stroke-dasharray:7.0,7.0;"/><polygon fill="none" points="3962.96,323.25,3946.43,310.01,3967.61,310.05,3962.96,323.25" style="stroke:#181818;stroke-width:1.0;"/></g><!--SRC=[lLRRSk8m37tFLtXcNs0AVkWpqqvBwMMd5wQTVe1n17NhM5dRAMMsxRUldGiX8K1WT_Q58P8j7Ka-ahXanX2E4OqrlWAtbCafemPueeLTq65YB4PdYNq1PGLdLg0QQtmN8MZoE-YJxC2p0Nq1bWbfda2_2muaMHEvqsFdROuw72cEta9S_GwEIDKLOUKdTAgwhZizGPJ053597AEsfZFqyGnEJxh1Ln04V4TqwCqVUsKQ4Br2d4dmmToeAQRntR5uy6IrKBFUmyIRE27Ckkz9Oi4u19cEpC0MQUbq6yKtOKqnYbnkEks0liujTP7hHOn2MVfpRgkv67dTsEiSw2FoZYBqrY9G73hNriQ-11Bi8_nAmDXUHMHYL0PwDOiV7E8ipL-xyJKzaqiNNgBXcgbGfeybnuMgyTp_WEdJE1NIkbAx5EPUBbD1MkospzXTBlIlox_1Zoo-43EBDyhzA2RR1fRT6humeVPwlLdk7tnUZdq01RBqzK8q0Vq8CHfXKIz8L1EqucHfcqXaeV_JAMLvJEqmhxMB5EOjEag8qFtBwU6phbW4fQH0vIG5wNtuvG4b-5lrYdR7MZ1uY58wgNj3WrC27nPKQCYLPgvyeGyIFV0JpzZYIu2fapn7LnC_vs5qLdkLC6USOwBilN- -iT0GRjJV8dzRKm_T3Sy09ir64oF59XBgUEupB6qxJacL6cDBnbGLTqoncTEm9kb6tlJ9bN6jVkP-6WQ0jH35DG0jATKjA6aIpi6OQI8FihDApLvz2EKk4lMtJhOrjdtA5LgajpWJwXp3HLgatQHoBeHlLrFcIjD-NfPD89-Ntytpy7lJFFnkdeTxTv7zUjxHQgDVjhJpnPAk6QWiyq60UaPDx2LJxRGkOMybbEfJfnisfS4dfGTkMS71vTZXTFloiptgEKpenWraXz_skynk35kpNrj03gX1rK8Z78yY9zw3MxR6otcODyd1Pxz_s4QoFVgyUbmA1vTwQWjNDNe1KvP8kxuDxC2nVPVO3eMZXXH1c36AhhAhLTPNBhIBkl2uykJ_iQU6rrMqXsBODmx5lUhTPE7mN9UbtYyH-Rq_]--></g></svg>