<?xml version="1.0" encoding="us-ascii" standalone="no"?><svg xmlns="http://www.w3.org/2000/svg" xmlns:xlink="http://www.w3.org/1999/xlink" contentStyleType="text/css" height="689px" preserveAspectRatio="none" style="width:884px;height:689px;background:#FFFFFF;" version="1.1" viewBox="0 0 884 689" width="884px" zoomAndPan="magnify"><defs/><g><!--cluster com--><g id="cluster_com"><path d="M8.5,6 L38.5,6 A3.75,3.75 0 0 1 41,8.5 L48,29.6094 L874.5,29.6094 A2.5,2.5 0 0 1 877,32.1094 L877,679.64 A2.5,2.5 0 0 1 874.5,682.14 L8.5,682.14 A2.5,2.5 0 0 1 6,679.64 L6,8.5 A2.5,2.5 0 0 1 8.5,6 " fill="none" style="stroke:#000000;stroke-width:1.5;"/><line style="stroke:#000000;stroke-width:1.5;" x1="6" x2="48" y1="29.6094" y2="29.6094"/><text fill="#000000" font-family="sans-serif" font-size="14" font-weight="bold" lengthAdjust="spacing" textLength="29" x="10" y="22.5332">com</text></g><!--cluster project--><g id="cluster_project"><path d="M32.5,50 L83.5,50 A3.75,3.75 0 0 1 86,52.5 L93,73.6094 L850.5,73.6094 A2.5,2.5 0 0 1 853,76.1094 L853,655.64 A2.5,2.5 0 0 1 850.5,658.14 L32.5,658.14 A2.5,2.5 0 0 1 30,655.64 L30,52.5 A2.5,2.5 0 0 1 32.5,50 " fill="none" style="stroke:#000000;stroke-width:1.5;"/><line style="stroke:#000000;stroke-width:1.5;" x1="30" x2="93" y1="73.6094" y2="73.6094"/><text fill="#000000" font-family="sans-serif" font-size="14" font-weight="bold" lengthAdjust="spacing" textLength="50" x="34" y="66.5332">project</text></g><!--cluster alfa--><g id="cluster_alfa"><path d="M56.5,94 L82.5,94 A3.75,3.75 0 0 1 85,96.5 L92,117.6094 L826.5,117.6094 A2.5,2.5 0 0 1 829,120.1094 L829,631.64 A2.5,2.5 0 0 1 826.5,634.14 L56.5,634.14 A2.5,2.5 0 0 1 54,631.64 L54,96.5 A2.5,2.5 0 0 1 56.5,94 " fill="none" style="stroke:#000000;stroke-width:1.5;"/><line style="stroke:#000000;stroke-width:1.5;" x1="54" x2="92" y1="117.6094" y2="117.6094"/><text fill="#000000" font-family="sans-serif" font-size="14" font-weight="bold" lengthAdjust="spacing" textLength="25" x="58" y="110.5332">alfa</text></g><!--cluster utils--><g id="cluster_utils"><path d="M80.5,138 L111.5,138 A3.75,3.75 0 0 1 114,140.5 L121,161.6094 L802.5,161.6094 A2.5,2.5 0 0 1 805,164.1094 L805,607.64 A2.5,2.5 0 0 1 802.5,610.14 L80.5,610.14 A2.5,2.5 0 0 1 78,607.64 L78,140.5 A2.5,2.5 0 0 1 80.5,138 " fill="none" style="stroke:#000000;stroke-width:1.5;"/><line style="stroke:#000000;stroke-width:1.5;" x1="78" x2="121" y1="161.6094" y2="161.6094"/><text fill="#000000" font-family="sans-serif" font-size="14" font-weight="bold" lengthAdjust="spacing" textLength="30" x="82" y="154.5332">utils</text></g><!--class FileUtil--><g id="elem_FileUtil"><rect codeLine="1" fill="#F1F1F1" height="206.4844" id="FileUtil" rx="2.5" ry="2.5" style="stroke:#181818;stroke-width:0.5;" width="458" x="94" y="174"/><ellipse cx="297.75" cy="190" fill="#ADD1B2" rx="11" ry="11" style="stroke:#181818;stroke-width:1.0;"/><path d="M299.75,186.5 Q299.9531,186 300.1875,185.75 Q300.4219,185.5 300.6875,185.5 Q301.1563,185.5 301.4531,185.7813 Q301.75,186.0625 301.75,186.7188 L301.75,188.2813 Q301.75,188.9375 301.4688,189.2188 Q301.1875,189.5 300.75,189.5 Q300.3594,189.5 300.1094,189.3281 Q299.8594,189.1563 299.75,188.7031 Q299.7031,188.3906 299.5313,188.2188 Q299.2188,187.8906 298.6563,187.7031 Q298.0938,187.5 297.5313,187.5 Q296.8281,187.5 296.2344,187.7813 Q295.6563,188.0625 295.2031,188.6875 Q294.75,189.3125 294.75,190.1719 L294.75,191.0938 Q294.75,192.125 295.5938,192.8125 Q296.4375,193.5 297.9375,193.5 Q298.8281,193.5 299.4531,193.2969 Q299.8125,193.1875 300.2188,192.8281 Q300.4844,192.625 300.625,192.5625 Q300.7656,192.5 300.9375,192.5 Q301.2656,192.5 301.5,192.7656 Q301.75,193.0156 301.75,193.375 Q301.75,193.7188 301.4063,194.125 Q300.9063,194.7188 300.1094,195.0469 Q299.0625,195.5 297.7813,195.5 Q296.2813,195.5 295.0781,194.9063 Q294.1094,194.4375 293.4219,193.4219 Q292.75,192.4063 292.75,191.2031 L292.75,190.1094 Q292.75,188.8594 293.3438,187.7656 Q293.9531,186.6719 295,186.0938 Q296.0625,185.5 297.25,185.5 Q297.9688,185.5 298.5938,185.75 Q299.2188,186 299.75,186.5 Z " fill="#000000"/><text fill="#000000" font-family="sans-serif" font-size="14" lengthAdjust="spacing" textLength="42" x="318.25" y="195.7285">FileUtil</text><line style="stroke:#181818;stroke-width:0.5;" x1="95" x2="551" y1="206" y2="206"/><rect fill="none" height="6" style="stroke:#C82930;stroke-width:1.0;" width="6" x="102" y="217.3047"/><text fill="#000000" font-family="sans-serif" font-size="14" lengthAdjust="spacing" textLength="83" x="114" y="224.5332">String bucket</text><rect fill="none" height="6" style="stroke:#C82930;stroke-width:1.0;" width="6" x="102" y="234.9141"/><text fill="#000000" font-family="sans-serif" font-size="14" lengthAdjust="spacing" textLength="102" x="114" y="242.1426">String uploadDir</text><rect fill="none" height="6" style="stroke:#C82930;stroke-width:1.0;" width="6" x="102" y="252.5234"/><text fill="#000000" font-family="sans-serif" font-size="14" lengthAdjust="spacing" textLength="137" x="114" y="259.752">AmazonS3 amazonS3</text><line style="stroke:#181818;stroke-width:0.5;" x1="95" x2="551" y1="266.8281" y2="266.8281"/><ellipse cx="105" cy="281.1328" fill="#84BE84" rx="3" ry="3" style="stroke:#038048;stroke-width:1.0;"/><text fill="#000000" font-family="sans-serif" font-size="14" lengthAdjust="spacing" textLength="296" x="114" y="285.3613">List&lt;UploadFile&gt; storeFiles(List&lt;MultipartFile&gt;)</text><ellipse cx="105" cy="298.7422" fill="#84BE84" rx="3" ry="3" style="stroke:#038048;stroke-width:1.0;"/><text fill="#000000" font-family="sans-serif" font-size="14" lengthAdjust="spacing" textLength="213" x="114" y="302.9707">UploadFile storeFile(MultipartFile)</text><ellipse cx="105" cy="316.3516" fill="#84BE84" rx="3" ry="3" style="stroke:#038048;stroke-width:1.0;"/><text fill="#000000" font-family="sans-serif" font-size="14" lengthAdjust="spacing" textLength="214" x="114" y="320.5801">void deleteFiles(List&lt;UploadFile&gt;)</text><ellipse cx="105" cy="333.9609" fill="#84BE84" rx="3" ry="3" style="stroke:#038048;stroke-width:1.0;"/><text fill="#000000" font-family="sans-serif" font-size="14" lengthAdjust="spacing" textLength="169" x="114" y="338.1895">void deleteFile(UploadFile)</text><ellipse cx="105" cy="351.5703" fill="#84BE84" rx="3" ry="3" style="stroke:#038048;stroke-width:1.0;"/><text fill="#000000" font-family="sans-serif" font-size="14" lengthAdjust="spacing" textLength="432" x="114" y="355.7988">Resource readAttachmentFileAsResource(AttachmentResponseDto)</text><rect fill="#F24D5C" height="6" style="stroke:#C82930;stroke-width:1.0;" width="6" x="102" y="366.1797"/><text fill="#000000" font-family="sans-serif" font-size="14" lengthAdjust="spacing" textLength="237" x="114" y="373.4082">String generateStoreFilename(String)</text></g><!--class RandomGenerator--><g id="elem_RandomGenerator"><rect codeLine="14" fill="#F1F1F1" height="206.4844" id="RandomGenerator" rx="2.5" ry="2.5" style="stroke:#181818;stroke-width:0.5;" width="201" x="587.5" y="174"/><ellipse cx="625.45" cy="190" fill="#ADD1B2" rx="11" ry="11" style="stroke:#181818;stroke-width:1.0;"/><path d="M627.45,186.5 Q627.6531,186 627.8875,185.75 Q628.1219,185.5 628.3875,185.5 Q628.8563,185.5 629.1531,185.7813 Q629.45,186.0625 629.45,186.7188 L629.45,188.2813 Q629.45,188.9375 629.1688,189.2188 Q628.8875,189.5 628.45,189.5 Q628.0594,189.5 627.8094,189.3281 Q627.5594,189.1563 627.45,188.7031 Q627.4031,188.3906 627.2313,188.2188 Q626.9188,187.8906 626.3563,187.7031 Q625.7938,187.5 625.2313,187.5 Q624.5281,187.5 623.9344,187.7813 Q623.3563,188.0625 622.9031,188.6875 Q622.45,189.3125 622.45,190.1719 L622.45,191.0938 Q622.45,192.125 623.2938,192.8125 Q624.1375,193.5 625.6375,193.5 Q626.5281,193.5 627.1531,193.2969 Q627.5125,193.1875 627.9188,192.8281 Q628.1844,192.625 628.325,192.5625 Q628.4656,192.5 628.6375,192.5 Q628.9656,192.5 629.2,192.7656 Q629.45,193.0156 629.45,193.375 Q629.45,193.7188 629.1063,194.125 Q628.6063,194.7188 627.8094,195.0469 Q626.7625,195.5 625.4813,195.5 Q623.9813,195.5 622.7781,194.9063 Q621.8094,194.4375 621.1219,193.4219 Q620.45,192.4063 620.45,191.2031 L620.45,190.1094 Q620.45,188.8594 621.0438,187.7656 Q621.6531,186.6719 622.7,186.0938 Q623.7625,185.5 624.95,185.5 Q625.6688,185.5 626.2938,185.75 Q626.9188,186 627.45,186.5 Z " fill="#000000"/><text fill="#000000" font-family="sans-serif" font-size="14" lengthAdjust="spacing" textLength="118" x="644.55" y="195.7285">RandomGenerator</text><line style="stroke:#181818;stroke-width:0.5;" x1="588.5" x2="787.5" y1="206" y2="206"/><rect fill="none" height="6" style="stroke:#C82930;stroke-width:1.0;" width="6" x="595.5" y="217.3047"/><text fill="#000000" font-family="sans-serif" font-size="14" lengthAdjust="spacing" text-decoration="underline" textLength="117" x="607.5" y="224.5332">Random RANDOM</text><rect fill="none" height="6" style="stroke:#C82930;stroke-width:1.0;" width="6" x="595.5" y="234.9141"/><text fill="#000000" font-family="sans-serif" font-size="14" lengthAdjust="spacing" text-decoration="underline" textLength="79" x="607.5" y="242.1426">String NUMS</text><rect fill="none" height="6" style="stroke:#C82930;stroke-width:1.0;" width="6" x="595.5" y="252.5234"/><text fill="#000000" font-family="sans-serif" font-size="14" lengthAdjust="spacing" text-decoration="underline" textLength="114" x="607.5" y="259.752">String UP_CHARS</text><rect fill="none" height="6" style="stroke:#C82930;stroke-width:1.0;" width="6" x="595.5" y="270.1328"/><text fill="#000000" font-family="sans-serif" font-size="14" lengthAdjust="spacing" text-decoration="underline" textLength="128" x="607.5" y="277.3613">String LOW_CHARS</text><rect fill="none" height="6" style="stroke:#C82930;stroke-width:1.0;" width="6" x="595.5" y="287.7422"/><text fill="#000000" font-family="sans-serif" font-size="14" lengthAdjust="spacing" text-decoration="underline" textLength="114" x="607.5" y="294.9707">String SP_CHARS</text><line style="stroke:#181818;stroke-width:0.5;" x1="588.5" x2="787.5" y1="302.0469" y2="302.0469"/><ellipse cx="598.5" cy="316.3516" fill="#84BE84" rx="3" ry="3" style="stroke:#038048;stroke-width:1.0;"/><text fill="#000000" font-family="sans-serif" font-size="14" lengthAdjust="spacing" text-decoration="underline" textLength="151" x="607.5" y="320.5801">String randomString(int)</text><ellipse cx="598.5" cy="333.9609" fill="#84BE84" rx="3" ry="3" style="stroke:#038048;stroke-width:1.0;"/><text fill="#000000" font-family="sans-serif" font-size="14" lengthAdjust="spacing" text-decoration="underline" textLength="175" x="607.5" y="338.1895">String randomPassword(int)</text><ellipse cx="598.5" cy="351.5703" fill="#84BE84" rx="3" ry="3" style="stroke:#038048;stroke-width:1.0;"/><text fill="#000000" font-family="sans-serif" font-size="14" lengthAdjust="spacing" text-decoration="underline" textLength="160" x="607.5" y="355.7988">int randomNumber(int,int)</text><ellipse cx="598.5" cy="369.1797" fill="#84BE84" rx="3" ry="3" style="stroke:#038048;stroke-width:1.0;"/><text fill="#000000" font-family="sans-serif" font-size="14" lengthAdjust="spacing" text-decoration="underline" textLength="158" x="607.5" y="373.4082">String randomHangul(int)</text></g><!--class EmailSender--><g id="elem_EmailSender"><rect codeLine="27" fill="#F1F1F1" height="153.6563" id="EmailSender" rx="2.5" ry="2.5" style="stroke:#181818;stroke-width:0.5;" width="378" x="134" y="440.48"/><ellipse cx="278.75" cy="456.48" fill="#ADD1B2" rx="11" ry="11" style="stroke:#181818;stroke-width:1.0;"/><path d="M280.75,452.98 Q280.9531,452.48 281.1875,452.23 Q281.4219,451.98 281.6875,451.98 Q282.1563,451.98 282.4531,452.2612 Q282.75,452.5425 282.75,453.1987 L282.75,454.7612 Q282.75,455.4175 282.4688,455.6987 Q282.1875,455.98 281.75,455.98 Q281.3594,455.98 281.1094,455.8081 Q280.8594,455.6362 280.75,455.1831 Q280.7031,454.8706 280.5313,454.6987 Q280.2188,454.3706 279.6563,454.1831 Q279.0938,453.98 278.5313,453.98 Q277.8281,453.98 277.2344,454.2612 Q276.6563,454.5425 276.2031,455.1675 Q275.75,455.7925 275.75,456.6519 L275.75,457.5737 Q275.75,458.605 276.5938,459.2925 Q277.4375,459.98 278.9375,459.98 Q279.8281,459.98 280.4531,459.7769 Q280.8125,459.6675 281.2188,459.3081 Q281.4844,459.105 281.625,459.0425 Q281.7656,458.98 281.9375,458.98 Q282.2656,458.98 282.5,459.2456 Q282.75,459.4956 282.75,459.855 Q282.75,460.1987 282.4063,460.605 Q281.9063,461.1987 281.1094,461.5269 Q280.0625,461.98 278.7813,461.98 Q277.2813,461.98 276.0781,461.3862 Q275.1094,460.9175 274.4219,459.9019 Q273.75,458.8862 273.75,457.6831 L273.75,456.5894 Q273.75,455.3394 274.3438,454.2456 Q274.9531,453.1519 276,452.5737 Q277.0625,451.98 278.25,451.98 Q278.9688,451.98 279.5938,452.23 Q280.2188,452.48 280.75,452.98 Z " fill="#000000"/><text fill="#000000" font-family="sans-serif" font-size="14" lengthAdjust="spacing" textLength="80" x="299.25" y="462.2085">EmailSender</text><line style="stroke:#181818;stroke-width:0.5;" x1="135" x2="511" y1="472.48" y2="472.48"/><rect fill="none" height="6" style="stroke:#C82930;stroke-width:1.0;" width="6" x="142" y="483.7847"/><text fill="#000000" font-family="sans-serif" font-size="14" lengthAdjust="spacing" textLength="121" x="154" y="491.0132">String fromAddress</text><rect fill="none" height="6" style="stroke:#C82930;stroke-width:1.0;" width="6" x="142" y="501.3941"/><text fill="#000000" font-family="sans-serif" font-size="14" lengthAdjust="spacing" textLength="57" x="154" y="508.6226">String url</text><rect fill="none" height="6" style="stroke:#C82930;stroke-width:1.0;" width="6" x="142" y="519.0034"/><text fill="#000000" font-family="sans-serif" font-size="14" lengthAdjust="spacing" textLength="175" x="154" y="526.232">JavaMailSender mailSender</text><line style="stroke:#181818;stroke-width:0.5;" x1="135" x2="511" y1="533.3081" y2="533.3081"/><ellipse cx="145" cy="547.6128" fill="#84BE84" rx="3" ry="3" style="stroke:#038048;stroke-width:1.0;"/><text fill="#000000" font-family="sans-serif" font-size="14" lengthAdjust="spacing" textLength="352" x="154" y="551.8413">void sendVerificationEmail(String,String,LocalDateTime)</text><ellipse cx="145" cy="565.2222" fill="#84BE84" rx="3" ry="3" style="stroke:#038048;stroke-width:1.0;"/><text fill="#000000" font-family="sans-serif" font-size="14" lengthAdjust="spacing" textLength="281" x="154" y="569.4507">void sendPasswordResetEmail(String,String)</text><rect fill="#F24D5C" height="6" style="stroke:#C82930;stroke-width:1.0;" width="6" x="142" y="579.8316"/><text fill="#000000" font-family="sans-serif" font-size="14" lengthAdjust="spacing" textLength="297" x="154" y="587.0601">SimpleMailMessage createMailMessage(String)</text></g><!--SRC=[XL9DJ-D03BtdLymn5T0BrzLA4OL5g6bHG-68t1ctExlp4NaSLbh4VsVofGcYXLDil_Tin_EaWH24z7PUa_-3akTWzZ1lM9imlz46jp4Ihzc5g9YqEuXT8_yYfxofZGUrq1HBXON_tbMN0eOWEnDB7VZ7jYErxNwAm9wm3KFUOMLZMDT0tC6pA4diHCu_q5hMYzTAA3J8qswJIKT8UO9RT8F1DoHH488gc47-jkYw2KKOmJm1iLHx5t31VfOkS42718pLkAi3YtaFphAtBClaLqVUW5FU_kgRUEfk_HeOMCitqODYKwmMwt8A3BDNsx8wKjxUFr_T5fjZq7BzT1AhHjdP9uYwHVearuvd9pdtyL__ULAVM34VAAl6xf1QmlcNhMx17HhJD_hsZjSMjAdGAQIfN_VaRQ4KOGWJqvA9oHsyG9b4IJyQ9yJi4KdljOpRUTUD65xsVFWilGIpYC__e6toPQiS3n5TWtn4sbb8szfWkqGP5uG32XczoDFAr4dl]--></g></svg>